<?xml version="1.0" encoding="UTF-8"?>
<svg width="52px" height="36px" viewBox="0 0 52 36" version="1.1" xmlns="http://www.w3.org/2000/svg" xmlns:xlink="http://www.w3.org/1999/xlink">
    <!-- Generator: Sketch 47.1 (45422) - http://www.bohemiancoding.com/sketch -->
    <title>Group</title>
    <desc>Created with Sketch.</desc>
    <defs></defs>
    <g id="Page-1" stroke="none" stroke-width="1" fill="none" fill-rule="evenodd">
        <g id="1024" transform="translate(-90.000000, -149.000000)" fill="#000000">
            <g id="Group" transform="translate(90.000000, 149.000000)">
                <path d="M7.85249712,0.668335587 C8.84703183,0.28667773 10.0014956,0.045544442 11.3416062,0 C13.3150278,0 14.9450771,0.537492946 16.2387832,1.40465011 C19.7009384,3.20623153 22.0606061,6.79005079 22.0606061,10.9170537 C22.0606061,13.5019811 21.5327696,15.5407839 20.4447404,17.6854678 C20.3033757,17.9641207 20.1584647,18.2238129 20.0102271,18.4658082 C19.8989379,18.7351345 19.7748258,19.0059792 19.6368076,19.2780358 C17.2130091,24.0557399 11.8420102,31.3875735 1.33430661,36 L0,34.5205479 C0,34.5205479 6.0779861,30.0990967 7.71973018,21.1233399 C3.37830198,19.7052684 0.246419515,15.6716329 0.246419515,10.9170537 C0.246419515,6.11414349 3.44229781,2.04690842 7.85249712,0.668335587 Z" id="Combined-Shape" transform="translate(11.030303, 18.000000) rotate(-180.000000) translate(-11.030303, -18.000000) "></path>
                <path d="M37.7918911,0.668335587 C38.7864258,0.28667773 39.9408895,0.045544442 41.2810001,0 C43.2544217,0 44.8844711,0.537492946 46.1781772,1.40465011 C49.6403323,3.20623153 52,6.79005079 52,10.9170537 C52,13.5019811 51.4721636,15.5407839 50.3841343,17.6854678 C50.2427697,17.9641207 50.0978587,18.2238129 49.949621,18.4658082 C49.8383318,18.7351345 49.7142197,19.0059792 49.5762015,19.2780358 C47.152403,24.0557399 41.7814042,31.3875735 31.2737006,36 L29.9393939,34.5205479 C29.9393939,34.5205479 36.01738,30.0990967 37.6591241,21.1233399 C33.3176959,19.7052684 30.1858135,15.6716329 30.1858135,10.9170537 C30.1858135,6.11414349 33.3816917,2.04690842 37.7918911,0.668335587 Z" id="Combined-Shape-Copy" transform="translate(40.969697, 18.000000) rotate(-180.000000) translate(-40.969697, -18.000000) "></path>
            </g>
        </g>
    </g>
</svg>