<?xml version="1.0" encoding="UTF-8"?>
<svg width="165px" height="11px" viewBox="0 0 165 11" version="1.1" xmlns="http://www.w3.org/2000/svg" xmlns:xlink="http://www.w3.org/1999/xlink">
    <!-- Generator: Sketch 47.1 (45422) - http://www.bohemiancoding.com/sketch -->
    <title>Page 1</title>
    <desc>Created with Sketch.</desc>
    <defs>
        <polygon id="path-1" points="8.96891538 0.0667333333 0.109107692 0.0667333333 0.109107692 10.9998533 8.96891538 10.9998533 8.96891538 0.0667333333"></polygon>
    </defs>
    <g id="Page-1" stroke="none" stroke-width="1" fill="none" fill-rule="evenodd">
        <g id="1024" transform="translate(-41.000000, -28.000000)">
            <g id="Page-1" transform="translate(41.000000, 28.000000)">
                <path d="M72,5 C72,2.23859673 74.2386733,0 76.999829,0 C79.7613267,0 82,2.23859673 82,5 C82,7.76140327 79.7613267,10 76.999829,10 C74.2386733,10 72,7.76140327 72,5" id="Fill-1" fill="#231F20"></path>
                <path d="M52,5 C52,2.23859673 54.2385967,0 57,0 C59.7614033,0 62,2.23859673 62,5 C62,7.76140327 59.7614033,10 57,10 C54.2385967,10 52,7.76140327 52,5" id="Fill-3" fill="#231F20"></path>
                <path d="M31,5 C31,2.23859673 33.2386733,0 36.000171,0 C38.7616687,0 41,2.23859673 41,5 C41,7.76140327 38.7616687,10 36.000171,10 C33.2386733,10 31,7.76140327 31,5" id="Fill-5" fill="#231F20"></path>
                <path d="M0,5 C0,2.23859673 2.23867328,0 4.99982903,0 C7.76132672,0 10,2.23859673 10,5 C10,7.76140327 7.76132672,10 4.99982903,10 C2.23867328,10 0,7.76140327 0,5" id="Fill-7" fill="#231F20"></path>
                <g id="Group-11" transform="translate(124.000000, 0.000000)">
                    <mask id="mask-2" fill="white">
                        <use xlink:href="#path-1"></use>
                    </mask>
                    <g id="Clip-10"></g>
                    <path d="M0.649107692,8.65392 C1.35872308,9.45068667 2.63672308,10.0373533 3.91437692,10.0373533 C6.11487692,10.0373533 7.73383846,8.26305333 7.91833846,5.97688667 L2.29576154,5.97688667 L2.29576154,5.07452 L7.93218462,5.07452 C7.79026154,2.74325333 6.14360769,1.02908667 3.92891538,1.02908667 C2.83506923,1.02908667 1.72806923,1.45002 0.861646154,2.23212 L0.336876923,1.45002 C1.23133846,0.53262 2.63672308,0.0665866667 3.94276154,0.0665866667 C6.88160769,0.0665866667 8.96891538,2.41252 8.96891538,5.46538667 C8.96891538,8.54868667 6.83937692,10.9998533 3.91437692,10.9998533 C2.4948,10.9998533 1.06068462,10.4135533 0.109107692,9.39055333 L0.649107692,8.65392 Z" id="Fill-9" fill="#231F20" mask="url(#mask-2)"></path>
                </g>
                <polygon id="Fill-12" fill="#231F20" points="137.512212 1.88226114 134 1.88226114 134 1 142 1 142 1.88226114 138.473856 1.88226114 138.473856 11 137.512212 11"></polygon>
                <path d="M149.330386,6.96046471 L147.927146,3.33327553 C147.743791,2.8637073 147.515063,2.02479625 147.515063,2.02479625 L147.484565,2.02479625 C147.484565,2.02479625 147.255837,2.8637073 147.072854,3.33327553 L145.653994,6.96046471 L149.330386,6.96046471 Z M146.935617,1 L148.064383,1 L152,11 L150.886855,11 L149.650977,7.81359459 L145.333774,7.81359459 L144.113517,11 L143,11 L146.935617,1 Z" id="Fill-14" fill="#231F20"></path>
                <polygon id="Fill-16" fill="#231F20" points="156.111071 5.75117045 156.111071 5.72273279 153.207332 1 154.362832 1 156.985191 5.33882435 158.481308 5.33882435 158.481308 1 159.503883 1 159.503883 5.33882435 161.014809 5.33882435 163.637529 1 164.777858 1 161.87412 5.72273279 161.87412 5.75117045 165 11 163.829691 11 161.014809 6.22073869 159.503883 6.22073869 159.503883 11 158.481308 11 158.481308 6.22073869 156.985191 6.22073869 154.170309 11 153 11"></polygon>
                <path d="M103,9.11776974 L105.488359,9.11776974 L105.488359,1.77836485 C105.488359,1.49367353 105.503752,1.22358176 105.503752,1.22358176 L105.47258,1.22358176 C105.47258,1.22358176 105.362132,1.42241379 104.921108,1.82077308 L103.740427,2.87367909 L103.047335,2.24728865 L105.551087,0 L106.558976,0 L106.558976,9.11776974 L109,9.11776974 L109,10 L103,10 L103,9.11776974 Z" id="Fill-18" fill="#231F20"></path>
                <path d="M111.66315,7.91585495 C112.264506,8.51737927 113.312735,9.06285246 114.438206,9.06285246 C115.73361,9.06285246 116.905049,8.20978161 116.905049,6.95136539 C116.905049,5.56649236 115.594951,4.85320756 114.191786,4.85320756 L113.435946,4.85320756 L113.174077,4.28005058 L115.887717,1.39854404 C116.180482,1.09128815 116.458553,0.853412625 116.458553,0.853412625 L116.458553,0.82538706 C116.458553,0.82538706 116.149586,0.867425408 115.579503,0.867425408 L111.509043,0.867425408 L111.509043,0 L117.845516,0 L117.845516,0.643562664 L114.62321,4.02816227 C115.980407,4.08387163 118,4.79715643 118,6.92299805 C118,8.60145596 116.489073,10 114.438206,10 C113.174077,10 111.894122,9.49656516 111,8.65750709 L111.66315,7.91585495 Z" id="Fill-20" fill="#231F20"></path>
            </g>
        </g>
    </g>
</svg>