<svg xmlns="http://www.w3.org/2000/svg" width="92" height="25" viewBox="0 0 92 25">
  <metadata><?xpacket begin="﻿" id="W5M0MpCehiHzreSzNTczkc9d"?>
<x:xmpmeta xmlns:x="adobe:ns:meta/" x:xmptk="Adobe XMP Core 5.6-c138 79.159824, 2016/09/14-01:09:01        ">
   <rdf:RDF xmlns:rdf="http://www.w3.org/1999/02/22-rdf-syntax-ns#">
      <rdf:Description rdf:about=""/>
   </rdf:RDF>
</x:xmpmeta>
                                                                                                    
                                                                                                    
                                                                                                    
                                                                                                    
                                                                                                    
                                                                                                    
                                                                                                    
                                                                                                    
                                                                                                    
                                                                                                    
                                                                                                    
                                                                                                    
                                                                                                    
                                                                                                    
                                                                                                    
                                                                                                    
                                                                                                    
                                                                                                    
                                                                                                    
                                                                                                    
                           
<?xpacket end="w"?></metadata>
<defs>
    <style>
      .cls-1 {
        fill: #3a405b;
        fill-rule: evenodd;
      }
    </style>
  </defs>
  <path id="Portland" class="cls-1" d="M1.037,24.425a1.732,1.732,0,0,0,.884.238,1.884,1.884,0,0,0,1.346-.409,3.01,3.01,0,0,0,.686-1.1,13.849,13.849,0,0,0,.515-1.518q0.251-.885.488-1.9t0.449-2.072q0.211-1.056.422-2.059a12.073,12.073,0,0,0,4.594-1.083,12.521,12.521,0,0,0,3.406-2.31,10.757,10.757,0,0,0,2.191-2.97,9.252,9.252,0,0,0,.95-3.089,7.549,7.549,0,0,0-.079-1.847,5.75,5.75,0,0,0-.7-2.007A4.683,4.683,0,0,0,14.634.691a4.855,4.855,0,0,0-2.68-.66A13.54,13.54,0,0,0,8.918.347a14.658,14.658,0,0,0-2.4.753,11.637,11.637,0,0,0-1.729.884q-0.7.45-1.043,0.687a1.2,1.2,0,0,0-.66.871,2.18,2.18,0,0,0,.158.818,2.081,2.081,0,0,0,.185.343,2.2,2.2,0,0,0,.528.634q0.449-.475.924-0.911c0.317-.291.616-0.549,0.9-0.779a9.212,9.212,0,0,1,.977-0.713q-0.185.661-.5,1.848T5.539,7.436Q5.143,8.9,4.72,10.525T3.889,13.68q-0.41,1.531-.752,2.878T2.582,18.775a21.192,21.192,0,0,1-.766,2.587,9.765,9.765,0,0,1-.673,1.452,2.808,2.808,0,0,1-.528.686c-0.149.122-.26,0.211-0.33,0.264A2.766,2.766,0,0,0,1.037,24.425ZM6.991,9.694q0.238-1.083.647-2.8T8.68,2.618a0.99,0.99,0,0,0-.238-0.449,0.52,0.52,0,0,0-.185-0.132,9.272,9.272,0,0,1,1.267-.475,4.62,4.62,0,0,1,1.294-.185,4.4,4.4,0,0,1,1.373.225,2.975,2.975,0,0,1,1.214.765,3.506,3.506,0,0,1,.805,1.425A5.6,5.6,0,0,1,14.356,6a8.728,8.728,0,0,1-.594,2.5A8.579,8.579,0,0,1,12.614,10.5,9.441,9.441,0,0,1,11.1,12.057a11.382,11.382,0,0,1-1.7,1.148,9.94,9.94,0,0,1-1.742.752,10.206,10.206,0,0,1-1.584.383q0.158-.845.277-1.518t0.2-1.1q0.158-.765.449-2.032h0ZM26.052,15q0.871-.528,1.61-1.083t1.28-1.03a7.938,7.938,0,0,0,.673-0.634,1.327,1.327,0,0,0,.29-0.528,0.5,0.5,0,0,0-.026-0.37,0.241,0.241,0,0,0-.264-0.105,0.947,0.947,0,0,0-.449.264,8.031,8.031,0,0,1-.845.713q-0.528.4-1.148,0.779t-1.28.727a13.212,13.212,0,0,1-1.267.58q0.026-.211.053-0.515c0.017-.2.026-0.374,0.026-0.515a3.968,3.968,0,0,0-1.175-2.957,3.657,3.657,0,0,0-1-.713,2.646,2.646,0,0,0-.858-0.264c-0.053-.017-0.1-0.035-0.145-0.053a0.384,0.384,0,0,0-.145-0.027,4.213,4.213,0,0,0-.977.119,4.1,4.1,0,0,0-.937.343,2.888,2.888,0,0,0-.765.567,2.175,2.175,0,0,0-.489.792,6.231,6.231,0,0,0-.779,1.161,8.663,8.663,0,0,0-.541,1.268,9.933,9.933,0,0,0-.33,1.241,5.815,5.815,0,0,0-.119,1.108q0,0.713.066,1.532a4.61,4.61,0,0,0,.37,1.5,2.842,2.842,0,0,0,.924,1.148,2.8,2.8,0,0,0,1.7.462,4.048,4.048,0,0,0,1.7-.356,4.67,4.67,0,0,0,1.4-.99,6.185,6.185,0,0,0,1.069-1.5,9.191,9.191,0,0,0,.713-1.875A8.263,8.263,0,0,0,26.052,15Zm-5.267-4a1.843,1.843,0,0,1,.964-0.277A0.675,0.675,0,0,1,22.29,11a2.27,2.27,0,0,1,.37.713,4.475,4.475,0,0,1,.2.963,5.048,5.048,0,0,1,0,1.03,2.157,2.157,0,0,1-.066.488c-0.044.185-.092,0.392-0.145,0.62-0.088.018-.176,0.031-0.264,0.04a2.571,2.571,0,0,1-.264.013,2.709,2.709,0,0,1-1.28-.251A1.653,1.653,0,0,1,20.164,14a2.142,2.142,0,0,1-.264-0.832,7.728,7.728,0,0,1-.053-0.884,1.575,1.575,0,0,1,.079-0.5A3.212,3.212,0,0,1,20.785,11Zm-2.442,4.422q0.105-.527.264-1.082a3.913,3.913,0,0,0,1.122,1.518,2.645,2.645,0,0,0,1.729.594c0.141,0,.268,0,0.383-0.013s0.233-.021.356-0.039a7.358,7.358,0,0,1-.436.964,4.372,4.372,0,0,1-.568.819,2.793,2.793,0,0,1-.713.581,1.738,1.738,0,0,1-.871.224,1.023,1.023,0,0,1-.686-0.224,1.6,1.6,0,0,1-.422-0.581,2.788,2.788,0,0,1-.211-0.819,8.194,8.194,0,0,1-.053-0.937A5.115,5.115,0,0,1,18.343,15.422Zm8.276,3.788,0.805-1.32q0.475-.778,1.016-1.676t1.03-1.716q0.488-.818.858-1.426t0.475-.792a2.853,2.853,0,0,1,.449.158,1.42,1.42,0,0,0,.581.106q0.238,0,.356-0.013a1.821,1.821,0,0,1,.185-0.013,0.654,0.654,0,0,0,.132-0.013,1.333,1.333,0,0,1,.224-0.013,0.366,0.366,0,0,1,.343.184,0.842,0.842,0,0,1,.105.422,2.1,2.1,0,0,1-.277.911q-0.277.541-.726,1.307-0.185.37-.409,0.753t-0.422.765q-0.2.383-.343,0.739a2.288,2.288,0,0,0-.172.673,2.715,2.715,0,0,0,.092.858,2.481,2.481,0,0,0,.4.845,2.364,2.364,0,0,0,.726.647,2.22,2.22,0,0,0,1.135.264,2.9,2.9,0,0,0,1.386-.4,8.556,8.556,0,0,0,1.452-1.017A13.525,13.525,0,0,0,37.4,18.075q0.66-.752,1.2-1.465t0.924-1.293q0.382-.581.541-0.845a1.012,1.012,0,0,0,.2-0.633,0.4,0.4,0,0,0-.2-0.317,0.447,0.447,0,0,0-.37,0,0.682,0.682,0,0,0-.343.29q-0.158.211-.488,0.687t-0.805,1.069q-0.475.594-1.03,1.214a15.377,15.377,0,0,1-1.122,1.135,7.467,7.467,0,0,1-1.109.845,1.941,1.941,0,0,1-.99.33,0.872,0.872,0,0,1-.739-0.211,1.458,1.458,0,0,1-.185-0.554,2.047,2.047,0,0,1,.317-1.188,13.962,13.962,0,0,1,.739-1.188q0.607-.845,1.03-1.558a2.168,2.168,0,0,0,.343-1.373,4.7,4.7,0,0,0-.119-0.7,2.817,2.817,0,0,0-.277-0.712,1.809,1.809,0,0,0-.475-0.554,1.172,1.172,0,0,0-.739-0.224,2,2,0,0,0-.541.053,2.291,2.291,0,0,1-.594.053,1,1,0,0,1-.422-0.066,1.873,1.873,0,0,1-.211-0.118,2.536,2.536,0,0,0,.4-0.95,2.588,2.588,0,0,0,.053-0.871,2.247,2.247,0,0,0-.356-0.977,1.142,1.142,0,0,0-1.043-.475,1.268,1.268,0,0,0-.818.37,4.421,4.421,0,0,0-.766.885A5.342,5.342,0,0,0,28.85,9.8a1.844,1.844,0,0,0-.158.9,1.056,1.056,0,0,0,.158.515q0.105,0.119.4,0.383-0.158.29-.5,0.938T27.992,14q-0.41.819-.858,1.729L26.3,17.416q-0.383.778-.66,1.333l-0.356.713a0.79,0.79,0,0,0-.106.528,0.37,0.37,0,0,0,.224.277,0.527,0.527,0,0,0,.4-0.026,0.931,0.931,0,0,0,.409-0.383Q26.289,19.753,26.619,19.211Zm20.764-5.174q-0.4.514-.924,1.148t-1.148,1.293q-0.621.66-1.228,1.215a6.951,6.951,0,0,1-1.175.884,1.574,1.574,0,0,1-.964.277,1.373,1.373,0,0,1-.845-0.316,2,2,0,0,1-.488-0.858,4.007,4.007,0,0,1-.04-1.729q0.686-1.584,1.241-2.983t0.95-2.482q0.448-1.24.792-2.3a7.615,7.615,0,0,0,.251-0.858Q43.9,6.921,44,6.5q0.211,0,.409-0.013c0.132-.009.251-0.013,0.356-0.013q0.845,0,1.478.053t1.1,0.105a7.026,7.026,0,0,1,.792.132,4.315,4.315,0,0,0,.594.106A0.571,0.571,0,0,0,49.2,6.763a0.906,0.906,0,0,0,.3-0.383,0.979,0.979,0,0,0,.079-0.436,0.263,0.263,0,0,0-.2-0.264q-0.185-.053-0.554-0.2a7.58,7.58,0,0,0-.977-0.29q-0.608-.146-1.465-0.264a14.417,14.417,0,0,0-1.967-.119,14.261,14.261,0,0,0,.29-2.217,2.476,2.476,0,0,0-.106-1.082,0.64,0.64,0,0,0-.422-0.2,2.329,2.329,0,0,0-.607,0,3.085,3.085,0,0,0-.594.132,0.642,0.642,0,0,0-.356.224,5.718,5.718,0,0,0-.594,1.307q-0.33.937-.673,2.2-0.449.08-.911,0.132T39.49,5.39a11.873,11.873,0,0,1-1.267-.013q-0.58-.04-1.082-0.092a0.63,0.63,0,0,0-.356.145,1.37,1.37,0,0,0-.33.343,0.943,0.943,0,0,0-.158.4,0.283,0.283,0,0,0,.185.3,6.8,6.8,0,0,0,2.719.58A7.056,7.056,0,0,0,40.018,7l0.9-.106q-0.37,1.532-.7,3.181t-0.594,3.089Q39.357,14.6,39.2,15.7t-0.185,1.518a3.4,3.4,0,0,0,.079,1.1,3.254,3.254,0,0,0,.462,1.1,2.73,2.73,0,0,0,.911.845,2.821,2.821,0,0,0,1.452.343,2.765,2.765,0,0,0,1.5-.66,13.59,13.59,0,0,0,1.848-1.677,24.411,24.411,0,0,0,1.809-2.178,17.134,17.134,0,0,0,1.386-2.165,1.051,1.051,0,0,0,.145-0.5,0.344,0.344,0,0,0-.119-0.264,0.322,0.322,0,0,0-.277-0.039,0.444,0.444,0,0,0-.277.2Q47.779,13.522,47.383,14.037ZM46.2,20.029a1.777,1.777,0,0,0,.317.278,1.685,1.685,0,0,0,.37.158,3.3,3.3,0,0,0,.4.026,1.282,1.282,0,0,0,.343-0.053,0.735,0.735,0,0,0,.317-0.185q1.214-4.779,2.02-7.92t1.28-4.963q0.554-2.138.871-3.273,0.132-.58.238-1.083,0.052-.422.066-0.818a0.648,0.648,0,0,0-.145-0.528A0.3,0.3,0,0,0,52.03,1.5a1.9,1.9,0,0,0-.4-0.04,3.039,3.039,0,0,0-.528.053c-0.194.036-.387,0.079-0.581,0.132q-0.238.053-.488,0.132a2.03,2.03,0,0,0-.462.211,3.923,3.923,0,0,1,.079.819,7.037,7.037,0,0,1-.053.871q-0.053.475-.132,0.976-0.158.713-.581,2.561-0.37,1.558-1.069,4.514t-1.861,7.841A1.091,1.091,0,0,0,46.2,20.029Zm20-6.032a0.629,0.629,0,0,0-.04-0.475,0.285,0.285,0,0,0-.317-0.119,0.781,0.781,0,0,0-.422.277q-0.158.211-.515,0.66t-0.805,1.03q-0.449.581-.964,1.2t-0.99,1.134a7.693,7.693,0,0,1-.9.845,1.255,1.255,0,0,1-.686.33,0.733,0.733,0,0,1-.488-0.145,0.827,0.827,0,0,1-.251-0.383,1.9,1.9,0,0,1-.092-0.515,3.207,3.207,0,0,1,.013-0.515q0.079-.4.132-0.66l0.092-.462,0.079-.4q0.04-.2.092-0.436,0.264-1.214.422-1.98t0.238-1.214a4.277,4.277,0,0,0,.079-0.621,0.607,0.607,0,0,0-.026-0.224,0.56,0.56,0,0,0-.211-0.026c-0.088,0-.216.009-0.383,0.026a6.171,6.171,0,0,0-.62.105,1.894,1.894,0,0,0,.436-1.36A1.264,1.264,0,0,0,59.58,9.3a3.211,3.211,0,0,0-1.162-.422,2.964,2.964,0,0,0-1.531.422,7.808,7.808,0,0,0-1.874,1.413,11.716,11.716,0,0,0-1.756,2.257A9.778,9.778,0,0,0,52.083,15.9a6.334,6.334,0,0,0-.211,2.046,3.685,3.685,0,0,0,.37,1.4,1.966,1.966,0,0,0,.713.792,1.567,1.567,0,0,0,.792.251,5.7,5.7,0,0,0,1.584-.343,6.259,6.259,0,0,0,1.452-.832,5.513,5.513,0,0,0,1.4-1.623,4.326,4.326,0,0,0,.092,1.188,4.571,4.571,0,0,0,.251.766,1.389,1.389,0,0,0,.4.528,1.565,1.565,0,0,0,.554.224,2.435,2.435,0,0,0,.673.039,3.151,3.151,0,0,0,.7-0.132,2.765,2.765,0,0,0,.607-0.264,6,6,0,0,0,.99-0.911q0.594-.647,1.214-1.425t1.2-1.558q0.58-.778.95-1.307A1.983,1.983,0,0,0,66.194,14ZM57.851,16.32a6.552,6.552,0,0,1-.5.634,6.212,6.212,0,0,1-.686.66,4.371,4.371,0,0,1-.766.515,1.775,1.775,0,0,1-.752.211,0.863,0.863,0,0,1-.66-0.277,1.171,1.171,0,0,1-.211-0.674,5.135,5.135,0,0,1,.04-1.2,9.275,9.275,0,0,1,.33-1.465,7.034,7.034,0,0,1,.634-1.465,8.986,8.986,0,0,1,1.677-2.284q0.726-.619,1.016-0.382a0.63,0.63,0,0,1,.106.29,1.509,1.509,0,0,1-.013.436,2.419,2.419,0,0,1-.251.7,3.591,3.591,0,0,1,.422-0.079,1.384,1.384,0,0,0,.343-0.079,2.429,2.429,0,0,1,.29-0.079c0.07-.017.083,0.119,0.04,0.409s-0.11.656-.2,1.1-0.194.9-.317,1.373-0.229.888-.317,1.241A1.415,1.415,0,0,1,57.851,16.32Zm15.26,3.973a7.794,7.794,0,0,0,1.307-.924A12.389,12.389,0,0,0,75.685,18.1q0.607-.7,1.135-1.386t0.911-1.294q0.382-.607.568-0.977a1.656,1.656,0,0,0,.211-0.7,0.41,0.41,0,0,0-.119-0.356,0.325,0.325,0,0,0-.33.027,1.333,1.333,0,0,0-.449.449q-0.343.528-1,1.386t-1.4,1.676a12.648,12.648,0,0,1-1.465,1.4,2.14,2.14,0,0,1-1.2.581,0.443,0.443,0,0,1-.515-0.423,2.87,2.87,0,0,1,.119-1q0.29-.9.488-1.65t0.33-1.307l0.29-1.161a4.792,4.792,0,0,0,.2-1.558,3.567,3.567,0,0,0-.264-1.227,1.929,1.929,0,0,0-.621-0.806,1.481,1.481,0,0,0-.9-0.29,2.965,2.965,0,0,0-1.188.251,5.135,5.135,0,0,0-1.1.647,6.926,6.926,0,0,0-.951.884,12.106,12.106,0,0,0-.779.964q0.159-.448.264-0.872,0.105-.369.211-0.7c0.07-.219.132-0.392,0.185-0.514a1.079,1.079,0,0,0-.356-0.2,2.207,2.207,0,0,0-.383-0.093,3.538,3.538,0,0,0-.422-0.026,1.836,1.836,0,0,0-.449.106,2.318,2.318,0,0,0-.409.145,1.684,1.684,0,0,0-.383.251q-0.264,1-.462,1.848t-0.33,1.478q-0.158.74-.29,1.347-0.185.766-.4,1.61t-0.409,1.6q-0.2.752-.343,1.306t-0.172.713q-0.053.238,0.277,0.238a2.4,2.4,0,0,0,.779-0.158,4.18,4.18,0,0,0,.845-0.41,1.024,1.024,0,0,0,.475-0.515q0.079-.37.185-0.779t0.224-.951q0.119-.54.277-1.215t0.4-1.57q0.449-.66.911-1.28a10.859,10.859,0,0,1,.924-1.1,4.842,4.842,0,0,1,.911-0.753,1.658,1.658,0,0,1,.871-0.277,0.445,0.445,0,0,1,.449.383,2.821,2.821,0,0,1,.053.977,9.468,9.468,0,0,1-.224,1.32q-0.172.727-.37,1.452T70.114,16.94q-0.185.62-.264,0.99a2.646,2.646,0,0,0-.053,1.043,2,2,0,0,0,.343.858,1.926,1.926,0,0,0,.7.594,2.253,2.253,0,0,0,1.043.224A2.554,2.554,0,0,0,73.111,20.293Zm13.438-8.131Q87.3,10.7,87.882,9.232a24.356,24.356,0,0,0,.937-2.838,12.413,12.413,0,0,0,.409-2.535,10.579,10.579,0,0,0,0-1.5,2.357,2.357,0,0,0-.2-0.832,0.639,0.639,0,0,0-.356-0.343A1.6,1.6,0,0,0,88.2,1.113a1.409,1.409,0,0,0-.449.08,2.749,2.749,0,0,0-.449.158,2.341,2.341,0,0,0-.5.316q-0.423,1.4-.766,2.667T85.426,6.579q-0.291,1.134-.555,2.111-0.158.66-.317,1.4t-0.343,1.505a4.81,4.81,0,0,0-.251-0.792,3.589,3.589,0,0,0-.436-0.779,2.215,2.215,0,0,0-.634-0.58,1.549,1.549,0,0,0-.818-0.224,4.015,4.015,0,0,0-2.046.594,6.532,6.532,0,0,0-1.822,1.611,9.039,9.039,0,0,0-1.333,2.389,9.4,9.4,0,0,0-.607,2.9,4.817,4.817,0,0,0,.158,1.663,3.411,3.411,0,0,0,.541,1.109,1.95,1.95,0,0,0,.752.607,1.99,1.99,0,0,0,.792.185,3.984,3.984,0,0,0,2.152-.726,11.216,11.216,0,0,0,2.231-1.967c-0.035.3-.062,0.51-0.079,0.634a2.154,2.154,0,0,0,.119.844,2.65,2.65,0,0,0,.409.765,2.35,2.35,0,0,0,.594.555,1.277,1.277,0,0,0,.7.211,2.439,2.439,0,0,0,1.122-.33,8.907,8.907,0,0,0,1.294-.858A13.893,13.893,0,0,0,88.4,18.195q0.673-.686,1.28-1.4t1.109-1.386q0.5-.673.819-1.175a1.026,1.026,0,0,0,.211-0.528,0.343,0.343,0,0,0-.106-0.29,0.356,0.356,0,0,0-.277-0.053,0.6,0.6,0,0,0-.33.185q-0.132.132-.488,0.58t-0.871,1.043q-0.515.594-1.122,1.255T87.406,17.64a10.537,10.537,0,0,1-1.148.924,1.736,1.736,0,0,1-.911.37,0.776,0.776,0,0,1-.581-0.291,1.313,1.313,0,0,1-.238-0.95q0.026-.449.145-1.188t0.251-1.558A29.579,29.579,0,0,0,86.548,12.162Zm-3.934,4.053a14.49,14.49,0,0,1-1,1.082,7.3,7.3,0,0,1-1.109.9,1.949,1.949,0,0,1-1.043.369,1.148,1.148,0,0,1-1-.554,3.152,3.152,0,0,1-.317-1.822,6.527,6.527,0,0,1,.422-1.795,10.163,10.163,0,0,1,.924-1.888A8.165,8.165,0,0,1,80.674,11a1.82,1.82,0,0,1,1.241-.621,0.767,0.767,0,0,1,.66.33,2.363,2.363,0,0,1,.356.765,4.261,4.261,0,0,1,.145.845c0.017,0.273.026,0.462,0.026,0.567a0.794,0.794,0,0,0,.106.462,0.3,0.3,0,0,0,.4.013A0.84,0.84,0,0,0,83.7,13.31a0.9,0.9,0,0,1,.093-0.053q-0.132.528-.225,1.03t-0.2,1Q83.076,15.66,82.615,16.215Z"/>
</svg>
