<?xml version="1.0" encoding="UTF-8"?>
<svg width="15px" height="16px" viewBox="0 0 15 16" version="1.1" xmlns="http://www.w3.org/2000/svg" xmlns:xlink="http://www.w3.org/1999/xlink">
    <!-- Generator: Sketch 47.1 (45422) - http://www.bohemiancoding.com/sketch -->
    <title>yt</title>
    <desc>Created with Sketch.</desc>
    <defs></defs>
    <g id="Page-1" stroke="none" stroke-width="1" fill="none" fill-rule="evenodd">
        <g id="yt" fill="#0072BC">
            <path d="M14.3839286,7.71428571 C14.3839286,8.02976348 14.2738106,8.29761795 14.0535714,8.51785714 L8.24107143,14.3392857 C8.00892741,14.5595249 7.73809679,14.6696429 7.42857143,14.6696429 C7.11309366,14.6696429 6.8452392,14.5595249 6.625,14.3392857 L0.8125,8.51785714 C0.586308393,8.30357036 0.473214286,8.03571589 0.473214286,7.71428571 C0.473214286,7.39880795 0.586308393,7.12797732 0.8125,6.90178571 L1.47321429,6.23214286 C1.7053583,6.01190366 1.97618893,5.90178571 2.28571429,5.90178571 C2.60119205,5.90178571 2.86904652,6.01190366 3.08928571,6.23214286 L5.71428571,8.85714286 L5.71428571,2.57142857 C5.71428571,2.26190321 5.82737982,1.99404875 6.05357143,1.76785714 C6.27976304,1.54166554 6.5476175,1.42857143 6.85714286,1.42857143 L8,1.42857143 C8.30952536,1.42857143 8.57737982,1.54166554 8.80357143,1.76785714 C9.02976304,1.99404875 9.14285714,2.26190321 9.14285714,2.57142857 L9.14285714,8.85714286 L11.7678571,6.23214286 C11.9880963,6.01190366 12.2559508,5.90178571 12.5714286,5.90178571 C12.8809539,5.90178571 13.1517846,6.01190366 13.3839286,6.23214286 L14.0535714,6.90178571 C14.2738106,7.13392973 14.3839286,7.40476036 14.3839286,7.71428571 Z" id="ï£"></path>
        </g>
    </g>
</svg>