<?xml version="1.0" encoding="UTF-8"?>
<svg width="251px" height="442px" viewBox="0 0 251 442" version="1.1" xmlns="http://www.w3.org/2000/svg" xmlns:xlink="http://www.w3.org/1999/xlink">
    <!-- Generator: Sketch 47.1 (45422) - http://www.bohemiancoding.com/sketch -->
    <title>Fill 4</title>
    <desc>Created with Sketch.</desc>
    <defs></defs>
    <g id="Page-1" stroke="none" stroke-width="1" fill="none" fill-rule="evenodd">
        <g id="по-умолчанию" transform="translate(0.000000, -110.000000)" fill="#001F20">
            <g id="Page-1" transform="translate(0.000000, 100.000000)">
                <path d="M142.900191,291.333525 C139.32349,290.893802 135.079404,287.284083 132.158099,285.353303 C123.418161,279.576954 115.23371,273.169003 107.472868,266.301342 C113.091686,262.37982 118.674536,258.414326 124.233409,254.412855 C137.309347,248.072861 150.333334,241.620938 163.309365,235.08107 C167.081886,233.178273 170.838421,231.25149 174.606945,229.332703 C172.884533,242.364468 169.739434,255.384241 164.08465,267.272729 C161.674873,272.345523 158.801523,277.206451 155.460605,281.7196 C152.543296,284.733695 149.629983,287.74779 146.71667,290.753891 C145.577721,291.26157 144.322878,291.509413 142.900191,291.333525 L142.900191,291.333525 Z M126.327477,311.828574 C125.867901,311.412837 125.404329,311.013089 124.944752,310.601349 C113.187597,300.028031 101.618269,289.222858 90.3126966,278.133865 C94.7326198,275.115773 99.1405539,272.085687 103.536499,269.031617 C113.962882,278.621557 125.212505,287.280086 137.325333,293.612085 C139.099696,294.539499 140.766159,295.071163 142.340707,295.275034 C137.001631,300.791548 131.662556,306.308062 126.327477,311.828574 L126.327477,311.828574 Z M171.142141,356.020649 C193.9531,374.996658 218.054869,392.909339 238.659863,414.347792 C190.716086,397.290571 141.001941,381.488556 91.9631743,363.855698 C92.0550895,360.425865 92.023119,356.98404 91.8872443,353.554208 C103.436591,341.61775 114.985938,329.681293 126.535285,317.740838 C141.169787,330.776601 156.088026,343.50056 171.142141,356.020649 L171.142141,356.020649 Z M91.5915171,348.065676 C91.0520147,340.266604 90.0689215,332.635426 88.9939131,325.543907 C86.9118336,311.776607 83.9865318,298.149218 80.8614144,284.561804 C82.8116156,283.242637 84.765813,281.923471 86.7160142,280.592312 C98.645011,292.320901 110.889717,303.733689 123.350223,314.902631 C117.691443,320.746938 112.036659,326.595243 106.377878,332.443547 C101.414457,337.572306 96.5269647,342.840977 91.5915171,348.065676 L91.5915171,348.065676 Z M87.2754981,362.160769 C86.3843201,361.836974 85.4931421,361.517176 84.6059605,361.19338 C85.5570832,360.202007 86.472239,359.230621 87.3474318,358.311202 C87.3354428,359.590393 87.3154613,360.873582 87.2754981,362.160769 L87.2754981,362.160769 Z M87.0397156,366.793841 C86.3803238,376.68759 85.5610795,396.922803 75.5103502,402.503277 C70.7387514,405.153602 64.5684428,405.665279 58.3941379,405.177587 C57.159277,400.80435 55.784545,396.467091 54.3019126,392.157814 C54.5456877,390.374941 54.7215255,388.58807 54.8174371,386.793204 C55.7445819,385.030318 56.5838078,383.23945 57.3431074,381.464571 C57.4709894,381.156766 57.5788899,380.844963 57.706772,380.537157 C66.0191048,378.546415 74.387386,371.434909 81.3129979,364.543264 C83.2232359,365.242822 85.1334739,365.934385 87.0477082,366.625948 C87.0437119,366.681912 87.0437119,366.737877 87.0397156,366.793841 L87.0397156,366.793841 Z M60.3363465,438.020833 C52.2917667,426.488121 43.8595445,415.267211 35.1395877,404.294145 C35.1595692,404.290148 35.1795508,404.282153 35.2035287,404.278155 C35.7150569,404.462039 36.2225887,404.661913 36.7421095,404.837802 C41.7854576,406.548721 48.3553976,408.323599 55.0851901,409.127091 C57.6188531,418.57712 59.4691464,428.195042 60.3363465,438.020833 L60.3363465,438.020833 Z M43.5078689,426.364199 C44.6268367,427.70735 45.7418083,429.054499 46.8687688,430.389656 C45.7058415,429.098471 44.5868736,427.751323 43.5078689,426.364199 L43.5078689,426.364199 Z M34.8158862,393.916703 C35.83095,395.643611 36.9539142,397.278578 38.2207456,398.773634 C37.3295677,399.197366 36.4024228,399.553141 35.4313186,399.840959 C34.4442291,399.473192 33.4691285,399.085437 32.4980242,398.685689 C33.2733091,397.098692 34.0525903,395.511695 34.8158862,393.916703 L34.8158862,393.916703 Z M29.0931648,396.790886 C23.1826166,389.531474 17.1481827,382.371998 11.013841,375.296469 C9.15155871,371.966573 7.32524328,368.61669 5.53089837,365.246819 C9.05165087,359.438489 12.6882965,353.698117 16.4368389,348.033696 C20.8847362,360.573772 25.6123755,372.985929 30.6197567,385.214202 C31.247178,386.737239 31.9025734,388.248284 32.6059247,389.731347 C31.45099,392.093854 30.28007,394.448367 29.0931648,396.790886 L29.0931648,396.790886 Z M8.64402685,390.458888 C11.8970263,392.665493 15.2219594,394.748177 18.6388078,396.666965 C19.0344429,397.310558 19.4500595,397.946156 19.8496909,398.58975 C15.5896203,396.794884 11.8690521,393.9207 8.64402685,390.458888 L8.64402685,390.458888 Z M13.3716661,324.38464 C12.9440606,323.053481 12.5244476,321.726319 12.1048346,320.395161 C13.7553123,319.859499 15.3938009,319.283863 17.0163044,318.676247 C17.4359173,319.519714 17.8555303,320.363181 18.2751432,321.210645 C16.6446472,322.265978 15.0101548,323.329307 13.3716661,324.38464 L13.3716661,324.38464 Z M9.82693575,331.596083 C10.0946888,331.428189 10.3584455,331.256298 10.6261985,331.088404 C10.734099,331.424191 10.8539884,331.755982 10.9658852,332.095767 C10.5862354,331.927873 10.2065856,331.759979 9.82693575,331.596083 L9.82693575,331.596083 Z M11.013841,306.807746 C11.5693286,307.899057 12.1208199,308.990367 12.6803038,310.07768 C11.8570632,311.3129 10.9538963,312.464172 9.96680674,313.523503 C9.82293944,313.059796 9.68306845,312.588094 9.53920115,312.124387 C10.1786114,310.417466 10.658169,308.63859 11.013841,306.807746 L11.013841,306.807746 Z M15.0581106,314.754725 C14.7903576,314.854662 14.5186082,314.942606 14.2508552,315.042543 C14.4466746,314.802695 14.6384976,314.554851 14.834317,314.307008 C14.9062507,314.458912 14.9861769,314.606818 15.0581106,314.754725 L15.0581106,314.754725 Z M14.3347778,303.92157 C14.9582027,303.665732 15.5816277,303.405896 16.2050527,303.142063 C15.8853475,303.96954 15.5376682,304.773032 15.1740037,305.564532 C14.8942617,305.016878 14.6145197,304.469224 14.3347778,303.92157 L14.3347778,303.92157 Z M9.28343707,281.739587 C7.47710321,275.607462 5.37504213,269.539296 3.06117641,263.527095 C5.5708615,265.293979 8.09653186,267.044873 10.6341911,268.771781 C12.9840237,273.356884 15.9133217,277.43031 19.8736688,279.177206 C20.0854734,279.269148 20.2852891,279.333108 20.4930974,279.40906 C20.2533186,285.297339 19.545971,291.797232 17.9234676,297.8614 C16.0771706,298.628915 14.222881,299.376442 12.3725877,300.135962 C12.1767683,299.752205 11.9769526,299.372445 11.7771369,298.988687 C11.8410779,293.072426 10.8539884,287.056227 9.28343707,281.739587 L9.28343707,281.739587 Z M7.70089678,302.050752 C7.35721379,302.190664 7.0135308,302.330576 6.66984781,302.470487 C5.81064033,299.516354 4.96741811,296.554226 4.14417746,293.584102 C5.37903844,295.93062 6.60191048,298.285132 7.82478251,300.639644 C7.80080463,301.103351 7.75284886,301.57905 7.70089678,302.050752 L7.70089678,302.050752 Z M1.17891259,248.672482 C1.41069879,248.572545 1.64248499,248.472608 1.87027488,248.372671 C2.01414218,248.700464 2.15800948,249.02426 2.29788046,249.352053 C1.92622327,249.124197 1.55056977,248.900338 1.17891259,248.672482 L1.17891259,248.672482 Z M15.4657346,232.07497 C15.8733586,233.769899 16.261001,235.464828 16.6206693,237.171749 C12.4645029,239.058557 8.29235123,240.925377 4.10821064,242.752223 C3.44482254,241.149236 2.78543075,239.554244 2.15001685,237.943262 C6.57793259,235.95252 11.0098447,233.98976 15.4657346,232.07497 L15.4657346,232.07497 Z M14.4067114,227.913599 C13.955128,228.109476 13.4995482,228.297357 13.0439684,228.493233 C13.4675777,228.18143 13.8871906,227.86563 14.3107999,227.553827 C14.3427704,227.669754 14.3747409,227.789678 14.4067114,227.913599 L14.4067114,227.913599 Z M11.4334539,204.976094 C12.7282596,203.313144 14.0230653,201.654193 15.317871,199.991243 C16.9763412,202.197849 18.6507967,204.39646 20.3412375,206.579081 C20.3412375,206.742977 20.3412375,206.906874 20.3452338,207.07077 C18.2191948,208.677755 16.0931559,210.284739 13.9591243,211.883729 C13.1558652,209.565194 12.3166393,207.262649 11.4334539,204.976094 L11.4334539,204.976094 Z M20.3052707,194.334818 C20.3012743,196.077716 20.297278,197.816618 20.3012743,199.559516 C19.5339821,198.548155 18.7706861,197.536794 18.0153828,196.525434 C18.4270032,195.989772 18.8386235,195.462105 19.2502438,194.926444 C19.6019194,194.730568 19.953595,194.530694 20.3052707,194.334818 L20.3052707,194.334818 Z M10.9059405,186.819567 C10.2665303,184.908774 9.59115323,183.005976 8.86782043,181.127164 C12.6763075,182.282434 16.5167651,183.709532 20.3292485,185.384473 C20.3252522,185.724259 20.3212559,186.064044 20.3212559,186.407827 C18.9425276,188.182705 17.5677957,189.965579 16.1930637,191.740457 C15.7854397,191.968313 15.3778157,192.196169 14.974188,192.424025 C13.6074487,190.5652 12.2487019,188.698379 10.9059405,186.819567 L10.9059405,186.819567 Z M6.83769299,176.158303 C5.27913059,172.532595 3.56071564,168.97884 1.67045919,165.505035 C6.42607267,164.365755 11.1816861,163.230472 15.9372996,162.087195 C16.4488278,162.766766 16.9563597,163.442339 17.4678878,164.121909 C18.46297,168.307264 19.4380706,172.496617 20.3891933,176.693965 C20.3772043,178.033119 20.3692117,179.372273 20.3612191,180.707429 C15.9372996,178.884581 11.421465,177.365541 6.83769299,176.158303 L6.83769299,176.158303 Z M3.47679305,102.492852 C7.46111795,98.5713304 11.4774134,94.6897831 15.5296756,90.8442131 C17.851534,93.1187758 20.0055471,95.557235 22.003704,98.1356057 C21.8198736,105.470971 21.6320469,112.806335 21.4522127,120.145698 C21.1844597,130.962862 20.9366882,141.792019 20.7368726,152.621176 C20.4851048,152.481265 20.233337,152.345351 19.9855656,152.205439 C18.7027488,148.19997 17.3440021,144.242471 15.9013328,140.344934 C12.4365287,127.509045 8.44820747,114.821062 3.47679305,102.492852 L3.47679305,102.492852 Z M22.3314018,84.4602471 C22.2714571,86.870724 22.2155087,89.2732058 22.1595603,91.6796852 C21.0206108,90.3885011 19.8416983,89.1412892 18.6188262,87.9300546 C19.8536872,86.7707871 21.0885482,85.6115196 22.3314018,84.4602471 L22.3314018,84.4602471 Z M19.4420669,230.380041 C19.8576835,230.204152 20.2733001,230.028263 20.6849205,229.852374 C20.7288799,231.651238 20.7728394,233.454098 20.8247915,235.252962 C20.7528578,235.284942 20.6809242,235.316921 20.6049942,235.352899 C20.2413296,233.685952 19.8496909,232.030998 19.4420669,230.380041 L19.4420669,230.380041 Z M20.3372412,264.914219 C20.3412375,264.978178 20.3452338,265.046136 20.3452338,265.110095 C17.5318289,264.586426 14.8662875,263.283249 12.3566024,261.452406 C12.1248162,260.94073 11.8890337,260.433051 11.6612438,259.921374 C14.5385898,261.60431 17.431921,263.26726 20.3372412,264.914219 L20.3372412,264.914219 Z M18.8346272,249.619883 C19.3141848,253.005744 19.7098199,256.403597 19.9935582,259.813442 C16.1850711,257.634819 12.3925692,255.424216 8.62004897,253.177635 C8.60806003,253.149653 8.59207477,253.117673 8.58008583,253.089691 C12.0089231,251.974396 15.4297678,250.819126 18.8346272,249.619883 L18.8346272,249.619883 Z M18.1632464,245.282624 C14.3987188,246.621778 10.6222022,247.920957 6.82170774,249.152179 C6.46203949,248.332697 6.10237125,247.513215 5.75069563,246.693732 C9.67507583,244.978816 13.5874671,243.239915 17.4838731,241.473031 C17.7236519,242.744228 17.9514418,244.015425 18.1632464,245.282624 L18.1632464,245.282624 Z M20.5370569,222.936744 C20.5410532,223.128623 20.5490458,223.324499 20.5530421,223.516378 C20.4251601,223.416441 20.2932817,223.312507 20.1653997,223.21257 C20.2892854,223.120628 20.4171674,223.028686 20.5370569,222.936744 L20.5370569,222.936744 Z M15.9093254,217.772008 C15.7294913,217.204367 15.5496572,216.636725 15.3658267,216.073081 C17.0442786,214.813877 18.7147377,213.54268 20.3851969,212.279479 C20.4011822,213.57466 20.4211638,214.869842 20.437149,216.165023 C18.9305387,216.700685 17.4199321,217.236346 15.9093254,217.772008 L15.9093254,217.772008 Z M24.6452675,299.632281 C24.6692454,299.864134 24.6812343,300.09199 24.7052122,300.323844 C25.020921,303.609767 25.364604,306.895691 25.7242722,310.17362 C23.5422849,311.24894 21.3203344,312.252306 19.0664134,313.183718 L17.571792,310.241577 C19.2422512,307.347405 20.5570384,304.185404 21.5840911,300.907475 C22.6031511,300.479745 23.6262075,300.064008 24.6452675,299.632281 L24.6452675,299.632281 Z M23.8539974,290.797863 C23.9778831,292.268934 24.1177541,293.740004 24.2496324,295.207077 C23.8180305,295.390961 23.3864286,295.578842 22.9508304,295.754731 C23.314495,294.103774 23.6142185,292.44882 23.8539974,290.797863 L23.8539974,290.797863 Z M25.97604,202.801468 C25.5124676,203.149248 25.0528915,203.501026 24.5933154,203.852803 C24.5773302,201.210473 24.5693375,198.57214 24.5653412,195.92981 C25.0448989,198.216365 25.5124676,200.506918 25.97604,202.801468 L25.97604,202.801468 Z M24.8690611,159.940551 C24.8850463,159.940551 24.8970353,159.936554 24.9130205,159.932556 C28.5216919,162.067208 32.0864039,164.277811 35.5991638,166.564366 C33.7528668,168.982838 31.9025734,171.393314 30.0482838,173.803791 C28.293902,171.429292 26.5395203,169.054792 24.7731495,166.688288 C24.8051201,164.441707 24.8330943,162.187132 24.8690611,159.940551 L24.8690611,159.940551 Z M26.1199073,103.911956 C35.2275066,117.875132 40.8902833,134.668521 45.8257309,150.16273 C38.9680563,151.869651 32.0983928,153.540595 25.2207367,155.191552 C25.1328178,155.139585 25.0448989,155.087618 24.95698,155.035651 C25.2606998,137.998417 25.6883054,120.953187 26.1199073,103.911956 L26.1199073,103.911956 Z M26.6953765,80.4387883 C29.948376,77.4566727 33.2253533,74.5025394 36.5263086,71.5723909 C36.570268,71.8722015 36.6102312,72.172012 36.6501943,72.4678251 C39.8312601,95.1574876 43.3600052,117.79918 47.2004629,140.388906 C42.1051627,125.066588 35.83095,109.500424 26.2997414,96.7644721 C26.4356161,91.32391 26.5674945,85.8793504 26.6953765,80.4387883 L26.6953765,80.4387883 Z M27.0910116,61.7545947 C27.2308826,54.3512729 27.3467757,46.9439535 27.4306983,39.5406317 C27.4586724,36.7703822 27.5465914,33.9441681 27.3587646,31.1579287 C27.3867388,31.1659236 27.414713,31.1699211 27.4386909,31.177916 C32.9256298,41.6353081 34.4242475,54.7630127 35.8749094,66.4916014 C32.8377109,69.1619141 29.8244902,71.8562116 26.8312512,74.5664989 C26.9231664,70.2971967 27.0110853,66.0278945 27.0910116,61.7545947 L27.0910116,61.7545947 Z M57.287159,41.2475531 C59.0415408,42.1669721 60.6760332,43.1983204 62.2226066,44.3176131 C54.6096287,50.4377458 47.112544,56.7017876 39.7353486,63.1017435 C38.4205613,52.7522833 36.7900653,41.8951439 32.7058325,32.5010799 C41.0980916,34.6757058 49.7581037,37.3020462 57.287159,41.2475531 L57.287159,41.2475531 Z M78.9911395,65.2004173 C83.0513944,72.9115447 87.1156456,80.9744498 90.6324018,89.2812008 C78.5915081,108.149278 65.6074844,126.501681 52.2078441,144.546279 C48.1715671,121.113086 44.4829694,97.623929 41.1500437,74.0788071 C40.8782943,72.1600196 40.6265266,70.1932624 40.3747588,68.1945254 C41.2099884,67.4629876 42.0332291,66.7234549 42.8684586,65.9999121 C50.321584,59.5319992 57.8945987,53.2039978 65.5914992,47.0279005 C71.1903349,52.0287405 75.3904607,58.3567418 78.9911395,65.2004173 L78.9911395,65.2004173 Z M72.9766872,41.179596 C83.0993502,33.2765899 93.4937625,24.1903315 105.051102,18.4459613 C110.326236,15.8236184 119.090153,12.1219574 124.896797,15.2519796 C128.857144,17.3826332 127.410478,19.3014208 126.027754,22.7672307 C124.385269,26.8926239 122.638879,30.9740449 120.808568,35.0194886 C115.425533,46.8959839 109.30318,58.416704 102.693277,69.6496059 C99.6081227,74.8982893 96.4230605,80.0950055 93.1780537,85.2597419 C90.368645,78.783834 87.3554244,72.3878756 84.2223143,66.091854 C80.2739563,58.1488732 75.6342359,50.3138241 69.052307,44.2896308 C70.3591016,43.2502876 71.6618999,42.2069468 72.9766872,41.179596 L72.9766872,41.179596 Z M100.571234,125.046601 C100.894936,128.288552 101.090755,131.558486 101.194659,134.84441 C85.9207477,139.637381 70.4430242,143.890693 54.8693891,147.876175 C67.5257151,130.647062 79.8423544,113.190093 91.5995097,95.397336 C91.9152185,94.9176391 92.226931,94.4339448 92.5426398,93.9502504 C96.5069831,104.055865 99.5162074,114.485274 100.571234,125.046601 L100.571234,125.046601 Z M101.250608,143.790756 C86.3683349,152.229424 71.4700769,160.652102 56.5678225,169.05879 C56.3680068,167.971477 56.1562022,166.880166 55.9603828,165.796851 C55.173109,161.463589 54.4257983,157.12633 53.6625023,152.78907 C69.6477577,148.679667 85.5530869,144.302433 101.278582,139.35356 C101.286574,140.832626 101.278582,142.311691 101.250608,143.790756 L101.250608,143.790756 Z M107.392942,189.873637 C111.313326,188.482516 115.473489,186.643678 119.665622,185.832191 C116.992088,187.219314 114.314558,188.598443 111.641024,189.981569 C107.868503,191.380684 104.103976,192.791793 100.331455,194.190909 C100.427367,193.551313 100.527275,192.915714 100.61919,192.276119 L107.392942,189.873637 Z M128.325634,188.318619 C135.882663,185.508395 143.4317,182.686178 150.964752,179.827985 C159.52086,176.586033 168.060983,173.288117 176.573131,169.926241 C176.561142,176.082351 176.617091,182.242459 176.625083,188.398569 C146.508862,206.667025 118.29089,228.021531 92.4866914,251.98239 C91.4276682,250.895078 90.3766377,249.795772 89.3296034,248.692469 C90.5684607,243.811554 91.7633586,238.914648 92.8743338,233.997755 C94.5687709,226.502491 96.0953628,218.967253 97.4780874,211.412027 C100.375415,209.517224 103.256757,207.590442 106.09414,205.595702 C113.779052,200.191117 121.172232,194.402775 128.325634,188.318619 L128.325634,188.318619 Z M176.637072,161.7634 C176.617091,163.098556 176.605102,164.433712 176.593113,165.768868 C168.320743,168.854918 160.068355,171.825042 152.047753,174.875114 C149.841788,175.714584 147.62783,176.534066 145.421865,177.365541 C155.784306,172.08088 166.182715,166.864176 176.637072,161.7634 L176.637072,161.7634 Z M176.009651,214.578026 C175.809835,217.807985 175.538086,221.037944 175.202395,224.267903 C164.732053,229.604531 154.233737,234.877199 143.711442,240.101898 C154.681324,231.839119 165.467375,223.352482 176.009651,214.578026 L176.009651,214.578026 Z M95.4279784,254.952514 C112.89187,238.734762 131.466737,223.712254 150.98873,210.07687 C159.361007,204.228566 167.917115,198.660085 176.617091,193.331452 C176.597109,198.468206 176.513186,203.596965 176.305378,208.721727 C158.777545,223.472406 140.538369,237.39161 121.919543,250.795141 C115.065865,254.117042 108.200197,257.414958 101.314549,260.672899 C99.3283807,258.794086 97.3621943,256.891289 95.4279784,254.952514 L95.4279784,254.952514 Z M100.187588,265.897597 L100.331455,266.037509 C95.9634844,269.067594 91.5915171,272.077692 87.2035645,275.0718 C86.4962169,274.368245 85.7888694,273.660692 85.0815218,272.957137 C90.1248699,270.626609 95.1602253,268.264102 100.187588,265.897597 L100.187588,265.897597 Z M84.9576361,264.974181 C87.3554244,262.619669 89.7771906,260.289141 92.2189384,257.982599 C93.7735044,259.585586 95.3480521,261.176581 96.9425813,262.755583 C92.5945919,264.798292 88.2306171,266.813019 83.8706387,268.831743 C84.2422959,267.552552 84.5939715,266.261368 84.9576361,264.974181 L84.9576361,264.974181 Z M83.618871,277.518254 C82.6277851,278.18983 81.6406956,278.857408 80.6496098,279.524986 C81.0412485,278.257787 81.4328873,276.994585 81.8165334,275.727386 C82.4159805,276.32301 83.0154276,276.922631 83.618871,277.518254 L83.618871,277.518254 Z M81.1451527,262.795558 C80.1101074,263.818911 79.09904,264.862252 78.0719873,265.8936 C77.380625,265.190045 76.6892627,264.486489 76.0018968,263.782934 C75.4903686,261.596315 74.9788404,259.401702 74.4753049,257.211086 C75.5942727,251.154913 75.7701106,244.946836 74.7350653,238.762744 C75.5263354,239.674168 76.297624,240.605579 77.0928904,241.513006 C79.5386345,244.299245 82.0523159,247.10947 84.6219457,249.919694 C83.5109705,254.224973 82.3520395,258.514263 81.1451527,262.795558 L81.1451527,262.795558 Z M65.5115729,354.113854 C66.5665998,348.853178 67.409822,343.544533 68.1091769,338.23189 C69.3999863,328.450071 70.3151422,318.60829 70.8786224,308.746521 C73.1645139,302.378545 75.3624865,295.978589 77.4605513,289.546654 C77.788249,290.993739 78.1119505,292.436827 78.4396482,293.88791 C82.8036229,313.143743 86.7839515,332.783333 87.299476,352.570829 C85.0135845,354.957321 82.7037151,357.315831 80.3658715,359.64236 C75.4024497,357.82351 70.4550131,355.980674 65.5115729,354.113854 L65.5115729,354.113854 Z M64.6004133,358.347179 C68.7206129,359.898199 72.8528014,361.437226 76.98499,362.956266 C75.6582138,364.231461 74.3274413,365.49866 72.9726909,366.741874 C69.3120674,370.115742 64.6763433,373.865373 59.6250026,375.624262 C61.667119,369.983826 63.2856261,364.203478 64.6004133,358.347179 L64.6004133,358.347179 Z M52.7913059,354.453639 C52.8712322,354.273753 52.9471622,354.097864 53.0270884,353.917978 C55.5407699,354.889364 58.0584476,355.86075 60.5801216,356.820144 C59.5810432,361.28932 58.4261085,365.718521 57.0234023,370.08776 C56.3640105,372.134467 55.6286888,374.317088 54.7894629,376.535686 C54.6615808,374.065247 54.4737541,371.59081 54.2459642,369.112376 C53.798377,364.219468 53.3028341,359.338552 52.7913059,354.453639 L52.7913059,354.453639 Z M52.5235529,400.364628 C52.9711401,401.787729 53.4067383,403.21083 53.8263512,404.645923 C52.9351732,404.510009 52.0519879,404.354107 51.1807914,404.194208 C51.6883233,402.923012 52.1319141,401.647817 52.5235529,400.364628 L52.5235529,400.364628 Z M65.4636171,323.341299 C65.3836909,324.228738 65.3237462,325.120175 65.2358273,326.007614 C64.3646308,334.901994 63.2256814,343.808366 61.4792922,352.586819 C59.2173786,351.723364 56.955465,350.85991 54.6975476,349.984463 C58.4420937,341.170033 62.0347799,332.287646 65.4636171,323.341299 L65.4636171,323.341299 Z M49.8460226,328.050323 C49.0267783,321.058741 48.1635745,314.067159 47.2684002,307.083572 C48.067663,306.555906 48.8669257,306.024242 49.6661885,305.48858 C52.9231843,303.313954 56.1841764,301.131333 59.4451685,298.95271 C59.6090174,299.044652 59.7688699,299.136594 59.9287225,299.228536 C61.8989052,300.323844 63.513416,298.285132 62.9219615,296.62618 C64.3366566,295.682776 65.7473554,294.735375 67.1620505,293.783976 C67.0541501,298.576948 66.8463417,303.361924 66.5785887,308.142903 C65.971149,309.833834 65.3637093,311.528763 64.7402843,313.215697 C60.6800295,324.232736 56.4199589,335.305739 51.9241058,346.330772 C51.2567214,340.234624 50.5573665,334.138476 49.8460226,328.050323 L49.8460226,328.050323 Z M50.6852485,380.860953 C50.6892448,381.328657 50.6932412,381.800359 50.6892448,382.268063 C50.4934255,381.760384 50.2936098,381.252705 50.0937941,380.749023 C50.2936098,380.788998 50.4854328,380.828973 50.6852485,380.860953 L50.6852485,380.860953 Z M47.8918252,375.232509 C47.2044592,373.557568 46.5130969,371.890621 45.8057493,370.227672 C45.8497088,370.131732 45.8976645,370.031795 45.9376277,369.939854 C47.0765771,367.42944 48.2035376,364.911031 49.3185092,362.392623 C49.8020632,366.981723 50.2936098,371.598805 50.5413812,376.199898 C49.5982512,375.964047 48.7110695,375.640251 47.8918252,375.232509 L47.8918252,375.232509 Z M49.4743654,394.960043 C49.0587488,396.994758 48.5112538,399.013482 47.8198915,401.016216 C46.832802,400.560504 45.9016609,400.02884 45.0264681,399.413229 C46.6489715,398.094063 48.1236114,396.591013 49.4743654,394.960043 L49.4743654,394.960043 Z M42.7006135,377.03537 C43.3320311,377.571031 43.967445,378.034738 44.6108515,378.458471 C46.0255466,381.95626 47.380297,385.474038 48.6711064,389.0158 C46.7328941,391.95794 44.4709805,394.576286 41.8054392,396.587015 C39.9031938,394.552301 38.2966756,392.137827 36.9019621,389.519481 C38.8601559,385.366106 40.7943718,381.200738 42.7006135,377.03537 L42.7006135,377.03537 Z M21.1405003,341.054106 C23.9499089,342.237359 26.7673102,343.408619 29.5887077,344.567886 C29.9403833,345.323409 30.292059,346.078931 30.6437346,346.834454 C32.0224629,356.156563 33.5090916,366.442064 39.5515182,373.813406 C39.6714076,373.961312 39.7992896,374.085234 39.9231753,374.225146 C38.2527162,377.894827 36.5502865,381.544521 34.8158862,385.178224 C32.3781348,379.521799 30.6277493,373.481616 28.8254118,368.680649 C25.6603312,360.233987 22.6071474,351.743352 19.6618641,343.21674 C20.1534107,342.497194 20.6489537,341.777649 21.1405003,341.054106 L21.1405003,341.054106 Z M23.046742,330.908517 C21.8838146,332.535489 20.7248836,334.158464 19.5859342,335.797428 C18.6268188,335.389686 17.6756961,334.977946 16.7165808,334.570203 C16.0372075,332.543484 15.3578341,330.512767 14.694446,328.478053 C16.5167651,327.310791 18.3310916,326.135533 20.1454181,324.956278 C21.1205187,326.935028 22.0836303,328.92577 23.046742,330.908517 L23.046742,330.908517 Z M26.2477894,314.734737 L26.3876603,315.91799 C24.8970353,316.901368 23.4024139,317.872755 21.9077925,318.848138 C21.6120653,318.256512 21.3203344,317.672881 21.0246072,317.085252 C22.7869816,316.349717 24.5293744,315.566212 26.2477894,314.734737 L26.2477894,314.734737 Z M28.2539389,246.170063 C28.0061674,252.010373 27.5825582,257.83869 26.9471443,263.643022 C26.9471443,263.643022 26.9391516,263.698987 26.9351553,263.726969 C26.6993728,263.59905 26.4675866,263.459138 26.2318041,263.331219 C26.1998336,262.783565 26.1638668,262.243906 26.1358926,261.70025 C25.8841248,256.875299 25.6763165,252.050348 25.4884897,247.225396 C26.4156345,246.885611 27.3307904,246.521841 28.2539389,246.170063 L28.2539389,246.170063 Z M28.4817288,236.424222 C28.4697399,238.115153 28.4537546,239.810082 28.4097951,241.505011 C27.3867388,241.896764 26.3596861,242.280521 25.3326335,242.668276 C25.2766851,241.101266 25.2167404,239.530259 25.1687846,237.959252 C26.2717672,237.451572 27.3747499,236.939896 28.4817288,236.424222 L28.4817288,236.424222 Z M28.4497583,230.032261 C27.5385987,229.256751 26.6234429,228.489236 25.7042907,227.725718 C26.587476,227.353953 27.4746577,226.990183 28.3578431,226.626413 C28.3938099,227.761695 28.4257804,228.896978 28.4497583,230.032261 L28.4497583,230.032261 Z M28.8374007,184.652936 C28.6415813,184.552999 28.4497583,184.449065 28.2539389,184.34513 C28.1979905,184.057312 28.1420421,183.769494 28.0860937,183.481676 C28.7215076,182.646204 29.3649142,181.818727 30.0043244,180.987252 C30.5238452,181.694805 31.0513586,182.406355 31.5748757,183.121903 C30.6637162,183.63358 29.7485603,184.145257 28.8374007,184.652936 L28.8374007,184.652936 Z M36.8859768,194.446747 C34.8438604,196.017754 32.7977477,197.584764 30.7556314,199.147776 C30.3160368,196.029747 29.8164976,192.919712 29.2729989,189.813675 C31.8626103,191.252765 34.4082622,192.79579 36.8859768,194.446747 L36.8859768,194.446747 Z M35.4632891,188.398569 C34.7319637,187.950852 34.0006382,187.507132 33.2573238,187.079402 C33.5490548,186.915506 33.8407857,186.75161 34.1325166,186.591711 C34.5761074,187.191332 35.0196982,187.79495 35.4632891,188.398569 L35.4632891,188.398569 Z M39.1638757,168.938865 C41.8214244,170.725736 44.4589916,172.548584 47.0565956,174.4234 C43.1561932,176.618013 39.2517946,178.812626 35.3513923,181.003242 C34.4722033,179.807997 33.5930142,178.61675 32.7178215,177.421505 C34.8718346,174.599289 37.0178552,171.773074 39.1638757,168.938865 L39.1638757,168.938865 Z M38.1767862,163.190498 C35.7350384,161.595506 33.2653165,160.028496 30.7756129,158.501461 C35.2754623,157.406153 39.7673191,156.30285 44.2591759,155.175562 C42.2410374,157.85387 40.2109099,160.524183 38.1767862,163.190498 L38.1767862,163.190498 Z M51.1088578,172.136845 C48.0237035,169.878272 44.9025824,167.671666 41.7335055,165.533018 C43.8315703,162.746778 45.9216424,159.956541 48.0037219,157.158309 C49.4823581,161.923298 50.869079,166.71627 52.1798699,171.533226 C51.8202017,171.7331 51.4645297,171.936971 51.1088578,172.136845 L51.1088578,172.136845 Z M42.2170595,190.341341 C40.7743902,188.382579 39.3357172,186.427814 37.9010405,184.473049 C42.2130632,182.046583 46.5250858,179.624113 50.8371085,177.197647 C51.1807914,177.453485 51.5324671,177.701328 51.8761501,177.961164 C52.6913981,178.572778 53.4906609,179.208376 54.3019126,179.827985 C54.3618573,180.159775 54.421802,180.487568 54.485743,180.819358 C50.4015102,184.001347 46.3132812,187.175342 42.2170595,190.341341 L42.2170595,190.341341 Z M48.055674,197.372898 C47.5121753,196.925181 46.972673,196.477464 46.425178,196.037742 C45.8457125,195.262232 45.2702433,194.478727 44.6947741,193.703217 C48.2554897,190.948957 51.8162054,188.186703 55.364932,185.420451 C55.7365892,187.339238 56.1202354,189.258026 56.4958889,191.176813 L48.055674,197.372898 Z M57.4070484,195.821878 C57.8546356,198.080451 58.2902338,200.339024 58.7458136,202.597597 L55.2050795,203.848806 C53.9662222,202.613586 52.6913981,201.410347 51.3925961,200.239087 C53.3987456,198.768016 55.4048952,197.296946 57.4070484,195.821878 L57.4070484,195.821878 Z M58.4780605,177.709323 C58.3701601,177.633371 58.2662559,177.545427 58.1623517,177.469475 C58.1303812,177.333561 58.0904181,177.205642 58.0584476,177.077722 C57.834654,175.882478 57.6148567,174.69123 57.3950595,173.495986 C60.851871,171.549216 64.3126788,169.602446 67.7694902,167.647681 C72.0495424,165.229209 76.3216019,162.80674 80.5976577,160.384271 C73.2284549,166.168616 65.8592522,171.952961 58.4780605,177.709323 L58.4780605,177.709323 Z M66.2628799,183.993352 C64.800229,182.774123 63.3415745,181.550896 61.8589421,180.359649 C74.9508662,170.13411 88.0028272,159.856604 101.070774,149.611079 C100.934899,152.565212 100.735083,155.523343 100.495304,158.485471 C89.1497693,167.06405 77.724308,175.550687 66.2628799,183.993352 L66.2628799,183.993352 Z M84.2782627,200.183122 C83.7147825,199.667448 83.1592949,199.159769 82.6078035,198.656087 C84.2422959,198.080451 85.8767883,197.49682 87.5112806,196.921183 C90.3726414,195.905825 93.2340021,194.890467 96.0993591,193.879106 C95.9994513,194.546684 95.8955471,195.214262 95.7916429,195.88184 C91.9511853,197.308938 88.114724,198.744032 84.2782627,200.183122 L84.2782627,200.183122 Z M91.7473733,209.944954 C91.5115908,209.149456 91.1838931,208.337969 90.6923465,207.494502 C90.4126045,207.014805 90.100892,206.547101 89.7731943,206.087391 C91.3637272,205.267909 92.9502638,204.452424 94.5368004,203.632942 C94.2530621,205.327871 93.9573349,207.030795 93.653615,208.725724 C93.0221974,209.137464 92.3827872,209.537211 91.7473733,209.944954 L91.7473733,209.944954 Z M66.5466182,217.903925 C73.0366319,214.641986 79.5146566,211.356062 85.9766961,208.042156 C86.4122943,208.585813 86.7759589,209.129469 87.0077451,209.645143 C87.4713175,210.688484 87.6871184,211.615898 87.719089,212.455367 C81.7166256,216.141038 75.5942727,219.626836 69.3720121,222.920754 C68.5008157,221.21783 67.5696745,219.534894 66.5466182,217.903925 L66.5466182,217.903925 Z M65.971149,284.625763 C66.4027509,284.565801 66.8303565,284.477857 67.2579621,284.373922 C67.2579621,285.785031 67.2299879,287.200136 67.2179989,288.615242 C64.6683507,290.334156 62.1226988,292.05307 59.5730505,293.767986 C59.209386,293.512148 58.8417251,293.252312 58.4780605,292.996474 C60.9477825,290.182252 63.4414823,287.392015 65.971149,284.625763 L65.971149,284.625763 Z M50.041842,275.827323 C47.4802048,274.572116 44.9265603,273.288927 42.3849047,271.989748 C41.8733765,268.5839 41.3458631,265.174055 40.8143533,261.768207 C43.4279426,259.573594 45.9136498,257.203092 48.2994492,255.016473 C53.9822075,261.040667 59.3052975,267.388655 64.1328446,274.144386 C63.2576519,275.843313 62.3305071,277.498267 61.3354249,279.101254 C60.6960147,279.39307 60.0606008,279.684885 59.4171943,279.968706 C56.0363128,278.973335 52.703387,277.122504 50.041842,275.827323 L50.041842,275.827323 Z M47.4562269,285.233379 C46.2972959,284.42589 45.1303723,283.63439 43.967445,282.834895 C43.6996919,280.964077 43.41995,279.093259 43.1482006,277.226439 C46.1494323,278.733487 49.1586566,280.204557 52.2078441,281.587683 C52.7992986,281.859511 53.390753,282.11535 53.9822075,282.36719 C51.812209,283.326584 49.634218,284.277983 47.4562269,285.233379 L47.4562269,285.233379 Z M45.1063944,290.893802 C45.1623428,290.869818 45.2182912,290.841835 45.2782359,290.81785 C46.7648646,291.701292 48.2634823,292.564747 49.7621,293.428201 C48.5232427,294.639436 47.2324334,295.802701 45.9136498,296.937983 C45.6458968,294.923256 45.3821401,292.908529 45.1063944,290.893802 L45.1063944,290.893802 Z M34.3563101,315.658154 C33.2413386,317.101242 32.138356,318.556323 31.0393697,320.011403 L30.8235687,317.984684 C32.0024813,317.213171 33.1773976,316.433664 34.3563101,315.658154 L34.3563101,315.658154 Z M42.7126024,304.817004 C42.720595,304.904949 42.732584,304.988896 42.7445729,305.07684 C38.6123844,307.835097 34.4722033,310.581362 30.3240295,313.323629 C30.3000516,313.111763 30.2760737,312.903894 30.2560921,312.696026 C34.596089,310.373493 38.7642443,307.747153 42.7126024,304.817004 L42.7126024,304.817004 Z M41.07811,292.624709 C41.4177967,295.099145 41.7534871,297.577579 42.0811848,300.056013 C38.212753,303.026136 34.0885571,305.692451 29.7685419,308.062953 C29.4128699,304.685088 29.0611943,301.307222 28.7454855,297.925359 C32.8656851,296.186458 36.9738957,294.403585 41.07811,292.624709 L41.07811,292.624709 Z M38.5484434,274.871927 C38.7802296,276.442934 39.0080195,278.013941 39.2398057,279.584948 C36.1146882,277.450297 32.9775819,275.335634 29.8364792,273.232962 C29.9963317,272.665321 30.1322064,272.089685 30.2361106,271.506054 C30.292059,271.178261 30.3400147,270.84647 30.3959631,270.518677 C33.0974713,271.997743 35.818961,273.444828 38.5484434,274.871927 L38.5484434,274.871927 Z M31.9665145,209.189431 C31.7866803,207.442535 31.5988536,205.691641 31.3830526,203.948743 C34.4242475,201.62621 37.4494571,199.283691 40.4826593,196.949166 C41.4897304,197.680704 42.4808162,198.436226 43.4599131,199.203741 C43.7036882,199.535531 43.9514597,199.871319 44.1992312,200.20311 C40.1189947,203.197218 36.0427546,206.191326 31.9665145,209.189431 L31.9665145,209.189431 Z M38.3206535,209.833024 C41.1340584,207.76633 43.9514597,205.695639 46.768861,203.632942 C47.4002785,204.476409 48.0396888,205.319876 48.6751027,206.163343 C45.2222875,207.38657 41.7694723,208.609797 38.3206535,209.833024 L38.3206535,209.833024 Z M35.7070642,219.031212 C34.9078015,218.059826 34.112535,217.084442 33.3172685,216.109059 C38.5684249,214.254231 43.8195813,212.399403 49.0707377,210.540577 C49.8300374,210.268749 50.5973296,209.996921 51.3606256,209.72909 C51.9600726,210.512595 52.5675124,211.2961 53.1709557,212.079605 C47.3403338,214.358165 41.5177046,216.672703 35.7070642,219.031212 L35.7070642,219.031212 Z M41.2219773,225.639037 C40.326803,224.583704 39.4436177,223.508383 38.5524397,222.445055 C44.3071316,220.114528 50.0698162,217.819978 55.8524823,215.565402 C56.395981,216.268958 56.9354834,216.976511 57.4789821,217.676068 C52.0799621,220.362371 46.6569642,223.016694 41.2219773,225.639037 L41.2219773,225.639037 Z M60.1884829,221.097906 C61.1555908,222.321133 62.1187025,223.548358 63.093803,224.76359 C63.1537477,225.199315 63.2176888,225.635039 63.2776335,226.074761 C58.2143038,228.633145 53.0910295,231.087594 47.9078104,233.406129 C46.62899,231.943053 45.3661548,230.45999 44.0993233,228.984922 C49.4743654,226.382567 54.8414149,223.760224 60.1884829,221.097906 L60.1884829,221.097906 Z M60.0765861,209.125472 C59.5330874,208.481878 58.9696071,207.858272 58.4021306,207.234666 C58.8057583,207.090757 59.2053897,206.950846 59.605021,206.806937 C59.7608773,207.578449 59.9207298,208.349962 60.0765861,209.125472 L60.0765861,209.125472 Z M60.7080037,188.078771 C60.4082801,186.771597 60.0925713,185.464423 59.7808588,184.153251 C60.775941,184.960741 61.7750195,185.756239 62.7541164,186.575721 C62.0707467,187.075405 61.3913733,187.579087 60.7080037,188.078771 L60.7080037,188.078771 Z M63.8411137,200.790738 C63.7092354,200.83471 63.5733607,200.88268 63.437486,200.934647 C62.8979837,198.168395 62.3105255,195.418133 61.7150748,192.663874 C62.0827356,192.396043 62.4464002,192.128212 62.8140611,191.860381 C63.9130474,191.048894 65.0120337,190.237407 66.1150163,189.429917 C68.3529521,191.348705 70.5709062,193.295475 72.7528936,195.286217 C73.3643296,195.845863 73.967773,196.421499 74.5752127,196.985143 C70.9985118,198.25634 67.4218109,199.519542 63.8411137,200.790738 L63.8411137,200.790738 Z M65.3796946,207.338601 C65.1399157,207.43454 64.8961406,207.526482 64.6563617,207.622421 C64.5124944,206.802939 64.3646308,205.987454 64.2167672,205.17197 C68.8285134,203.537003 73.4402596,201.906034 78.0560021,200.271067 C78.6194823,200.810726 79.1789663,201.35838 79.7384502,201.906034 C74.9508662,203.708894 70.1592859,205.507758 65.3796946,207.338601 L65.3796946,207.338601 Z M65.703396,213.57466 C65.6074844,212.999024 65.5235618,212.427385 65.423654,211.855746 C70.2671864,209.992923 75.1147151,208.150088 79.9662401,206.319245 C78.5355597,207.050783 77.1088757,207.794313 75.674199,208.521853 C72.3572585,210.212785 69.0323254,211.895721 65.703396,213.57466 L65.703396,213.57466 Z M58.9775998,245.762321 C60.9957383,244.027417 63.0138768,242.292513 65.0360116,240.561607 C65.0480005,240.693524 65.0679821,240.82544 65.079971,240.957357 C65.5035803,245.126723 65.843267,249.30808 66.1429905,253.485441 C63.7372096,250.931055 61.3474139,248.352684 58.9775998,245.762321 L58.9775998,245.762321 Z M55.7525745,248.528573 C59.3172864,252.434105 62.9259578,256.295665 66.5665998,260.121248 C66.7184597,262.763578 66.8303565,265.401911 66.9302643,268.040244 C66.6984781,268.61588 66.4746845,269.199511 66.2269131,269.763155 C61.7270637,263.607045 56.8275829,257.722763 51.6123933,252.082327 C52.9911216,250.899075 54.3738462,249.715823 55.7525745,248.528573 L55.7525745,248.528573 Z M50.9050458,236.791989 C55.2770131,234.821235 59.6130137,232.782523 63.9010584,230.639877 C64.1048704,232.246861 64.2687193,233.857843 64.4525497,235.464828 C62.8979837,236.791989 61.3434176,238.123148 59.7888515,239.454307 C58.5739721,240.501645 57.363089,241.572968 56.1482096,242.656284 C54.3898315,240.713511 52.6474386,238.758746 50.9050458,236.791989 L50.9050458,236.791989 Z M45.5699668,252.182264 C43.7436514,253.785251 41.905347,255.364253 40.0350721,256.879296 C39.5595108,253.905175 39.1079273,250.927057 38.6123844,247.952937 C38.4405429,246.929583 38.2607088,245.902232 38.0888673,244.870884 C40.6385155,247.257376 43.1322154,249.691838 45.5699668,252.182264 L45.5699668,252.182264 Z M40.8543165,241.177218 C42.860466,240.337749 44.8546266,239.470297 46.8447909,238.602845 C48.1635745,240.0979 49.4743654,241.60095 50.8051379,243.084013 C51.5284708,243.895501 52.2677888,244.690998 52.9991142,245.498488 C51.6403675,246.733707 50.2776245,247.968927 48.9068889,249.204146 C46.2932996,246.469874 43.6037804,243.795564 40.8543165,241.177218 L40.8543165,241.177218 Z M37.3815197,237.919277 C37.193693,237.747386 37.0058662,237.575494 36.8180395,237.4076 C36.5542828,235.892558 36.2825334,234.38551 36.0107841,232.874465 C37.3935087,232.218879 38.7682406,231.547303 40.1469689,230.88772 C41.3738373,232.318816 42.5967093,233.761904 43.8355666,235.185005 C41.6935424,236.116416 39.5395292,237.02784 37.3815197,237.919277 L37.3815197,237.919277 Z M37.0098625,264.730335 C37.257634,266.341317 37.5054055,267.952299 37.7491806,269.567279 C36.8699916,269.099574 35.9828099,268.64786 35.1036208,268.180155 C34.456218,267.836372 33.8208041,267.480597 33.1734013,267.132817 C34.4881885,266.429262 35.7630126,265.613777 37.0098625,264.730335 L37.0098625,264.730335 Z M34.4322401,224.123994 C34.4322401,224.123994 34.4362364,224.123994 34.4362364,224.119997 C35.3833628,225.259277 36.3224966,226.406552 37.2776156,227.537837 C36.5982422,227.861632 35.9188689,228.193423 35.2394955,228.517218 C34.9757388,227.050145 34.7039895,225.58707 34.4322401,224.123994 L34.4322401,224.123994 Z M36.238574,259.81744 C35.271466,260.532987 34.3043581,261.24054 33.3212649,261.908118 C32.7138252,262.319858 32.1103818,262.691623 31.514931,263.027411 C32.3141938,256.851314 32.8297183,250.607259 33.0894787,244.32323 C33.2773054,244.251276 33.4651322,244.171326 33.6569552,244.099372 C34.5441369,249.332065 35.4073407,254.572754 36.238574,259.81744 L36.238574,259.81744 Z M26.867218,338.847501 C25.772228,338.391789 24.6812343,337.932079 23.594237,337.476367 C24.1097614,336.732837 24.6452675,336.005297 25.1647883,335.265764 C25.7402575,336.457011 26.2997414,337.656253 26.867218,338.847501 L26.867218,338.847501 Z M25.90011,326.923036 C25.1927625,325.483945 24.4894113,324.040857 23.7780674,322.597769 C24.8330943,321.910203 25.8801285,321.226635 26.931159,320.53907 C27.1069968,321.950178 27.2948236,323.365284 27.4746577,324.776392 C26.9511406,325.49194 26.4236272,326.207488 25.90011,326.923036 L25.90011,326.923036 Z M28.4617472,332.171719 C28.3138836,331.867911 28.1700163,331.560106 28.0221527,331.256298 C28.1140679,331.136373 28.1979905,331.012452 28.2899057,330.88853 C28.3458541,331.31626 28.4018025,331.739992 28.4617472,332.171719 L28.4617472,332.171719 Z M28.3618394,293.456183 C27.962208,288.895065 27.5985434,284.325953 27.2708457,279.75684 C28.3378615,280.432413 29.4048773,281.123976 30.4758894,281.799549 C33.768852,283.874238 37.0937851,285.904955 40.4267109,287.915684 C40.4466925,288.039606 40.4626777,288.167525 40.4826593,288.295444 C36.4503786,290.04234 32.406109,291.745264 28.3618394,293.456183 L28.3618394,293.456183 Z M48.2235192,352.051157 C48.3114381,352.902619 48.4073496,353.758079 48.4952685,354.613538 C46.9566877,358.275224 45.394129,361.932913 43.7956035,365.574612 C41.0940953,359.34255 38.3126609,353.13847 35.4552965,346.96637 C39.7033781,348.685284 43.955456,350.380213 48.2235192,352.051157 L48.2235192,352.051157 Z M33.8088152,341.701697 C32.9895708,336.556948 32.3221864,331.376222 31.7267356,326.195495 C32.9376187,324.560529 34.1405092,322.913569 35.3673776,321.294592 C38.0249263,317.788808 40.7424197,314.33499 43.4878873,310.90116 C43.687703,312.492155 43.891515,314.079152 44.0873344,315.674144 C45.3901327,326.191498 46.5730416,336.720845 47.7079947,347.258186 C43.064278,345.43134 38.4245576,343.58051 33.8088152,341.701697 L33.8088152,341.701697 Z M55.3369579,296.630178 C55.31298,296.64217 55.2929984,296.65816 55.2730168,296.67415 C55.2850058,296.654163 55.3049873,296.638173 55.3169763,296.618185 L55.3369579,296.630178 Z M53.518635,289.486692 C52.855247,289.022985 52.1998515,288.551283 51.5364634,288.087576 C53.2269041,287.340048 54.9133486,286.584525 56.6037893,285.833 C55.6127035,287.088207 54.5816545,288.299442 53.518635,289.486692 L53.518635,289.486692 Z M72.0535387,228.95694 C71.789782,228.26138 71.5140363,227.565819 71.2223054,226.878254 C74.2395224,225.283262 77.2247688,223.628307 80.19403,221.945371 C77.4845292,224.291888 74.7750284,226.626413 72.0535387,228.95694 L72.0535387,228.95694 Z M71.3821579,272.717288 C71.3421948,271.330165 71.3022317,269.947039 71.2502796,268.56791 C71.5819736,267.708453 71.8856935,266.844999 72.185417,265.977547 C72.1894133,265.981544 72.1934097,265.985542 72.1934097,265.989539 C72.5490816,267.580534 72.8967609,269.171529 73.2524328,270.762523 C72.6250116,271.410114 72.0095792,272.0657 71.3821579,272.717288 L71.3821579,272.717288 Z M72.8488051,289.970386 C72.389229,291.365504 71.917664,292.752628 71.4540916,294.143749 C71.4740732,293.052438 71.4980511,291.957131 71.5140363,290.869818 C71.9576271,290.570007 72.401218,290.270197 72.8488051,289.970386 L72.8488051,289.970386 Z M71.5579958,285.681096 C71.5579958,284.585788 71.5539994,283.486483 71.5500031,282.391175 C71.8177562,282.203294 72.0855092,282.01941 72.3532622,281.807544 C73.0566135,281.2439 73.1485287,279.952716 72.6849563,279.225176 C72.5890447,279.069274 72.4851406,278.91737 72.3852327,278.761469 C73.1884918,278.401696 73.9877546,278.029931 74.7910137,277.666161 C75.062763,278.893385 75.342505,280.12061 75.6182506,281.351832 C75.406446,282.023408 75.202634,282.694983 74.9908294,283.362561 C73.8478836,284.134074 72.7009415,284.909584 71.5579958,285.681096 L71.5579958,285.681096 Z M89.3016292,254.940521 C88.5862891,255.616094 87.8749452,256.299662 87.1675976,256.979233 C87.4673212,255.863938 87.7670447,254.748642 88.0587756,253.625352 C88.470396,254.069072 88.8860126,254.504797 89.3016292,254.940521 L89.3016292,254.940521 Z M85.8807846,244.986811 C82.0643049,240.833435 78.347733,236.584121 74.7030948,232.262851 C77.1927983,230.124203 79.6785055,227.985554 82.168209,225.850903 C85.7768804,222.75286 90.2327704,219.339018 91.6634507,215.133675 C91.9671706,214.945794 92.2788831,214.757912 92.5826029,214.570031 C90.6324018,224.767587 88.3904697,234.913176 85.8807846,244.986811 L85.8807846,244.986811 Z M113.503306,193.819144 C114.32255,193.515336 115.145791,193.211528 115.965035,192.90772 C110.286273,197.332923 104.46764,201.542263 98.517129,205.531742 C98.7649004,204.092652 99.0126719,202.645566 99.2444581,201.202478 C104.000072,198.748029 108.751689,196.285585 113.503306,193.819144 L113.503306,193.819144 Z M96.8067066,189.110119 C90.9001548,191.200798 84.9936029,193.295475 79.0910474,195.386153 C75.9979004,192.471995 72.8368162,189.625793 69.6197835,186.847549 C79.7664244,179.372273 89.8930837,171.853024 99.9597983,164.261821 C99.1165761,172.644524 97.9736303,180.971262 96.8067066,189.110119 L96.8067066,189.110119 Z M26.5555055,176.310207 C26.8112696,176.65399 27.0670337,176.997773 27.3227978,177.341556 C27.1829268,177.521442 27.0470521,177.697331 26.9111775,177.877217 C26.7952843,177.353548 26.6753949,176.829879 26.5555055,176.310207 L26.5555055,176.310207 Z M26.8991885,207.354591 C26.9671258,207.686381 27.0310669,208.018171 27.0950079,208.349962 C26.9111775,208.114111 26.7233507,207.870265 26.5355239,207.634414 C26.6554134,207.538474 26.7792991,207.45053 26.8991885,207.354591 L26.8991885,207.354591 Z M24.6812343,214.558039 C24.6732417,213.738557 24.6532601,212.923072 24.6452675,212.10359 C25.0608841,212.623261 25.4844934,213.134938 25.90011,213.658607 C25.492486,213.962415 25.0888583,214.258228 24.6812343,214.558039 L24.6812343,214.558039 Z M26.5475129,218.491553 C27.0150816,218.327657 27.4866466,218.159763 27.9582117,217.995866 C28.0461306,219.370997 28.1220605,220.746129 28.1860016,222.12126 C27.0630374,222.584967 25.9360769,223.040679 24.8131127,223.508383 C24.7891348,222.277161 24.7771459,221.045939 24.7611606,219.81072 C25.3526151,219.370997 25.9480658,218.935273 26.5475129,218.491553 L26.5475129,218.491553 Z M179.170735,227.014168 C198.86457,216.956523 218.470485,206.72299 238.024449,196.389519 C214.729936,220.462308 191.435422,244.539094 168.140909,268.611882 C171.885455,260.57696 174.594956,252.038355 176.481216,243.403811 C177.672117,237.963249 178.535321,232.494705 179.170735,227.014168 L179.170735,227.014168 Z M9.65909057,215.105693 C8.36428488,214.138304 7.06548288,213.17891 5.76668088,212.227511 C6.62588836,211.128206 7.48909215,210.024903 8.35229594,208.925598 C9.05165087,210.800413 9.72303159,212.679226 10.3664381,214.574029 C10.1306556,214.753915 9.89487309,214.929804 9.65909057,215.105693 L9.65909057,215.105693 Z M10.5702501,24.6340511 C12.1288125,23.1869655 13.7233418,21.7678622 15.3098784,20.348759 C16.8005034,19.9370191 18.3950326,20.2088474 19.9775729,21.655933 C21.0325998,22.6193242 21.7159694,24.0903946 22.1795419,25.6853868 C18.3430806,24.9978212 14.4666561,24.5900789 10.5702501,24.6340511 L10.5702501,24.6340511 Z M104.99915,146.572998 C118.067096,139.165679 131.12705,131.746367 144.191,124.327055 C131.175006,134.908369 117.939214,145.22585 104.575541,155.387428 C104.767364,152.433295 104.911231,149.499149 104.99915,146.572998 L104.99915,146.572998 Z M111.756917,135.955707 C109.53097,137.694609 107.309019,139.43351 105.083073,141.176408 C105.087069,140.16105 105.091065,139.149689 105.07508,138.138328 C107.305023,137.418783 109.534966,136.69524 111.756917,135.955707 L111.756917,135.955707 Z M137.720968,121.105091 C158.669645,105.011261 179.858101,89.2172412 201.486152,74.0468273 C183.986293,90.8202283 165.747117,106.698195 147.036375,122.004523 C147.392047,120.525458 146.181164,118.634652 144.466746,119.338208 C141.413562,120.593415 138.348389,121.808647 135.275224,122.999894 C136.090472,122.364296 136.901723,121.732695 137.720968,121.105091 L137.720968,121.105091 Z M180.841194,190.773068 C192.798165,183.61759 205.042871,176.941808 217.551333,170.781701 C205.750218,182.770125 193.397612,194.142939 180.649371,205.052046 C180.785246,200.299049 180.833202,195.538057 180.841194,190.773068 L180.841194,190.773068 Z M180.917124,159.676718 C182.056074,159.129064 183.191027,158.56542 184.329976,158.017766 C199.61188,150.674407 215.605128,141.620128 232.617436,138.997785 C216.915919,149.667043 198.928511,157.318208 180.845191,164.169879 C180.861176,162.674824 180.885154,161.175771 180.917124,159.676718 L180.917124,159.676718 Z M159.229129,283.958185 C179.170735,263.347209 199.108345,242.740231 219.053947,222.129255 C229.496315,211.336075 239.938683,200.542895 250.385048,189.753713 C252.087478,187.986829 249.937461,185.268547 247.799433,186.399832 C225.188289,198.400249 202.497219,210.296731 179.68626,221.965358 C180.02195,218.263697 180.261729,214.550044 180.43357,210.828396 C197.321993,196.537426 213.547027,181.474944 228.768986,165.277179 C230.495394,163.442339 228.337384,160.927927 226.187367,161.927296 C210.669681,169.130744 195.53564,177.12969 180.837198,185.852178 C180.821213,179.983886 180.78125,174.107599 180.809224,168.239307 C186.2562,166.068679 191.68719,163.874066 197.102195,161.631483 C212.619882,155.191552 227.92976,148.303905 241.309419,137.986424 C242.840007,136.811167 242.572254,133.936983 240.234411,134.012935 C226.091456,134.452657 213.291263,139.84525 200.606963,145.673567 C194.057004,148.67567 187.539016,151.757722 181.045006,154.887744 C181.280789,147.892165 181.72438,140.908578 182.551617,133.95697 C182.871322,131.234691 178.607255,131.258675 178.283553,133.95697 C177.372394,141.612133 176.936796,149.291281 176.728987,156.974426 C170.406819,160.048483 164.100636,163.162515 157.810438,166.316522 C147.803668,171.333352 137.840857,176.454117 127.894032,181.586873 C119.010226,179.528174 109.526974,184.556996 101.278582,187.519125 C102.301638,179.967896 103.172835,172.392683 103.852208,164.797482 C103.960108,163.558265 104.060016,162.331041 104.159924,161.095821 C145.325953,129.899534 185.385003,97.244169 221.507684,60.2195647 C223.150169,58.5406256 220.996156,55.4745631 218.926065,56.8696815 C185.736679,79.2395461 153.786149,103.308337 122.1833,127.840835 C116.472567,129.867554 110.729864,131.802332 104.951194,133.65716 C104.439666,121.017147 102.405542,108.57301 97.6339436,96.088899 C96.8466698,94.0301999 96.0074439,91.9794957 95.1642217,89.932789 C110.066476,66.8233918 123.246319,42.646669 132.849461,16.8229869 C133.085244,16.1873885 132.837472,15.1760276 132.301966,14.7482979 C113.223564,-0.450098317 87.3234539,24.725993 72.9447167,35.8429682 C70.5149578,37.7257785 68.1051806,39.6285761 65.6993997,41.5393687 C58.1303812,35.9189202 49.0067967,33.0807137 40.0870242,30.334449 C36.8300284,29.3310831 33.5250769,28.3397095 30.1841585,27.4642627 C27.2069047,22.3075212 23.2545503,17.7863781 17.8715155,14.3165707 C17.0362859,13.7769117 15.9852554,14.040745 15.2859005,14.648361 C14.6664718,15.18802 14.0710211,15.7476664 13.4515924,16.2873254 C12.1328088,16.72305 10.8140253,17.4585852 9.5511901,18.5898704 C8.00062032,19.9650015 6.72979252,21.647938 5.62281358,23.4547963 C5.00738125,24.0384275 4.38395629,24.6140637 3.77252027,25.2056899 C2.49369984,25.417556 1.23486098,25.6933817 0,26.0171771 L0,34.9075593 C0.00399631385,34.9035618 0.0079926277,34.8995644 0.0119889415,34.8915694 C0.0079926277,34.9035618 0.00399631385,34.9115568 0,34.9195517 L0,45.4808781 C0.255764086,44.8652671 0.495542917,44.2376636 0.759299631,43.6180552 C2.79741969,38.8450712 4.88349552,33.9161857 7.34122854,29.2791159 C12.4844845,28.8274013 17.7076667,29.2271487 23.0187678,30.2225198 C23.0667235,30.6822293 23.1026904,31.1219514 23.1346609,31.5296938 C24.2376435,46.0325295 22.8629115,61.1149989 22.5392101,75.6538119 C22.5192285,76.6052107 22.4952506,77.560607 22.4712728,78.5200007 C20.1414218,80.6586493 17.8315524,82.8172853 15.5256793,84.9839162 C10.8859589,80.8545256 5.41900158,77.0649202 0,78.2641624 L0,82.5854318 C4.02428804,81.0424068 8.18445076,84.4722395 10.9339147,86.6948351 C11.4334539,87.0945825 11.8970263,87.5422996 12.3805803,87.9580369 C10.3944123,89.8408471 8.40824434,91.7236574 6.44205792,93.626455 C4.86351395,95.1494926 3.30095524,96.6885201 1.7304039,98.2235501 C1.17491627,96.9163761 0.583461822,95.625192 0,94.3300105 L0,113.246057 C4.52382728,122.288344 8.33231437,131.814324 11.6732327,141.084466 C12.3685914,143.662837 13.0479647,146.23721 13.7073565,148.811584 C12.2726798,148.056061 10.8340068,147.316528 9.38734123,146.584991 C6.30618325,142.679459 3.1730732,138.821896 0,134.996314 L0,141.704075 C0.143867299,141.883961 0.291730911,142.05985 0.439594523,142.239736 C0.291730911,142.175777 0.143867299,142.111817 0,142.039863 L0,146.740892 C2.19797262,147.780235 4.39194892,148.835569 6.56594365,149.922882 C8.69997525,152.645161 10.8220179,155.375436 12.924079,158.129696 C8.61205634,159.153049 4.30403001,160.172405 0,161.199756 L0,178.868591 C0.05195208,178.880583 0.111896788,178.892576 0.167845182,178.904568 C0.359668246,179.184391 0.551491311,179.468212 0.743314376,179.748035 C2.81740126,182.774123 4.92745497,185.772228 7.05749026,188.754344 C7.22133912,189.254028 7.39717693,189.745718 7.55303317,190.245402 C7.83277514,191.120849 8.48017799,191.568566 9.18752554,191.68849 C9.8708952,192.631894 10.5502686,193.579295 11.2416309,194.514704 C10.122663,195.142308 9.01168773,195.765913 7.89271985,196.389519 C5.47894629,190.861013 2.83738283,185.440438 0,180.123798 L0,189.485882 C1.4426693,192.460002 2.83338652,195.450113 4.14417746,198.476201 C2.76544918,199.247713 1.37872828,200.011231 0,200.782743 L0,205.667657 C1.93821222,204.592336 3.87642443,203.509021 5.81463665,202.429703 C6.05841179,203.025326 6.29419431,203.624947 6.53397314,204.220571 C6.48202106,204.288528 6.43006898,204.356485 6.3781169,204.424442 C5.01537388,206.183331 3.64064192,207.938222 2.27789889,209.69711 C1.51859926,209.153454 0.759299631,208.617792 0,208.078133 L0,219.578866 C0.959115323,218.351642 1.92622327,217.128415 2.8853386,215.90119 C3.83246498,216.61274 4.76760242,217.332286 5.71073249,218.047834 C3.8084871,219.462939 1.90224539,220.862055 0,222.265169 L0,227.845642 C4.20811848,226.36258 8.42422959,224.879517 12.6363444,223.396454 C12.656326,223.412444 12.6723112,223.424436 12.6922928,223.440426 C8.50815218,226.550461 4.3280079,229.668491 0.163848868,232.798513 C0.107900474,232.654604 0.05195208,232.506697 0,232.358791 L0,243.907493 C0.0719336493,244.083382 0.139870985,244.263268 0.211804634,244.439157 C0.139870985,244.467139 0.0679373354,244.495122 0,244.527101 L0,268.232122 C0.287734597,268.971655 0.587458136,269.711188 0.871196419,270.454718 C3.22902159,276.674787 5.67876198,283.178678 6.96157872,289.826477 C4.65970195,285.46923 2.34183991,281.119979 0,276.782719 L0,295.778716 C0.775284886,298.600932 1.5585624,301.419152 2.3658178,304.237371 C1.57854397,304.553171 0.787273828,304.864974 0,305.184772 L0,309.749887 C1.17891259,309.278185 2.36182148,308.814478 3.54073407,308.338779 C3.9243802,309.641956 4.3280079,310.937137 4.71565034,312.240314 C3.48478568,314.694763 1.89824908,316.937346 0,318.804166 L0,324.316683 C0.263756714,324.144791 0.539502369,323.980895 0.791270142,323.801009 C1.86627857,323.505195 2.89732754,323.153418 3.88441706,322.749673 C5.13925961,322.43787 6.39010584,322.10608 7.63295945,321.758299 C8.18445076,323.505195 8.74793101,325.244097 9.30741495,326.986995 C7.94866824,327.854447 6.60191048,328.725896 5.23916745,329.589351 C3.48878199,328.813841 1.74239284,328.026339 0,327.238836 L0,331.867911 C0.31171248,332.007823 0.619428646,332.151732 0.93513744,332.291643 C0.62342496,332.491517 0.31171248,332.683396 0,332.879272 L0,337.784173 C1.84230068,336.6329 3.692594,335.489623 5.52690205,334.330355 C7.94067562,335.389686 10.3584455,336.449016 12.784208,337.492357 C13.4036366,339.327198 14.019069,341.158041 14.6504866,342.984886 C10.7181137,348.845183 6.90563033,354.78543 3.21703265,360.809623 C2.12204265,358.706952 1.06301948,356.584293 0,354.469629 L0,374.612901 C0.567476566,373.621527 1.13095682,372.626156 1.71042233,371.63878 C3.79649816,374.624893 5.89855924,377.599014 8.02459821,380.557144 C9.78697261,383.007596 11.5693286,385.43806 13.3556809,387.868524 C13.5594929,388.212307 13.7673012,388.552093 13.9671169,388.895875 C9.37135597,385.92975 4.94344023,382.691796 0.659391785,379.269958 C0.427605582,378.862216 0.219797262,378.442481 0,378.026743 L0,386.049674 C5.94651501,395.103952 13.6394192,402.587224 23.5902406,404.525999 C23.8659863,404.961723 24.1337393,405.401445 24.4134813,405.83717 C20.2573149,413.664224 15.929307,421.363359 11.3775055,428.882608 C7.90470879,434.614986 4.14817377,440.163479 0,445.352201 L0,452 C5.62281358,445.532087 10.5822391,438.424578 15.0581106,431.033249 C19.2702254,424.089636 23.2025982,416.94615 26.9591332,409.69873 C28.6695555,412.305083 30.3759816,414.911436 32.1343597,417.485809 C39.371684,428.075118 46.9486951,439.635813 59.1174708,444.596678 C60.0526082,445.656009 60.979753,446.731329 61.9228831,447.79066 C63.5174123,449.581528 66.6345371,447.219021 65.2717941,445.204294 C65.1199341,444.980436 64.9640779,444.760575 64.812218,444.536716 C64.9361037,444.272883 65.0080374,443.981067 64.9960484,443.665267 C64.4245755,432.020625 62.4663818,420.651809 59.5650579,409.506851 C70.3231348,410.01453 80.7135508,407.460145 85.1774334,397.606371 C89.2177067,388.688007 91.131941,378.638357 91.7673549,368.328872 C119.609673,378.310564 147.667793,387.696633 175.594034,397.118679 C199.004441,405.01369 222.386873,412.984654 245.629434,421.363359 C247.771459,422.138869 249.014312,419.260688 247.703521,417.797612 C229.10068,397.02274 206.933127,380.017486 185.472922,362.36464 C166.54638,346.790482 147.819653,330.964482 129.520532,314.658785 C136.26631,307.687191 143.012087,300.719594 149.757865,293.747999 C153.422485,291.677307 156.491654,287.907689 159.229129,283.958185 L159.229129,283.958185 Z" id="Fill-4"></path>
            </g>
        </g>
    </g>
</svg>