<?xml version="1.0" encoding="UTF-8"?>
<svg width="227px" height="461px" viewBox="0 0 227 461" version="1.1" xmlns="http://www.w3.org/2000/svg" xmlns:xlink="http://www.w3.org/1999/xlink">
    <!-- Generator: Sketch 47.1 (45422) - http://www.bohemiancoding.com/sketch -->
    <title>Group 3</title>
    <desc>Created with Sketch.</desc>
    <defs>
        <polygon id="path-1" points="0.554957064 461 226.967173 461 226.967173 0.00528531337 0.554957064 0.00528531337"></polygon>
    </defs>
    <g id="Page-1" stroke="none" stroke-width="1" fill="none" fill-rule="evenodd">
        <g id="по-умолчанию" transform="translate(-797.000000, -100.000000)">
            <g id="Page-1" transform="translate(0.000000, 100.000000)">
                <g id="Group-3" transform="translate(797.000000, 0.000000)">
                    <mask id="mask-2" fill="white">
                        <use xlink:href="#path-1"></use>
                    </mask>
                    <g id="Clip-2"></g>
                    <path d="M81.9028744,393.422488 C79.9049204,391.004588 77.9751696,388.53865 76.1136221,386.024674 C77.2690654,387.081504 78.4405565,388.122322 79.6240835,389.151131 C92.654916,400.500051 107.093945,409.815372 122.660334,416.892934 C137.051219,427.189027 152.866349,435.499558 169.499918,441.600353 C157.034771,438.750113 144.862497,434.47075 133.243873,428.60614 C114.909235,419.354869 97.5495021,407.385462 81.9028744,393.422488 L81.9028744,393.422488 Z M66.4889401,371.589328 C54.1000206,350.849028 46.1242524,327.810921 42.2527151,304.040239 C46.0199416,314.960822 51.1432091,325.401027 57.9314384,335.056616 C58.6094589,336.017371 59.3075392,336.962114 60.0056195,337.906856 C70.7616731,363.386882 86.6650659,386.569102 108.333639,405.560027 C97.7460879,399.339138 87.8084733,391.989362 78.6291184,383.61478 C74.4286007,379.783769 70.3805373,375.76461 66.4889401,371.589328 L66.4889401,371.589328 Z M28.997213,326.137606 C25.2500463,318.963968 21.9441947,311.550141 19.1197778,303.960176 C29.7835564,329.572306 44.8203668,353.455076 63.6805711,373.70299 C64.7397274,375.47238 65.8470272,377.209746 66.9703748,378.943108 C51.8773971,363.022596 38.9308156,345.156554 28.997213,326.137606 L28.997213,326.137606 Z M42.7542095,231.49122 C41.0852359,262.487581 44.6358168,293.660081 54.2243912,322.522765 C46.9587392,309.340404 42.3690618,295.053176 39.7452427,280.285569 C38.9428515,263.952732 39.9699122,247.527823 42.7542095,231.49122 L42.7542095,231.49122 Z M36.8646584,250.201925 C36.0542433,224.649843 37.988006,198.273112 43.1955247,173.377546 C48.4632227,148.193753 58.781973,124.595206 75.2951832,104.715581 C83.7764578,94.5035554 93.5937136,85.4004008 104.409947,77.7023506 C104.269528,77.8304513 104.125098,77.9465425 103.988691,78.0786464 C86.0753084,94.5395837 73.2571096,115.848331 63.9654199,138.137849 C55.1912726,159.198402 48.8965139,181.840197 45.4422199,204.994395 C42.6378628,214.361757 40.4272752,223.917267 38.8746483,233.644912 C38.0000419,239.125219 37.3380692,244.653564 36.8646584,250.201925 L36.8646584,250.201925 Z M142.050116,58.3511417 C151.305698,55.1966625 160.822057,52.9428912 170.474823,51.3536421 C146.691949,65.4046854 124.915053,83.0945886 106.383829,102.401763 C83.8727447,125.856197 65.4819392,153.245723 53.1772707,183.165238 C56.1581539,170.427227 59.9855598,157.921398 64.6233807,145.811881 C73.2771694,123.238139 85.3732162,101.420992 102.61259,84.2154696 C114.046664,72.7984965 127.442585,64.2958139 142.050116,58.3511417 L142.050116,58.3511417 Z M4.98565749,235.450331 C0.757056062,194.698303 7.6455842,153.25373 28.3031447,117.289464 C51.4240461,77.0298221 89.9107382,48.3632919 131.887832,29.8167153 C122.584106,34.6445097 113.721696,40.3329805 105.513234,46.7420176 C85.024176,62.7465963 67.9773758,82.7943526 53.6506815,104.387323 C38.4132733,127.357377 25.5148354,152.24894 16.56015,178.337444 C10.2453316,196.747913 6.03678992,216.015056 4.98565749,235.450331 L4.98565749,235.450331 Z M226.967173,456.812309 C212.094853,458.245435 196.965767,457.584916 181.928957,454.486481 C151.819228,448.273598 123.703442,433.538016 100.795174,413.061923 C111.723742,420.860052 123.222007,427.701429 135.101408,433.377891 C154.948554,442.86935 175.858868,448.033409 196.989839,449.502564 C206.85925,451.580197 216.893152,452.885222 226.967173,453.401628 L226.967173,449.910885 C225.246044,449.822815 223.532939,449.718734 221.815821,449.578623 C223.532939,449.470539 225.250056,449.322422 226.967173,449.170303 L226.967173,445.215194 C216.223155,446.167943 205.426982,446.284034 194.723084,445.43937 C175.10462,440.995878 156.168188,433.505991 138.836539,423.297968 C141.488442,424.198676 144.164417,425.047343 146.872487,425.823954 C172.609183,433.193746 200.1312,436.304191 226.967173,436.848618 L226.967173,433.353872 C199.750065,432.701359 171.879007,429.642955 145.757163,421.876852 C138.411272,419.691134 131.286039,417.013029 124.381463,413.886572 C123.374462,413.166005 122.367461,412.43343 121.376508,411.688844 C98.7530888,394.755536 81.1446147,372.998436 68.6594082,348.451143 C80.7032996,361.78162 95.1302927,372.926379 110.508119,382.229691 C132.477589,395.520137 156.693755,405.696134 181.29908,412.99387 C196.155352,417.393328 211.517131,420.495766 226.967173,421.428499 L226.967173,417.949765 C211.477011,416.993013 196.075113,413.810512 181.194769,409.334994 C157.215309,402.125328 133.701236,392.197525 112.265356,379.227332 C93.4492832,367.846387 75.9611678,353.639221 62.8300364,335.909286 C56.6436006,321.285793 52.1502101,305.857667 49.4020203,289.993199 C44.615757,262.343468 44.6438407,233.712966 48.8483704,205.730974 C60.3907673,167.328792 82.0633526,132.401341 110.0989,103.558672 C130.198798,82.886425 154.013768,64.1837258 180.023278,49.9805629 C190.578734,48.6755373 201.2385,48.011015 211.826052,47.6387224 C216.873092,47.462584 221.920132,47.3504959 226.967173,47.2584235 L226.967173,42.9550413 C215.264298,42.726862 203.537351,42.9150098 191.902679,43.8877744 C203.272562,38.4274829 214.999509,33.8558899 226.967173,30.3731527 L226.967173,26.7382959 C211.525155,31.121741 196.464273,37.3146082 182.033268,44.9005704 C178.707356,45.3128944 175.385457,45.793272 172.079605,46.3577156 C161.006607,48.2351912 150.20241,51.213532 139.963899,55.428845 C135.257875,57.0661318 130.616042,58.9195885 126.05846,61.0492623 C104.502221,71.1131719 85.3932759,86.3731654 70.6252666,104.975786 C54.4570847,125.339791 44.4793505,149.146502 39.4122503,174.546464 C33.815572,202.588504 31.9379767,232.451975 33.8917991,260.970389 C34.3531741,267.71569 35.1515533,274.42096 36.3350802,281.038161 C37.7392648,308.175489 44.1343223,335.040603 55.973604,359.443783 C32.997133,330.885338 16.6684728,296.262126 8.90935028,260.065677 C8.8170753,259.080903 8.7167764,258.100133 8.6445612,257.115359 C6.61451155,229.994043 11.6053846,202.856715 20.6001895,177.308635 C29.4305043,152.224921 41.9598423,128.286106 56.6596484,106.140701 C70.4808362,85.3203379 86.8736876,65.969129 106.500175,50.364865 C139.907732,23.7919803 185.042234,9.02837693 226.967173,18.8280789 L226.967173,15.3413385 C208.323614,11.1460413 189.122394,11.5783811 170.559074,15.6735997 C181.363271,12.4550701 192.311898,9.72892752 203.344777,7.49116878 C211.123959,5.90592287 219.019488,4.53284371 226.967173,3.48802254 L226.967173,0.00528531337 C219.665413,0.950027825 212.403773,2.17499057 205.230396,3.5800949 C181.142613,8.29179802 157.46405,15.2212442 134.848655,24.7727511 C89.926786,43.7476642 48.5996292,74.0394718 24.3995117,117.109322 C0.283645276,160.035059 -4.47453432,211.575567 5.35074547,259.313086 C5.36278134,259.477215 5.37080525,259.641344 5.38685307,259.805473 C7.59744073,283.924429 15.1198579,307.294797 26.4095015,328.68761 C39.6168601,353.711277 58.0477851,376.893497 79.7404302,396.244706 C106.223351,427.96964 143.622803,451.015753 184.392298,458.497633 C198.634741,461.111688 212.917303,461.620087 226.967173,460.295046 L226.967173,456.812309 Z" id="Fill-1" fill="#001F20" mask="url(#mask-2)"></path>
                </g>
            </g>
        </g>
    </g>
</svg>