<?xml version="1.0" encoding="UTF-8"?>
<svg width="290px" height="109px" viewBox="0 0 290 109" version="1.1" xmlns="http://www.w3.org/2000/svg" xmlns:xlink="http://www.w3.org/1999/xlink">
    <!-- Generator: Sketch 47.1 (45422) - http://www.bohemiancoding.com/sketch -->
    <title>Page 1@1x</title>
    <desc>Created with Sketch.</desc>
    <defs>
        <polygon id="path-1" points="287.517613 109 0.117117052 109 0.117117052 0.317019603 287.517613 0.317019603"></polygon>
    </defs>
    <g id="Page-1" stroke="none" stroke-width="1" fill="none" fill-rule="evenodd">
        <g id="окно" transform="translate(-15.000000, -197.000000)">
            <g id="Page-1" transform="translate(15.000000, 197.000000)">
                <path d="M0.00509692522,5.63522723 C3.26669717,32.4423563 4.75258201,59.3979977 4.45268788,86.357629 C4.44363067,87.2136803 5.95316488,87.2145669 5.96222208,86.357629 C6.26211621,59.3979977 4.77623137,32.4423563 1.51463113,5.63522723 C1.41198281,4.79291885 -0.098557757,4.78360912 0.00509692522,5.63522723" id="Fill-1" fill="#0F0E0E"></path>
                <g id="Group-5" transform="translate(2.000000, 0.000000)">
                    <mask id="mask-2" fill="white">
                        <use xlink:href="#path-1"></use>
                    </mask>
                    <g id="Clip-4"></g>
                    <path d="M0.857196448,5.24940484 C45.164692,3.74977581 89.4931609,2.71207823 133.830326,2.14642097 C178.16698,1.58120323 222.511818,1.48538871 266.851541,1.85765887 C269.40006,1.87919516 271.948067,1.90205 274.496585,1.9266629 C277.05687,1.95127581 282.480273,1.10344919 283.822056,3.41750161 C284.279889,4.2073121 283.98217,6.02690887 284.034859,6.90945726 C284.103918,8.07373548 284.170418,9.23757419 284.235896,10.4022919 C284.375037,12.8763282 284.505481,15.3503645 284.627228,17.8248403 C285.095292,27.2871831 285.441609,36.7530419 285.6672,46.2215379 C285.893303,55.6900339 285.997658,65.1602879 285.981289,74.6305419 C285.973104,79.4384089 285.933715,84.2462758 285.863122,89.0541427 C285.82936,91.3853363 285.787413,93.7160903 285.738305,96.0468444 C285.718355,97.0164169 285.743932,97.9978565 285.669246,98.9652315 C285.533687,100.720219 284.230269,101.699461 282.302767,102.073929 C260.935008,106.221643 238.527278,107.220223 216.691456,107.574913 C194.825452,107.930481 172.936429,107.437784 151.082703,106.804881 C128.952742,106.164506 106.82585,105.345687 84.7081663,104.45303 C62.9864185,103.576635 41.2590437,102.449715 19.6667169,100.180494 C14.0908732,99.594179 8.52781812,98.9243565 2.97857478,98.1736629 C3.16682345,98.3855097 3.35456057,98.597796 3.54229769,98.8092032 C3.25787851,94.5722677 2.97345933,90.3353323 2.68955169,86.0983968 C2.63277016,85.2549653 1.09762274,85.2492516 1.15491581,86.0983968 C1.43882345,90.3353323 1.72324263,94.5722677 2.00766181,98.8092032 C2.02505435,99.0729129 2.2312071,99.3990339 2.57087318,99.4451831 C47.2267311,105.485453 92.7609123,106.234389 137.857211,107.71424 C160.629672,108.460977 183.425154,109.069707 206.216543,108.993671 C228.3552,108.919832 250.555754,108.044316 272.430966,104.965506 C275.213772,104.573457 277.989928,104.146687 280.757388,103.6808 C282.483342,103.39028 284.622113,103.252272 285.947015,102.133264 C286.956806,101.280602 287.136358,100.130389 287.203882,98.9652315 C287.35223,96.3966992 287.321026,93.8105863 287.363484,91.2389774 C287.526156,81.4786427 287.560429,71.71655 287.465793,61.9553363 C287.369111,52.0482032 287.141474,42.1415097 286.780834,32.2392113 C286.600259,27.2880621 286.386944,22.3377919 286.140379,17.3884008 C286.02477,15.0589653 285.901488,12.7304089 285.770532,10.4022919 C285.631392,7.92254194 285.790482,5.25072339 285.291726,2.80525565 C285.106035,1.89501774 284.66764,1.1772879 283.618461,0.844574194 C281.453601,0.156731452 278.313225,0.645473387 276.025594,0.623058065 C270.419569,0.567679032 264.813033,0.519771774 259.207008,0.47933629 C247.654781,0.396707258 236.102042,0.345283871 224.549303,0.325945161 C201.61417,0.287267742 178.678525,0.374291935 155.744415,0.587017742 C109.876195,1.01202984 64.014113,1.93852984 18.1740277,3.36739677 C12.4012391,3.54715887 6.62896199,3.73527177 0.857196448,3.93085645 C-0.127016696,3.96382016 -0.132132149,5.28280806 0.857196448,5.24940484" id="Fill-3" fill="#001F20" mask="url(#mask-2)"></path>
                </g>
            </g>
        </g>
    </g>
</svg>