<?xml version="1.0" encoding="UTF-8"?>
<svg width="73px" height="72px" viewBox="0 0 73 72" version="1.1" xmlns="http://www.w3.org/2000/svg" xmlns:xlink="http://www.w3.org/1999/xlink">
    <!-- Generator: Sketch 47.1 (45422) - http://www.bohemiancoding.com/sketch -->
    <title>развернутый мини@1x</title>
    <desc>Created with Sketch.</desc>
    <defs>
        <polygon id="path-1" points="12.844122 0.198186351 12.844122 19.1919965 0.181558472 19.1919965 0.181558472 0.198186351 12.844122 0.198186351"></polygon>
        <polygon id="path-3" points="17.624384 19.4518646 0.135309314 19.4518646 0.135309314 0.0194264238 17.624384 0.0194264238"></polygon>
        <polygon id="path-5" points="0.140963052 0.251305541 60.7624715 0.251305541 60.7624715 68.6744255 0.140963052 68.6744255"></polygon>
    </defs>
    <g id="Page-1" stroke="none" stroke-width="1" fill="none" fill-rule="evenodd">
        <g id="Экран-с-развернутым-подарком" transform="translate(-270.000000, -321.000000)">
            <g id="Group-Copy" transform="translate(270.000000, 321.000000)">
                <g id="развернутый-мини">
                    <g id="Group-102" transform="translate(0.000000, 0.689914)">
                        <path d="M72.2270804,44.096373 C72.2214207,44.0991967 71.5784128,42.0859287 71.5098672,41.8976849 C71.2265664,41.1192965 70.7329124,40.3707135 70.3807516,39.6167969 C69.6575642,38.06755 69.0107832,36.4837917 68.4438672,34.8730518 C68.4058212,34.7641841 68.366832,34.6531203 68.2970287,34.560567 C68.2083597,34.4422872 68.0766138,34.3638522 67.9486411,34.2882409 C67.2499792,33.8759869 66.5513173,33.4637329 65.8529698,33.0514788 C65.7413475,32.9855935 65.623122,32.9178257 65.4932627,32.9153158 C65.4005061,32.9134334 65.3105793,32.9457485 65.2234824,32.97775 C64.2459218,33.3344721 63.2683611,33.6918217 62.2908004,34.0488575 C62.3313618,34.5891174 62.0446023,35.2790311 61.9018514,35.7992116 C61.7254566,36.4414369 61.5122735,37.0733087 61.2638744,37.691376 C61.6135197,38.2153214 61.8147545,38.8192704 62.0254221,39.4106699 C62.962107,42.0423189 64.1591393,44.5845521 65.5941945,46.9877986 C67.8304156,46.0814045 70.0424257,45.1169685 72.2270804,44.096373" id="Fill-1" fill="#FFFFFF"></path>
                        <path d="M65.934973,44.6904706 C66.7833032,44.5078741 67.5681187,44.2000954 68.3328108,43.8066658 C68.6544719,43.6413249 68.9736177,43.4935535 69.2506299,43.2541701 C69.3201187,43.193932 69.9131324,42.4619772 69.8873492,42.4560161 C69.2333363,42.2991463 68.612024,42.0064271 68.0762365,41.6023303 C68.638436,41.212038 69.1066212,40.6909163 69.4326844,40.0926146 C68.6422092,40.0690841 67.8548782,39.9294699 67.10465,39.6800468 C67.6743958,39.414623 68.1617612,38.9800934 68.48751,38.4470496 C67.4700168,38.174096 66.5182393,37.6627002 65.7324805,36.9655705 C65.5523126,38.1132305 65.2561202,39.2015937 64.4612429,40.072849 C64.9272271,40.1995998 65.4353449,40.1672846 65.8799479,39.9828057 C65.8088869,40.8970433 65.4677311,41.7880642 64.9096191,42.5181366 C65.5318747,42.5288038 66.1553879,42.3446385 66.6682221,41.9982698 C66.5138373,42.9168998 66.2679536,43.8201566 65.934973,44.6904706" id="Fill-3" fill="#90B83B"></path>
                        <g id="Group-7" transform="translate(59.741565, 28.236578)">
                            <mask id="mask-2" fill="white">
                                <use xlink:href="#path-1"></use>
                            </mask>
                            <g id="Clip-6"></g>
                            <path d="M12.0095953,15.611941 C9.97209347,16.6469685 7.89371587,17.5853641 5.76911716,18.4283828 C4.21740861,15.5375847 3.50742728,12.3142225 1.86170438,9.45260222 C1.87365269,9.42342442 1.88497215,9.39267793 1.89597717,9.35753908 C1.91327078,9.30232088 1.91704393,9.25149504 1.91044092,9.20474782 C2.2515967,8.25913621 2.49465054,7.29658265 2.69557085,6.31081235 C3.20557516,6.14327532 3.71023417,5.96318871 4.20923345,5.7658464 C4.28280991,5.9694635 4.3535565,6.17496304 4.41864336,6.38422745 C4.36550481,6.43850443 4.31645384,6.49686002 4.2784079,6.56494155 C4.22841364,6.58972699 4.1818781,6.62643454 4.14351773,6.68008404 C3.4357374,7.66491312 5.49179052,8.60989725 5.96186231,7.42866709 C6.138886,6.98347038 5.94708413,6.43693573 5.52354788,6.20633701 C5.3820547,6.12915704 5.22609777,6.09935176 5.07171299,6.10343038 C5.00316741,5.88663621 4.92864767,5.67360692 4.85129806,5.46308754 C5.21069074,5.28425588 5.6128458,5.08754106 5.65089174,5.11013032 C5.73138564,5.1581325 5.80967854,5.16942714 5.88073955,5.15687755 C6.50551055,5.72725641 7.24662039,6.13135321 8.06633754,6.33936267 C8.12859454,6.45042654 8.23738708,6.5250966 8.36095779,6.50972335 C9.51679986,9.56805845 10.7380432,12.6000394 12.0202859,15.6075487 C12.0165127,15.6094311 12.013054,15.6100586 12.0095953,15.611941 M12.8123332,15.6800225 C11.4587151,12.5219182 10.1774158,9.33526355 8.96560531,6.12068606 C8.92410065,6.00993593 8.84580775,5.9418544 8.75650983,5.90797051 C8.72412362,5.81918216 8.65211931,5.7476495 8.52980632,5.7231778 C7.63777042,5.54842476 6.8592435,5.1446417 6.21497789,4.50367138 C6.09612362,4.38570524 5.95368715,4.3791167 5.83671945,4.43307994 C5.44934257,4.34554655 5.02674961,4.66493362 4.67899081,4.81490122 C4.65446533,4.82525463 4.62993984,4.8337256 4.60572879,4.84439275 C3.80487739,2.96603286 2.58709275,1.37160745 0.708063317,0.250615313 C0.316284422,0.0168791986 -0.0399639627,0.626789275 0.350871644,0.859897911 C2.09501091,1.90057267 3.21092046,3.37420828 3.95014372,5.10730666 C3.45963403,5.29931539 2.96503676,5.48128445 2.46383647,5.64474286 C2.42893482,5.65635123 2.39969289,5.67203822 2.37265197,5.68992138 C2.22864336,5.68270537 2.08872233,5.75706169 2.0519341,5.94248188 C1.81862757,7.11273116 1.53972879,8.25003775 1.10487308,9.36412761 C1.05173453,9.50029066 1.10801737,9.62390413 1.20517602,9.7073589 C1.21335118,9.73434052 1.22404178,9.76194962 1.2403921,9.78987245 C2.89649117,12.6605912 3.60584365,15.9012091 5.16792836,18.8033018 C5.22861321,18.9159343 5.32105542,18.9673877 5.41727078,18.9758586 C5.47166705,19.1330423 5.61693338,19.2450473 5.81816813,19.1659849 C8.04747179,18.2862587 10.2302399,17.3067632 12.3664725,16.2212236 C12.3733899,16.2180862 12.3781064,16.2136939 12.384395,16.209929 C12.624619,16.278638 12.9475378,15.9956447 12.8123332,15.6800225" id="Fill-5" fill="#0F0E0E" mask="url(#mask-2)"></path>
                        </g>
                        <g id="Group-10" transform="translate(47.164393, 51.139579)">
                            <mask id="mask-4" fill="white">
                                <use xlink:href="#path-3"></use>
                            </mask>
                            <g id="Clip-9"></g>
                            <path d="M8.25408327,15.9563018 C8.26854702,14.8673111 8.45751902,13.7792616 8.81062312,12.7483128 C9.13668629,11.7954852 9.81994113,10.0846623 10.7132347,9.47130111 C12.4510854,9.08759739 13.1538349,9.37059065 12.8211687,10.3196534 C12.7680302,10.7074357 12.6306246,11.066354 12.4089519,11.3973494 C12.1690424,11.8384675 11.8700201,12.2704872 11.5753999,12.6761527 C10.7016009,13.8784034 9.55770711,15.1355586 8.25313999,16.0435214 C8.25345441,16.0140299 8.25376884,15.9864208 8.25408327,15.9563018 M17.015341,9.12022633 C14.3464652,11.6404978 14.3213108,16.3324757 11.0050251,18.2130318 C10.1390869,18.7040345 9.59072218,18.9136127 8.8791687,18.1847952 C8.42261737,17.7170093 8.29495908,17.2711851 8.26225844,16.7441023 C9.63128356,15.8480616 10.8506403,14.6947542 11.5055966,13.9078949 C12.4460546,12.7778044 14.2134616,10.7052396 13.4361924,9.09167601 C12.7872103,7.74479126 11.0990395,8.13696595 10.2129777,8.97214117 C8.72415506,10.3758128 7.90380905,12.6899572 7.64000287,14.6671451 C7.5780603,15.1305387 7.49850969,15.8122952 7.50102513,16.515386 C7.13597272,16.7199443 6.76085858,16.8943836 6.3778837,17.0299192 C4.8491285,17.5711203 3.05625269,17.2614591 2.59089734,15.4772212 C2.31011199,14.3992114 2.53335678,13.1652729 2.61793826,12.0775372 C2.93582627,7.9945281 3.08014932,3.77661088 0.802737976,0.18429073 C0.559998564,-0.198785506 -0.0525096913,0.155112933 0.191801866,0.540385348 C1.82148887,3.11148261 2.18371141,6.0719309 2.09755779,9.06030204 C2.03498636,11.241107 1.19891888,14.0804518 2.07649103,16.1721547 C3.14555061,18.7206627 5.42610625,18.3626857 7.53309691,17.1861616 C7.6296267,18.2033059 7.97015363,19.1354267 8.87853984,19.3716727 C10.7245542,19.8520083 12.5781149,18.0749863 13.5012793,16.7271603 C15.061163,14.4506647 15.4494831,11.5705338 17.515598,9.61970001 C17.8470065,9.30658774 17.3461206,8.80805528 17.015341,9.12022633" id="Fill-8" fill="#981A25" mask="url(#mask-4)"></path>
                        </g>
                        <g id="Group-13" transform="translate(0.000000, 12.235850)" fill="#981A25">
                            <path d="M12.4500478,19.5373587 C11.235093,20.1836626 9.718915,19.7619963 8.65865944,19.0080797 C8.33794156,18.7799909 8.0603005,18.5220968 7.82290639,18.2406723 C8.54483604,16.918573 9.59094228,15.6206316 10.8502316,15.0781756 C13.8822732,13.772077 14.8711533,18.2497707 12.4500478,19.5373587 M6.87207222,13.8181967 C7.08431199,12.7963464 7.5160234,11.8090074 8.1612323,10.986068 C8.73506576,10.2544269 10.8807312,8.58658639 11.1784958,10.7369586 C11.4265805,12.5302951 9.14759698,14.2304508 7.87195736,15.0753519 C7.55218277,15.2871263 7.16826461,15.4813312 6.76265083,15.6275339 C6.70731127,15.0377032 6.74567164,14.4268519 6.87207222,13.8181967 M5.06001622,5.63178541 C4.51165154,6.81301557 2.76814113,6.76030729 2.17669964,5.64904109 C1.96917631,5.25906258 1.87704853,4.83739636 1.87516195,4.41322021 C2.31630625,4.04300731 2.80775922,3.7509156 3.3539229,3.65334254 C4.5669911,3.43748959 5.6888748,4.27674342 5.06001622,5.63178541 M13.1380191,14.461677 C10.9332409,13.1204395 8.7290916,15.3950527 7.39779799,17.6414294 C7.16449146,17.2467447 6.99469964,16.8206862 6.88622154,16.3742345 C9.10106145,15.6554567 11.5473213,13.3861771 11.8491734,11.206627 C12.2393802,8.39238148 9.40102699,8.590665 7.89553955,10.1825805 C6.55795736,11.5959781 5.8240794,13.8087845 6.05549935,15.8245625 C4.96348643,16.0310032 3.87650438,15.7718542 3.52560129,14.4569709 C2.85272261,11.934817 5.52914472,9.82428971 7.25127394,8.52697583 C9.27902843,6.99969072 11.3269064,4.63911283 9.44661924,2.13797954 C8.09488772,0.34025076 5.29929691,-0.481747388 3.30518636,0.70732627 C2.14274128,1.40037738 1.30195736,2.74443848 1.18498966,4.10355908 C0.769314142,4.48443914 0.39860201,4.90359544 0.0860592965,5.28322054 C-0.200700215,5.63178541 0.29704135,6.13408275 0.586316296,5.78238049 C0.78346346,5.5433108 0.997589806,5.28667168 1.22869533,5.03693484 C1.31799325,5.53640852 1.51702699,6.01799904 1.85755391,6.44688128 C2.58734429,7.36770745 3.75796454,7.71093874 4.76822584,7.01412275 C5.44959411,6.5441406 6.30892936,5.35412573 6.06587552,4.47659564 C5.81558981,3.57365264 4.61918636,2.84985503 3.72620718,2.86585576 C3.12124523,2.87652291 2.54835506,3.10869033 2.02294372,3.44815674 C2.21726102,2.81063756 2.58797315,2.21829691 3.05710165,1.77812004 C4.33682886,0.578065492 6.20768313,0.639558483 7.65845987,1.49167565 C8.93504279,2.24214113 9.84405786,3.63263571 9.35166159,5.1407827 C8.95327968,6.36279903 7.87761709,7.18071856 6.89408227,7.9173795 C5.3882804,9.04558764 3.92083891,10.2073659 3.15583245,11.9875253 C2.14588557,14.337436 3.30204207,16.9948117 6.10675133,16.5668707 C6.13316339,16.5631058 6.16051874,16.5549486 6.1869308,16.5502425 C6.34414544,17.1987426 6.61109591,17.81179 7.00476138,18.3529911 C6.67869821,18.9842355 6.43092793,19.5819097 6.28503274,20.0581667 C5.05750079,24.0639958 6.53185973,28.3547006 9.72614688,30.9916833 C10.0745345,31.2793826 10.5776214,30.7824188 10.2264039,30.4925233 C7.07833783,27.8935032 5.70962714,23.6718211 7.12298679,19.779252 C7.22360416,19.5025336 7.34497387,19.2113831 7.48206504,18.9158402 C8.89668241,20.3624942 11.2835151,21.1888847 13.0691591,19.986634 C14.9676831,18.7081445 15.208536,15.7216558 13.1380191,14.461677" id="Fill-11"></path>
                        </g>
                        <path d="M65.783764,20.7512491 C63.5855888,19.4335422 61.3877281,18.1158352 59.1895529,16.7981283 C59.4624775,14.1928334 59.813695,11.0651618 59.2439492,8.49092714 C58.8046915,8.48245616 58.8452528,8.18534462 58.5320813,8.04384799 C58.0601229,7.83050496 57.5123871,7.75050132 57.0089858,7.62437794 C55.9484158,7.35832663 54.8891035,7.08756923 53.8307345,6.81179199 C51.7146254,6.2602375 49.6035472,5.68860368 47.4981286,5.09751798 C43.2869772,3.9153466 39.0978358,2.65505402 34.9341631,1.31664024 C33.2717754,0.782027704 31.5858056,0.230159482 29.8400942,0.16866649 C29.1788494,1.21090994 28.4657238,2.21738707 27.7934739,3.25680686 C27.5472758,3.63768692 26.1247977,6.38353723 25.772008,6.38353723 C23.1829973,6.10462259 20.571662,6.03403114 17.9713318,6.17239037 C15.8854079,13.6663781 14.3223799,21.3093922 12.1308078,28.7541227 C11.1422421,32.1114518 10.1536764,35.4690946 9.1651107,38.8267374 C8.25861106,41.9060931 7.0782435,45.0077243 6.38555578,48.1181402 C6.32204106,48.4033296 6.26072735,48.711422 6.37706619,48.9796695 C6.49843589,49.2592117 6.78267997,49.4261212 7.04963044,49.5745201 C8.72585298,50.5075821 10.4023899,51.4400167 12.0789269,52.3730787 C12.4392629,52.5738721 12.8156347,52.7890976 13.0297611,53.1411136 C13.1960942,53.4150084 13.2454596,53.7416115 13.2910518,54.0588024 C13.5290748,55.7049948 13.7667833,57.3508736 14.0044919,58.9970661 C14.0384503,59.2311159 14.0777539,59.4786566 14.2289944,59.6606256 C14.3880956,59.8516931 14.6399535,59.9345204 14.8779765,60.0079355 C24.2237582,62.8993611 33.5846326,65.7942378 43.1524014,67.8391935 C44.0186541,65.9843641 44.8223354,64.1006706 45.5618731,62.1925054 C48.6366771,62.2709404 51.7589599,61.9964181 54.8362794,61.8837855 C58.5628953,52.9287118 60.1690001,43.2633313 62.7903971,33.9264363 C63.4513275,31.5727606 64.1779736,29.2375957 64.7977137,26.8723117 C65.1014524,25.7124158 65.3929284,24.5475001 65.5825292,23.3653287 C65.6460439,22.9706441 66.1626513,20.978083 65.783764,20.7512491" id="Fill-14" fill="#FFFFFF"></path>
                        <path d="M60.2124543,56.608283 C60.2124543,57.0092424 59.8863911,57.3345905 59.4845505,57.3345905 C59.0823954,57.3345905 58.7563322,57.0092424 58.7563322,56.608283 C58.7563322,56.2070098 59.0823954,55.8819754 59.4845505,55.8819754 C59.8863911,55.8819754 60.2124543,56.2070098 60.2124543,56.608283" id="Fill-16" fill="#981A25"></path>
                        <path d="M61.2008942,52.1050194 C61.2008942,52.5062926 60.8751454,52.831327 60.4729904,52.831327 C60.0708353,52.831327 59.7450866,52.5062926 59.7450866,52.1050194 C59.7450866,51.70406 60.0708353,51.3787119 60.4729904,51.3787119 C60.8751454,51.3787119 61.2008942,51.70406 61.2008942,52.1050194" id="Fill-18" fill="#AFF93C"></path>
                        <path d="M64.0927632,55.0993203 C64.0927632,55.5002797 63.7667001,55.8256278 63.3648594,55.8256278 C62.9627044,55.8256278 62.6366412,55.5002797 62.6366412,55.0993203 C62.6366412,54.6980471 62.9627044,54.3730127 63.3648594,54.3730127 C63.7667001,54.3730127 64.0927632,54.6980471 64.0927632,55.0993203" id="Fill-20" fill="#60ADC3"></path>
                        <path d="M63.0708681,47.2818669 C63.0708681,47.6828263 62.7448049,48.0081744 62.3429642,48.0081744 C61.9408092,48.0081744 61.614746,47.6828263 61.614746,47.2818669 C61.614746,46.8805937 61.9408092,46.5555593 62.3429642,46.5555593 C62.7448049,46.5555593 63.0708681,46.8805937 63.0708681,47.2818669" id="Fill-22" fill="#6519CF"></path>
                        <path d="M4.50413668,31.821619 C4.50413668,32.2225784 4.17807351,32.5479265 3.77623288,32.5479265 C3.37407782,32.5479265 3.04801464,32.2225784 3.04801464,31.821619 C3.04801464,31.4203459 3.37407782,31.0953115 3.77623288,31.0953115 C4.17807351,31.0953115 4.50413668,31.4203459 4.50413668,31.821619" id="Fill-24" fill="#6519CF"></path>
                        <path d="M25.8266559,64.9802714 C26.0087104,64.6222943 26.4467104,64.4795427 26.8051598,64.6608843 C27.1636092,64.8428533 27.3069889,65.2795791 27.1252488,65.6375561 C26.9431943,65.9952195 26.5051943,66.137971 26.1467449,65.9566295 C25.787981,65.7752879 25.6446013,65.3382484 25.8266559,64.9802714" id="Fill-26" fill="#3A65D5"></path>
                        <path d="M11.3887232,65.7159283 C11.5707777,65.3579513 12.0087777,65.2151997 12.3672271,65.3965413 C12.725991,65.5785103 12.8690563,66.015236 12.6873162,66.3732131 C12.5052616,66.7308764 12.0672616,66.873628 11.7088122,66.6922864 C11.3500484,66.5109449 11.2069831,66.0739054 11.3887232,65.7159283" id="Fill-28" fill="#90B83B"></path>
                        <path d="M11.3655183,64.1282169 C11.5475729,63.7702399 11.9855729,63.6274883 12.3443367,63.8088299 C12.7027861,63.9907989 12.8458514,64.4278384 12.6641113,64.7855017 C12.4820567,65.143165 12.0440567,65.2862304 11.6856073,65.104575 C11.3268435,64.9232335 11.1837782,64.486194 11.3655183,64.1282169" id="Fill-30" fill="#E7C434"></path>
                        <path d="M12.7305502,61.8606629 C12.9122903,61.5029996 13.3506047,61.3599342 13.7090541,61.5415896 C14.0675035,61.7232449 14.2108833,62.1602843 14.0288287,62.5182614 C13.8470886,62.875611 13.4090886,63.0186763 13.0503248,62.837021 C12.6918754,62.6556794 12.5484956,62.2186399 12.7305502,61.8606629" id="Fill-32" fill="#A82030"></path>
                        <path d="M56.592367,3.72719687 C56.7744215,3.36921982 57.2124215,3.22646823 57.5708709,3.40780981 C57.9296347,3.58946512 58.0727001,4.0265046 57.8909599,4.38448165 C57.7089054,4.74214497 57.2709054,4.88489656 56.912456,4.70355498 C56.5536922,4.5222134 56.4103124,4.08517393 56.592367,3.72719687" id="Fill-34" fill="#A82030"></path>
                        <path d="M64.7219363,12.0875769 C64.9036764,11.7299136 65.3419908,11.5868483 65.7004402,11.7685036 C66.0588896,11.9501589 66.2022693,12.3871984 66.0202148,12.7451754 C65.8384747,13.102525 65.4004747,13.2455903 65.0417108,13.063935 C64.6832615,12.8825934 64.5398817,12.445554 64.7219363,12.0875769" id="Fill-36" fill="#A82030"></path>
                        <path d="M62.9855005,7.65016735 C63.1675551,7.29250403 63.6055551,7.14943871 63.9643189,7.33078028 C64.3227683,7.51274934 64.4658336,7.94978881 64.2840935,8.30745213 C64.1020389,8.66511545 63.6640389,8.80818077 63.3055895,8.62652546 C62.9468257,8.44518388 62.8037604,8.00814441 62.9855005,7.65016735" id="Fill-38" fill="#90B83B"></path>
                        <path d="M61.5639657,14.8787312 C61.7460202,14.5207542 62.1840202,14.3776888 62.5424696,14.5593442 C62.900919,14.7409995 63.0442988,15.1780389 62.8625587,15.536016 C62.6805041,15.8936793 62.2425041,16.0364309 61.8840547,15.8550893 C61.5252909,15.673434 61.3819111,15.2363945 61.5639657,14.8787312" id="Fill-40" fill="#67B6C5"></path>
                        <path d="M64.1122579,13.522999 C64.2943124,13.165022 64.7323124,13.0222704 65.0907618,13.2036119 C65.4495256,13.385581 65.592591,13.8223067 65.4108508,14.1802838 C65.2287963,14.5379471 64.7907963,14.6806987 64.4323469,14.4993571 C64.0735831,14.3180155 63.9302033,13.8809761 64.1122579,13.522999" id="Fill-42" fill="#90B83B"></path>
                        <path d="M61.9828169,9.5375002 C62.1648715,9.17952314 62.6028715,9.03645782 62.9613209,9.21811313 C63.3200847,9.39976845 63.46315,9.83680792 63.2814099,10.194785 C63.0993553,10.5524483 62.6613553,10.6951999 62.3025915,10.5138583 C61.9441421,10.332203 61.8007624,9.89516351 61.9828169,9.5375002" id="Fill-44" fill="#6519CF"></path>
                        <path d="M61.3697742,11.4263704 C61.5515143,11.0687071 61.9898287,10.9256417 62.3482781,11.107297 C62.7067275,11.2889524 62.8501073,11.7259918 62.6680527,12.0839689 C62.4863126,12.4413185 62.0483126,12.5843838 61.6895487,12.4027285 C61.3310994,12.2213869 61.1877196,11.7843474 61.3697742,11.4263704" id="Fill-46" fill="#E7C434"></path>
                        <path d="M64.1548001,10.7682699 C64.3368547,10.4102928 64.7748547,10.2675412 65.1333041,10.4488828 C65.4920679,10.6305381 65.6351332,11.0675776 65.4533931,11.4255546 C65.2713385,11.783218 64.8333385,11.9259696 64.4748892,11.744628 C64.1161253,11.5632864 63.9727456,11.1262469 64.1548001,10.7682699" id="Fill-48" fill="#67B6C5"></path>
                        <path d="M62.718833,11.7048771 C62.9008876,11.3472138 63.3388876,11.2041485 63.6976514,11.3858038 C64.0561008,11.5674591 64.1991661,12.0044986 64.017426,12.3624757 C63.8353714,12.7198252 63.3973714,12.8628906 63.038922,12.6812353 C62.6801582,12.4998937 62.5370929,12.0628542 62.718833,11.7048771" id="Fill-50" fill="#3A65D5"></path>
                        <path d="M65.4700893,14.6838675 C65.5873714,14.29985 65.9942429,14.0836833 66.3787899,14.2007082 C66.763337,14.3174194 66.9802932,14.7233987 66.8630111,15.1071024 C66.7460434,15.4908061 66.3391719,15.7072865 65.9546248,15.5905753 C65.5697634,15.4735504 65.3531216,15.0678849 65.4700893,14.6838675" id="Fill-52" fill="#E7C434"></path>
                        <path d="M8.3967084,54.9641925 C8.57844853,54.6065292 9.01676296,54.4634639 9.37521235,54.6451192 C9.73366174,54.8267745 9.87704149,55.263814 9.69498693,55.6217911 C9.51324681,55.9794544 9.07524681,56.122206 8.71648299,55.9408644 C8.3580336,55.7592091 8.21465384,55.3221696 8.3967084,54.9641925" id="Fill-54" fill="#A82030"></path>
                        <path d="M16.6148838,62.1590921 C16.7969384,61.8014288 17.2349384,61.6583635 17.5933878,61.8400188 C17.9521516,62.0216741 18.0952169,62.4587136 17.9134768,62.8166907 C17.7314223,63.1740402 17.2934223,63.3171056 16.9349729,63.1354502 C16.576209,62.9541087 16.4328293,62.5170692 16.6148838,62.1590921" id="Fill-56" fill="#90B83B"></path>
                        <path d="M17.9785322,62.2105455 C18.1602724,61.8525684 18.5985868,61.7095031 18.9570362,61.8911584 C19.3154856,62.0728137 19.4588653,62.5098532 19.2768108,62.8678302 C19.0950706,63.2254936 18.6570706,63.3682451 18.2983068,63.1869036 C17.9398574,63.0052482 17.7964777,62.5682088 17.9785322,62.2105455" id="Fill-58" fill="#E7C434"></path>
                        <path d="M14.4886187,64.9802714 C14.6706732,64.6222943 15.1086732,64.4795427 15.4671226,64.6608843 C15.8258864,64.8428533 15.9689518,65.2795791 15.7872116,65.6375561 C15.6051571,65.9952195 15.1671571,66.137971 14.8087077,65.9566295 C14.4499439,65.7752879 14.3065641,65.3382484 14.4886187,64.9802714" id="Fill-60" fill="#67B6C5"></path>
                        <path d="M11.6021263,57.0059795 C11.7838665,56.6480024 12.2221809,56.5052508 12.5806303,56.6865924 C12.9390797,56.8685615 13.0824594,57.3052872 12.9004049,57.6632642 C12.7186648,58.0209276 12.2806648,58.1636792 11.9219009,57.9823376 C11.5634515,57.800996 11.4200718,57.3639565 11.6021263,57.0059795" id="Fill-62" fill="#67B6C5"></path>
                        <path d="M4.82299943,41.7696791 C4.61673381,41.4251928 4.7292995,40.9793686 5.07454286,40.7735553 C5.41947179,40.5677421 5.86659024,40.6800609 6.07285585,41.0245471 C6.27912146,41.3690334 6.16624135,41.8151713 5.82131242,42.0209846 C5.47606906,42.2264841 5.02926504,42.1141653 4.82299943,41.7696791" id="Fill-64" fill="#67B6C5"></path>
                        <path d="M6.66030409,50.5268144 C6.84235865,50.1691511 7.28035865,50.0260857 7.63912247,50.207741 C7.99757186,50.3893964 8.14063719,50.8264358 7.95889706,51.1844129 C7.77715693,51.5417625 7.3388425,51.6848278 6.98039311,51.5034862 C6.62162929,51.3218309 6.47856396,50.8847914 6.66030409,50.5268144" id="Fill-66" fill="#90B83B"></path>
                        <path d="M18.9399312,64.0099684 C19.1219858,63.6519914 19.5599858,63.5092398 19.9184352,63.6905814 C20.277199,63.8725504 20.4202643,64.3095899 20.2385242,64.6672532 C20.0564696,65.0249165 19.6184696,65.1679819 19.2600202,64.9863265 C18.9012564,64.804985 18.7578767,64.3679455 18.9399312,64.0099684" id="Fill-68" fill="#6519CF"></path>
                        <path d="M5.23876927,57.7553782 C5.42082383,57.3974012 5.85882383,57.2543359 6.21727322,57.4359912 C6.57603704,57.6176465 6.71910237,58.054686 6.53736224,58.412663 C6.35530768,58.7703263 5.91730768,58.9130779 5.55885829,58.7317363 C5.20009447,58.550081 5.05671472,58.1130416 5.23876927,57.7553782" id="Fill-70" fill="#67B6C5"></path>
                        <path d="M7.78706145,56.3996147 C7.96911601,56.0419513 8.40711601,55.898886 8.7655654,56.0802276 C9.12432922,56.2621966 9.26739454,56.6992361 9.08565441,57.0568994 C8.90359986,57.4145627 8.46559986,57.5576281 8.10715047,57.3759728 C7.74838665,57.1946312 7.60500689,56.7575917 7.78706145,56.3996147" id="Fill-72" fill="#90B83B"></path>
                        <path d="M5.65758909,52.4141472 C5.83964365,52.0561702 6.27764365,51.9134186 6.63609304,52.0947601 C6.99485686,52.2764155 7.13792218,52.7134549 6.95618205,53.071432 C6.77412749,53.4290953 6.33612749,53.5718469 5.9776781,53.3905053 C5.61891429,53.2091637 5.47553453,52.7721243 5.65758909,52.4141472" id="Fill-74" fill="#6519CF"></path>
                        <path d="M5.0445463,54.3033311 C5.22660086,53.9453541 5.66460086,53.8022887 6.02305025,53.9839441 C6.38149964,54.1655994 6.5248794,54.6026389 6.34282484,54.9606159 C6.16108471,55.3182792 5.72308471,55.4610308 5.36432089,55.2796892 C5.0058715,55.0980339 4.86249174,54.6609944 5.0445463,54.3033311" id="Fill-76" fill="#E7C434"></path>
                        <path d="M7.82957229,53.6449169 C8.01162685,53.2869398 8.44962685,53.1441882 8.80807624,53.3255298 C9.16684006,53.5074989 9.30990538,53.9445383 9.12816525,54.3022017 C8.9461107,54.659865 8.5081107,54.8029303 8.14966131,54.621275 C7.79089749,54.4399334 7.64751773,54.0028939 7.82957229,53.6449169" id="Fill-78" fill="#67B6C5"></path>
                        <path d="M9.66609088,52.7036976 C9.84814544,52.3457206 10.2861454,52.202969 10.6445948,52.3843106 C11.0033587,52.5662796 11.146424,53.0030054 10.9646838,53.3609824 C10.7826293,53.7186457 10.3446293,53.8613973 9.9861799,53.6800557 C9.62741608,53.4987142 9.48403632,53.0616747 9.66609088,52.7036976" id="Fill-80" fill="#3A65D5"></path>
                        <path d="M6.39376238,54.5818379 C6.57550251,54.2238609 7.01381694,54.0807955 7.37226633,54.2624508 C7.73071572,54.4441062 7.87409548,54.8811456 7.69204092,55.2391227 C7.51030079,55.596786 7.07230079,55.7395376 6.71353697,55.558196 C6.35508758,55.3765407 6.21170782,54.9395012 6.39376238,54.5818379" id="Fill-82" fill="#3A65D5"></path>
                        <path d="M8.6984033,60.3330013 C8.88045786,59.975338 9.31845786,59.8322726 9.67722168,60.0136142 C10.0356711,60.1955833 10.1787364,60.6326228 9.99699627,60.9902861 C9.81494171,61.3479494 9.37694171,61.4910147 9.01849232,61.3093594 C8.6597285,61.1280178 8.51666317,60.6909783 8.6984033,60.3330013" id="Fill-84" fill="#3A65D5"></path>
                        <path d="M9.14501866,57.5605145 C9.26198636,57.1768108 9.66885786,56.9603303 10.0534049,57.0773553 C10.4379519,57.1940665 10.6549081,57.6000457 10.5379404,57.9840631 C10.4206583,58.3674531 10.0141012,58.5839335 9.62923977,58.4672224 C9.24469275,58.3505112 9.02773654,57.9445319 9.14501866,57.5605145" id="Fill-86" fill="#E7C434"></path>
                        <path d="M3.12681062,46.9531304 C3.30886518,46.5951533 3.74686518,46.4524017 4.105629,46.6337433 C4.46407839,46.8157123 4.60714372,47.2527518 4.42540359,47.6104151 C4.24366346,47.9680785 3.80534903,48.1111438 3.44689964,47.9294885 C3.08813582,47.7481469 2.9450705,47.3111074 3.12681062,46.9531304" id="Fill-88" fill="#6519CF"></path>
                        <path d="M27.4791075,10.7011609 C27.2957953,9.82237589 26.881063,9.82990565 26.941119,8.93762979 C27.0134378,7.86463984 25.9805375,6.29029377 25.5900164,7.11856672 C25.2862777,7.17723605 24.5693789,8.83535063 24.4527256,9.21497573 C22.0570889,17.0057612 20.2305691,24.8981984 18.6389281,32.8856988 C17.869834,36.744384 16.6429309,40.4741221 15.6081441,44.2647258 C15.1229798,46.0420615 14.5403423,47.9063031 14.4340652,49.7548577 C14.3381642,51.4255219 13.0141025,51.6015299 13.8014335,53.0324969 C14.2702475,53.8846141 16.9457263,51.5208988 16.98503,50.6245443 C17.3249281,42.8883495 19.088562,38.3868116 21.3634579,30.9750237 C23.230539,24.8916099 26.1217163,18.9773018 26.6156847,12.5958353 C26.9609281,12.4144937 27.5825548,11.1962423 27.4791075,10.7011609" id="Fill-90" fill="#999999"></path>
                        <path d="M58.3656538,16.8187723 C58.4376581,15.7457824 55.9939137,16.7164932 55.8772604,17.0961183 C53.4816237,24.8869038 51.6551039,32.779341 50.0634629,40.7668413 C49.2943688,44.6255265 48.0674658,48.3555784 47.032679,52.1458684 C46.5475146,53.923204 45.6256079,55.508531 45.5196452,57.3573994 C45.4237443,59.0280635 44.4386373,59.4823587 45.2259683,60.9133257 C45.6947823,61.7654429 46.541226,61.5276281 46.7773624,60.6617064 C48.8582554,53.0324969 50.5130968,46.2679541 52.7879927,38.8561662 C54.6550738,32.7730662 57.1947192,25.607564 57.6886876,19.2260975 C57.9465196,17.9196851 58.3055978,17.7110482 58.3656538,16.8187723" id="Fill-92" fill="#C6C6C6"></path>
                        <path d="M55.7319941,17.7109855 C56.2486014,17.434267 57.8572217,16.5049698 58.4241377,16.4660661 C59.1061348,16.4193189 57.6242296,15.0771402 57.0397055,14.7841073 C56.9504076,14.4923293 55.7911068,13.9696389 55.5342181,13.8968513 C50.2571513,12.3978028 45.3426215,10.2508816 40.082534,9.56316411 C37.5413164,9.23154119 35.8144708,8.57990373 33.2697945,7.97877837 C32.0768498,7.69735381 27.6814428,6.53714421 26.5095648,6.63565849 C25.450567,6.72476058 27.1013207,7.30925774 26.3451183,8.23980984 C25.8948556,8.79387424 27.833941,11.1635506 28.4002281,11.1036263 C33.2861449,10.5887794 36.2156826,12.7473088 41.2355462,14.1688637 C45.3551987,15.3359755 49.9021607,17.9077003 53.9699324,17.6924748 C54.1428685,18.0121756 55.441147,17.8669141 55.7319941,17.7109855" id="Fill-94" fill="#AAAAAA"></path>
                        <path d="M45.3229697,62.1893994 C46.0049668,62.1426522 45.890829,60.2611549 45.306305,59.9684357 C45.217007,59.6766577 44.0580207,59.1539673 43.8008175,59.0811797 C38.5237508,57.5821311 33.609221,55.43521 28.3491334,54.7474925 C25.8079159,54.4155558 19.808605,51.7597488 17.2642432,51.1589372 C16.0709841,50.8771989 14.86389,51.8121434 14.108002,52.7426955 C13.6577393,53.2967599 17.3503968,54.4164971 17.8997048,54.5664647 C24.531333,56.3792529 28.9053588,57.3885537 33.924908,58.8104223 C38.0448749,59.9775342 44.7557393,62.2283031 45.3229697,62.1893994" id="Fill-96" fill="#C6C6C6"></path>
                        <path d="M34.1022461,53.3189099 C33.4567228,53.1786682 32.8181169,53.0327793 32.1920882,52.8693208 C32.8300652,53.0145824 33.4664701,53.1636087 34.1022461,53.3154588 C34.1022461,53.3167137 34.1022461,53.317655 34.1022461,53.3189099 M27.7976244,11.1212271 C27.2998828,12.8195004 50.6877622,25.1858664 50.1897062,26.8841397 C49.3784787,28.5610786 48.465376,30.1890742 47.7148333,31.9350359 C45.7644284,36.4732814 46.1131305,41.4432328 45.4867874,46.2465884 C44.6066998,48.8170582 43.6851075,51.3740372 42.7496804,53.9256826 C34.8128563,50.8880543 26.1783136,50.2709282 18.2782777,47.1052941 C17.2727328,46.7021386 16.3568003,50.6408274 17.2642432,51.1588117 C21.0112971,53.2988306 45.1352554,59.5444478 45.5245189,58.4987532 C46.777834,55.1304432 46.7583394,52.1621514 47.6025821,48.6636395 C48.4361341,45.2087373 49.7966696,41.7823855 50.2224069,38.2637942 C50.2827773,37.764948 50.3478642,37.2654743 50.4160953,36.7666281 C50.7163753,35.6647741 51.0040781,34.5600964 51.2776316,33.4519676 C51.5722518,32.5496521 51.84046,31.6338458 52.1036373,30.7114509 C53.2814894,26.5842045 54.1357938,22.3578163 55.9006854,18.4373244 C56.2663667,17.6253659 27.7259345,10.1379667 27.7976244,11.1212271" id="Fill-98" fill="#E5E5E5"></path>
                        <path d="M32.932632,51.0611445 C32.2871087,50.9209029 31.6485028,50.7747001 31.0224741,50.6115555 C31.6604511,50.756817 32.296856,50.9058434 32.932632,51.0576934 C32.932632,51.0589484 32.932632,51.0598896 32.932632,51.0611445 M27.7149924,12.4815085 C27.2172508,14.1797818 49.5181482,22.928101 49.0200922,24.6263743 C48.2088646,26.3033133 47.295762,27.9309951 46.5452192,29.6772706 C44.5948144,34.2155161 44.9435164,39.1854675 44.3171733,43.9888231 C43.4370857,46.5592928 42.5154935,49.1162718 41.5800663,51.6676035 C33.6432422,48.6302889 27.859001,50.1531817 19.9589651,46.9878613 C18.9534202,46.584392 17.7950627,47.5287487 18.7025057,48.0470467 C22.4495595,50.1864381 43.9904813,58.9033834 44.3797447,57.8576888 C45.6330599,54.4896925 45.9867928,50.0537262 46.830721,46.5552142 C47.6642731,43.1003121 49.834464,32.3023311 50.1080175,31.1942023 C50.4026378,30.2918867 51.2616586,23.3604344 53.0265502,19.4399425 C53.391917,18.6276703 27.6433025,11.4982481 27.7149924,12.4815085" id="Fill-100" fill="#BCBCBC"></path>
                    </g>
                    <g id="Group-106" transform="translate(5.659727, 0.062434)">
                        <mask id="mask-6" fill="white">
                            <use xlink:href="#path-5"></use>
                        </mask>
                        <g id="Clip-105"></g>
                        <path d="M59.7824093,22.2709417 C59.6270813,23.0270545 59.4704955,23.7831673 59.3123375,24.5389664 C58.6960561,27.4865514 58.058708,30.4300577 57.3864581,33.3657206 C56.0932105,39.0149185 54.6751344,44.6390173 53.0143189,50.1928384 C52.1820246,52.97571 51.2881021,55.7406984 50.3117991,58.4758816 C50.0957862,59.0813993 49.8760001,59.6850346 49.6518121,60.2874149 C49.5002571,60.6940216 49.3314086,61.6973613 49.1348903,61.9427058 C49.0874115,62.0020026 49.0817518,62.022082 49.0870971,62.0289843 C49.0704323,62.0352591 49.045278,62.0459262 48.9981136,62.0710254 C48.8622801,62.1422443 48.4522643,62.0829475 48.3104567,62.0857712 C45.923624,62.137852 43.5367912,62.1899328 41.1496441,62.2423273 C41.176685,62.1864816 41.2049836,62.1337733 41.2298235,62.0710254 C42.4784223,58.9122936 43.1673368,55.4034282 44.0675479,52.1301814 C44.9721609,48.8399926 45.8582227,45.544784 46.7587482,42.2530265 C48.2139269,36.933569 49.8376398,31.6445443 51.1478666,26.2877518 C51.6022169,24.42853 52.053423,22.5680533 52.5376441,20.716675 C52.7586879,19.8727151 52.982876,19.0290689 53.2325328,18.1929525 C53.271522,18.062123 53.3633354,17.7822671 53.4526333,17.5024113 C55.3709664,18.5644203 57.2892995,19.6261156 59.207947,20.6884384 C59.3934603,20.7910313 60.0908645,21.0294736 60.182049,21.2277571 C60.1590956,21.1781862 59.8251717,22.0638735 59.7824093,22.2709417 M39.6862902,60.0527376 C39.6740274,60.023246 39.6579915,59.9984606 39.6400691,59.9755576 C42.497288,47.838849 45.7607496,35.8439509 48.93397,23.855955 C49.2446261,22.6825683 49.5555967,21.5091816 49.8769434,20.3386186 C49.9747309,19.9822103 50.1149664,19.6163897 50.1806821,19.2530791 C50.1932593,19.1824876 50.2171559,19.1184847 50.2410525,19.0648352 C51.0252392,18.5675577 51.826405,18.1010267 52.6458078,17.6652422 C52.624741,17.747442 52.6046175,17.824622 52.5851229,17.8895661 C52.1150511,19.4416367 51.7232722,21.0184927 51.3289779,22.5909563 C50.3718551,26.4094828 49.3637948,30.2010277 48.3101423,33.99571 C46.5116067,40.4712985 44.7665242,46.9610052 42.9727051,53.4378487 C42.5312464,55.0316466 42.0844424,56.6245033 41.6285199,58.2145364 C41.4291717,58.9097837 41.2282514,59.6050309 41.0251301,60.2996508 C40.8317561,60.9597592 40.7022112,61.5348442 40.365143,61.9006647 C40.1679958,61.2744402 39.94255,60.658569 39.6862902,60.0527376 Z M36.0741265,67.6006885 C35.1770597,67.3540891 34.279993,67.1074896 33.3826118,66.8612039 C29.8937044,65.9024152 26.4044826,64.9439403 22.9155752,63.9851516 C19.5263419,63.053972 16.1367941,62.1224787 12.7475608,61.1912991 C11.850494,60.9450134 10.9531128,60.6981002 10.0560461,60.4515008 C8.89171443,60.1318 8.83606045,59.893044 8.74896353,58.6973818 C8.64300086,57.2450805 8.41661177,55.8103487 8.10752778,54.3884801 C14.5888587,56.249898 21.0783648,58.0821382 27.5776182,59.8801807 C30.9080533,60.8019481 34.2369162,61.7328139 37.5733253,62.6335608 C38.3056312,62.8312168 39.0706376,63.122681 39.733769,63.1317795 C39.1492449,64.4052491 38.5647209,65.6784051 37.9801968,66.9518747 C37.4469248,68.1130255 37.1972679,67.9094084 36.0741265,67.6006885 Z M12.5051358,7.28108391 C14.7539341,6.97801131 17.1498853,6.59619003 19.33454,7.21268864 C15.5069922,22.6339386 11.4558853,37.9984017 7.51985944,53.3926701 C5.47858449,51.7006716 3.46749476,50.3791998 1.01714731,49.2720122 C5.16352635,35.3629878 8.99484724,21.3626652 12.5051358,7.28108391 Z M19.9300691,7.74604622 C20.3800174,8.92225655 20.8447439,10.0921921 21.3308515,11.2539704 C21.3666965,11.3386801 21.424237,11.3973494 21.4912105,11.4349982 C17.7473009,24.6654035 13.7578221,37.8336884 10.6352248,51.2291208 C10.6333383,51.2306895 10.6317661,51.2319445 10.6298795,51.2335132 C9.87965126,52.0009206 9.08477401,52.7184434 8.25059311,53.3917289 C12.1416556,38.1759784 16.1433971,22.9884646 19.9300691,7.74604622 M21.9842356,10.9854092 C21.9826635,10.9854092 21.9817202,10.9857229 21.980148,10.9854092 C21.4952981,9.82425833 21.0305716,8.65526402 20.581881,7.47968117 C31.6152047,9.63507326 42.4532679,12.667368 53.000484,16.5536623 C52.9724998,16.6091942 52.947031,16.667236 52.92282,16.7268466 C51.9477747,17.2209867 50.9981983,17.7590504 50.072204,18.3385277 C40.7663548,15.6758184 31.4017073,13.224256 21.9842356,10.9854092 M39.0627769,59.3929429 C29.6993871,57.1402915 20.3253067,54.8412066 11.3323146,51.3536755 C14.4429635,38.0225597 18.4101179,24.9160816 22.1376771,11.748738 C31.3180691,13.9361315 40.4481523,16.3258872 49.5225816,18.9167501 C49.4791904,19.0770711 49.4486907,19.2392745 49.4137891,19.3613193 C49.1748228,20.1955533 48.9534646,21.0354346 48.7289621,21.8737472 C47.9230798,24.8850214 47.137321,27.9016291 46.3521911,30.9182368 C44.4373167,38.2779439 42.5409937,45.6414158 40.6663663,53.0111626 C40.1258623,55.1364357 39.5693225,57.2591988 39.0627769,59.3929429 M39.0564883,60.1176817 C39.0583749,60.1493694 39.0646635,60.1832533 39.0800705,60.2193334 C39.3595981,60.881638 39.602652,61.5558647 39.8120619,62.2416998 C39.6315795,62.2959768 39.4174531,62.3229584 39.16025,62.3182523 C37.8437345,62.2934669 36.2454905,61.5310793 34.973624,61.1803182 C33.2741337,60.7119048 31.5730712,60.2500799 29.8738953,59.7819802 C22.83854,57.8430685 15.8148185,55.8636844 8.80021551,53.8510439 C9.53786662,53.2527422 10.2421882,52.6183604 10.9138092,51.9463299 C20.0350884,55.5066486 29.5525486,57.8314601 39.0564883,60.1176817 M22.4272665,4.03764236 C23.0262543,3.06253921 23.518965,1.97982333 24.2581882,1.09539097 C26.7283447,1.28363482 29.0903375,2.04319876 31.4620777,2.71397435 C33.9558164,3.41894757 36.4495551,4.12423453 38.9432938,4.82920775 C43.7427424,6.18613217 48.5421911,7.54368408 53.3419542,8.9006085 C53.4299944,11.1046303 53.8334072,13.7478877 53.3988659,15.950027 C42.722105,12.0025534 31.7460073,8.93072752 20.5705615,6.75870722 C21.2270899,5.877726 21.851232,4.97478299 22.4272665,4.03764236 M60.5911215,20.6470248 C58.3316326,19.3961444 56.0721437,18.145264 53.8126548,16.8943836 C53.8745974,16.8542249 53.9252205,16.7917907 53.9506893,16.7001787 C54.6348874,14.2379492 54.1185945,11.2160079 54.0409305,8.69228531 C54.0406161,8.68757921 54.0384151,8.68444181 54.0381006,8.6803632 C54.0619973,8.52192462 53.9931373,8.35093646 53.7944179,8.29477704 C48.706952,6.85596654 43.620115,5.41778352 38.5326491,3.97928676 C36.0392248,3.27431354 33.5454861,2.56902658 31.0517475,1.86405336 C28.8828142,1.25069214 26.7327467,0.612231751 24.4833196,0.410497091 C24.3666663,0.249548598 24.1330454,0.173937318 23.9588515,0.36155369 C23.2627051,1.11107796 22.7951487,2.01653088 22.2860877,2.8943747 C21.5361739,4.18760996 20.6988487,5.42531328 19.796751,6.61689685 C19.7926635,6.61658311 19.7888903,6.61783807 19.7848027,6.61783807 C19.7602772,6.60340604 19.7338652,6.59117019 19.70368,6.581758 C17.3052134,5.83976349 14.6844452,6.29750979 12.2303246,6.46692925 C11.9621164,6.4854399 11.8558393,6.74082405 11.9058336,6.93942132 C11.8690454,6.97832505 11.8391746,7.02820967 11.8231387,7.0931538 C8.26191256,21.3780384 4.37242225,35.5788408 0.157497631,49.6852075 C0.0354990668,50.0927554 0.62253855,50.2816268 0.806794113,49.9506313 C3.22192548,51.0587601 5.24590682,52.3905854 7.28026432,54.1061143 C7.31422268,54.1346646 7.34975319,54.153489 7.38559813,54.1676073 C7.36861895,54.222198 7.36390251,54.2833773 7.37899512,54.3514588 C7.82391256,56.3411963 8.06665197,58.3431697 8.11287308,60.3812231 C8.1163318,60.536838 8.2204079,60.6799033 8.37259167,60.7216307 C15.0516986,62.5566945 21.7304912,64.3920721 28.4095981,66.2271359 C30.0046979,66.6654303 31.5994833,67.1037247 33.1945831,67.5420192 C33.9922902,67.7610095 34.7896828,67.9799999 35.5870755,68.1996177 C36.1058838,68.3417418 36.8510813,68.7110135 37.4123375,68.6714823 C38.0732679,68.6247351 38.2135034,68.1205553 38.4691344,67.5737069 C39.1850899,66.0407745 39.8821796,64.4984298 40.5874445,62.9604776 L49.2138121,62.7722337 C49.3832894,62.7684689 49.4967984,62.6624248 49.5549678,62.5130847 C54.7622313,49.1465163 57.893947,35.0646213 60.7536814,21.0454743 C60.7848099,20.893938 60.7338724,20.7260872 60.5911215,20.6470248" id="Fill-104" fill="#0F0E0E" mask="url(#mask-6)"></path>
                    </g>
                </g>
            </g>
        </g>
    </g>
</svg>