<svg id="Page_1_Copy" data-name="Page 1 Copy" xmlns="http://www.w3.org/2000/svg" width="59.875" height="65.063" viewBox="0 0 59.875 65.063">
  <metadata><?xpacket begin="﻿" id="W5M0MpCehiHzreSzNTczkc9d"?>
<x:xmpmeta xmlns:x="adobe:ns:meta/" x:xmptk="Adobe XMP Core 5.6-c138 79.159824, 2016/09/14-01:09:01        ">
   <rdf:RDF xmlns:rdf="http://www.w3.org/1999/02/22-rdf-syntax-ns#">
      <rdf:Description rdf:about=""/>
   </rdf:RDF>
</x:xmpmeta>
                                                                                                    
                                                                                                    
                                                                                                    
                                                                                                    
                                                                                                    
                                                                                                    
                                                                                                    
                                                                                                    
                                                                                                    
                                                                                                    
                                                                                                    
                                                                                                    
                                                                                                    
                                                                                                    
                                                                                                    
                                                                                                    
                                                                                                    
                                                                                                    
                                                                                                    
                                                                                                    
                           
<?xpacket end="w"?></metadata>
<defs>
    <style>
      .cls-1 {
        fill: #981a25;
      }

      .cls-1, .cls-10, .cls-11, .cls-12, .cls-2, .cls-3, .cls-4, .cls-5, .cls-6, .cls-7, .cls-8, .cls-9 {
        fill-rule: evenodd;
      }

      .cls-2 {
        fill: #aff93c;
      }

      .cls-3 {
        fill: #60adc3;
      }

      .cls-4 {
        fill: #6519cf;
      }

      .cls-5 {
        fill: #3a65d5;
      }

      .cls-6 {
        fill: #90b83b;
      }

      .cls-7 {
        fill: #e7c434;
      }

      .cls-8 {
        fill: #a82030;
      }

      .cls-9 {
        fill-opacity: 0;
      }

      .cls-10 {
        fill: #67b6c5;
      }

      .cls-11 {
        fill: #0f0e0e;
      }

      .cls-12 {
        fill: #fff;
      }
    </style>
  </defs>
  <path id="Fill_1" data-name="Fill 1" class="cls-1" d="M395.217,383.521a0.87,0.87,0,1,1-.869-0.869,0.869,0.869,0,0,1,.869.869" transform="translate(-350 -327.156)"/>
  <path id="Fill_3" data-name="Fill 3" class="cls-2" d="M396.087,377.435a0.87,0.87,0,1,1-.869-0.87,0.87,0.87,0,0,1,.869.87" transform="translate(-350 -327.156)"/>
  <path id="Fill_5" data-name="Fill 5" class="cls-3" d="M399.565,381.782a0.87,0.87,0,1,1-.869-0.869,0.869,0.869,0,0,1,.869.869" transform="translate(-350 -327.156)"/>
  <path id="Fill_7" data-name="Fill 7" class="cls-4" d="M398.7,372.217a0.87,0.87,0,1,1-.87-0.869,0.871,0.871,0,0,1,.87.869" transform="translate(-350 -327.156)"/>
  <path id="Fill_9" data-name="Fill 9" class="cls-4" d="M361.3,340.913a0.87,0.87,0,1,1-.869-0.87,0.87,0.87,0,0,1,.869.87" transform="translate(-350 -327.156)"/>
  <path id="Fill_11" data-name="Fill 11" class="cls-5" d="M374.442,384a0.87,0.87,0,1,1,.382,1.169,0.87,0.87,0,0,1-.382-1.169" transform="translate(-350 -327.156)"/>
  <path id="Fill_13" data-name="Fill 13" class="cls-6" d="M360.486,383.229a0.869,0.869,0,1,1,.525,1.111,0.869,0.869,0,0,1-.525-1.111" transform="translate(-350 -327.156)"/>
  <path id="Fill_15" data-name="Fill 15" class="cls-6" d="M367.486,383.129a0.869,0.869,0,1,1,.382,1.168,0.869,0.869,0,0,1-.382-1.168" transform="translate(-350 -327.156)"/>
  <path id="Fill_17" data-name="Fill 17" class="cls-7" d="M360.529,381.389a0.87,0.87,0,1,1,.382,1.169,0.87,0.87,0,0,1-.382-1.169" transform="translate(-350 -327.156)"/>
  <path id="Fill_19" data-name="Fill 19" class="cls-8" d="M362.268,384a0.87,0.87,0,1,1,.382,1.168,0.87,0.87,0,0,1-.382-1.168" transform="translate(-350 -327.156)"/>
  <g>
    <path id="Clip_22" data-name="Clip 22" class="cls-9" d="M350,368.572v-2.014h1.611v2.014H350Z" transform="translate(-350 -327.156)"/>
    <g id="Mask_by_Clip_22" data-name="Mask by Clip 22">
      <path id="Fill_21" data-name="Fill 21" class="cls-8" d="M350.087,367.11a0.738,0.738,0,0,1,1.083-.443,1.138,1.138,0,0,1,.353,1.354,0.737,0.737,0,0,1-1.082.442,1.136,1.136,0,0,1-.354-1.353" transform="translate(-350 -327.156)"/>
    </g>
  </g>
  <path id="Fill_24" data-name="Fill 24" class="cls-8" d="M354.442,383.128a0.87,0.87,0,1,1,.382,1.169,0.869,0.869,0,0,1-.382-1.169" transform="translate(-350 -327.156)"/>
  <path id="Fill_26" data-name="Fill 26" class="cls-8" d="M393.554,329.254a0.869,0.869,0,1,1,.439,1.148,0.87,0.87,0,0,1-.439-1.148" transform="translate(-350 -327.156)"/>
  <g>
    <path id="Clip_29" data-name="Clip 29" class="cls-9" d="M409.8,336.729v2.014h-2.014v-2.014H409.8Z" transform="translate(-350 -327.156)"/>
    <g id="Mask_by_Clip_29" data-name="Mask by Clip 29">
      <path id="Fill_28" data-name="Fill 28" class="cls-8" d="M407.874,337.325a1.007,1.007,0,1,1,.508,1.33,1.007,1.007,0,0,1-.508-1.33" transform="translate(-350 -327.156)"/>
    </g>
  </g>
  <path id="Fill_31" data-name="Fill 31" class="cls-6" d="M405.3,333.257a0.87,0.87,0,1,1-1.216.183,0.87,0.87,0,0,1,1.216-.183" transform="translate(-350 -327.156)"/>
  <path id="Fill_33" data-name="Fill 33" class="cls-10" d="M404.858,340.558a0.87,0.87,0,1,1,.44,1.149,0.87,0.87,0,0,1-.44-1.149" transform="translate(-350 -327.156)"/>
  <path id="Fill_35" data-name="Fill 35" class="cls-6" d="M407.467,338.819a0.87,0.87,0,1,1,.439,1.149,0.87,0.87,0,0,1-.439-1.149" transform="translate(-350 -327.156)"/>
  <path id="Fill_37" data-name="Fill 37" class="cls-4" d="M403.56,332.388a0.869,0.869,0,1,1-1.216.182,0.869,0.869,0,0,1,1.216-.182" transform="translate(-350 -327.156)"/>
  <path id="Fill_39" data-name="Fill 39" class="cls-7" d="M400.952,330.649a0.869,0.869,0,1,1-1.216.182,0.869,0.869,0,0,1,1.216-.182" transform="translate(-350 -327.156)"/>
  <path id="Fill_41" data-name="Fill 41" class="cls-10" d="M406.6,334.472a0.869,0.869,0,1,1,.438,1.148,0.869,0.869,0,0,1-.438-1.148" transform="translate(-350 -327.156)"/>
  <path id="Fill_43" data-name="Fill 43" class="cls-5" d="M405.728,337.08a0.869,0.869,0,1,1,.439,1.149,0.869,0.869,0,0,1-.439-1.149" transform="translate(-350 -327.156)"/>
  <path id="Fill_45" data-name="Fill 45" class="cls-7" d="M404.809,344.179a0.869,0.869,0,1,1,.631,1.056,0.87,0.87,0,0,1-.631-1.056" transform="translate(-350 -327.156)"/>
  <path id="Fill_47" data-name="Fill 47" class="cls-8" d="M355.312,375.3a0.869,0.869,0,1,1,.382,1.169,0.869,0.869,0,0,1-.382-1.169" transform="translate(-350 -327.156)"/>
  <path id="Fill_49" data-name="Fill 49" class="cls-10" d="M364.007,382.259a0.87,0.87,0,1,1,.382,1.169,0.87,0.87,0,0,1-.382-1.169" transform="translate(-350 -327.156)"/>
  <path id="Fill_51" data-name="Fill 51" class="cls-10" d="M360.529,377.911a0.87,0.87,0,1,1,.382,1.169,0.87,0.87,0,0,1-.382-1.169" transform="translate(-350 -327.156)"/>
  <path id="Fill_53" data-name="Fill 53" class="cls-10" d="M357.08,358.75a0.869,0.869,0,1,1,1.192.3,0.868,0.868,0,0,1-1.192-.3" transform="translate(-350 -327.156)"/>
  <path id="Fill_55" data-name="Fill 55" class="cls-6" d="M355.312,370.085a0.869,0.869,0,1,1,.382,1.168,0.869,0.869,0,0,1-.382-1.168" transform="translate(-350 -327.156)"/>
  <path id="Fill_57" data-name="Fill 57" class="cls-10" d="M351.833,378.781a0.87,0.87,0,1,1,.383,1.168,0.869,0.869,0,0,1-.383-1.168" transform="translate(-350 -327.156)"/>
  <path id="Fill_59" data-name="Fill 59" class="cls-6" d="M355.312,377.042a0.869,0.869,0,1,1,.382,1.168,0.869,0.869,0,0,1-.382-1.168" transform="translate(-350 -327.156)"/>
  <path id="Fill_61" data-name="Fill 61" class="cls-4" d="M351.833,373.563a0.87,0.87,0,1,1,.382,1.169,0.87,0.87,0,0,1-.382-1.169" transform="translate(-350 -327.156)"/>
  <path id="Fill_63" data-name="Fill 63" class="cls-7" d="M351.833,374.433a0.87,0.87,0,1,1,.383,1.168,0.87,0.87,0,0,1-.383-1.168" transform="translate(-350 -327.156)"/>
  <path id="Fill_65" data-name="Fill 65" class="cls-10" d="M355.312,373.563a0.869,0.869,0,1,1,.382,1.169,0.869,0.869,0,0,1-.382-1.169" transform="translate(-350 -327.156)"/>
  <path id="Fill_67" data-name="Fill 67" class="cls-5" d="M364.007,380.52a0.87,0.87,0,1,1,.383,1.168,0.87,0.87,0,0,1-.383-1.168" transform="translate(-350 -327.156)"/>
  <path id="Fill_69" data-name="Fill 69" class="cls-5" d="M353.573,375.3a0.869,0.869,0,1,1,.382,1.169,0.869,0.869,0,0,1-.382-1.169" transform="translate(-350 -327.156)"/>
  <path id="Fill_71" data-name="Fill 71" class="cls-5" d="M357.051,382.259a0.869,0.869,0,1,1,.382,1.169,0.869,0.869,0,0,1-.382-1.169" transform="translate(-350 -327.156)"/>
  <path id="Fill_73" data-name="Fill 73" class="cls-7" d="M356.125,378.051a0.869,0.869,0,1,1,.578,1.085,0.868,0.868,0,0,1-.578-1.085" transform="translate(-350 -327.156)"/>
  <path id="Fill_75" data-name="Fill 75" class="cls-4" d="M354.442,364.867a0.87,0.87,0,1,1,.382,1.169,0.869,0.869,0,0,1-.382-1.169" transform="translate(-350 -327.156)"/>
  <path id="Fill_77" data-name="Fill 77" class="cls-4" d="M371.833,385.737a0.87,0.87,0,1,1,.383,1.169,0.87,0.87,0,0,1-.383-1.169" transform="translate(-350 -327.156)"/>
  <g>
    <path id="Clip_80" data-name="Clip 80" class="cls-9" d="M357.061,327.141h52.8v65.076h-52.8V327.141Z" transform="translate(-350 -327.156)"/>
    <g id="Mask_by_Clip_80" data-name="Mask by Clip 80">
      <path id="Fill_79" data-name="Fill 79" class="cls-11" d="M408.016,345.39q-0.51,1.773-1.017,3.547-2.026,7.095-3.983,14.211-3.858,14.026-7.443,28.124l-0.268-.08a0.422,0.422,0,0,0-.04-0.5,33.385,33.385,0,0,1-3.834-5.592c3.332-14.283,7.165-28.473,10.894-42.656,0.366-1.394.733-2.788,1.112-4.178,0.056-.2.123-0.411,0.186-0.619l2.2,1.837c0.772,0.644,2.257,1.471,2.771,2.31,0.576,0.943-.3,2.628-0.58,3.6m-41.774,37.151c-1.648-.491-3.766-0.73-4.928-2.067a46.671,46.671,0,0,1-3.028-4.353c10.525,4.056,21.483,6.752,32.426,9.4a34.4,34.4,0,0,0,3.669,5.394l-18.343-5.46q-4.9-1.458-9.8-2.916m4.471-54.482q16.245,3.9,32.306,8.515c-0.009.033-.015,0.063-0.023,0.1a0.361,0.361,0,0,0-.072.3c-0.012.046-.022,0.1-0.033,0.135-0.282.991-.543,1.989-0.808,2.985-0.951,3.576-1.878,7.159-2.8,10.743q-3.389,13.113-6.708,26.243c-0.637,2.524-1.294,5.045-1.891,7.58-11.047-2.676-22.105-5.407-32.714-9.549,3.669-15.836,8.349-31.4,12.747-47.045m39.027,13.6-5.877-4.9c0.086-.2.18-0.279-0.075-0.1a0.426,0.426,0,0,0-.1-0.766q-16.478-4.749-33.157-8.74a0.426,0.426,0,0,0-.513.293c-4.463,15.894-9.231,31.71-12.944,47.8a0.433,0.433,0,0,0,.292.516l0.188,0.072a0.355,0.355,0,0,0-.109.528c1.119,1.61,2.233,3.225,3.358,4.832,0.725,1.035,1.555,1.061,2.768,1.422l10.846,3.228,21.341,6.353a0.422,0.422,0,0,0,.513-0.293q6.368-25.033,13.576-49.841a0.413,0.413,0,0,0-.107-0.408" transform="translate(-350 -327.156)"/>
    </g>
  </g>
  <path id="Fill_82" data-name="Fill 82" class="cls-1" d="M388.461,357.514q-0.78-.236-1.554-0.49l-0.157-.161c-0.028-.163-0.061-0.325-0.1-0.488a6.081,6.081,0,0,0,.429-1.273,22.641,22.641,0,0,0,3.248-2.336,7.178,7.178,0,0,1-1.869,4.748m-1.572.677c0.1,0.1.2,0.205,0.3,0.307-0.1.053-.192,0.1-0.291,0.149,0-.152,0-0.3,0-0.456m7.522,7.916q-4.434-1.577-8.832-3.251a7.573,7.573,0,0,0,.625-1.094,7.384,7.384,0,0,0,.611-2.113,5.873,5.873,0,0,0,1.014-.483q3.319,3.444,6.582,6.941m-9.6-3.546c-1.108-.425-2.216-0.851-3.32-1.286a9.683,9.683,0,0,0,1.147-1.135q0.222-.088.439-0.192a8.623,8.623,0,0,0,1.963.082,6.854,6.854,0,0,0,.934-0.141,6.016,6.016,0,0,1-1.163,2.672m-1.486,1.349-0.052.029q-1.058-.935-2.088-1.9c1.01,0.4,2.023.786,3.036,1.175a6.11,6.11,0,0,1-.9.694m-0.208,1.034,0.04-.018,0.03,0.025-0.07-.007m-1.841-.257a18.627,18.627,0,0,1-3.911-1.051c0.028-.08.055-0.161,0.084-0.242a11.308,11.308,0,0,0,2.717-1.178q1.145,1.08,2.321,2.125a5.745,5.745,0,0,1-1.211.346m-4.458-2.035c-0.334.083-.672,0.153-1.011,0.208a7.369,7.369,0,0,1-3.35-4.161l0.507-.033c0.662-.046,1.323-0.1,1.983-0.157a6.245,6.245,0,0,0,.88.83,0.43,0.43,0,0,0,.225.642c0.546,0.224,1.095.439,1.642,0.66-0.107.212-.211,0.426-0.309,0.643q-0.3.673-.567,1.368m-6.654-3.8c0.482-.034.964-0.07,1.446-0.1a7.693,7.693,0,0,0,1.968,3.347,18.331,18.331,0,0,1-3.414-3.246m3,4.154a21.567,21.567,0,0,1-4.419-.737c-0.8-.211-2.772-0.489-3.32-1.143-1.458-1.742,1.321-1.965,1.927-2.035s1.2-.118,1.807-0.166c0.069,0.086.139,0.169,0.209,0.251a28.52,28.52,0,0,0,3.914,3.722l0.154,0.116c-0.091,0-.182,0-0.272-0.008m-3.532-7.181a2.124,2.124,0,0,1,1.662-.715,8.957,8.957,0,0,0-.037,1.626,10.276,10.276,0,0,0,.155,1.2q-0.88.057-1.76,0.122a1.884,1.884,0,0,1-.02-2.233m2.6-1.307c0.038-.18.083-0.356,0.133-0.53q0.29,0.342.584,0.68a6.4,6.4,0,0,0-.717-0.15m1.269,1.084a5.5,5.5,0,0,0,.4,1.266,6.838,6.838,0,0,0,.468.864c-0.707.056-1.414,0.105-2.122,0.151-0.017-.085-0.038-0.168-0.054-0.255a8.112,8.112,0,0,1-.074-2.44,7.756,7.756,0,0,1,1.383.414m2.1,2.022-0.289.027a5.613,5.613,0,0,1-.622-1.018q0.453,0.5.911,0.991m0.987,1.042c-0.042.035-.083,0.071-0.125,0.108-0.158-.118-0.311-0.241-0.457-0.373l0.3-.033,0.282,0.3M376,356.85c0.364,0.21.715,0.42,1.044,0.619l-0.414.048c-0.21-.222-0.422-0.442-0.63-0.667m0.042-1.6c0.328,0.469.67,0.928,1.038,1.366-0.816-.456-1.634-0.908-2.475-1.3-0.137-.154-0.271-0.31-0.407-0.465,0-.057,0-0.114,0-0.172,0.608,0.218,1.225.414,1.847,0.572M372.69,353.1a7.753,7.753,0,0,1,1.167-1.909c0.083,0.213.167,0.422,0.252,0.621a0.043,0.043,0,0,0,0,0,6.09,6.09,0,0,0-.6,1.729c-0.233-.094-0.464-0.192-0.694-0.291l-0.13-.155m-4.35-5.567c-0.581-.8-1.983-2.192-2.189-3.15-0.7-3.268,3.613-1.315,4.656-.749a18.3,18.3,0,0,1,2.359,1.561,8.584,8.584,0,0,0,.366,5.093,8.488,8.488,0,0,0-1.443,2.1q-1.948-2.367-3.749-4.852m5.514-1.5c0.016-.084.035-0.167,0.056-0.25,0.929,0.765,1.82,1.585,2.7,2.4a8.615,8.615,0,0,0-2.448,1.5,7.842,7.842,0,0,1-.3-3.647m3.108-2.885c2.072,0.074,2.251,2.739,2.406,4.416a8.752,8.752,0,0,0-1.841.3c-1.084-1-2.191-1.965-3.334-2.881a2.933,2.933,0,0,1,2.769-1.838m2.524,5.645a4.857,4.857,0,0,0-.991-0.026l-0.246-.231a7.729,7.729,0,0,1,1.2-.157c0.014,0.138.028,0.276,0.04,0.414m0.076,0.986-0.178-.171c0.056,0.006.111,0.016,0.167,0.024,0,0.049.008,0.1,0.011,0.147m-5.113.769a7.813,7.813,0,0,1,2.834-1.743l0.172,0.159A5.583,5.583,0,0,0,374.626,351q-0.091-.224-0.177-0.451m0.085,2.17c0.25,0.511.529,1,.822,1.484q-0.564-.174-1.12-0.382a4.8,4.8,0,0,1,.3-1.1m5.123,2.31a0.358,0.358,0,0,0-.338-0.194,11.452,11.452,0,0,1-2.809-.319c-0.233-.347-0.458-0.7-0.667-1.065-0.289-.5-0.579-1.045-0.848-1.613a4.913,4.913,0,0,1,3.188-2.19q0.729,0.675,1.448,1.359c0.059,1.34.064,2.681,0.026,4.022m0.372,1.912h0.028l-0.04.01,0.012-.01m1.048,3.637c-0.147.123-.3,0.238-0.455,0.351-0.208-.082-0.415-0.167-0.623-0.25a7.253,7.253,0,0,0,1.078-.1m-0.747-2.289c0.151-.162.307-0.318,0.47-0.468q-0.068.3-.134,0.605c-0.113-.044-0.225-0.089-0.336-0.137m-1.219,1.589c0.159-.249.324-0.492,0.5-0.727,0.3,0.255.615,0.5,0.933,0.738-0.159.019-.318,0.036-0.477,0.042a5.427,5.427,0,0,1-.955-0.053m-0.622,1.082,0.638,0.256,0.412,0.4a11.144,11.144,0,0,1-1.688.738c0.194-.473.4-0.938,0.638-1.389m-0.121-2.7c0.1,0.058.2,0.112,0.3,0.158l0.266,0.132,0.052,0.046q-0.289.378-.551,0.782c-0.213-.213-0.424-0.426-0.635-0.642,0.191-.159.381-0.318,0.573-0.476m1.206-.377c-0.015.016-.028,0.032-0.042,0.048l-0.057-.028,0.1-.02m-1.018-.83a18.889,18.889,0,0,1-1.332-1.548,11.184,11.184,0,0,0,2.1.164,0.37,0.37,0,0,0,.32-0.177c-0.009.246-.016,0.491-0.027,0.737q-0.533.406-1.056,0.824m1.848-.394q0.387-.294.781-0.581c-0.033.148-.065,0.3-0.1,0.442q-0.174.127-.342,0.262c-0.175.046-.353,0.085-0.53,0.127a0.328,0.328,0,0,0,.189-0.25m0.77-8.175c-0.057.244-.112,0.488-0.167,0.732-0.159-.066-0.319-0.128-0.482-0.183-0.065-.022-0.129-0.037-0.194-0.057-0.012-.191-0.025-0.387-0.036-0.59a8.12,8.12,0,0,1,.879.1m0.41,1.926a7.44,7.44,0,0,1,.767.52c-0.1.418-.2,0.837-0.3,1.255-0.235-.227-0.468-0.456-0.7-0.682q0.113-.548.232-1.093m0.393-1.75a7.593,7.593,0,0,1,.888.309c-0.118.37-.22,0.742-0.31,1.108a8.429,8.429,0,0,0-.788-0.494c0.069-.308.138-0.616,0.21-0.923m2.279,4.3c-0.283.182-.563,0.366-0.843,0.552q-0.389-.384-0.778-0.765,0.149-.656.317-1.3a9.484,9.484,0,0,1,1.3,1.517m-0.663-3.636a5.756,5.756,0,0,1,2.462,2.519q-0.555.333-1.1,0.678a10.25,10.25,0,0,0-1.754-1.945c0.122-.423.255-0.84,0.4-1.252m1.8,3.893q0.468-.293.94-0.579a4.346,4.346,0,0,1,.131,1.276,5.236,5.236,0,0,1-.058.563c-0.1.057-.2,0.116-0.3,0.172a11.234,11.234,0,0,0-.713-1.432m0.4,4.565c0.052-.066.1-0.134,0.146-0.2l0.087,0.03a8.471,8.471,0,0,1,.054,1.347,6.281,6.281,0,0,1-1.759.251,7.47,7.47,0,0,0,1.472-1.428m-0.636-1.347c-0.132-.046-0.265-0.09-0.4-0.137l0.183-.079,0.214,0.216m-0.073-1.258c-0.356-.358-0.716-0.714-1.075-1.071q0.342-.226.687-0.448a10.731,10.731,0,0,1,.675,1.374c-0.1.048-.19,0.1-0.287,0.145m-0.732,1.853c0.259,0.093.519,0.182,0.78,0.273a7.151,7.151,0,0,1-1.464,1.368,8.4,8.4,0,0,0,.684-1.641m-2.041-2.771c0.037-.184.077-0.366,0.116-0.549l0.283,0.276c-0.134.091-.267,0.181-0.4,0.273m-0.332,1.691c0.033-.174.067-0.347,0.1-0.521,0.408-.289.818-0.575,1.232-0.854,0.068,0.066.137,0.132,0.2,0.2,0.135,0.135.269,0.273,0.4,0.409a8.172,8.172,0,0,0-1.941.766m-0.544,2.759q0.138-.658.267-1.327,0.957-.265,1.891-0.612a7.286,7.286,0,0,1-1.057,2.239,10.767,10.767,0,0,1-1.1-.3m-0.212,1c0.015-.063.027-0.129,0.041-0.192,0.144,0.047.287,0.091,0.432,0.132-0.166.052-.333,0.1-0.5,0.137a0.266,0.266,0,0,0,.029-0.077m-0.794-9.092q-0.02-.381-0.045-0.762,0.224,0.076.441,0.171c-0.059.268-.115,0.537-0.171,0.806l-0.225-.215m0.728,1.854c0.228,0.22.453,0.443,0.68,0.665-0.13.578-.261,1.155-0.388,1.734q-0.426.3-.849,0.616,0.26-1.512.557-3.015m8.271-4.814a7.334,7.334,0,0,1,.67,1.934q-1.75.9-3.445,1.895a6.7,6.7,0,0,0-2.79-2.924c1.057-2.522,4.034-3.791,5.565-.905m0.9,3.984a22.217,22.217,0,0,1-3.121,2.36,5.611,5.611,0,0,0-.253-1.735q1.614-.952,3.282-1.816c0.05,0.4.079,0.8,0.092,1.191m2.227-2.339q-0.705.855-1.479,1.626c-0.031-.276-0.071-0.56-0.12-0.845q0.793-.4,1.6-0.781M402.9,364.619l-2.771-2.3a21.235,21.235,0,0,0-2.813-2.336,16.241,16.241,0,0,0-3.6-1.044c-1.1-.3-2.212-0.574-3.316-0.868-0.337-.09-0.67-0.19-1-0.285a8.463,8.463,0,0,0,1.753-4.945c0.012-.252.013-0.531,0-0.826a24.6,24.6,0,0,0,3.1-3.577c0.268-.377-0.233-0.714-0.562-0.568q-1.473.653-2.909,1.373c-0.635-2.648-2.142-5.128-5.045-3.962a4.865,4.865,0,0,0-2.6,2.919,7.712,7.712,0,0,0-.973-0.342,116.679,116.679,0,0,1,5.439-16.88c0.2-.494-0.594-0.708-0.793-0.221a116.673,116.673,0,0,0-5.449,16.922c-0.087-.015-0.174-0.032-0.263-0.045-0.289-.039-0.574-0.061-0.858-0.073a9.712,9.712,0,0,0-.785-3.694c-1.1-2.082-3.88-1.869-5.352-.3a4.123,4.123,0,0,0-.622.864c-1.742-1.34-4.145-2.933-6.433-2.7-1.414.143-2.515,1.107-1.908,2.578a22.416,22.416,0,0,0,2.864,4.164q1.166,1.589,2.391,3.131c0.237,0.3.481,0.592,0.722,0.887l-0.89-.421a27.357,27.357,0,0,0-6.671-2.109c-0.517-.1-0.739.7-0.219,0.8a31.253,31.253,0,0,1,7.446,2.488q0.408,0.189.827,0.379a8.5,8.5,0,0,0-.211.835c-1.479-.015-2.919.556-3.085,2.3a2.432,2.432,0,0,0,.319,1.387c-1.337.111-4.1,0.06-4.549,1.8-0.512,2,2.565,2.6,3.807,2.958a21.013,21.013,0,0,0,6.749.937,12.984,12.984,0,0,0,1.5.769c-0.923,2.9-1.546,5.939-2.32,8.832-0.605,2.262-1.223,4.522-1.816,6.788a1.666,1.666,0,0,0,.188,1.644c0.827,1.644,1.664,3.283,2.5,4.925,0.242,0.475.951,0.056,0.711-.419q-1.023-2.015-2.044-4.031a3.916,3.916,0,0,1-.663-1.707,14.158,14.158,0,0,1,.741-2.567q0.408-1.527.817-3.054c0.9-3.36,1.709-6.761,2.715-10.091a9.624,9.624,0,0,0,4.181.555c1.1,0.2,2.216.333,3.291,0.43a0.419,0.419,0,0,0,.29-0.708c-0.27-.23-0.536-0.466-0.8-0.7a5.9,5.9,0,0,0,1.123-.966q5.337,2.04,10.727,3.939a0.417,0.417,0,0,0,.4-0.692c-2.538-2.711-5.079-5.422-7.656-8.1,0.085-.069.159-0.149,0.24-0.223,0.408,0.119.815,0.24,1.226,0.35,1.009,0.271,2.022.526,3.032,0.793a19.743,19.743,0,0,1,3.783,1.008,18.178,18.178,0,0,1,2.753,2.289l2.771,2.3c0.406,0.337.991-.246,0.581-0.586" transform="translate(-350 -327.156)"/>
  <path id="Fill_84" data-name="Fill 84" class="cls-12" d="M397.826,377.518c-0.007,0-.772-2.36-0.854-2.581-0.336-.914-0.924-1.793-1.343-2.678q-1.29-2.729-2.3-5.569a1.305,1.305,0,0,0-.175-0.367,1.361,1.361,0,0,0-.414-0.32l-2.494-1.452a0.914,0.914,0,0,0-.428-0.16,0.894,0.894,0,0,0-.32.074L386,365.722a6.832,6.832,0,0,1-.462,2.055,20.554,20.554,0,0,1-.759,2.222,8.953,8.953,0,0,1,.906,2.018,49.836,49.836,0,0,0,4.246,8.9q3.99-1.6,7.891-3.4" transform="translate(-350 -327.156)"/>
  <path id="Fill_86" data-name="Fill 86" class="cls-6" d="M389.914,378.3a10.774,10.774,0,0,0,2.689-.995,4.961,4.961,0,0,0,1.029-.621,9.564,9.564,0,0,0,.715-0.9,5.514,5.514,0,0,1-2.032-.961,4.972,4.972,0,0,0,1.522-1.7,9.131,9.131,0,0,1-2.611-.465,3.63,3.63,0,0,0,1.551-1.388,7.666,7.666,0,0,1-3.09-1.667,6.439,6.439,0,0,1-1.426,3.5,2.474,2.474,0,0,0,1.591-.1,5.429,5.429,0,0,1-1.088,2.854,3.434,3.434,0,0,0,1.972-.585,15.879,15.879,0,0,1-.822,3.03" transform="translate(-350 -327.156)"/>
  <path id="Fill_88" data-name="Fill 88" class="cls-11" d="M389.567,380.874c-1.812-3.442-2.641-7.278-4.562-10.684,0.014-.035.027-0.072,0.04-0.114a0.414,0.414,0,0,0,.017-0.181,25.114,25.114,0,0,0,.917-3.445c0.6-.2,1.184-0.414,1.766-0.648,0.086,0.241.169,0.484,0.244,0.733a1.063,1.063,0,0,0-.163.217,0.439,0.439,0,0,0-.157.137c-0.827,1.173,1.574,2.3,2.123.891a1.2,1.2,0,0,0-.512-1.455,1.026,1.026,0,0,0-.528-0.122c-0.08-.259-0.167-0.512-0.257-0.763a4.894,4.894,0,0,1,.933-0.419,0.379,0.379,0,0,0,.269.055,5.9,5.9,0,0,0,2.551,1.408,0.353,0.353,0,0,0,.344.2q2.025,5.46,4.272,10.829l-0.012,0q-3.568,1.848-7.285,3.353m8.222-3.272q-2.37-5.638-4.49-11.379a0.423,0.423,0,0,0-.245-0.253,0.337,0.337,0,0,0-.265-0.22,5.123,5.123,0,0,1-2.7-1.452,0.372,0.372,0,0,0-.442-0.083,2.445,2.445,0,0,0-1.351.454c-0.028.013-.058,0.023-0.086,0.035a11.216,11.216,0,0,0-4.55-5.468,0.419,0.419,0,0,0-.417.726,10.343,10.343,0,0,1,4.2,5.055c-0.573.229-1.15,0.445-1.736,0.64a0.525,0.525,0,0,0-.106.053,0.346,0.346,0,0,0-.374.3,24.2,24.2,0,0,1-1.106,4.073,0.358,0.358,0,0,0,.117.408,0.42,0.42,0,0,0,.042.1c1.933,3.417,2.761,7.274,4.585,10.728a0.356,0.356,0,0,0,.291.206,0.335,0.335,0,0,0,.468.226q3.9-1.57,7.644-3.5a0.193,0.193,0,0,0,.021-0.013,0.461,0.461,0,0,0,.5-0.631" transform="translate(-350 -327.156)"/>
</svg>
