<?xml version="1.0" encoding="UTF-8"?>
<svg width="198px" height="195px" viewBox="0 0 198 195" version="1.1" xmlns="http://www.w3.org/2000/svg" xmlns:xlink="http://www.w3.org/1999/xlink">
    <!-- Generator: Sketch 47.1 (45422) - http://www.bohemiancoding.com/sketch -->
    <title>развернутый подарок@1x</title>
    <desc>Created with Sketch.</desc>
    <defs>
        <polygon id="path-1" points="35.0134286 0.540261422 35.0134286 52.3179082 0.494933368 52.3179082 0.494933368 0.540261422 35.0134286 0.540261422"></polygon>
        <polygon id="path-3" points="48.0445538 53.0263158 0.368856897 53.0263158 0.368856897 0.0529569636 48.0445538 0.0529569636"></polygon>
        <polygon id="path-5" points="0.384269142 0.685065789 165.640162 0.685065789 165.640162 187.208366 0.384269142 187.208366"></polygon>
    </defs>
    <g id="Page-1" stroke="none" stroke-width="1" fill="none" fill-rule="evenodd">
        <g id="Экран-с-подарками" transform="translate(-421.000000, -79.000000)">
            <g id="Group" transform="translate(421.000000, 79.000000)">
                <g id="развернутый-подарок">
                    <g id="Group-102" transform="translate(0.000000, 1.880724)">
                        <path d="M196.893,120.207921 C196.877571,120.215618 195.124714,114.727395 194.937857,114.214237 C194.165571,112.092329 192.819857,110.051671 191.859857,107.996474 C189.888429,103.773184 188.125286,99.4558158 186.579857,95.0648947 C186.476143,94.7681184 186.369857,94.4653553 186.179571,94.2130526 C185.937857,93.8906184 185.578714,93.6768026 185.229857,93.4706842 C183.325286,92.3468684 181.420714,91.2230526 179.517,90.0992368 C179.212714,89.9196316 178.890429,89.7348947 178.536429,89.7280526 C178.283571,89.7229211 178.038429,89.8110132 177.801,89.89825 C175.136143,90.8706842 172.471286,91.8448289 169.806429,92.8181184 C169.917,94.2908816 169.135286,96.1716053 168.746143,97.5896316 C168.265286,99.3403553 167.684143,101.062855 167.007,102.747724 C167.960143,104.176013 168.508714,105.822395 169.083,107.434566 C171.636429,114.608513 174.899571,121.538711 178.811571,128.090026 C184.907571,125.619171 190.937571,122.990092 196.893,120.207921" id="Fill-1" fill="#FFFFFF"></path>
                        <path d="M179.740543,121.827447 C182.053114,121.329684 184.192543,120.490671 186.277114,119.418171 C187.153971,118.967447 188.023971,118.564618 188.779114,117.912053 C188.968543,117.747842 190.585114,115.752513 190.514829,115.736263 C188.731971,115.308632 187.038257,114.510671 185.577686,113.409092 C187.110257,112.345145 188.386543,110.924553 189.2754,109.293566 C187.120543,109.229421 184.974257,108.848829 182.929114,108.168895 C184.482257,107.445342 185.810829,106.260803 186.698829,104.807711 C183.925114,104.063632 181.330543,102.669553 179.188543,100.769158 C178.6974,103.897711 177.889971,106.864618 175.723114,109.239684 C176.9934,109.585211 178.378543,109.497118 179.590543,108.994224 C179.396829,111.486461 178.466829,113.915408 176.9454,115.905605 C178.641686,115.934684 180.3414,115.432645 181.7394,114.488434 C181.318543,116.992645 180.648257,119.454947 179.740543,121.827447" id="Fill-3" fill="#90B83B"></path>
                        <g id="Group-7" transform="translate(162.857143, 76.973684)">
                            <mask id="mask-2" fill="white">
                                <use xlink:href="#path-1"></use>
                            </mask>
                            <g id="Clip-6"></g>
                            <path d="M32.7384857,42.5585789 C27.1842,45.3800921 21.5184857,47.9381842 15.7267714,50.2362763 C11.4967714,42.3558816 9.56134286,33.5689079 5.07505714,25.7680526 C5.10762857,25.6885132 5.13848571,25.6046974 5.16848571,25.5089079 C5.21562857,25.3583816 5.22591429,25.2198289 5.20791429,25.0923947 C6.13791429,22.5146316 6.80048571,19.8906842 7.3482,17.2034474 C8.73848571,16.7467368 10.1142,16.2558158 11.4744857,15.7178553 C11.6750571,16.2729211 11.8679143,16.8331184 12.0453429,17.4035789 C11.9004857,17.5515395 11.7667714,17.7106184 11.6630571,17.8962105 C11.5267714,17.9637763 11.3999143,18.0638421 11.2953429,18.2100921 C9.36591429,20.8947632 14.9707714,23.4708158 16.2522,20.25075 C16.7347714,19.0371316 16.2119143,17.5472632 15.0573429,16.9186447 C14.6716286,16.70825 14.2464857,16.627 13.8256286,16.6381184 C13.6387714,16.0471316 13.4356286,15.4664079 13.2247714,14.8925263 C14.2044857,14.4050263 15.3007714,13.8687763 15.4044857,13.9303553 C15.6239143,14.0612105 15.8373429,14.092 16.0310571,14.0577895 C17.7342,15.6126579 19.7544857,16.7142368 21.9890571,17.2812763 C22.1587714,17.5840395 22.4553429,17.7875921 22.7922,17.7456842 C25.9430571,26.0827895 29.2722,34.3480526 32.7676286,42.5466053 C32.7573429,42.5517368 32.7479143,42.5534474 32.7384857,42.5585789 M34.9267714,42.7441711 C31.2367714,34.1350921 27.7439143,25.4481842 24.4404857,16.6851579 C24.3273429,16.38325 24.1139143,16.1976579 23.8704857,16.1052895 C23.7822,15.86325 23.5859143,15.66825 23.2524857,15.6015395 C20.8207714,15.1251579 18.6984857,14.0244342 16.9422,12.2771316 C16.6182,11.9555526 16.2299143,11.9375921 15.9110571,12.0846974 C14.8550571,11.8460789 13.7030571,12.7167368 12.7550571,13.1255526 C12.6882,13.1537763 12.6213429,13.1768684 12.5553429,13.2059474 C10.3722,8.08548684 7.05248571,3.73903947 1.9302,0.683184211 C0.8622,0.0460131579 -0.108942857,1.70864474 0.956485714,2.34410526 C5.71105714,5.18101316 8.75305714,9.19818421 10.7682,13.9226579 C9.43105714,14.4460789 8.08277143,14.9421316 6.71648571,15.3877237 C6.62134286,15.4193684 6.54162857,15.4621316 6.46791429,15.5108816 C6.07534286,15.4912105 5.69391429,15.6939079 5.59362857,16.1993684 C4.95762857,19.3895 4.19734286,22.4898289 3.01191429,25.5268684 C2.86705714,25.8980526 3.02048571,26.2350263 3.28534286,26.4625263 C3.30762857,26.5360789 3.33677143,26.6113421 3.38134286,26.6874605 C7.89591429,34.5131184 9.82962857,43.3471316 14.0879143,51.2583158 C14.2533429,51.5653553 14.5053429,51.7056184 14.7676286,51.7287105 C14.9159143,52.1571974 15.3119143,52.4625263 15.8604857,52.247 C21.9376286,49.8488421 27.8879143,47.1787105 33.7113429,44.2195 C33.7302,44.2109474 33.7430571,44.1989737 33.7602,44.1887105 C34.4150571,44.3760132 35.2953429,43.6045658 34.9267714,42.7441711" id="Fill-5" fill="#0F0E0E" mask="url(#mask-2)"></path>
                        </g>
                        <g id="Group-10" transform="translate(128.571429, 139.407895)">
                            <mask id="mask-4" fill="white">
                                <use xlink:href="#path-3"></use>
                            </mask>
                            <g id="Clip-9"></g>
                            <path d="M22.5008571,43.4973158 C22.5402857,40.5286974 23.0554286,37.5626447 24.018,34.75225 C24.9068571,32.1548158 26.7694286,27.4910658 29.2045714,25.8190263 C33.942,24.7730395 35.8577143,25.5444868 34.9508571,28.1316579 C34.806,29.1887632 34.4314286,30.1671842 33.8271429,31.0694868 C33.1731429,32.2719868 32.358,33.4496842 31.5548571,34.5555395 C29.1728571,37.8329079 26.0545714,41.2599474 22.4982857,43.7350789 C22.4991429,43.6546842 22.5,43.5794211 22.5008571,43.4973158 M46.3842857,24.8619868 C39.1088571,31.7323158 39.0402857,44.5227763 30,49.6492237 C27.6394286,50.9877105 26.1445714,51.5590263 24.2048571,49.57225 C22.9602857,48.2970526 22.6122857,47.0817237 22.5231429,45.6448816 C26.2551429,43.20225 29.5791429,40.0583026 31.3645714,37.9133026 C33.9282857,34.8326447 38.7462857,29.1827763 36.6274286,24.7841579 C34.8582857,21.1125132 30.2562857,22.1815921 27.8408571,24.4583026 C23.7822857,28.28475 21.546,34.5931711 20.8268571,39.9830395 C20.658,41.2462632 20.4411429,43.10475 20.448,45.0213947 C19.4528571,45.5790263 18.4302857,46.0545526 17.3862857,46.4240263 C13.2188571,47.8993553 8.33142857,47.0552105 7.06285714,42.1913289 C6.29742857,39.2526447 6.906,35.8888947 7.13657143,32.9236974 C8.00314286,21.7933026 8.39657143,10.2951447 2.18828571,0.502381579 C1.52657143,-0.541894737 -0.143142857,0.422842105 0.522857143,1.47310526 C4.96542857,8.48198684 5.95285714,16.55225 5.718,24.6986316 C5.54742857,30.6435658 3.26828571,38.3836974 5.66057143,44.0857368 C8.57485714,51.0330395 14.7917143,50.0571842 20.5354286,46.8499474 C20.7985714,49.6227105 21.7268571,52.1636974 24.2031429,52.8077105 C29.2354286,54.1171184 34.2882857,49.2729079 36.8048571,45.5986974 C41.0571429,39.3929079 42.1157143,31.5415921 47.748,26.2235658 C48.6514286,25.3700132 47.286,24.011 46.3842857,24.8619868" id="Fill-8" fill="#981A25" mask="url(#mask-4)"></path>
                        </g>
                        <g id="Group-13" transform="translate(0.000000, 33.355263)" fill="#981A25">
                            <path d="M33.9391714,53.259375 C30.6271714,55.0212171 26.4940286,53.8717434 23.6037429,51.8165461 C22.7294571,51.1947697 21.9726,50.4917434 21.3254571,49.7245724 C23.2934571,46.1204934 26.1451714,42.5822697 29.5780286,41.1035197 C37.8434571,37.5430592 40.5391714,49.749375 33.9391714,53.259375 M18.7334571,37.6687829 C19.3120286,34.8831908 20.4888857,32.1916776 22.2477429,29.9483224 C23.8120286,27.9538487 29.6611714,23.4072697 30.4728857,29.2692434 C31.1491714,34.1579276 24.9366,38.7925987 21.4591714,41.0958224 C20.5874571,41.673125 19.5408857,42.2025329 18.4351714,42.6010855 C18.2843143,40.9931908 18.3888857,39.3279934 18.7334571,37.6687829 M13.7937429,15.3524013 C12.2988857,18.5724671 7.54602857,18.4287829 5.93374286,15.3994408 C5.36802857,14.3363487 5.11688571,13.186875 5.11174286,12.0305592 C6.31431429,11.0213487 7.65402857,10.2250987 9.14288571,9.95911184 C12.4497429,9.37069079 15.5080286,11.6585197 13.7937429,15.3524013 M35.8146,39.4229276 C29.8043143,35.7666776 23.7957429,41.9673355 20.1666,48.0910197 C19.5306,47.0150987 19.0677429,45.8536513 18.7720286,44.6366118 C24.8097429,42.6772039 31.4783143,36.4910855 32.3011714,30.5495724 C33.3648857,22.8778618 25.6274571,23.4183882 21.5234571,27.7579934 C17.8771714,31.6109539 15.8766,37.643125 16.5074571,43.1381908 C13.5306,43.7009539 10.5674571,42.9945066 9.61088571,39.4100987 C7.7766,32.5346382 15.0726,26.7812829 19.7671714,23.2447697 C25.2948857,19.0813487 30.8774571,12.6463487 25.7517429,5.82819079 C22.0668857,0.927532895 14.4460286,-1.31325658 9.01002857,1.92819079 C5.84117143,3.81746711 3.54917143,7.48141447 3.23031429,11.1864145 C2.09717143,12.2247039 1.0866,13.3673355 0.2346,14.4022039 C-0.547114286,15.3524013 0.809742857,16.7216776 1.59831429,15.7629276 C2.13574286,15.1112171 2.71945714,14.4116118 3.34945714,13.7308224 C3.59288571,15.0924013 4.13545714,16.4052303 5.06374286,17.574375 C7.05317143,20.0845724 10.2443143,21.0202303 12.9983143,19.1206908 C14.8557429,17.8395066 17.1983143,14.5954934 16.5357429,12.2033224 C15.8534571,9.741875 12.5920286,7.76878289 10.1577429,7.81240132 C8.5086,7.84148026 6.94688571,8.474375 5.5146,9.39976974 C6.04431429,7.661875 7.05488571,6.04713816 8.33374286,4.84720395 C11.8223143,1.57582237 16.9223143,1.74345395 20.8771714,4.06634868 C24.3571714,6.11213816 26.8351714,9.90266447 25.4928857,14.0139145 C24.4068857,17.3451645 21.4746,19.5748355 18.7934571,21.5829934 C14.6886,24.6585197 10.6883143,27.8255592 8.60288571,32.6783224 C5.84974286,39.0842434 9.00145714,46.3283224 16.6471714,45.1617434 C16.7191714,45.1514803 16.7937429,45.1292434 16.8657429,45.1164145 C17.2943143,46.8842434 18.0220286,48.5554276 19.0951714,50.0307566 C18.2063143,51.7515461 17.5308857,53.3808224 17.1331714,54.6791118 C13.7868857,65.5991118 17.8060286,77.2956908 26.5137429,84.4841776 C27.4634571,85.2684539 28.8348857,83.9137171 27.8774571,83.1234539 C19.2957429,76.0384539 15.5646,64.5300329 19.4174571,53.9187829 C19.6917429,53.1644408 20.0226,52.3707566 20.3963143,51.5650987 C24.2526,55.5087171 30.7591714,57.7614803 35.6268857,54.4841118 C40.8023143,50.9989145 41.4588857,42.8576645 35.8146,39.4229276" id="Fill-11"></path>
                        </g>
                        <path d="M179.328343,56.5684737 C173.336057,52.9763684 167.344629,49.3842632 161.352343,45.7921579 C162.096343,38.6900526 163.053771,30.1639342 161.500629,23.1465 C160.3032,23.1234079 160.413771,22.3134737 159.560057,21.92775 C158.273486,21.3461711 156.780343,21.1280789 155.408057,20.7842632 C152.516914,20.059 149.6292,19.3209079 146.744057,18.5691316 C140.975486,17.0655789 135.220629,15.5072895 129.4812,13.8959737 C118.001486,10.6733421 106.581771,7.23775 95.2314857,3.58919737 C90.6997714,2.13182895 86.1037714,0.627421053 81.3449143,0.459789474 C79.5423429,3.30097368 77.5983429,6.04465789 75.7657714,8.87814474 C75.0946286,9.91643421 71.2169143,17.4016974 70.2552,17.4016974 C63.1974857,16.6413684 56.0789143,16.4489342 48.9903429,16.8261053 C43.3040571,37.2549211 39.0432,58.0899868 33.0689143,78.3845263 C30.3740571,87.5366974 27.6792,96.6897237 24.9843429,105.84275 C22.5132,114.237158 19.2954857,122.692289 17.4072,131.171368 C17.2340571,131.948803 17.0669143,132.788671 17.3840571,133.519921 C17.7149143,134.281961 18.4897714,134.736961 19.2174857,135.1415 C23.7869143,137.685053 28.3572,140.226895 32.9274857,142.770447 C33.9097714,143.317816 34.9357714,143.904526 35.5194857,144.864132 C35.9729143,145.610776 36.1074857,146.501105 36.2317714,147.365776 C36.8806286,151.853342 37.5286286,156.340053 38.1766286,160.827618 C38.2692,161.465645 38.3763429,162.140447 38.7886286,162.6365 C39.2223429,163.157355 39.9089143,163.383145 40.5577714,163.583276 C66.0346286,171.465382 91.5526286,179.356895 117.634629,184.9315 C119.996057,179.875184 122.186914,174.740184 124.202914,169.538474 C132.584914,169.752289 141.096343,169.003934 149.4852,168.696895 C159.644057,144.285118 164.022343,117.937026 171.168343,92.4843947 C172.970057,86.0682105 174.950914,79.7024868 176.640343,73.2546579 C177.468343,70.09275 178.262914,66.9171579 178.779771,63.6945263 C178.952914,62.6186053 180.3612,57.1868289 179.328343,56.5684737" id="Fill-14" fill="#FFFFFF"></path>
                        <path d="M164.1408,154.31573 C164.1408,155.408757 163.251943,156.295664 162.156514,156.295664 C161.060229,156.295664 160.171371,155.408757 160.171371,154.31573 C160.171371,153.221849 161.060229,152.335796 162.156514,152.335796 C163.251943,152.335796 164.1408,153.221849 164.1408,154.31573" id="Fill-16" fill="#981A25"></path>
                        <path d="M166.835314,142.039711 C166.835314,143.133592 165.947314,144.019645 164.851029,144.019645 C163.754743,144.019645 162.866743,143.133592 162.866743,142.039711 C162.866743,140.946684 163.754743,140.059776 164.851029,140.059776 C165.947314,140.059776 166.835314,140.946684 166.835314,142.039711" id="Fill-18" fill="#AFF93C"></path>
                        <path d="M174.718629,150.202257 C174.718629,151.295283 173.829771,152.182191 172.734343,152.182191 C171.638057,152.182191 170.7492,151.295283 170.7492,150.202257 C170.7492,149.108375 171.638057,148.222322 172.734343,148.222322 C173.829771,148.222322 174.718629,149.108375 174.718629,150.202257" id="Fill-20" fill="#60ADC3"></path>
                        <path d="M171.932914,128.891664 C171.932914,129.984691 171.044057,130.871599 169.948629,130.871599 C168.852343,130.871599 167.963486,129.984691 167.963486,128.891664 C167.963486,127.797783 168.852343,126.91173 169.948629,126.91173 C171.044057,126.91173 171.932914,127.797783 171.932914,128.891664" id="Fill-22" fill="#6519CF"></path>
                        <path d="M12.2784,86.7466053 C12.2784,87.8396316 11.3895429,88.7265395 10.2941143,88.7265395 C9.19782857,88.7265395 8.30897143,87.8396316 8.30897143,86.7466053 C8.30897143,85.6527237 9.19782857,84.7666711 10.2941143,84.7666711 C11.3895429,84.7666711 12.2784,85.6527237 12.2784,86.7466053" id="Fill-24" fill="#6519CF"></path>
                        <path d="M70.4041714,177.138 C70.9004571,176.162145 72.0944571,175.773 73.0716,176.267342 C74.0487429,176.763395 74.4396,177.953921 73.9441714,178.929776 C73.4478857,179.904776 72.2538857,180.293921 71.2767429,179.799579 C70.2987429,179.305237 69.9078857,178.113855 70.4041714,177.138" id="Fill-26" fill="#3A65D5"></path>
                        <path d="M31.0459714,179.143421 C31.5422571,178.167566 32.7362571,177.778421 33.7134,178.272763 C34.6914,178.768816 35.0814,179.959342 34.5859714,180.935197 C34.0896857,181.910197 32.8956857,182.299342 31.9185429,181.805 C30.9405429,181.310658 30.5505429,180.119276 31.0459714,179.143421" id="Fill-28" fill="#90B83B"></path>
                        <path d="M30.9827143,174.815276 C31.479,173.839421 32.673,173.450276 33.651,173.944618 C34.6281429,174.440671 35.0181429,175.632053 34.5227143,176.607053 C34.0264286,177.582053 32.8324286,177.972053 31.8552857,177.476855 C30.8772857,176.982513 30.4872857,175.791132 30.9827143,174.815276" id="Fill-30" fill="#E7C434"></path>
                        <path d="M34.7038286,168.633862 C35.1992571,167.658862 36.3941143,167.268862 37.3712571,167.764059 C38.3484,168.259257 38.7392571,169.450638 38.2429714,170.426493 C37.7475429,171.400638 36.5535429,171.790638 35.5755429,171.295441 C34.5984,170.801099 34.2075429,169.609717 34.7038286,168.633862" id="Fill-32" fill="#A82030"></path>
                        <path d="M154.272343,10.1604408 C154.768629,9.18458553 155.962629,8.79544079 156.939771,9.28978289 C157.917771,9.78498026 158.307771,10.9763618 157.812343,11.9522171 C157.316057,12.9272171 156.122057,13.3163618 155.144914,12.8220197 C154.166914,12.3276776 153.776057,11.1362961 154.272343,10.1604408" id="Fill-34" fill="#A82030"></path>
                        <path d="M176.433771,32.9510658 C176.9292,31.9760658 178.124057,31.5860658 179.1012,32.0812632 C180.078343,32.5764605 180.4692,33.7678421 179.972914,34.7436974 C179.477486,35.7178421 178.283486,36.1078421 177.305486,35.6126447 C176.328343,35.1183026 175.937486,33.9269211 176.433771,32.9510658" id="Fill-36" fill="#A82030"></path>
                        <path d="M171.7002,20.8545658 C172.196486,19.8795658 173.390486,19.4895658 174.368486,19.9839079 C175.345629,20.4799605 175.735629,21.6713421 175.2402,22.6463421 C174.743914,23.6213421 173.549914,24.0113421 172.572771,23.5161447 C171.594771,23.0218026 171.204771,21.8304211 171.7002,20.8545658" id="Fill-38" fill="#90B83B"></path>
                        <path d="M167.825057,40.5598289 C168.321343,39.5839737 169.515343,39.1939737 170.492486,39.6891711 C171.469629,40.1843684 171.860486,41.37575 171.365057,42.3516053 C170.868771,43.3266053 169.674771,43.71575 168.697629,43.2214079 C167.719629,42.7262105 167.328771,41.5348289 167.825057,40.5598289" id="Fill-40" fill="#67B6C5"></path>
                        <path d="M174.771771,36.8640658 C175.268057,35.8882105 176.462057,35.4990658 177.4392,35.9934079 C178.4172,36.4894605 178.8072,37.6799868 178.311771,38.6558421 C177.815486,39.6308421 176.621486,40.0199868 175.644343,39.5256447 C174.666343,39.0313026 174.275486,37.8399211 174.771771,36.8640658" id="Fill-42" fill="#90B83B"></path>
                        <path d="M168.966857,25.9994868 C169.463143,25.0236316 170.657143,24.6336316 171.634286,25.1288289 C172.612286,25.6240263 173.002286,26.8154079 172.506857,27.7912632 C172.010571,28.7662632 170.816571,29.1554079 169.838571,28.6610658 C168.861429,28.1658684 168.470571,26.9744868 168.966857,25.9994868" id="Fill-44" fill="#6519CF"></path>
                        <path d="M167.295686,31.1485987 C167.791114,30.1735987 168.985971,29.7835987 169.963114,30.2787961 C170.940257,30.7739934 171.331114,31.965375 170.834829,32.9412303 C170.3394,33.915375 169.1454,34.305375 168.1674,33.8101776 C167.190257,33.3158355 166.7994,32.1244539 167.295686,31.1485987" id="Fill-46" fill="#E7C434"></path>
                        <path d="M174.887743,29.3545987 C175.384029,28.3787434 176.578029,27.9895987 177.555171,28.4839408 C178.533171,28.9791382 178.923171,30.1705197 178.427743,31.146375 C177.931457,32.121375 176.737457,32.5105197 175.760314,32.0161776 C174.782314,31.5218355 174.391457,30.3304539 174.887743,29.3545987" id="Fill-48" fill="#67B6C5"></path>
                        <path d="M170.973257,31.9078158 C171.469543,30.9328158 172.663543,30.5428158 173.641543,31.0380132 C174.618686,31.5332105 175.008686,32.7245921 174.513257,33.7004474 C174.016971,34.6745921 172.822971,35.0645921 171.845829,34.5693947 C170.867829,34.0750526 170.477829,32.8836711 170.973257,31.9078158" id="Fill-50" fill="#3A65D5"></path>
                        <path d="M178.473257,40.028625 C178.792971,38.9817829 179.902114,38.3925066 180.9504,38.7115197 C181.998686,39.0296776 182.590114,40.1363882 182.2704,41.182375 C181.951543,42.2283618 180.8424,42.8184934 179.794114,42.5003355 C178.744971,42.1813224 178.1544,41.0754671 178.473257,40.028625" id="Fill-52" fill="#E7C434"></path>
                        <path d="M22.8896571,149.833895 C23.3850857,148.858895 24.5799429,148.468895 25.5570857,148.964092 C26.5342286,149.459289 26.9250857,150.650671 26.4288,151.626526 C25.9333714,152.601526 24.7393714,152.990671 23.7613714,152.496329 C22.7842286,152.001132 22.3933714,150.80975 22.8896571,149.833895" id="Fill-54" fill="#A82030"></path>
                        <path d="M45.2926286,169.447388 C45.7889143,168.472388 46.9829143,168.082388 47.9600571,168.577586 C48.9380571,169.072783 49.3280571,170.264164 48.8326286,171.24002 C48.3363429,172.214164 47.1423429,172.604164 46.1652,172.108967 C45.1872,171.614625 44.7963429,170.423243 45.2926286,169.447388" id="Fill-56" fill="#90B83B"></path>
                        <path d="M49.0099714,169.587651 C49.5054,168.611796 50.7002571,168.221796 51.6774,168.716993 C52.6545429,169.212191 53.0454,170.403572 52.5491143,171.379428 C52.0536857,172.354428 50.8596857,172.743572 49.8816857,172.24923 C48.9045429,171.754033 48.5136857,170.562651 49.0099714,169.587651" id="Fill-58" fill="#E7C434"></path>
                        <path d="M39.4963714,177.138 C39.9926571,176.162145 41.1866571,175.773 42.1638,176.267342 C43.1418,176.763395 43.5318,177.953921 43.0363714,178.929776 C42.5400857,179.904776 41.3460857,180.293921 40.3689429,179.799579 C39.3909429,179.305237 39.0000857,178.113855 39.4963714,177.138" id="Fill-60" fill="#67B6C5"></path>
                        <path d="M31.6277143,155.399862 C32.1231429,154.424007 33.318,154.034862 34.2951429,154.529204 C35.2722857,155.025257 35.6631429,156.215783 35.1668571,157.191638 C34.6714286,158.166638 33.4774286,158.555783 32.4994286,158.061441 C31.5222857,157.567099 31.1314286,156.375717 31.6277143,155.399862" id="Fill-62" fill="#67B6C5"></path>
                        <path d="M13.1476286,113.865289 C12.5853429,112.926211 12.8922,111.710882 13.8333429,111.149829 C14.7736286,110.588776 15.9924857,110.894961 16.5547714,111.834039 C17.1170571,112.773118 16.8093429,113.989303 15.8690571,114.550355 C14.9279143,115.110553 13.7099143,114.804368 13.1476286,113.865289" id="Fill-64" fill="#67B6C5"></path>
                        <path d="M18.1561714,137.73748 C18.6524571,136.76248 19.8464571,136.37248 20.8244571,136.867678 C21.8016,137.362875 22.1916,138.554257 21.6961714,139.530112 C21.2007429,140.504257 20.0058857,140.894257 19.0287429,140.399914 C18.0507429,139.904717 17.6607429,138.713336 18.1561714,137.73748" id="Fill-66" fill="#90B83B"></path>
                        <path d="M51.6307714,174.492928 C52.1270571,173.517072 53.3210571,173.127928 54.2982,173.62227 C55.2762,174.118322 55.6662,175.309704 55.1707714,176.284704 C54.6744857,177.259704 53.4804857,177.649704 52.5033429,177.154507 C51.5253429,176.660164 51.1344857,175.468783 51.6307714,174.492928" id="Fill-68" fill="#6519CF"></path>
                        <path d="M14.2810286,157.442743 C14.7773143,156.466888 15.9713143,156.076888 16.9484571,156.572086 C17.9264571,157.067283 18.3164571,158.258664 17.8210286,159.23452 C17.3247429,160.20952 16.1307429,160.598664 15.1536,160.104322 C14.1756,159.609125 13.7847429,158.417743 14.2810286,157.442743" id="Fill-70" fill="#67B6C5"></path>
                        <path d="M21.2277429,153.746895 C21.7240286,152.771895 22.9180286,152.381895 23.8951714,152.876237 C24.8731714,153.372289 25.2631714,154.563671 24.7677429,155.538671 C24.2714571,156.513671 23.0774571,156.903671 22.1003143,156.408474 C21.1223143,155.914132 20.7314571,154.72275 21.2277429,153.746895" id="Fill-72" fill="#90B83B"></path>
                        <path d="M15.4227429,142.882401 C15.9190286,141.906546 17.1130286,141.517401 18.0901714,142.011743 C19.0681714,142.506941 19.4581714,143.698322 18.9627429,144.674178 C18.4664571,145.649178 17.2724571,146.038322 16.2953143,145.54398 C15.3173143,145.049638 14.9264571,143.858257 15.4227429,142.882401" id="Fill-74" fill="#6519CF"></path>
                        <path d="M13.7515714,148.032368 C14.2478571,147.056513 15.4418571,146.666513 16.419,147.161711 C17.3961429,147.656908 17.787,148.848289 17.2907143,149.824145 C16.7952857,150.799145 15.6012857,151.188289 14.6232857,150.693947 C13.6461429,150.19875 13.2552857,149.007368 13.7515714,148.032368" id="Fill-76" fill="#E7C434"></path>
                        <path d="M21.3436286,146.237513 C21.8399143,145.261658 23.0339143,144.872513 24.0110571,145.366855 C24.9890571,145.862908 25.3790571,147.054289 24.8836286,148.029289 C24.3873429,149.004289 23.1933429,149.394289 22.2162,148.899092 C21.2382,148.40475 20.8473429,147.213368 21.3436286,146.237513" id="Fill-78" fill="#67B6C5"></path>
                        <path d="M26.3500286,143.671724 C26.8463143,142.695868 28.0403143,142.306724 29.0174571,142.801066 C29.9954571,143.297118 30.3854571,144.487645 29.8900286,145.4635 C29.3937429,146.4385 28.1997429,146.827645 27.2226,146.333303 C26.2446,145.838961 25.8537429,144.647579 26.3500286,143.671724" id="Fill-80" fill="#3A65D5"></path>
                        <path d="M17.4295714,148.791586 C17.925,147.81573 19.1198571,147.42573 20.097,147.920928 C21.0741429,148.416125 21.465,149.607507 20.9687143,150.583362 C20.4732857,151.558362 19.2792857,151.947507 18.3012857,151.453164 C17.3241429,150.957967 16.9332857,149.766586 17.4295714,148.791586" id="Fill-82" fill="#3A65D5"></path>
                        <path d="M23.7120857,164.469414 C24.2083714,163.494414 25.4023714,163.104414 26.3803714,163.598757 C27.3575143,164.094809 27.7475143,165.286191 27.2520857,166.261191 C26.7558,167.236191 25.5618,167.626191 24.5846571,167.130993 C23.6066571,166.636651 23.2166571,165.44527 23.7120857,164.469414" id="Fill-84" fill="#3A65D5"></path>
                        <path d="M24.9295714,156.911539 C25.2484286,155.865553 26.3575714,155.275421 27.4058571,155.594434 C28.4541429,155.912592 29.0455714,157.019303 28.7267143,158.066145 C28.407,159.111276 27.2987143,159.701408 26.2495714,159.38325 C25.2012857,159.065092 24.6098571,157.958382 24.9295714,156.911539" id="Fill-86" fill="#E7C434"></path>
                        <path d="M8.52377143,127.99552 C9.02005714,127.019664 10.2140571,126.63052 11.1920571,127.124862 C12.1692,127.620914 12.5592,128.812296 12.0637714,129.787296 C11.5683429,130.762296 10.3734857,131.152296 9.39634286,130.657099 C8.41834286,130.162757 8.02834286,128.971375 8.52377143,127.99552" id="Fill-88" fill="#6519CF"></path>
                        <path d="M74.9088,29.1716579 C74.4090857,26.7760658 73.2785143,26.7965921 73.4422286,24.3642237 C73.6393714,21.4392237 70.8236571,17.1475132 69.7590857,19.4054079 C68.9310857,19.5653421 66.9768,24.0854079 66.6588,25.1202763 C60.1282286,46.3581711 55.1490857,67.8731711 50.8102286,89.6473158 C48.7136571,100.166197 45.3690857,110.333566 42.5482286,120.666855 C41.2256571,125.511921 39.6373714,130.593895 39.3476571,135.633105 C39.0862286,140.187382 35.4768,140.667184 37.6230857,144.568039 C38.9010857,146.890934 46.1945143,140.447382 46.3016571,138.003895 C47.2282286,116.914816 52.0359429,104.6435 58.2373714,84.4387632 C63.3270857,67.8552105 71.2085143,51.7326447 72.5550857,34.3365921 C73.4962286,33.84225 75.1908,30.5212632 74.9088,29.1716579" id="Fill-90" fill="#999999"></path>
                        <path d="M159.106371,45.8484342 C159.302657,42.9234342 152.640943,45.5696184 152.322943,46.6044868 C145.792371,67.8423816 140.813229,89.3573816 136.474371,111.131526 C134.3778,121.650408 131.033229,131.818632 128.212371,142.151066 C126.8898,146.996132 124.376657,151.317776 124.0878,156.357842 C123.826371,160.912118 121.140943,162.150539 123.287229,166.051395 C124.565229,168.374289 126.872657,167.726 127.516371,165.365474 C133.188943,144.568039 137.700086,126.127711 143.901514,105.922974 C148.991229,89.3402763 155.914371,69.8069211 157.260943,52.4108684 C157.9638,48.8495526 158.942657,48.2808026 159.106371,45.8484342" id="Fill-92" fill="#C6C6C6"></path>
                        <path d="M151.926943,48.2806316 C153.335229,47.5262895 157.720371,44.993 159.2658,44.8869474 C161.124943,44.7595132 157.085229,41.1006974 155.4918,40.3018816 C155.248371,39.5064868 152.088086,38.0816184 151.3878,37.8831974 C137.002371,33.79675 123.605229,27.9441842 109.266086,26.0694474 C102.338657,25.1654342 97.6312286,23.3890526 90.6943714,21.7503684 C87.4423714,20.9831974 75.4603714,17.8204342 72.2658,18.0889868 C69.3789429,18.3318816 73.8789429,19.9252368 71.8175143,22.4619474 C70.5900857,23.9723421 75.8760857,30.4321447 77.4198,30.2687895 C90.7389429,28.8653026 98.7249429,34.7495132 112.409229,38.6247105 C123.639514,41.8062895 136.034657,48.8168816 147.123514,48.2301711 C147.594943,49.1016842 151.134086,48.7056974 151.926943,48.2806316" id="Fill-94" fill="#AAAAAA"></path>
                        <path d="M123.551657,169.530007 C125.4108,169.402572 125.099657,164.273559 123.506229,163.475599 C123.2628,162.680204 120.103371,161.255336 119.402229,161.056914 C105.0168,156.970467 91.6196571,151.117901 77.2805143,149.243164 C70.3530857,148.338296 53.9988,141.098493 47.0628,139.460664 C43.8099429,138.692638 40.5193714,141.241322 38.4588,143.778033 C37.2313714,145.288428 47.2976571,148.340862 48.7950857,148.749678 C66.8730857,153.691388 78.7968,156.44277 92.4802286,160.318822 C103.711371,163.500401 122.005371,169.636059 123.551657,169.530007" id="Fill-96" fill="#C6C6C6"></path>
                        <path d="M92.9636571,145.348809 C91.2039429,144.966507 89.4630857,144.568809 87.7565143,144.123217 C89.4956571,144.519204 91.2305143,144.925454 92.9636571,145.339401 C92.9636571,145.342822 92.9636571,145.345388 92.9636571,145.348809 M75.7770857,30.3167697 C74.4202286,34.9463092 138.176229,68.6573618 136.818514,73.2869013 C134.607086,77.8582829 132.117943,82.2962434 130.071943,87.0557829 C124.755086,99.4271645 125.705657,112.975388 123.998229,126.069467 C121.599086,133.076638 119.0868,140.047033 116.5368,147.002888 C94.9008,138.72223 71.3628,137.039928 49.8270857,128.410322 C47.0859429,127.311309 44.5890857,138.048283 47.0628,139.460322 C57.2773714,145.294072 123.039943,162.319796 124.101086,159.469204 C127.517657,150.287099 127.464514,142.195454 129.765943,132.658414 C132.038229,123.240257 135.747086,113.899928 136.907657,104.308151 C137.072229,102.948283 137.249657,101.586704 137.435657,100.226836 C138.254229,97.2231513 139.038514,94.2117697 139.784229,91.1909803 C140.587371,88.7312434 141.318514,86.2347303 142.035943,83.7202566 C145.2468,72.4692697 147.575657,60.9480197 152.3868,50.2606513 C153.383657,48.0472303 75.5816571,27.636375 75.7770857,30.3167697" id="Fill-98" fill="#E5E5E5"></path>
                        <path d="M89.7752571,139.194079 C88.0155429,138.811776 86.2746857,138.413224 84.5681143,137.968487 C86.3072571,138.364474 88.0421143,138.770724 89.7752571,139.184671 C89.7752571,139.188092 89.7752571,139.190658 89.7752571,139.194079 M75.5518286,34.0249342 C74.1949714,38.6544737 134.987829,62.5026316 133.630114,67.1321711 C131.418686,71.7035526 128.929543,76.1406579 126.883543,80.9010526 C121.566686,93.2724342 122.517257,106.820658 120.809829,119.914737 C118.410686,126.921908 115.8984,133.892303 113.3484,140.847303 C91.7124,132.5675 75.9444,136.718947 54.4086857,128.090197 C51.6675429,126.990329 48.5098286,129.564671 50.9835429,130.977566 C61.1981143,136.809605 119.919257,160.572237 120.9804,157.721645 C124.396971,148.540395 125.361257,136.447829 127.661829,126.910789 C129.934114,117.492632 135.850114,88.0570395 136.595829,85.03625 C137.398971,82.5765132 139.740686,63.6811842 144.551829,52.9938158 C145.547829,50.7795395 75.3564,31.3445395 75.5518286,34.0249342" id="Fill-100" fill="#BCBCBC"></path>
                    </g>
                    <g id="Group-106" transform="translate(15.428571, 0.170197)">
                        <mask id="mask-6" fill="white">
                            <use xlink:href="#path-5"></use>
                        </mask>
                        <g id="Clip-105"></g>
                        <path d="M162.968486,60.7111974 C162.545057,62.7723816 162.1182,64.8335658 161.687057,66.8938947 C160.007057,74.9290921 158.269629,82.9531711 156.437057,90.9558684 C152.911629,106.355737 149.045914,121.687184 144.518486,136.827053 C142.249629,144.413237 139.812771,151.950671 137.151343,159.406855 C136.562486,161.057513 135.963343,162.703039 135.3522,164.345145 C134.939057,165.453566 134.478771,168.188697 133.943057,168.857513 C133.813629,169.019158 133.7982,169.073895 133.812771,169.092711 C133.767343,169.109816 133.698771,169.138895 133.5702,169.207316 C133.199914,169.401461 132.0822,169.239816 131.695629,169.247513 C125.189057,169.389487 118.682486,169.531461 112.175057,169.674289 C112.248771,169.522053 112.325914,169.378368 112.393629,169.207316 C115.797343,160.596526 117.675343,151.031263 120.129343,142.108303 C122.595343,133.139158 125.010771,124.156329 127.465629,115.182908 C131.432486,100.681921 135.858771,86.2638947 139.430486,71.6611316 C140.669057,66.5928421 141.899057,61.5211316 143.219057,56.4742237 C143.821629,54.1735658 144.432771,51.8737632 145.113343,49.5944868 C145.219629,49.2378421 145.469914,48.4749474 145.713343,47.7120526 C150.942771,50.6071184 156.1722,53.5013289 161.402486,56.39725 C161.9082,56.6769211 163.809343,57.3269211 164.057914,57.8674474 C163.995343,57.7323158 163.085057,60.1467237 162.968486,60.7111974 M108.185914,163.705408 C108.152486,163.625013 108.108771,163.557447 108.059914,163.495013 C115.848771,130.410013 124.745057,97.7115921 133.395343,65.0319868 C134.2422,61.8333026 135.089914,58.6346184 135.965914,55.4436316 C136.232486,54.4720526 136.614771,53.4748158 136.793914,52.4844211 C136.8282,52.2919868 136.893343,52.1175132 136.958486,51.9712632 C139.0962,50.6156711 141.2802,49.3438947 143.513914,48.1559342 C143.456486,48.3800132 143.401629,48.5904079 143.348486,48.7674474 C142.067057,52.9984342 140.999057,57.2969868 139.9242,61.5835658 C137.315057,71.9929737 134.567057,82.3288289 131.694771,92.6732368 C126.791914,110.325868 122.034771,128.016987 117.144771,145.673039 C115.941343,150.017776 114.723343,154.359947 113.480486,158.694421 C112.937057,160.589684 112.389343,162.484947 111.835629,164.3785 C111.308486,166.177974 110.955343,167.745671 110.036486,168.742908 C109.499057,167.035803 108.884486,165.356921 108.185914,163.705408 Z M98.3390571,184.281329 C95.8936286,183.609092 93.4482,182.936855 91.0019143,182.265474 C81.4910571,179.651789 71.9793429,177.038961 62.4684857,174.425276 C53.2293429,171.886855 43.9893429,169.347579 34.7502,166.809158 C32.3047714,166.137776 29.8584857,165.464684 27.4130571,164.792447 C24.2390571,163.920934 24.0873429,163.270079 23.8499143,160.010671 C23.5610571,156.051658 22.9439143,152.140539 22.1013429,148.264487 C39.7696286,153.338763 57.4602,158.3335 75.1773429,163.235013 C84.2562,165.747776 93.3307714,168.285342 102.425914,170.740803 C104.4222,171.279618 106.507629,172.074158 108.315343,172.098961 C106.721914,175.570474 105.128486,179.041132 103.535057,182.512645 C102.081343,185.677974 101.400771,185.122908 98.3390571,184.281329 Z M34.0893429,19.8484342 C40.2196286,19.02225 46.7510571,17.9813947 52.7064857,19.6619868 C42.2724857,61.7007368 31.2290571,103.584684 20.4993429,145.549882 C14.9347714,140.937447 9.45248571,137.335079 2.77277143,134.316855 C14.0759143,96.4004737 24.5202,58.2352105 34.0893429,19.8484342 Z M54.3299143,21.1159342 C55.5564857,24.3223158 56.8233429,27.5115921 58.1484857,30.6786316 C58.2462,30.9095526 58.4030571,31.0694868 58.5856286,31.1721184 C48.3796286,67.2385658 37.5042,103.135671 28.9919143,139.651987 C28.9867714,139.656263 28.9824857,139.659684 28.9773429,139.663961 C26.9322,141.755934 24.7653429,143.711921 22.4913429,145.547316 C33.0984857,104.068763 44.0073429,62.6671842 54.3299143,21.1159342 M59.9296286,29.9465263 C59.9253429,29.9465263 59.9227714,29.9473816 59.9184857,29.9465263 C58.5967714,26.7811974 57.3299143,23.5944868 56.1067714,20.3898158 C86.1839143,26.2654737 115.728771,34.5315921 144.480771,45.1257368 C144.404486,45.2771184 144.335057,45.4353421 144.269057,45.5978421 C141.611057,46.9448816 139.022486,48.4116579 136.4982,49.9913289 C111.1302,42.7327105 85.6019143,36.0496842 59.9296286,29.9465263 M106.4862,161.906789 C80.9613429,155.766 55.4073429,149.498632 30.8922,139.991526 C39.3719143,103.650539 50.1864857,67.9219211 60.3479143,32.0273816 C85.3739143,37.9902763 110.262771,44.5048158 134.999914,51.5675789 C134.881629,52.0046184 134.798486,52.4467895 134.703343,52.7794868 C134.051914,55.0536316 133.448486,57.3431711 132.836486,59.6284342 C130.639629,67.83725 128.497629,76.0606053 126.357343,84.2839605 C121.137343,104.346724 115.967914,124.41975 110.857629,144.509882 C109.3842,150.303434 107.867057,156.090145 106.4862,161.906789 M106.469057,163.882447 C106.4742,163.968829 106.491343,164.061197 106.533343,164.159553 C107.295343,165.965013 107.957914,167.802974 108.528771,169.672579 C108.036771,169.820539 107.453057,169.894092 106.751914,169.881263 C103.163057,169.813697 98.8062,167.735408 95.3390571,166.779224 C90.7062,165.502316 86.0690571,164.243368 81.4370571,162.967316 C62.2584857,157.681789 43.1116286,152.285934 23.9896286,146.799421 C26.0004857,145.168434 27.9204857,143.439092 29.7513429,141.607118 C54.6162,151.312645 80.5610571,157.650145 106.469057,163.882447 M61.1373429,11.0067237 C62.7702,8.34856579 64.1133429,5.39705263 66.1284857,2.98606579 C72.8622,3.49922368 79.3010571,5.56981579 85.7664857,7.39836842 C92.5644857,9.32014474 99.3624857,11.2427763 106.160486,13.1645526 C119.243914,16.8635658 132.327343,20.5642895 145.411629,24.2633026 C145.651629,30.2715263 146.751343,37.4771184 145.566771,43.4802105 C116.461629,32.7192895 86.5404857,24.3454079 56.0759143,18.4244211 C57.8656286,16.0228421 59.5670571,13.5613947 61.1373429,11.0067237 M165.173057,56.2843553 C159.013629,52.8744211 152.8542,49.4644868 146.694771,46.0545526 C146.863629,45.9450789 147.001629,45.7748816 147.071057,45.5251447 C148.9362,38.8130395 147.528771,30.5751447 147.317057,23.6954079 C147.3162,23.6825789 147.3102,23.6740263 147.309343,23.6629079 C147.374486,23.231 147.186771,22.7648816 146.645057,22.6117895 C132.776486,18.6895526 118.909629,14.7690263 105.041057,10.8476447 C98.2439143,8.92586842 91.4459143,7.00323684 84.6479143,5.08146053 C78.7353429,3.40942105 72.8742,1.66896053 66.7422,1.11902632 C66.4242,0.680276316 65.7873429,0.474157895 65.3124857,0.985605263 C63.4147714,3.02882895 62.1402,5.49711842 60.7524857,7.89014474 C58.7082,11.4155395 56.4256286,14.7895526 53.9664857,18.0378421 C53.9553429,18.0369868 53.9450571,18.0404079 53.9339143,18.0404079 C53.8670571,18.0010658 53.7950571,17.9677105 53.7127714,17.9420526 C47.1744857,15.9193553 40.0302,17.1671842 33.3402,17.6290263 C32.6090571,17.6794868 32.3193429,18.3756711 32.4556286,18.9170526 C32.3553429,19.0231053 32.2739143,19.1590921 32.2302,19.3361316 C22.5222,58.2771184 11.9193429,96.9888947 0.429342857,135.443237 C0.0967714286,136.554224 1.69705714,137.069092 2.19934286,136.166789 C8.78305714,139.187579 14.3004857,142.818171 19.8462,147.49475 C19.9387714,147.572579 20.0356286,147.623895 20.1333429,147.662382 C20.0870571,147.811197 20.0742,147.977974 20.1153429,148.163566 C21.3282,153.587645 21.9899143,159.045079 22.1159143,164.600868 C22.1253429,165.025079 22.4090571,165.415079 22.8239143,165.528829 C41.0313429,170.531263 59.2379143,175.534553 77.4453429,180.536987 C81.7936286,181.731789 86.1410571,182.926592 90.4893429,184.121395 C92.6639143,184.718368 94.8376286,185.315342 97.0113429,185.914026 C98.4256286,186.301461 100.457057,187.308105 101.987057,187.200342 C103.788771,187.072908 104.171057,185.6985 104.867914,184.207776 C106.819629,180.028961 108.719914,175.824487 110.642486,171.631987 L134.1582,171.118829 C134.6202,171.108566 134.929629,170.819487 135.0882,170.412382 C149.283343,133.97475 157.820486,95.5871184 165.6162,57.3705395 C165.701057,56.9574474 165.5622,56.4998816 165.173057,56.2843553" id="Fill-104" fill="#0F0E0E" mask="url(#mask-6)"></path>
                    </g>
                </g>
            </g>
        </g>
    </g>
</svg>