<svg xmlns="http://www.w3.org/2000/svg" viewBox="0 0 119.93 15"><defs><style>.cls-1{fill:#5e5e5e;}</style></defs><title>Ресурс 1</title><g id="Слой_2" data-name="Слой 2"><g id="Layer_1" data-name="Layer 1"><path class="cls-1" d="M104.93,7.5a7.5,7.5,0,1,1,7.5,7.5,7.5,7.5,0,0,1-7.5-7.5"/><path class="cls-1" d="M74.93,7.5a7.5,7.5,0,1,1,7.5,7.5,7.5,7.5,0,0,1-7.5-7.5"/><path class="cls-1" d="M45,7.5A7.5,7.5,0,1,1,52.5,15,7.5,7.5,0,0,1,45,7.5"/><path class="cls-1" d="M0,7.5A7.5,7.5,0,1,1,7.5,15,7.5,7.5,0,0,1,0,7.5"/></g></g></svg>