<?xml version="1.0" encoding="UTF-8" standalone="no"?>
<!DOCTYPE svg PUBLIC "-//W3C//DTD SVG 1.1//EN" "http://www.w3.org/Graphics/SVG/1.1/DTD/svg11.dtd" >
<svg xmlns="http://www.w3.org/2000/svg">
<metadata>
Generated by SVGconv.
Copyright   : Copyright  2007 ParaType Inc., ParaType Ltd. All rights reserved.
Designer    : Natalia Vasilyeva
Foundry     : ParaType, Inc.
Foundry URL : http://www.paratype.com
</metadata>
<defs>
<font id="NatGroteskWeb-Italic" horiz-adv-x="479" >
<font-face units-per-em="1000" ascent="994" descent="372" >
<font-face-src>
<font-face-name/>
</font-face-src>
</font-face>
<missing-glyph horiz-adv-x="500" />
<glyph unicode="&#13;" horiz-adv-x="233" />
<glyph unicode="&#32;" horiz-adv-x="233" />
<glyph unicode="&#33;" horiz-adv-x="244" d="M157 184h-46l103 531h95zM164 59q0 -28 -18 -45.5q-18 -17.5 -42 -17.5q-24 0 -39 14q-15 14 -15 37q0 29 18 46q18 17 42 17q24 0 39 -13.5t15 -37.5z" />
<glyph unicode="&#34;" horiz-adv-x="339" d="M326 487h-51l22 203h93zM188 487h-50l22 203l92 0z" />
<glyph unicode="&#35;" horiz-adv-x="491" d="M534 432h-114l-40 -191h109l-12 -62h-111l-37 -191h-54l40 191h-118l-39 -191h-53l39 191h-112l12 62h114l40 191h-109l11 62h111l38 191h54l-41 -191h118l40 191h53l-40 -191h112zM249 433l-40 -193h120l40 193z" />
<glyph unicode="&#36;" horiz-adv-x="491" d="M456 199q0 -50 -20 -86.5q-20 -36.5 -52 -62q-32 -25.5 -71.5 -39.5q-39.5 -14 -78.5 -17l-13 -60h-44l13 59q-33 0 -61 5.5q-28 5.5 -49.5 12.5q-21.5 7 -35.5 14q-14 7 -18 10l17 76q9 -6 25 -15q16 -9 37 -17q21 -8 46.5 -14q25.5 -6 52.5 -6l55 262q-23 12 -47 26.5q-24 14.5 -44.5 34.5q-20.5 20 -33.5 48q-13 28 -13 67q0 33 12 67.5q12 34.5 38.5 62q26.5 27.5 67.5 45q41 17.5 98 17.5l18 81h44l-17 -80q42 -1 71.5 -8.5q29.5 -7.5 49.5 -16.5l-15 -71q-9 3 -19.5 9q-10.5 6 -25 11q-14.5 5 -33 9q-18.5 4 -42.5 4l-52 -245q34 -19 60 -36q26 -17 44 -37q18 -20 27 -46q9 -26 9 -64zt0 0zM325 628q-25 0 -48 -8q-23 -8 -40 -23q-17 -15 -27.5 -37.5q-10.5 -22.5 -10.5 -53.5q0 -21 6 -37q6 -16 16.5 -28.5q10.5 -12.5 24.5 -22q14 -9.5 30 -18.5zM379 187q0 44 -22.5 72.5q-22.5 28.5 -56.5 45.5l-52 -246q29 0 53 10.5q24 10.5 41.5 28q17.5 17.5 27 40.5t9.5 49z" />
<glyph unicode="&#37;" horiz-adv-x="722" d="M441 587q0 -52 -17 -95q-17 -43 -44 -74.5q-27 -31.5 -60 -49q-33 -17.5 -66 -17.5q-14 0 -33 3.5q-19 3.5 -36 15q-17 11.5 -29 33.5q-12 22 -12 60q0 52 15.5 95q15.5 43 41.5 74.5q26 31.5 60 49q34 17.5 70 17.5q16 0 35.5 -3.5q19.5 -3.5 36 -15q16.5 -11.5 27.5 -34q11 -22.5 11 -59.5zt0 0zM229 -17h-56l465 724h55zM722 214q0 -52 -17 -95q-17 -43 -44 -74.5q-27 -31.5 -60 -49q-33 -17.5 -66 -17.5q-14 0 -33 3.5q-19 3.5 -36 15q-17 11.5 -29 33.5q-12 22 -12 60q0 52 15.5 95q15.5 43 41.5 74.5q26 31.5 60 49q34 17.5 70 17.5q16 0 35.5 -3.5q19.5 -3.5 36 -15q16.5 -11.5 27.5 -34q11 -22.5 11 -59.5zt0 0zM373 587q0 19 -5.5 30.5q-5.5 11.5 -14 17.5q-8.5 6 -18.5 8q-10 2 -18 2q-25 0 -44.5 -15q-19.5 -15 -33 -40q-13.5 -25 -20.5 -58q-7 -33 -7 -69q0 -19 5.5 -30.5q5.5 -11.5 14 -17.5q8.5 -6 17.5 -8q9 -2 17 -2q24 0 44 15q20 15 34 40q14 25 21.5 58q7.5 33 7.5 69zt0 0zM654 214q0 19 -5.5 30.5q-5.5 11.5 -14 17.5q-8.5 6 -18.5 8q-10 2 -18 2q-25 0 -44.5 -15q-19.5 -15 -33 -40q-13.5 -25 -20.5 -58q-7 -33 -7 -69q0 -19 5.5 -30.5q5.5 -11.5 14 -17.5q8.5 -6 17.5 -8q9 -2 17 -2q24 0 44 15q20 15 34 40q14 25 21.5 58t7.5 69z" />
<glyph unicode="&#38;" horiz-adv-x="622" d="M496 0l-59 93q-47 -45 -105 -76.5q-58 -31.5 -131 -31.5q-42 0 -73.5 12q-31.5 12 -52.5 34q-21 22 -31 51.5q-10 29.5 -10 64.5q0 41 12.5 74q12.5 33 32 58q19.5 25 43.5 44q24 19 47 32q23 13 41.5 21.5q18.5 8.5 28.5 13.5q-14 22 -26 41q-12 19 -20.5 37.5q-8.5 18.5 -13 37.5q-4.5 19 -4.5 42q0 39 17.5 71.5q17.5 32.5 47.5 56q30 23.5 69.5 36.5q39.5 13 83.5 13q77 0 113 -32q36 -32 36 -86q0 -70 -53.5 -122.5q-53.5 -52.5 -147.5 -90.5l123 -191l79 93h90l-134 -138l102 -158zM460 596q0 40 -24.5 56q-24.5 16 -68.5 16q-52 0 -80 -30q-28 -30 -28 -75q0 -17 3 -32q3 -15 10 -30q7 -15 17.5 -31q10.5 -16 24.5 -35q32 15 58.5 32q26.5 17 46 36.5q19.5 19.5 30.5 42q11 22.5 11 50.5zt0 0zM269 349q-21 -11 -46 -25q-25 -14 -47.5 -35.5q-22.5 -21.5 -37.5 -51q-15 -29.5 -15 -71.5q0 -22 5.5 -42.5q5.5 -20.5 18.5 -36.5q13 -16 34 -26q21 -10 52 -10q22 0 45.5 7.5q23.5 7.5 46 19.5q22.5 12 43 27.5q20.5 15.5 37.5 32.5z" />
<glyph unicode="&#39;" horiz-adv-x="219" d="M204 487h-51l22 203l93 0z" />
<glyph unicode="&#40;" horiz-adv-x="309" d="M419 748q-49 -40 -101.5 -94q-52.5 -54 -95.5 -126q-43 -72 -70.5 -165q-27.5 -93 -27.5 -211q0 -63 5.5 -113.5q5.5 -50.5 16 -92q10.5 -41.5 25.5 -76q15 -34.5 33 -64.5l-38 -18q-58 73 -91 162.5q-33 89.5 -33 194.5q0 108 26 201q26 93 72 170.5q46 77.5 109 140.5q63 63 138 113l32 -22z" />
<glyph unicode="&#41;" horiz-adv-x="309" d="M-24 -190q49 40 101.5 94q52.5 54 95.5 126q43 72 70.5 164.5q27.5 92.5 27.5 211.5q0 63 -6 113.5q-6 50.5 -16.5 92q-10.5 41.5 -25 76q-14.5 34.5 -32.5 64.5l38 18q58 -73 91 -162.5q33 -89.5 33 -194.5q0 -108 -26 -201q-26 -93 -72 -170.5q-46 -77.5 -109 -141q-63 -63.5 -138 -112.5l-32 22z" />
<glyph unicode="&#42;" horiz-adv-x="464" d="M331 528l142 -73l-26 -47l-135 90l9 -163h-53l9 163l-136 -89l-25 47l142 72l-141 74l26 47l134 -91l-9 163h53l-9 -163l136 90l26 -48z" />
<glyph unicode="&#43;" horiz-adv-x="574" d="M88 246v52h209v209h52v-209h209v-52h-209v-209h-52l0 209z" />
<glyph unicode="&#44;" horiz-adv-x="186" d="M147 52q0 -50 -33 -99q-33 -49 -87 -82l-18 15q28 23 46.5 51.5q18.5 28.5 23.5 51.5q-13 2 -20.5 8q-7.5 6 -12 13.5q-4.5 7.5 -6 15.5q-1.5 8 -1.5 15q0 32 18.5 48.5q18.5 16.5 41.5 16.5q23 0 35.5 -14t12.5 -40z" />
<glyph unicode="&#45;" horiz-adv-x="297" d="M70 205v63h205l0 -63z" />
<glyph unicode="&#46;" horiz-adv-x="190" d="M156 59q0 -28 -18 -45.5q-18 -17.5 -42 -17.5q-24 0 -39 14q-15 14 -15 37q0 29 18 46q18 17 42 17q24 0 39 -13.5t15 -37.5z" />
<glyph unicode="&#47;" horiz-adv-x="339" d="M34 -158h-58l380 918l59 0z" />
<glyph unicode="&#48;" horiz-adv-x="491" d="M516 514q0 -28 -4 -64q-4 -36 -11.5 -74.5q-7.5 -38.5 -18 -77.5q-10.5 -39 -23.5 -73q-45 -118 -112 -179q-67 -61 -140 -61q-27 0 -54.5 8q-27.5 8 -49 31.5q-21.5 23.5 -35 64.5q-13.5 41 -13.5 107q0 28 4 64q4 36 11.5 74.5q7.5 38.5 18 77.5q10.5 39 23.5 73q45 118 112 179q67 61 140 61q27 0 54 -8q27 -8 48.5 -31.5q21.5 -23.5 35.5 -64.5q14 -41 14 -107zt0 0zM430 547q0 66 -22.5 91q-22.5 25 -57.5 25q-55 0 -93.5 -51.5q-38.5 -51.5 -68.5 -162.5q-10 -36 -18.5 -76q-8.5 -40 -15 -78.5q-6.5 -38.5 -10 -73q-3.5 -34.5 -3.5 -58.5q0 -62 22 -89q22 -27 57 -27q51 0 92 51.5q41 51.5 71 162.5q10 36 18.5 76q8.5 40 15 78.5q6.5 38.5 10 73t3.5 58.5z" />
<glyph unicode="&#49;" horiz-adv-x="491" d="M273 0h-86l124 583h-87l8 40q39 3 67.5 18q28.5 15 47.5 32q22 19 37 44l41 0z" />
<glyph unicode="&#50;" horiz-adv-x="491" d="M523 579q0 -57 -24 -103.5q-24 -46.5 -58.5 -84q-34.5 -37.5 -73.5 -68.5q-39 -31 -70 -58q-24 -21 -51 -44.5q-27 -23.5 -52.5 -47q-25.5 -23.5 -46.5 -46.5q-21 -23 -32 -44l286 0l-17 -83h-357l16 72q16 27 39 55q23 28 50 56q27 28 55.5 55q28.5 27 56.5 53q39 35 73 65q34 30 59.5 60.5q25.5 30.5 40.5 65q15 34.5 15 79.5q0 40 -21 67.5q-21 27.5 -74 27.5q-44 0 -79 -15.5q-35 -15.5 -68 -35.5l-2 64q34 21 77.5 38.5q43.5 17.5 100.5 17.5q45 0 75 -13q30 -13 48.5 -34q18.5 -21 26 -47t7.5 -52z" />
<glyph unicode="&#51;" horiz-adv-x="491" d="M508 583q0 -42 -14.5 -75q-14.5 -33 -37 -58q-22.5 -25 -50 -42q-27.5 -17 -54.5 -26l-1 -5q29 -7 49 -21.5q20 -14.5 32 -34q12 -19.5 17 -42.5q5 -23 5 -45q0 -35 -15 -77.5q-15 -42.5 -49 -80q-34 -37.5 -87.5 -62.5q-53.5 -25 -130.5 -25q-35 0 -60 4q-25 4 -43 10q-18 6 -29.5 12q-11.5 6 -18.5 9l36 61q18 -10 49 -22q31 -12 82 -12q34 0 66 11q32 11 56.5 33.5q24.5 22.5 39 57q14.5 34.5 14.5 81.5q0 53 -28.5 83.5q-28.5 30.5 -99.5 30.5h-59l13 55h64q24 0 54 9q30 9 55.5 29q25.5 20 43 51q17.5 31 17.5 75q0 44 -21 71q-21 27 -73 27q-34 0 -67.5 -11.5q-33.5 -11.5 -71.5 -36.5l-8 62q26 15 71 30.5q45 15.5 98 15.5q47 0 77 -12.5q30 -12.5 47.5 -32.5q17.5 -20 24.5 -45.5t7 -51.5z" />
<glyph unicode="&#52;" horiz-adv-x="491" d="M414 234h72l-15 -71h-72l-35 -163h-86l35 163h-291l14 63l400 491h81zM117 234h211l79 366z" />
<glyph unicode="&#53;" horiz-adv-x="491" d="M513 634h-252l-58 -215q10 1 23 2q11 1 26 2q15 1 35 1q25 0 54.5 -7q29.5 -7 54.5 -26.5q25 -19.5 41.5 -53.5q16.5 -34 16.5 -89q0 -39 -15 -84.5q-15 -45.5 -49 -84q-34 -38.5 -87.5 -64.5q-53.5 -26 -130.5 -26q-35 0 -60 4q-25 4 -43 10q-18 6 -29.5 12q-11.5 6 -18.5 9l36 61q18 -10 49 -22q31 -12 82 -12q34 0 66 11.5q32 11.5 56.5 35q24.5 23.5 39 59q14.5 35.5 14.5 82.5q0 57 -27.5 89.5q-27.5 32.5 -96.5 32.5q-16 0 -33 -1.5q-17 -1.5 -32.5 -3q-15.5 -1.5 -28 -3.5q-12.5 -2 -18.5 -3l98 367l304 0z" />
<glyph unicode="&#54;" horiz-adv-x="491" d="M526 673q-19 -3 -44.5 -10q-25.5 -7 -54.5 -19q-29 -12 -60 -29q-31 -17 -59 -41q-38 -32 -72 -79q-34 -47 -55 -108q19 15 39.5 25q20.5 10 39 15q18.5 5 34.5 7q16 2 28 2q18 0 46.5 -4q28.5 -4 55.5 -20q27 -16 46.5 -49.5q19.5 -33.5 19.5 -91.5q0 -36 -14.5 -85q-14.5 -49 -47 -94q-32.5 -45 -84.5 -76q-52 -31 -128 -31q-77 0 -123 51.5q-46 51.5 -46 153.5q0 46 10 95q10 49 29.5 97.5q19.5 48.5 48 94.5q28.5 46 65.5 86q33 36 73 64q40 28 82.5 48q42.5 20 86 32.5q43.5 12.5 84.5 17.5zM398 248q0 27 -5.5 50q-5.5 23 -18.5 39.5q-13 16.5 -34.5 26q-21.5 9.5 -52.5 9.5q-32 0 -68.5 -15.5q-36.5 -15.5 -62.5 -54.5q-7 -17 -11 -37q-4 -17 -7 -40.5q-3 -23.5 -3 -50.5q0 -27 6 -50.5q6 -23.5 18.5 -40.5q12.5 -17 32.5 -27q20 -10 48 -10q35 0 64 16.5q29 16.5 50 44.5q21 28 32.5 64.5t11.5 75.5z" />
<glyph unicode="&#55;" horiz-adv-x="491" d="M562 651l-393 -651h-94l415 634h-334l17 83l402 0z" />
<glyph unicode="&#56;" horiz-adv-x="491" d="M529 578q0 -50 -16.5 -86.5q-16.5 -36.5 -43.5 -63.5q-20 -20 -43.5 -33q-23.5 -13 -45.5 -18l-1 -5q46 -22 66.5 -61q20.5 -39 20.5 -91q0 -17 -4 -39q-4 -22 -13.5 -46q-9.5 -24 -26.5 -48q-17 -24 -43 -46q-31 -26 -69.5 -41q-38.5 -15 -94.5 -15q-53 0 -88 15q-35 15 -56 39q-21 24 -29.5 53.5q-8.5 29.5 -8.5 58.5q0 40 13 83.5q13 43.5 46 78.5q21 22 48.5 38q27.5 16 62.5 24l1 5q-16 6 -30.5 19.5q-14.5 13.5 -25.5 32q-11 18.5 -17 41.5q-6 23 -6 47q1 35 17.5 74q16.5 39 50.5 71q29 26 73 43.5q44 17.5 100 17.5q42 0 73 -12.5q31 -12.5 51 -33q20 -20.5 29.5 -47.5q9.5 -27 9.5 -55zt0 0zM440 569q0 19 -4.5 36.5q-4.5 17.5 -15 31q-10.5 13.5 -28 21q-17.5 7.5 -43.5 7.5q-35 0 -59 -12q-24 -12 -39 -29q-40 -45 -40 -115q0 -20 6 -38.5q6 -18.5 17 -33q11 -14.5 27 -23.5q16 -9 36 -9q31 0 61 13q30 13 53 50q12 19 20.5 44.5q8.5 25.5 8.5 56.5zt0 0zM378 235q0 49 -23 80q-23 31 -74 31q-45 0 -71 -15q-26 -15 -49 -42q-18 -21 -29 -56.5q-11 -35.5 -11 -72.5q0 -20 5 -40q5 -20 16.5 -36q11.5 -16 31 -26.5q19.5 -10.5 49.5 -10.5q75 0 114 56q17 24 29 57.5t12 74.5z" />
<glyph unicode="&#57;" horiz-adv-x="491" d="M527 539q0 -110 -39.5 -208.5q-39.5 -98.5 -113.5 -179.5q-33 -36 -73 -64q-40 -28 -82.5 -48q-42.5 -20 -86 -32.5q-43.5 -12.5 -84.5 -17.5l0 52q19 3 44.5 10q25.5 7 54.5 19q29 12 59.5 29q30.5 17 59.5 41q38 32 72 79q34 47 55 108q-20 -15 -40 -25q-20 -10 -38.5 -15q-18.5 -5 -34.5 -7q-16 -2 -28 -2q-18 0 -46 4.5q-28 4.5 -54 22q-26 17.5 -45 51q-19 33.5 -19 92.5q0 44 15 93.5q15 49.5 48 91q33 41.5 84 69q51 27.5 123 27.5q76 0 122.5 -47q46.5 -47 46.5 -143zt0 0zM439 539q0 26 -6 49.5q-6 23.5 -19 41q-13 17.5 -32.5 27.5q-19.5 10 -47.5 10q-36 0 -64.5 -16q-28.5 -16 -48.5 -43q-20 -27 -30.5 -62.5q-10.5 -35.5 -10.5 -74.5q0 -27 4.5 -50.5q4.5 -23.5 16.5 -41.5q12 -18 33 -28q21 -10 53 -10q32 0 68.5 15.5q36.5 15.5 62.5 54.5q6 17 10 37q4 17 7.5 40t3.5 51z" />
<glyph unicode="&#58;" horiz-adv-x="220" d="M238 430q0 -28 -18 -45.5q-18 -17.5 -42 -17.5q-24 0 -39 14q-15 14 -15 37q0 29 18 46q18 17 42 17q24 0 39 -13.5q15 -13.5 15 -37.5zt0 0zM158 59q0 -28 -18 -45.5q-18 -17.5 -42 -17.5q-24 0 -39 14q-15 14 -15 37q0 29 18 46q18 17 42 17q24 0 39 -13.5t15 -37.5z" />
<glyph unicode="&#59;" horiz-adv-x="220" d="M157 52q0 -50 -33 -99q-33 -49 -87 -82l-18 15q28 23 46.5 51.5q18.5 28.5 23.5 51.5q-13 2 -20.5 8q-7.5 6 -12 13.5q-4.5 7.5 -6 15.5q-1.5 8 -1.5 15q0 32 18.5 48.5q18.5 16.5 41.5 16.5q23 0 35.5 -14q12.5 -14 12.5 -40zt0 0zM226 430q0 -28 -18 -45.5q-18 -17.5 -42 -17.5q-24 0 -39 14q-15 14 -15 37q0 29 18 46q18 17 42 17q24 0 39 -13.5t15 -37.5z" />
<glyph unicode="&#60;" horiz-adv-x="619" d="M168 275l393 -197l-14 -45l-452 223v34l452 223l14 -45z" />
<glyph unicode="&#61;" horiz-adv-x="574" d="M533 383v-52h-470v52zM533 211v-52h-470l0 52z" />
<glyph unicode="&#62;" horiz-adv-x="619" d="M142 468l14 45l452 -223v-34l-452 -223l-14 45l393 197z" />
<glyph unicode="&#63;" horiz-adv-x="434" d="M472 597q0 -59 -27.5 -105q-27.5 -46 -66 -84.5q-38.5 -38.5 -80 -70.5q-41.5 -32 -69.5 -62q-17 -18 -26 -41q-9 -23 -13 -41l-63 0q2 7 5.5 18.5q3.5 11.5 8.5 24.5q5 13 12 27q7 14 16 27q28 38 64.5 68.5q36.5 30.5 69 61.5q32.5 31 55 67q22.5 36 22.5 85q0 42 -24 65q-24 23 -74 23q-39 0 -75 -16q-36 -16 -69 -39l-2 64q34 21 77.5 38.5q43.5 17.5 100.5 17.5q44 0 74.5 -10.5q30.5 -10.5 49 -28.5q18.5 -18 26.5 -41q8 -23 8 -48zt0 0zM188 59q0 -28 -18 -45.5q-18 -17.5 -42 -17.5q-24 0 -39 14q-15 14 -15 37q0 29 18 46q18 17 42 17q24 0 39 -13.5t15 -37.5z" />
<glyph unicode="&#64;" horiz-adv-x="820" d="M826 399q0 -65 -23 -119.5q-23 -54.5 -58.5 -94.5q-35.5 -40 -79 -62.5q-43.5 -22.5 -85.5 -22.5q-41 0 -51.5 24.5q-10.5 24.5 -10.5 67.5l-4 0q-35 -52 -72 -71.5q-37 -19.5 -76 -19.5q-19 0 -39 7q-20 7 -36 24q-16 17 -26.5 44q-10.5 27 -10.5 68q0 66 24.5 125.5q24.5 59.5 64.5 99.5q33 32 71.5 49q38.5 17 76.5 17q25 0 40.5 -3.5q15.5 -3.5 26 -8.5q10.5 -5 16.5 -11q6 -6 12 -11l24 26h48l-66 -288q-4 -17 -6.5 -28.5q-2.5 -11.5 -2.5 -25.5q0 -15 7.5 -25q7.5 -10 21.5 -10q25 0 51.5 18q26.5 18 48.5 51q22 33 35.5 79.5q13.5 46.5 13.5 102.5q0 61 -17 113q-17 52 -51.5 90q-34.5 38 -87 60q-52.5 22 -124.5 22q-76 0 -139.5 -29.5q-63.5 -29.5 -109.5 -82.5q-46 -53 -71.5 -128q-25.5 -75 -25.5 -165q0 -81 24 -144q24 -63 66.5 -106.5q42.5 -43.5 101 -66.5q58.5 -23 127.5 -23q41 0 76.5 5q35.5 5 67.5 15.5q32 10.5 62.5 26q30.5 15.5 62.5 36.5l12 -38q-60 -43 -134 -67q-74 -24 -157 -24q-94 0 -164.5 30.5q-70.5 30.5 -117.5 82.5q-47 52 -70.5 122q-23.5 70 -23.5 150q0 102 30.5 184.5q30.5 82.5 85.5 141q55 58.5 131 90.5q76 32 166 32q89 0 154 -27q65 -27 107.5 -72.5q42.5 -45.5 63 -105q20.5 -59.5 20.5 -124.5zt0 0zM561 432q0 9 -3 18.5q-3 9.5 -10.5 18q-7.5 8.5 -21 14q-13.5 5.5 -35.5 5.5q-32 0 -57.5 -13.5q-25.5 -13.5 -51.5 -47.5q-10 -14 -19.5 -33.5q-9.5 -19.5 -17 -42q-7.5 -22.5 -12 -47q-4.5 -24.5 -4.5 -48.5q0 -33 8 -51.5q8 -18.5 19.5 -28q11.5 -9.5 24 -12q12.5 -2.5 22.5 -2.5q22 0 44 13.5q22 13.5 40.5 37q18.5 23.5 33.5 55.5q15 32 23 70l13 60q2 8 3 17t1 17z" />
<glyph unicode="&#65;" horiz-adv-x="550" d="M414 0l-17 240h-228l-127 -240h-85l406 717h77l65 -717zM370 616l-173 -322l196 0z" />
<glyph unicode="&#66;" horiz-adv-x="543" d="M555 569q0 -29 -9 -58q-9 -29 -29 -55.5q-20 -26.5 -52 -48.5q-32 -22 -79 -35l0 -4q32 -8 54.5 -23.5q22.5 -15.5 36.5 -35q14 -19.5 20 -42q6 -22.5 6 -44.5q0 -29 -12 -69q-12 -40 -46 -76q-34 -36 -96 -61.5q-62 -25.5 -161 -25.5q-28 0 -54.5 2q-26.5 2 -48.5 4q-22 2 -38 4.5q-16 2.5 -24 4.5l150 703q21 3 48 6q23 2 56 4.5q33 2.5 75 2.5q64 0 104 -14.5q40 -14.5 62 -36.5q22 -22 29.5 -49.5q7.5 -27.5 7.5 -52.5zt0 0zM464 559q0 47 -30 74q-30 27 -104 27q-20 0 -35 -1q-15 -1 -26 -3q-12 -2 -22 -4l-55 -255h72q51 0 88.5 12q37.5 12 62.5 33.5q25 21.5 37 51.5q12 30 12 65zt0 0zM409 223q0 57 -36.5 87.5q-36.5 30.5 -120.5 30.5h-72l-59 -278q11 -3 25 -5q12 -2 30 -3q18 -1 42 -1q47 0 83 13q36 13 60 36q24 23 36 53.5t12 66.5z" />
<glyph unicode="&#67;" horiz-adv-x="558" d="M558 593q-18 32 -54 50q-36 18 -78 18q-19 0 -40.5 -3.5q-21.5 -3.5 -44.5 -14.5q-23 -11 -48 -32q-25 -21 -50 -55q-18 -24 -34 -56.5q-16 -32.5 -28.5 -70.5q-12.5 -38 -20 -79q-7.5 -41 -7.5 -82q0 -64 14 -105q14 -41 37 -64q23 -23 52 -32q29 -9 58 -9q18 0 39.5 4.5q21.5 4.5 44.5 13q23 8.5 45.5 20.5q22.5 12 40.5 28l16 -55q-56 -48 -111.5 -66q-55.5 -18 -109.5 -18q-38 0 -76.5 13q-38.5 13 -69.5 43q-31 30 -50.5 79q-19.5 49 -19.5 122q0 59 9.5 111q9.5 52 26 96.5q16.5 44.5 38.5 81.5q22 37 47 66q37 43 75.5 68.5q38.5 25.5 72.5 39q34 13.5 62 17q28 3.5 46 3.5q19 0 41.5 -2q22.5 -2 45.5 -9q23 -7 46 -19.5q23 -12.5 42 -34.5z" />
<glyph unicode="&#68;" horiz-adv-x="606" d="M608 468q0 -101 -29.5 -177q-29.5 -76 -74.5 -135q-33 -44 -73 -74q-40 -30 -84 -48q-44 -18 -91.5 -26q-47.5 -8 -95.5 -8h-137l151 706q26 5 67.5 9.5q41.5 4.5 93.5 4.5q19 0 47 -3q28 -3 58.5 -11.5q30.5 -8.5 60.5 -25.5q30 -17 53.5 -45q23.5 -28 38.5 -69q15 -41 15 -98zt0 0zM518 463q0 48 -12.5 81q-12.5 33 -32 54.5q-19.5 21.5 -43 33.5q-23.5 12 -45 17.5q-21.5 5.5 -39.5 6.5q-18 1 -25 1q-23 0 -42.5 -2q-19.5 -2 -30.5 -4l-125 -587h54q89 0 155.5 34.5q66.5 34.5 110.5 97.5q35 50 55 117.5t20 149.5z" />
<glyph unicode="&#69;" horiz-adv-x="450" d="M506 653h-258l-51 -241h213l-13 -60h-213l-61 -288h266l-14 -64h-352l152 717l344 0z" />
<glyph unicode="&#70;" horiz-adv-x="410" d="M480 653h-232l-53 -249h187l-13 -60h-187l-73 -344h-86l152 717l318 0z" />
<glyph unicode="&#71;" horiz-adv-x="595" d="M456 725q19 0 42.5 -2q23.5 -2 48 -9q24.5 -7 48.5 -19.5q24 -12.5 43 -34.5l-57 -67q-20 34 -58.5 51q-38.5 17 -80.5 17q-22 0 -46 -5q-24 -5 -49 -17q-25 -12 -50 -32q-25 -20 -49 -51q-18 -24 -35.5 -55.5q-17.5 -31.5 -30.5 -70q-13 -38.5 -21 -82q-8 -43.5 -8 -90.5q0 -110 45.5 -160q45.5 -50 125.5 -50q24 0 42 1q18 1 29 3q13 2 23 5l50 235h-119l13 60h204l-71 -331q-7 -3 -26.5 -9q-19.5 -6 -46 -12q-26.5 -6 -57.5 -10.5q-31 -4.5 -60 -4.5q-80 0 -127.5 26.5q-47.5 26.5 -73 65.5q-25.5 39 -33.5 82.5q-8 43.5 -8 77.5q0 64 10 117.5q10 53.5 27.5 97.5q17.5 44 40 80q22.5 36 48.5 65q38 43 76.5 68q38.5 25 74 38.5q35.5 13.5 65.5 17.5t51 4z" />
<glyph unicode="&#72;" horiz-adv-x="605" d="M491 0h-86l73 341h-296l-73 -341h-86l152 717h86l-67 -316h296l67 316l86 0z" />
<glyph unicode="&#73;" horiz-adv-x="218" d="M109 0h-86l152 717l86 0z" />
<glyph unicode="&#74;" horiz-adv-x="225" d="M112 15q-4 -18 -12 -52.5q-8 -34.5 -27 -69.5q-19 -35 -52.5 -61q-33.5 -26 -88.5 -26q-18 0 -27.5 1.5q-9.5 1.5 -14.5 3.5l14 67q7 0 13.5 -0.5q6.5 -0.5 13.5 -0.5q29 0 52 20.5q23 20.5 35 77.5l157 742l86 0z" />
<glyph unicode="&#75;" horiz-adv-x="536" d="M442 491q-11 -18 -22 -34.5q-11 -16.5 -24 -30.5q-13 -14 -29 -26.5q-16 -12.5 -37 -21.5l-1 -5q13 -8 22.5 -17.5q9.5 -9.5 17 -24q7.5 -14.5 14 -34q6.5 -19.5 14.5 -46.5l71 -251h-98l-56 232q-9 35 -18 56.5q-9 21.5 -20 33q-11 11.5 -25 15.5q-14 4 -33 4h-37l-72 -341h-86l152 717h86l-66 -314h42q23 0 43.5 11q20.5 11 37.5 27q17 16 30 34q13 18 21 32l121 210l91 0z" />
<glyph unicode="&#76;" horiz-adv-x="414" d="M379 0h-356l152 717h86l-138 -653l270 0z" />
<glyph unicode="&#77;" horiz-adv-x="769" d="M655 0h-86l127 603q-3 -6 -19 -32.5q-16 -26.5 -40 -65.5q-24 -39 -53.5 -87.5q-29.5 -48.5 -59.5 -97.5q-71 -116 -160 -260l-44 0l-103 543l-126 -603h-68l152 717h104l98 -529l319 529l111 0z" />
<glyph unicode="&#78;" horiz-adv-x="593" d="M418 0l-205 576l-122 -576h-68l152 717h80l193 -546l116 546h67l-152 -717z" />
<glyph unicode="&#79;" horiz-adv-x="659" d="M659 484q0 -43 -7 -88q-7 -45 -20.5 -88.5q-13.5 -43.5 -32 -84q-18.5 -40.5 -41.5 -74.5q-54 -81 -122.5 -122.5q-68.5 -41.5 -156.5 -41.5q-38 0 -76 11.5q-38 11.5 -69 40q-31 28.5 -50.5 77q-19.5 48.5 -19.5 122.5q0 87 27.5 171.5q27.5 84.5 73.5 153.5q54 81 126 122.5q72 41.5 157 41.5q33 0 70 -9q37 -9 68.5 -35.5q31.5 -26.5 52 -73.5q20.5 -47 20.5 -123zt0 0zM569 484q0 55 -13 90q-13 35 -33.5 54.5q-20.5 19.5 -45.5 26.5q-25 7 -50 7q-60 0 -109 -32.5q-49 -32.5 -91 -101.5q-13 -21 -26 -51.5q-13 -30.5 -23.5 -68q-10.5 -37.5 -17 -81q-6.5 -43.5 -6.5 -91.5q0 -55 13.5 -91.5q13.5 -36.5 34.5 -58q21 -21.5 46 -30.5q25 -9 48 -9q118 0 200 135q13 21 26 53.5q13 32.5 23.5 72q10.5 39.5 17 84.5t6.5 92z" />
<glyph unicode="&#80;" horiz-adv-x="512" d="M553 555q0 -42 -15.5 -85q-15.5 -43 -49.5 -77.5q-34 -34.5 -88 -56.5q-54 -22 -131 -22q-17 0 -33 1q-16 1 -29 3q-15 2 -29 5l-69 -323h-86l151 709q22 3 49 6q23 2 54 4.5q31 2.5 68 2.5q59 0 99 -13.5q40 -13.5 64 -36q24 -22.5 34.5 -53q10.5 -30.5 10.5 -64.5zt0 0zM463 548q0 51 -32.5 81.5q-32.5 30.5 -99.5 30.5q-16 0 -31 -1q-15 -1 -26 -3q-14 -2 -26 -4l-57 -267q14 -3 29 -5q28 -5 57 -5q96 0 141 47.5t45 125.5z" />
<glyph unicode="&#81;" horiz-adv-x="659" d="M569 484q0 56 -13 91q-13 35 -33.5 54.5q-20.5 19.5 -45.5 26q-25 6.5 -50 6.5q-60 -1 -109 -33q-49 -32 -91 -101q-13 -21 -26 -51.5q-13 -30.5 -23.5 -69q-10.5 -38.5 -17 -84q-6.5 -45.5 -6.5 -95.5q0 -53 13 -88q13 -35 33.5 -55.5q20.5 -20.5 45.5 -29q25 -8.5 50 -8.5q65 0 111.5 33q46.5 33 88.5 102q13 21 26 53.5q13 32.5 23.5 72q10.5 39.5 17 84.5q6.5 45 6.5 92zt0 0zM436 -112l-83 -28l-25 129q-23 -4 -49 -4q-38 0 -76.5 10.5q-38.5 10.5 -69.5 37.5q-31 27 -50 74q-19 47 -19 121q0 43 7 87.5q7 44.5 20.5 87.5q13.5 43 32 83q18.5 40 41.5 75q54 81 126 122.5q72 41.5 157 41.5q33 0 70 -9q37 -9 68.5 -35.5q31.5 -26.5 52 -73.5q20.5 -47 20.5 -123q0 -43 -7 -88q-7 -45 -20.5 -88.5q-13.5 -43.5 -32 -84q-18.5 -40.5 -41.5 -74.5q-34 -52 -77 -87.5q-43 -35.5 -91 -54.5z" />
<glyph unicode="&#82;" horiz-adv-x="532" d="M544 550q0 -34 -11.5 -68.5q-11.5 -34.5 -37 -65q-25.5 -30.5 -65.5 -53q-40 -22.5 -98 -32.5l-1 -4q8 -6 14.5 -12.5q6.5 -6.5 13 -17.5q6.5 -11 13.5 -28.5q7 -17.5 16 -46.5l70 -222h-90l-62 203q-17 57 -34 87q-17 30 -54 30h-41l-68 -320h-86l151 709q19 3 44 6q21 2 50 4q29 2 66 2q63 0 104 -15q41 -15 64.5 -39q23.5 -24 32.5 -54.5q9 -30.5 9 -62.5zt0 0zM453 550q0 58 -32.5 83.5q-32.5 25.5 -94.5 25.5q-16 0 -30 -1q-14 -1 -25 -3q-12 -2 -23 -3l-61 -277h65q57 0 95.5 16.5q38.5 16.5 62 42q23.5 25.5 33.5 56.5t10 60z" />
<glyph unicode="&#83;" horiz-adv-x="483" d="M484 622q-27 20 -59 30.5q-32 10.5 -69 10.5q-24 0 -50.5 -6.5q-26.5 -6.5 -48 -21q-21.5 -14.5 -36 -38.5q-14.5 -24 -14.5 -58q0 -29 9.5 -49q9.5 -20 25.5 -36q16 -16 37 -29q21 -13 43 -27q18 -12 40.5 -28.5q22.5 -16.5 42.5 -39.5q20 -23 33.5 -53q13.5 -30 13.5 -69q0 -55 -21 -97q-21 -42 -58 -70q-37 -28 -86 -42q-49 -14 -106 -14q-39 0 -67 4q-28 4 -48 9q-20 5 -33 10.5q-13 5.5 -21 8.5l35 75q22 -14 63.5 -29q41.5 -15 89.5 -15q36 0 67 8.5q31 8.5 53.5 26q22.5 17.5 35.5 42.5q13 25 13 58q0 30 -8 50.5q-8 20.5 -24 38q-16 17.5 -41.5 34.5q-25.5 17 -59.5 41q-23 16 -43.5 32.5q-20.5 16.5 -35.5 37q-15 20.5 -24 44.5q-9 24 -9 55q0 45 17 83q17 38 48.5 66q31.5 28 76.5 44q45 16 101 16q58 0 96.5 -11q38.5 -11 55.5 -17z" />
<glyph unicode="&#84;" horiz-adv-x="453" d="M528 653h-165l-139 -653h-86l139 653h-173l13 64l424 0z" />
<glyph unicode="&#85;" horiz-adv-x="578" d="M518 221q-26 -122 -96 -179q-70 -57 -180 -57q-62 0 -101 14.5q-39 14.5 -59 43q-20 28.5 -23 70.5q-3 42 9 97l107 507h86l-107 -507q-6 -26 -7 -55q-1 -29 8.5 -53q9.5 -24 32.5 -40q23 -16 67 -16q49 0 82 15.5q33 15.5 55 39.5q22 24 33.5 53q11.5 29 17.5 56l107 507l73 0z" />
<glyph unicode="&#86;" horiz-adv-x="499" d="M237 0h-78l-42 717h87l28 -604l291 604l84 0z" />
<glyph unicode="&#87;" horiz-adv-x="811" d="M582 0h-84l-16 560l-269 -560h-84l-1 717h86l-4 -587l283 587h64l20 -586l245 586l83 0z" />
<glyph unicode="&#88;" horiz-adv-x="494" d="M328 373l111 -373h-90l-80 299l-206 -299h-97l281 365l-104 352h90l74 -276l186 276l93 0z" />
<glyph unicode="&#89;" horiz-adv-x="483" d="M294 249l-53 -249h-86l53 249l-96 468h89l73 -397l228 397l84 0z" />
<glyph unicode="&#90;" horiz-adv-x="458" d="M522 668l-418 -604h287l-14 -64h-390l10 49l421 604h-269l13 64l370 0z" />
<glyph unicode="&#91;" horiz-adv-x="320" d="M406 709h-102l-181 -850h102l-11 -50h-174l203 951l174 0z" />
<glyph unicode="&#92;" horiz-adv-x="382" d="M327 -158l-302 918h67l301 -918z" />
<glyph unicode="&#93;" horiz-adv-x="320" d="M-13 -141h102l181 850h-102l11 50h174l-203 -951l-174 0z" />
<glyph unicode="&#94;" horiz-adv-x="430" d="M425 543l-145 112l-145 -112l-23 30l173 181l164 -181z" />
<glyph unicode="&#95;" horiz-adv-x="488" d="M-3 -129v60h495l0 -60z" />
<glyph unicode="&#96;" horiz-adv-x="246" d="M51 634l60 49l96 -121l-33 -30z" />
<glyph unicode="&#97;" horiz-adv-x="531" d="M457 152q-8 -33 -12 -56.5q-4 -23.5 -5.5 -40q-1.5 -16.5 -2 -28.5q-0.5 -12 -0.5 -23v-4h-72v4q1 26 2 51q1 25 3 42l-5 0q-42 -61 -84.5 -84q-42.5 -23 -89.5 -23q-23 0 -46 8.5q-23 8.5 -42 28q-19 19.5 -31 51.5q-12 32 -12 80q0 78 28 148.5q28 70.5 76 116.5q38 38 83.5 57.5q45.5 19.5 90.5 19.5q26 0 44.5 -3.5q18.5 -3.5 31.5 -9.5q13 -6 21.5 -13q8.5 -7 14.5 -14l29 31h56zM421 379q0 10 -3.5 21.5q-3.5 11.5 -12.5 21.5q-9 10 -25 16.5q-16 6.5 -42 6.5q-38 0 -68.5 -15.5q-30.5 -15.5 -59.5 -55.5q-12 -16 -23.5 -39q-11.5 -23 -20 -49.5q-8.5 -26.5 -13.5 -56q-5 -29.5 -5 -57.5q0 -38 9.5 -60q9.5 -22 23 -33q13.5 -11 28.5 -14q15 -3 26 -3q27 0 52.5 15.5q25.5 15.5 47.5 43.5q22 28 39 65.5q17 37.5 27 82.5l15 70q5 22 5 40z" />
<glyph unicode="&#98;" horiz-adv-x="527" d="M499 339q0 -95 -27.5 -161q-27.5 -66 -69.5 -108q-42 -42 -91.5 -61q-49.5 -19 -94.5 -19q-42 0 -76.5 8.5q-34.5 8.5 -58.5 19.5q-29 12 -51 28q6 17 13 42q6 21 14 53q8 32 17 75l107 503h81l-61 -287q8 8 22.5 20q14.5 12 34.5 22.5q20 10.5 44.5 18q24.5 7.5 51.5 7.5q30 0 56.5 -9.5q26.5 -9.5 46 -29.5q19.5 -20 31 -50.5q11.5 -30.5 11.5 -71.5zt0 0zM411 326q0 58 -25 83q-25 25 -62 25q-37 0 -63 -11.5q-26 -11.5 -45 -34q-19 -22.5 -31 -55q-12 -32.5 -21 -74.5l-32 -153q-5 -25 21.5 -42q26.5 -17 74.5 -17q35 0 68 19q33 19 58.5 55q25.5 36 41 88t15.5 117z" />
<glyph unicode="&#99;" horiz-adv-x="435" d="M428 382q-17 23 -44 41q-27 18 -59 18q-12 0 -26 -1q-14 -1 -30 -7q-16 -6 -32.5 -18q-16.5 -12 -33.5 -33q-25 -32 -43.5 -81q-18.5 -49 -18.5 -113q0 -36 8.5 -61q8.5 -25 22.5 -40.5q14 -15.5 33 -22.5q19 -7 39 -7q23 0 57 12q34 12 85 50l18 -53q-32 -22 -56.5 -36.5q-24.5 -14.5 -47.5 -23.5q-23 -9 -46 -12.5q-23 -3.5 -51 -3.5q-30 0 -56.5 11q-26.5 11 -47 33.5q-20.5 22.5 -32.5 56.5q-12 34 -12 81q0 46 7.5 83.5q7.5 37.5 20.5 68q13 30.5 30.5 55.5q17.5 25 37.5 46q23 24 48.5 39q25.5 15 50 23q24.5 8 46 10.5q21.5 2.5 36.5 2.5q34 0 69.5 -8q35.5 -8 65.5 -37z" />
<glyph unicode="&#100;" horiz-adv-x="530" d="M451 152q-8 -35 -12 -58.5q-4 -23.5 -5.5 -40.5q-1.5 -17 -2 -29q-0.5 -12 -0.5 -24l-72 0q1 26 2 52.5q1 26.5 3 44.5l-5 0q-45 -60 -88.5 -83.5q-43.5 -23.5 -85.5 -23.5q-23 0 -46 8.5q-23 8.5 -41.5 28q-18.5 19.5 -30.5 51.5q-12 32 -12 80q0 78 27.5 148.5q27.5 70.5 75.5 116.5q38 38 83.5 57.5q45.5 19.5 90.5 19.5q28 0 58 -9.5q30 -9.5 47 -30.5l54 255h79zM414 379q0 10 -4.5 21.5q-4.5 11.5 -14.5 21q-10 9.5 -26.5 16q-16.5 6.5 -41.5 6.5q-32 0 -63.5 -15q-31.5 -15 -60.5 -55q-12 -16 -23.5 -39q-11.5 -23 -20 -49.5q-8.5 -26.5 -13.5 -56q-5 -29.5 -5 -57.5q0 -38 9.5 -60q9.5 -22 23 -33q13.5 -11 28.5 -14q15 -3 26 -3q27 0 53 19q26 19 48.5 48.5q22.5 29.5 39.5 66.5q17 37 25 73l15 70q5 22 5 40z" />
<glyph unicode="&#101;" horiz-adv-x="458" d="M478 390q0 -64 -44 -95q-44 -31 -124 -36l-153 -10q-3 -9 -5 -19q-2 -8 -3 -18q-1 -10 -1 -21q0 -43 9 -69q9 -26 24 -40.5q15 -14.5 33.5 -19.5q18.5 -5 36.5 -5q23 0 57 12q34 12 85 50l18 -53q-32 -22 -56.5 -36.5q-24.5 -14.5 -47.5 -23.5q-23 -9 -46 -12.5q-23 -3.5 -51 -3.5q-30 0 -56.5 10.5q-26.5 10.5 -47 32q-20.5 21.5 -32.5 54.5q-12 33 -12 78q0 61 14 109.5q14 48.5 36.5 85.5q22.5 37 51.5 63.5q29 26.5 58.5 43.5q29.5 17 57.5 25q28 8 49 8q48 0 77.5 -11q29.5 -11 45.5 -27.5q16 -16.5 21 -36q5 -19.5 5 -35.5zt0 0zM393 390q0 18 -15.5 34.5q-15.5 16.5 -60.5 16.5q-12 0 -30 -4.5q-18 -4.5 -38.5 -19q-20.5 -14.5 -41 -42.5q-20.5 -28 -36.5 -75l120 9q19 1 37.5 5.5q18.5 4.5 32.5 13.5q14 9 23 24t9 38z" />
<glyph unicode="&#102;" horiz-adv-x="332" d="M437 662q-12 2 -24 5q-11 2 -24 3.5q-13 1.5 -24 1.5q-35 0 -54 -19.5q-19 -19.5 -30 -76.5l-17 -84h121l-14 -64h-121l-69 -305q-38 -171 -97 -253q-59 -82 -150 -82q-20 0 -36.5 4q-16.5 4 -30.5 7l25 61q8 -2 17 -4q8 -2 16 -3q8 -1 16 -1q26 0 48 10.5q22 10.5 40.5 36q18.5 25.5 34 67.5q15.5 42 29.5 106l76 356h-82l14 64h84l8 28q12 43 29 84q17 41 40 72.5q23 31.5 53 50.5q30 19 70 19q20 0 40 -0.5q20 -0.5 44 -4.5z" />
<glyph unicode="&#103;" horiz-adv-x="552" d="M568 420l-85 5q6 -11 8.5 -28.5q2.5 -17.5 2.5 -32.5q0 -51 -21 -90.5q-21 -39.5 -54.5 -66.5q-33.5 -27 -75.5 -41q-42 -14 -84 -14q-8 0 -16 0.5q-8 0.5 -15 1.5q-8 1 -16 3q-9 -4 -19 -9q-10 -5 -18.5 -12q-8.5 -7 -14.5 -17q-6 -10 -6 -23q0 -14 10 -21q10 -7 30.5 -10.5q20.5 -3.5 50.5 -6q30 -2.5 70 -8.5q46 -6 76.5 -15.5q30.5 -9.5 48.5 -22.5q18 -13 25 -30.5q7 -17.5 7 -40.5q0 -43 -23.5 -76.5q-23.5 -33.5 -63 -57q-39.5 -23.5 -92.5 -35.5q-53 -12 -112 -12q-20 0 -52.5 3.5q-32.5 3.5 -63 16q-30.5 12.5 -53 36q-22.5 23.5 -22.5 64.5q0 42 21.5 73q21.5 31 78.5 62q-14 12 -20.5 23.5q-6.5 11.5 -6.5 30.5q0 19 9.5 36q9.5 17 24 31q14.5 14 32.5 24.5q18 10.5 35 16.5q-32 17 -49 45q-17 28 -17 70q0 52 20.5 92q20.5 40 54 67q33.5 27 75.5 41q42 14 84 14q28 0 48.5 -3.5q20.5 -3.5 35 -8.5q14.5 -5 24.5 -10.5q10 -5.5 17 -9.5l134 8zM408 364q0 37 -20.5 60.5q-20.5 23.5 -68.5 23.5q-33 0 -58.5 -12.5q-25.5 -12.5 -42.5 -33.5q-17 -21 -25.5 -47.5q-8.5 -26.5 -8.5 -53.5q0 -38 20.5 -64.5q20.5 -26.5 64.5 -26.5q42 0 68.5 16q26.5 16 42.5 39q16 23 22 50q6 27 6 49zt0 0zM382 -88q0 19 -9 31q-9 12 -25 18.5q-16 6.5 -38 10.5q-22 4 -48 7q-12 1 -29 3q-17 2 -35.5 4q-18.5 2 -36.5 5q-18 3 -31 8q-8 -4 -17.5 -12q-9.5 -8 -18.5 -20q-9 -12 -15 -27q-6 -15 -6 -32q0 -27 11 -45q11 -18 30.5 -28.5q19.5 -10.5 45.5 -14.5q26 -4 57 -4q74 0 119.5 24t45.5 72z" />
<glyph unicode="&#104;" horiz-adv-x="498" d="M488 409q0 -16 -2 -37.5q-2 -21.5 -7 -41.5l-70 -330h-81l64 303q8 37 8 64q0 26 -11.5 43.5q-11.5 17.5 -46.5 17.5q-26 0 -54 -15q-28 -15 -55.5 -49.5q-27.5 -34.5 -52 -91q-24.5 -56.5 -42.5 -139.5l-29 -133h-81l153 718h81l-74 -342h3q29 39 57.5 63.5q28.5 24.5 54.5 38q26 13.5 48 18.5q22 5 39 5q45 0 71.5 -22t26.5 -70z" />
<glyph unicode="&#105;" horiz-adv-x="206" d="M255 620q0 -32 -18.5 -46.5q-18.5 -14.5 -41.5 -14.5q-26 0 -36.5 14q-10.5 14 -10.5 32q0 24 16 42.5q16 18.5 48 18.5q26 0 34.5 -15q8.5 -15 8.5 -31zt0 0zM109 0h-81l105 492l81 0z" />
<glyph unicode="&#106;" horiz-adv-x="231" d="M272 620q0 -32 -18.5 -46.5q-18.5 -14.5 -41.5 -14.5q-26 0 -36.5 14q-10.5 14 -10.5 32q0 24 16 42.5q16 18.5 48 18.5q26 0 34.5 -15q8.5 -15 8.5 -31zt0 0zM160 123q-36 -171 -94 -253q-58 -82 -142 -82q-20 0 -38 3.5q-18 3.5 -27 7.5l25 61q5 -2 11 -4q5 -2 12 -3q7 -1 15 -1q26 0 47.5 12.5q21.5 12.5 40 41q18.5 28.5 34 73.5q15.5 45 29.5 111l84 402l81 0z" />
<glyph unicode="&#107;" horiz-adv-x="437" d="M359 337q-15 -20 -26 -32.5q-11 -12.5 -20.5 -20.5q-9.5 -8 -19 -13.5q-9.5 -5.5 -20.5 -10.5l-1 -6q23 -10 37 -33.5q14 -23.5 25 -55.5l59 -165h-90l-57 165q-13 36 -25.5 50q-12.5 14 -42.5 14h-20l-49 -229h-81l152 715h81l-92 -433h20q32 0 51 16.5q19 16.5 40 45.5l110 148l84 0z" />
<glyph unicode="&#108;" horiz-adv-x="206" d="M109 0h-81l152 715l81 0z" />
<glyph unicode="&#109;" horiz-adv-x="737" d="M727 404q0 -15 -1.5 -33.5q-1.5 -18.5 -6.5 -40.5l-70 -330h-81l64 303q3 14 5.5 31q2.5 17 2.5 31q0 28 -8.5 44q-8.5 16 -38.5 16q-29 0 -57.5 -24.5q-28.5 -24.5 -53.5 -66.5q-25 -42 -45.5 -98q-20.5 -56 -33.5 -118l-24 -118h-81l58 273q5 22 8 46q3 24 3 37q0 32 -8.5 50.5q-8.5 18.5 -38.5 18.5q-26 0 -53 -23.5q-27 -23.5 -52.5 -64.5q-25.5 -41 -47 -97q-21.5 -56 -34.5 -122l-24 -118h-81l53 251q16 75 24.5 121q8.5 46 13.5 71q5 29 7 41l81 8l-19 -117h3q26 41 50 65.5q24 24.5 46.5 38q22.5 13.5 43 18q20.5 4.5 38.5 4.5q42 0 59 -29q17 -29 17 -72q0 -22 -3 -46l5 0q23 43 48 71q25 28 50 45q25 17 49.5 24q24.5 7 45.5 7q42 0 64.5 -24.5t22.5 -72.5z" />
<glyph unicode="&#110;" horiz-adv-x="498" d="M488 409q0 -16 -2 -37.5q-2 -21.5 -7 -41.5l-70 -330h-81l64 303q8 37 8 64q0 26 -11.5 43.5q-11.5 17.5 -46.5 17.5q-26 0 -54 -15q-28 -15 -55.5 -49.5q-27.5 -34.5 -52 -91q-24.5 -56.5 -42.5 -139.5l-29 -133h-81l53 251q16 75 24.5 121q8.5 46 13.5 71q5 29 7 41l81 8l-19 -116h3q28 40 56.5 65q28.5 25 54.5 38q26 13 48.5 17.5q22.5 4.5 39.5 4.5q45 0 71.5 -22t26.5 -70z" />
<glyph unicode="&#111;" horiz-adv-x="524" d="M516 328q0 -76 -27 -144q-27 -68 -69 -113q-40 -44 -89 -65.5q-49 -21.5 -98 -21.5q-28 0 -58 7.5q-30 7.5 -55 26.5q-25 19 -41 52.5q-16 33.5 -16 85.5q0 76 27 144q27 68 69 113q40 44 89 65.5q49 21.5 98 21.5q31 0 61.5 -6q30.5 -6 54.5 -24.5q24 -18.5 39 -52.5q15 -34 15 -89zt0 0zM430 318q0 42 -10 67q-10 25 -24.5 37.5q-14.5 12.5 -31 16q-16.5 3.5 -30.5 3.5q-35 0 -66 -19q-31 -19 -56 -54q-26 -37 -44.5 -92q-18.5 -55 -18.5 -111q0 -39 10 -63.5q10 -24.5 24.5 -38q14.5 -13.5 31 -18q16.5 -4.5 30.5 -4.5q33 0 65 19q32 19 57 54q26 37 44.5 92t18.5 111z" />
<glyph unicode="&#112;" horiz-adv-x="525" d="M497 332q0 -90 -27 -154.5q-27 -64.5 -68 -106q-41 -41.5 -88.5 -61.5q-47.5 -20 -89.5 -20q-42 0 -67.5 7q-25.5 7 -44.5 18l-51 -240h-81l127 595q3 13 6 28.5q3 15.5 5 31q2 15.5 3.5 29.5q1.5 14 1.5 23l77 8l-6 -68q10 13 25.5 26.5q15.5 13.5 35.5 25q20 11.5 45.5 19q25.5 7.5 54.5 7.5q28 0 54 -9.5q26 -9.5 45.5 -30q19.5 -20.5 31 -52q11.5 -31.5 11.5 -76.5zt0 0zM411 311q0 33 -7.5 56.5q-7.5 23.5 -20.5 38.5q-13 15 -30 21.5q-17 6.5 -35 6.5q-61 0 -98.5 -45.5q-37.5 -45.5 -55.5 -129.5l-27 -126q-5 -22 -5 -33q0 -53 92 -53q37 0 70.5 17q33.5 17 59.5 50.5q26 33.5 41.5 83t15.5 113.5z" />
<glyph unicode="&#113;" horiz-adv-x="520" d="M530 491q-6 -26 -14 -63q-7 -32 -17.5 -79.5q-10.5 -47.5 -24.5 -112.5l-97 -457h-81l69 318h-5q-38 -53 -84.5 -80q-46.5 -27 -93.5 -27q-21 0 -43 8.5q-22 8.5 -41 28q-19 19.5 -31 51.5q-12 32 -12 80q0 78 28 148.5q28 70.5 76 116.5q38 38 84 57.5q46 19.5 95 19.5q25 0 43 -3.5q18 -3.5 30 -8q12 -4.5 20.5 -10.5q8.5 -6 16.5 -10l26 23zM416 379q0 10 -3 21.5q-3 11.5 -12 21q-9 9.5 -25 16q-16 6.5 -43 6.5q-35 0 -67 -15q-32 -15 -61 -55q-12 -16 -23.5 -39q-11.5 -23 -20 -49.5q-8.5 -26.5 -13.5 -56q-5 -29.5 -5 -57.5q0 -36 7.5 -58q7.5 -22 19 -33.5q11.5 -11.5 26 -15q14.5 -3.5 28.5 -3.5q30 0 57.5 19q27.5 19 50.5 48.5q23 29.5 39.5 66.5q16.5 37 24.5 73l15 70q5 22 5 40z" />
<glyph unicode="&#114;" horiz-adv-x="348" d="M379 403q-6 3 -14 6q-7 2 -17.5 4q-10.5 2 -23.5 2q-20 0 -44.5 -10q-24.5 -10 -48 -32q-23.5 -22 -43.5 -57q-20 -35 -30 -85l-49 -231h-81l53 251q16 75 24.5 121q8.5 46 13.5 71q5 29 7 41l81 8l-14 -98h4q7 11 22 29q15 18 36 34.5q21 16.5 46.5 28.5q25.5 12 52.5 12q18 0 29.5 -2.5q11.5 -2.5 18.5 -4.5q8 -4 12 -7z" />
<glyph unicode="&#115;" horiz-adv-x="424" d="M397 385q-29 31 -59.5 44q-30.5 13 -58.5 13q-12 0 -28 -2.5q-16 -2.5 -30.5 -10.5q-14.5 -8 -24.5 -23q-10 -15 -10 -40q0 -13 6.5 -22.5q6.5 -9.5 17.5 -18q11 -8.5 27 -17q16 -8.5 35 -19.5q27 -15 48.5 -27q21.5 -12 37.5 -26q16 -14 24.5 -32q8.5 -18 8.5 -46q0 -78 -57.5 -125q-57.5 -47 -160.5 -47q-46 0 -90 14.5q-44 14.5 -70 47.5l59 63q19 -26 48.5 -46q29.5 -20 74.5 -20q13 0 31.5 3.5q18.5 3.5 35.5 14q17 10.5 29 30.5q12 20 12 52q0 20 -8.5 33q-8.5 13 -23 23q-14.5 10 -33.5 18q-19 8 -40 19q-51 25 -75 50q-24 25 -24 67q0 37 15 64q15 27 41.5 45q26.5 18 61.5 27q35 9 74 9q34 0 70 -9q36 -9 71 -27z" />
<glyph unicode="&#116;" horiz-adv-x="340" d="M355 428h-118l-56 -262q-4 -18 -6 -32.5q-2 -14.5 -2 -26.5q0 -29 15.5 -42.5q15.5 -13.5 44.5 -13.5q5 0 14 1q9 1 19.5 3q10.5 2 20.5 4q10 2 18 5l-4 -49q-11 -5 -24.5 -9q-13.5 -4 -28 -7q-14.5 -3 -28.5 -5q-14 -2 -24 -2q-33 0 -53 9q-20 9 -31.5 23q-11.5 14 -15 31q-3.5 17 -3.5 34q0 26 3 48.5q3 22.5 6 36.5l54 254h-77l9 44q37 8 67 36.5q30 28.5 50 70.5l36 78l52 11l-37 -176l113 0z" />
<glyph unicode="&#117;" horiz-adv-x="506" d="M447 180q-5 -26 -9.5 -56.5q-4.5 -30.5 -7.5 -58.5q-4 -33 -6 -65l-80 0l18 127h-6q-29 -45 -57.5 -72q-28.5 -27 -54.5 -42q-26 -15 -49.5 -20q-23.5 -5 -41.5 -5q-19 0 -37 3q-18 3 -32.5 13.5q-14.5 10.5 -23 30.5q-8.5 20 -8.5 53q0 12 2 26.5q2 14.5 5 30.5l74 347h81l-67 -312q-8 -40 -8 -62q0 -35 15.5 -48q15.5 -13 43.5 -13q37 0 70 29q33 29 59.5 71.5q26.5 42.5 45 90q18.5 47.5 26.5 85.5l34 159l81 0z" />
<glyph unicode="&#118;" horiz-adv-x="446" d="M486 492q-12 -33 -27 -69q-13 -31 -30.5 -70q-17.5 -39 -39.5 -79q-27 -49 -55.5 -94.5q-28.5 -45.5 -54.5 -82.5q-26 -37 -46.5 -62.5q-20.5 -25.5 -30.5 -34.5l-77 -8q-1 21 -2 45.5q-1 24.5 -2.5 55.5q-1.5 31 -4.5 70q-3 39 -8 89q-5 44 -9 79q-4 35 -8.5 63.5q-4.5 28.5 -8.5 52.5q-4 24 -8 45l89 0q3 -23 9 -65.5q6 -42.5 11 -105.5q6 -72 10.5 -134.5q4.5 -62.5 6.5 -105.5q42 47 79 111.5q37 64.5 66 137.5q19 47 31.5 88.5q12.5 41.5 20.5 73.5l89 0z" />
<glyph unicode="&#119;" horiz-adv-x="692" d="M731 492q-14 -33 -31 -69q-14 -31 -33 -70q-19 -39 -39 -79q-23 -45 -50.5 -89q-27.5 -44 -53.5 -81.5q-26 -37.5 -48 -65q-22 -27.5 -35 -38.5l-73 -8q0 22 1 61q1 39 2 86.5q1 47.5 2 100q1 52.5 1 100.5q-16 -42 -44 -96q-28 -54 -58 -104q-30 -50 -57 -89q-27 -39 -40 -51l-70 -8q0 18 0 45q0 27 -0.5 58q-0.5 31 -1 63q-0.5 32 -1.5 59q-2 81 -5.5 147.5q-3.5 66.5 -8.5 127.5l87 0q1 -55 2 -105.5q1 -50.5 1.5 -100.5q0.5 -50 0.5 -100.5q0 -50.5 0 -104.5q16 22 35.5 53q19.5 31 38.5 65q19 34 36.5 69q17.5 35 31.5 66q11 26 22 50.5q11 24.5 19.5 45.5q8.5 21 15 37q6.5 16 8.5 25l64 0l-5 -411q15 16 33.5 41.5q18.5 25.5 38 58q19.5 32.5 38.5 70.5q19 38 35 79q18 47 31 88.5q13 41.5 21 73.5l89 0z" />
<glyph unicode="&#120;" horiz-adv-x="432" d="M285 256l104 -256h-93l-69 195l-136 -195h-94l206 251l-96 241h94l59 -179l128 179l92 0z" />
<glyph unicode="&#121;" horiz-adv-x="457" d="M506 492q-13 -33 -29 -69q-14 -31 -31 -69.5q-17 -38.5 -37 -79.5q-22 -45 -39.5 -80.5q-17.5 -35.5 -35 -68.5q-17.5 -33 -37 -68q-19.5 -35 -45.5 -79q-28 -47 -54 -84q-26 -37 -54 -62.5q-28 -25.5 -59 -38.5q-31 -13 -68 -13q-14 0 -35 3.5q-21 3.5 -33 10.5l31 72q8 -3 19 -5q9 -2 20.5 -3q11.5 -1 25.5 -1q23 0 47.5 7.5q24.5 7.5 41.5 32.5q11 16 18.5 38q7.5 22 7.5 43q0 51 -9 122q-9 71 -21 152q-13 85 -25.5 150q-12.5 65 -20.5 90l91 0q6 -23 13 -67q7 -44 17 -111q11 -74 18.5 -145q7.5 -71 12.5 -120q18 32 34 63q16 31 32 64q16 33 31.5 71q15.5 38 31.5 83q17 47 30.5 88.5q13.5 41.5 21.5 73.5l89 0z" />
<glyph unicode="&#122;" horiz-adv-x="438" d="M126 64h237l-13 -64h-335l10 47l325 381h-232l13 64h329l-8 -44z" />
<glyph unicode="&#123;" horiz-adv-x="407" d="M480 711h-20q-22 0 -43 -5q-21 -5 -39.5 -20.5q-18.5 -15.5 -33 -43.5q-14.5 -28 -24.5 -73l-19 -88q-4 -19 -10 -41q-6 -22 -14 -36q-11 -19 -22 -38q-11 -19 -26.5 -35q-15.5 -16 -38 -27.5q-22.5 -11.5 -56.5 -15.5l-1 -7q31 -7 49 -20.5q18 -13.5 27 -32q9 -18.5 11.5 -40q2.5 -21.5 2.5 -43.5q0 -14 -1.5 -29q-1.5 -15 -4.5 -29l-18 -88q-3 -16 -7 -34q-4 -18 -4 -29q0 -47 21 -63q21 -16 70 -16h9l-11 -49h-28q-72 0 -104 33q-32 33 -32 85q0 22 3.5 45q3.5 23 6.5 36l13 58q1 7 3.5 18q2.5 11 4 23q1.5 12 3 24.5q1.5 12.5 1.5 21.5q0 25 -4.5 44.5q-4.5 19.5 -15.5 32.5q-11 13 -31.5 19.5q-20.5 6.5 -51.5 6.5h-7l14 58h6q39 0 68 16q29 16 49 42q20 26 33 60.5q13 34.5 21 71.5l16 74q12 55 36 90.5q24 35.5 56 56q32 20.5 69.5 28.5q37.5 8 77.5 8l7 0z" />
<glyph unicode="&#124;" horiz-adv-x="244" d="M128 -171v941h62l0 -941z" />
<glyph unicode="&#125;" horiz-adv-x="419" d="M-31 -143h20q22 0 43 5q21 5 39.5 20.5q18.5 15.5 33 43.5q14.5 28 24.5 73l19 88q4 19 10 41q6 22 14 36q11 19 22 38q11 19 26.5 35q15.5 16 38 27.5q22.5 11.5 56.5 15.5l1 7q-31 7 -49 20.5q-18 13.5 -27 32q-9 18.5 -11.5 40q-2.5 21.5 -2.5 43.5q0 14 1.5 29q1.5 15 4.5 29l18 88q3 16 7 34q4 18 4 29q0 47 -21 63q-21 16 -70 16h-9l11 49h28q72 0 104 -33q32 -33 32 -85q0 -22 -3.5 -45q-3.5 -23 -6.5 -36l-13 -58q-2 -7 -4 -18q-2 -11 -3.5 -23q-1.5 -12 -3 -24.5q-1.5 -12.5 -1.5 -21.5q0 -26 4.5 -45q4.5 -19 15.5 -32q11 -13 31 -19.5q20 -6.5 52 -6.5h7l-14 -58h-6q-39 0 -68 -16q-29 -16 -49 -42q-20 -26 -33 -60.5q-13 -34.5 -21 -71.5l-16 -74q-12 -55 -36 -90.5q-24 -35.5 -56 -56q-32 -20.5 -69.5 -28.5q-37.5 -8 -77.5 -8l-7 0z" />
<glyph unicode="&#126;" horiz-adv-x="619" d="M594 383q-1 -39 -9 -74q-8 -35 -24 -61q-16 -26 -42 -41q-26 -15 -63 -15q-24 0 -43.5 6.5q-19.5 6.5 -36.5 17q-17 10.5 -33 24.5q-16 14 -34 29q-10 9 -21 19q-11 10 -24 18.5q-13 8.5 -26.5 14q-13.5 5.5 -27.5 5.5q-42 0 -64 -35q-22 -35 -24 -93l-55 0q1 39 9 73.5q8 34.5 25 60q17 25.5 43 40.5q26 15 63 15q24 0 43.5 -6.5q19.5 -6.5 36.5 -17q17 -10.5 33 -24.5q16 -14 34 -29q24 -21 47 -39q23 -18 52 -18q43 0 63.5 36q20.5 36 22.5 94l55 0z" />
<glyph unicode="&#160;" horiz-adv-x="233" />
<glyph unicode="&#161;" horiz-adv-x="244" d="M197 472h46l-103 -531h-95zM190 597q0 28 18 45.5q18 17.5 42 17.5q24 0 39 -14q15 -14 15 -37q0 -29 -18 -46q-18 -17 -42 -17q-24 0 -39 13.5t-15 37.5z" />
<glyph unicode="&#162;" horiz-adv-x="491" d="M255 -138v132q-12 -2 -25 -3q-13 -1 -27 -1q-30 0 -56.5 11q-26.5 11 -47 33.5q-20.5 22.5 -32.5 56.5q-12 34 -12 81q0 46 7.5 83.5q7.5 37.5 20.5 68q13 30.5 30.5 55.5q17.5 25 37.5 46q24 26 51 40.5q27 14.5 53 22.5l0 181h53v-170q7 1 13 1q6 0 11 0q34 0 69.5 -8q35.5 -8 65.5 -37l-39 -73q-17 23 -44 41q-27 18 -59 18q-5 0 -8.5 0q-3.5 0 -8.5 -1l0 -368q16 7 35.5 18.5q19.5 11.5 42.5 28.5l18 -53q-29 -20 -52 -34q-23 -14 -44 -23l0 -147zM255 57v370q-13 -7 -26 -17.5q-13 -10.5 -26 -27.5q-25 -32 -43.5 -81q-18.5 -49 -18.5 -113q0 -36 8.5 -61q8.5 -25 22.5 -40.5q14 -15.5 33 -22.5q19 -7 39 -7z" />
<glyph unicode="&#163;" horiz-adv-x="491" d="M296 255q-1 -6 -2 -12q-1 -6 -2 -12q-5 -21 -13 -41.5q-8 -20.5 -22 -39q-14 -18.5 -35.5 -35q-21.5 -16.5 -52.5 -28.5q28 0 52 -2.5q24 -2.5 46 -6q22 -3.5 44 -6.5q22 -3 48 -3q32 0 61 20.5q29 20.5 43 59.5l38 -10q-27 -78 -62 -114.5q-35 -36.5 -91 -36.5q-29 0 -58 5.5q-29 5.5 -58.5 12.5q-29.5 7 -59 12.5q-29.5 5.5 -58.5 5.5q-15 0 -33 -6q-18 -6 -35 -30l-33 18q24 35 47.5 52.5q23.5 17.5 46.5 25.5q27 15 45 31q18 16 29.5 32q11.5 16 17 30.5q5.5 14.5 8.5 27.5q4 15 6 28.5q2 13.5 3 21.5l-127 0l12 47h121q1 13 1.5 29.5q0.5 16.5 0.5 27.5l-110 0l12 47h96q1 54 9 110.5q8 56.5 29 102.5q21 46 58.5 75.5q37.5 29.5 97.5 29.5q59 0 87.5 -24q28.5 -24 39.5 -54l-71 -33q-5 27 -25.5 45q-20.5 18 -46.5 18q-35 0 -54.5 -24.5q-19.5 -24.5 -29 -62q-9.5 -37.5 -11.5 -81.5q-2 -44 -2 -83l1 -19h160l-12 -47h-146q0 -12 -0.5 -27.5q-0.5 -15.5 -1.5 -29.5l135 0l-12 -47z" />
<glyph unicode="&#164;" horiz-adv-x="491" d="M454 452q24 -35 34 -68.5q10 -33.5 10 -60.5q0 -27 -10 -60q-10 -33 -34 -68l73 -69l-41 -41l-70 72q-35 -25 -68.5 -35q-33.5 -10 -60.5 -10q-27 0 -60 10q-33 10 -68 35l-71 -73l-38 42l71 69q-25 35 -34 68q-9 33 -9 60q0 27 9 60.5q9 33.5 34 69.5l-71 70l38 41l71 -74q35 24 68 33q33 9 60 9q27 0 60.5 -9q33.5 -9 68.5 -33l70 72l42 -40zM440 323q0 33 -12 61q-12 28 -33 49q-21 21 -49 33q-28 12 -59 12q-32 0 -59.5 -12q-27.5 -12 -47.5 -33q-20 -21 -32 -49q-12 -28 -12 -61q0 -33 12 -61.5q12 -28.5 32 -49.5q20 -21 47.5 -33.5q27.5 -12.5 59.5 -12.5q31 0 59 12.5q28 12.5 49 33.5q21 21 33 49.5t12 61.5z" />
<glyph unicode="&#165;" horiz-adv-x="491" d="M51 128l14 59h107l13 55h-107l14 59h90l-50 416h91l38 -392l214 392h84l-254 -416h93l-14 -59h-111l-12 -55h110l-13 -59h-111l-31 -128h-86l29 128z" />
<glyph unicode="&#166;" horiz-adv-x="238" d="M129 367v369h62v-369zM129 -145v369h62l0 -369z" />
<glyph unicode="&#167;" horiz-adv-x="491" d="M478 626q-22 14 -55 25q-33 11 -67 11q-19 0 -40.5 -4.5q-21.5 -4.5 -40 -16.5q-18.5 -12 -31 -32q-12.5 -20 -12.5 -51q0 -35 19 -51q19 -16 46 -26l66 -24q56 -20 85.5 -52.5q29.5 -32.5 29.5 -74.5q0 -32 -9.5 -58q-9.5 -26 -27.5 -47q-18 -21 -42.5 -38q-24.5 -17 -54.5 -32q23 -17 33.5 -42.5q10.5 -25.5 10.5 -54.5q0 -41 -16 -74.5q-16 -33.5 -44 -57.5q-28 -24 -66 -37.5q-38 -13.5 -83 -13.5q-45 0 -73.5 7q-28.5 7 -57.5 17l16 75q22 -14 55 -25q33 -11 67 -11q19 0 40.5 4.5q21.5 4.5 40 16.5q18.5 12 31 32q12.5 20 12.5 51q0 35 -19 51q-19 16 -46 26l-66 24q-56 20 -85.5 52.5q-29.5 32.5 -29.5 74.5q0 36 12 63.5q12 27.5 31.5 48.5q19.5 21 44 36.5q24.5 15.5 49.5 27.5q-23 17 -35 42q-12 25 -12 54q0 41 16 74.5q16 33.5 44 57.5q28 24 66 37.5q38 13.5 83 13.5q45 0 73.5 -7q28.5 -7 57.5 -17zM398 305q0 19 -6.5 32.5q-6.5 13.5 -18.5 23q-12 9.5 -27.5 17q-15.5 7.5 -33.5 15.5l-66 28q-12 -6 -29.5 -16.5q-17.5 -10.5 -33.5 -26q-16 -15.5 -27.5 -36q-11.5 -20.5 -11.5 -47.5q0 -20 6.5 -33.5q6.5 -13.5 18 -23q11.5 -9.5 27.5 -17q16 -7.5 34 -14.5l69 -27q10 5 27 15q17 10 33 25.5q16 15.5 27.5 36.5t11.5 48z" />
<glyph unicode="&#168;" horiz-adv-x="349" d="M318 620q0 -32 -18.5 -46.5q-18.5 -14.5 -41.5 -14.5q-26 0 -36.5 14q-10.5 14 -10.5 32q0 24 16 42.5q16 18.5 48 18.5q26 0 34.5 -15q8.5 -15 8.5 -31zt0 0zM164 620q0 -32 -18.5 -46.5q-18.5 -14.5 -41.5 -14.5q-26 0 -36.5 14q-10.5 14 -10.5 32q0 24 16 42.5q16 18.5 48 18.5q26 0 34.5 -15t8.5 -31z" />
<glyph unicode="&#169;" horiz-adv-x="838" d="M846 366q0 -79 -29.5 -151q-29.5 -72 -80.5 -127.5q-51 -55.5 -120.5 -88.5q-69.5 -33 -150.5 -33q-81 0 -150.5 30q-69.5 30 -120.5 83q-51 53 -80 126.5q-29 73.5 -29 160.5q0 85 29 158q29 73 80 126.5q51 53.5 120.5 84q69.5 30.5 150.5 30.5q81 0 150.5 -30.5q69.5 -30.5 120.5 -84q51 -53.5 80.5 -126.5q29.5 -73 29.5 -158zt0 0zM806 366q0 75 -26 140.5q-26 65.5 -72 114q-46 48.5 -108.5 76.5q-62.5 28 -134.5 28q-72 0 -134.5 -28q-62.5 -28 -108 -76.5q-45.5 -48.5 -71.5 -114q-26 -65.5 -26 -140.5q0 -75 26 -140.5q26 -65.5 71.5 -114q45.5 -48.5 108 -77q62.5 -28.5 134.5 -28.5q72 0 134.5 28.5q62.5 28.5 108.5 77.5q46 49 72 114.5q26 65.5 26 139.5zt0 0zM601 538q-16 8 -44 18q-28 10 -63 10q-24 0 -52 -6.5q-28 -6.5 -52.5 -27.5q-24.5 -21 -41 -61q-16.5 -40 -16.5 -108q0 -57 12 -96.5q12 -39.5 33 -64q21 -24.5 50 -35.5q29 -11 63 -11q35 0 63 10q28 10 44 18l0 -50q-11 -5 -39 -15q-28 -10 -73 -10q-111 0 -170.5 60.5q-59.5 60.5 -59.5 188.5q0 83 26.5 133q26.5 50 64 77q37.5 27 77 36q39.5 9 66.5 9q45 0 72 -7.5q27 -7.5 40 -12.5z" />
<glyph unicode="&#170;" horiz-adv-x="410" d="M387 498q-6 -25 -9 -42q-3 -17 -4.5 -29q-1.5 -12 -1.5 -20.5q0 -8.5 0 -17.5l-51 0q1 19 1 38q0 19 2 32l-3 0q-29 -44 -60.5 -60.5q-31.5 -16.5 -64.5 -16.5q-16 0 -33 6q-17 6 -30.5 20q-13.5 14 -22 37q-8.5 23 -8.5 58q0 52 16.5 96.5q16.5 44.5 44.5 77.5q28 33 64 52q36 19 74 19q21 0 34.5 -3q13.5 -3 22 -7.5q8.5 -4.5 14 -9.5q5.5 -5 10.5 -9l20 22h40zM361 661q0 7 -2.5 15.5q-2.5 8.5 -9 15.5q-6.5 7 -18.5 11.5q-12 4.5 -30 4.5q-27 0 -49 -11q-22 -11 -42 -39q-19 -25 -32 -65q-13 -40 -13 -80q0 -28 6.5 -43.5q6.5 -15.5 16.5 -23.5q10 -8 21 -10q11 -2 19 -2q19 0 37 11q18 11 34 31q16 20 28 47q12 27 19 59l11 50q2 7 3 14.5t1 14.5z" />
<glyph unicode="&#171;" horiz-adv-x="442" d="M314 272l80 -169l-25 -25l-145 194l227 194l14 -29zM161 266l95 -178l-32 -27l-163 211l253 211l20 -27z" />
<glyph unicode="&#172;" horiz-adv-x="498" d="M427 125v92h-372v47h420l0 -139z" />
<glyph unicode="&#173;" horiz-adv-x="297" d="M70 205v63h205l0 -63z" />
<glyph unicode="&#174;" horiz-adv-x="847" d="M840 366q0 -79 -29.5 -151q-29.5 -72 -80.5 -127.5q-51 -55.5 -120.5 -88.5q-69.5 -33 -150.5 -33q-81 0 -150.5 30q-69.5 30 -120.5 83q-51 53 -80 126.5q-29 73.5 -29 160.5q0 85 29 158q29 73 80 126.5q51 53.5 120.5 84q69.5 30.5 150.5 30.5q81 0 150.5 -30.5q69.5 -30.5 120.5 -84q51 -53.5 80.5 -126.5q29.5 -73 29.5 -158zt0 0zM800 366q0 75 -26 140.5q-26 65.5 -72 114q-46 48.5 -108.5 76.5q-62.5 28 -134.5 28q-72 0 -134.5 -28q-62.5 -28 -108 -76.5q-45.5 -48.5 -71.5 -114q-26 -65.5 -26 -140.5q0 -75 26 -140.5q26 -65.5 71.5 -114q45.5 -48.5 108 -77q62.5 -28.5 134.5 -28.5q72 0 134.5 28.5q62.5 28.5 108.5 77.5q46 49 72 114.5q26 65.5 26 139.5zt0 0zM554 120l-125 213h-50v-213h-70v482q20 2 44 5q20 2 46 3.5q26 1.5 54 1.5q59 0 95 -12.5q36 -12.5 55 -32q19 -19.5 25 -42.5q6 -23 6 -44q0 -17 -5.5 -38q-5.5 -21 -20 -41.5q-14.5 -20.5 -40.5 -37.5q-26 -17 -67 -25l133 -219zM562 481q0 41 -27 63.5q-27 22.5 -85 22.5q-14 0 -26.5 -0.5q-12.5 -0.5 -22.5 -1.5q-11 -1 -22 -2l0 -191h50q38 0 63.5 8.5q25.5 8.5 41 23.5q15.5 15 22 34.5t6.5 42.5z" />
<glyph unicode="&#175;" horiz-adv-x="366" d="M55 590v55h271l0 -55z" />
<glyph unicode="&#176;" horiz-adv-x="218" d="M109 0h-86l152 717h86zM352 824q0 -32 -17.5 -46.5q-17.5 -14.5 -38.5 -14.5q-24 0 -34 14q-10 14 -10 32q0 24 15 42.5q15 18.5 45 18.5q25 0 32.5 -15q7.5 -15 7.5 -31zt0 0zM225 824q0 -32 -17.5 -46.5q-17.5 -14.5 -38.5 -14.5q-24 0 -34 14q-10 14 -10 32q0 24 15.5 42.5q15.5 18.5 44.5 18.5q25 0 32.5 -15t7.5 -31z" />
<glyph unicode="&#177;" horiz-adv-x="574" d="M82 48v52h470v-52zM83 293v52h209v159h52v-159h209v-52h-209v-159h-52l0 159z" />
<glyph unicode="&#178;" horiz-adv-x="344" d="M396 703q0 -33 -13.5 -59q-13.5 -26 -33.5 -47.5q-20 -21.5 -44.5 -40q-24.5 -18.5 -46.5 -35.5q-16 -12 -33.5 -26q-17.5 -14 -33 -27.5q-15.5 -13.5 -28 -26q-12.5 -12.5 -18.5 -22.5l190 0l-11 -53h-243l10 46q20 32 53.5 62.5q33.5 30.5 69.5 62.5q25 23 46 41.5q21 18.5 36 35.5q15 17 23 35q8 18 8 41q0 26 -11.5 44.5q-11.5 18.5 -41.5 18.5q-28 0 -50 -9.5q-22 -9.5 -43 -22.5l-2 40q22 14 50 25q28 11 63 11q58 0 81 -26t23 -68z" />
<glyph unicode="&#179;" horiz-adv-x="284" d="M383 708q0 -26 -8.5 -45q-8.5 -19 -22 -33q-13.5 -14 -30.5 -23.5q-17 -9.5 -34 -15.5l0 -3q37 -14 49 -37.5q12 -23.5 12 -49.5q0 -22 -9 -47.5q-9 -25.5 -30 -47q-21 -21.5 -54 -36q-33 -14.5 -81 -14.5q-36 0 -61.5 8.5q-25.5 8.5 -33.5 13.5l23 38q11 -6 32 -11.5q21 -5.5 47 -5.5q18 0 36.5 5q18.5 5 33 17.5q14.5 12.5 24 32.5q9.5 20 9.5 50q0 32 -15.5 50.5q-15.5 18.5 -53.5 18.5h-37l8 34h40q15 0 32 4q17 4 31 14q14 10 23 28q9 18 9 45q0 27 -12.5 43.5q-12.5 16.5 -39.5 16.5q-22 0 -41.5 -6.5q-19.5 -6.5 -43.5 -22.5l-5 39q17 10 44.5 19.5q27.5 9.5 60.5 9.5q30 0 49 -8q19 -8 30 -20.5q11 -12.5 15 -28.5t4 -32z" />
<glyph unicode="&#180;" horiz-adv-x="265" d="M72 537l-39 18l119 127l75 -40z" />
<glyph unicode="&#181;" horiz-adv-x="491" d="M396 0h-78l15 70q-26 -36 -56.5 -57.5q-30.5 -21.5 -63.5 -21.5q-31 0 -54 12.5q-23 12.5 -35 41.5l-48 -224h-79l136 642h79l-55 -260q-3 -14 -5.5 -30.5q-2.5 -16.5 -2.5 -29.5q0 -16 4.5 -31.5q4.5 -15.5 14 -27.5q9.5 -12 24.5 -19q15 -7 35 -7q28 0 51 16q23 16 40.5 39q17.5 23 28.5 48.5q11 25.5 15 44.5l54 257l78 0z" />
<glyph unicode="&#182;" horiz-adv-x="400" d="M321 -142h-52l172 808h52zM176 -142h-52l120 567q-34 0 -54.5 8q-20.5 8 -32 21q-11.5 13 -15 29.5q-3.5 16.5 -3.5 32.5q0 41 14.5 69.5q14.5 28.5 37.5 46.5q23 18 50 26q27 8 53 8l54 0z" />
<glyph unicode="&#183;" horiz-adv-x="277" d="M195 329q0 -23 -16 -39q-16 -16 -39 -16q-23 0 -39 16q-16 16 -16 39q0 23 16 39q16 16 39 16q23 0 39 -16t16 -39z" />
<glyph unicode="&#184;" horiz-adv-x="292" d="M141 24l-20 -59q32 0 52.5 -7.5q20.5 -7.5 32.5 -18.5q12 -11 16.5 -23.5q4.5 -12.5 4.5 -24.5q0 -23 -10 -40.5q-10 -17.5 -26.5 -29.5q-16.5 -12 -37.5 -18.5q-21 -6.5 -44 -6.5q-26 0 -53.5 7.5q-27.5 7.5 -37.5 18.5l20 30q17 -9 31.5 -12q14.5 -3 25.5 -4q7 0 17 1q10 1 19 5.5q9 4.5 15 14q6 9.5 6 25.5q0 13 -6.5 21q-6.5 8 -16.5 12.5q-10 4.5 -22.5 6.5q-12.5 2 -23.5 2h-12l29 100z" />
<glyph unicode="&#185;" horiz-adv-x="284" d="M211 367h-62l71 344h-55l5 25q25 2 43 11.5q18 9.5 30 20.5q14 12 24 28l34 0z" />
<glyph unicode="&#186;" horiz-adv-x="444" d="M389 628q0 -55 -19 -104q-19 -49 -50 -81q-29 -32 -64 -47.5q-35 -15.5 -70 -15.5q-20 0 -42 5.5q-22 5.5 -40 19q-18 13.5 -29.5 37.5q-11.5 24 -11.5 62q0 55 19.5 104q19.5 49 49.5 81q29 32 64.5 47q35.5 15 70.5 15q22 0 44 -4.5q22 -4.5 39.5 -17.5q17.5 -13 28 -37q10.5 -24 10.5 -64zt0 0zM327 621q0 30 -7 48q-7 18 -17.5 27q-10.5 9 -22.5 11.5q-12 2.5 -22 2.5q-51 0 -87 -53q-20 -26 -33 -65.5q-13 -39.5 -13 -80.5q0 -28 7 -45.5q7 -17.5 17.5 -27q10.5 -9.5 22.5 -13q12 -3.5 22 -3.5q24 0 47 13.5q23 13.5 41 39.5q19 26 32 65.5t13 80.5z" />
<glyph unicode="&#187;" horiz-adv-x="442" d="M190 272l-80 169l25 25l145 -194l-227 -194l-14 29zM343 278l-95 178l32 27l163 -211l-253 -211l-20 27z" />
<glyph unicode="&#188;" horiz-adv-x="725" d="M626 106h45l-9 -45h-46l-22 -103h-61l20 103h-182l9 39l245 287h59zM443 106h120l41 194zM208 -87h-57l369 911h58zM211 367h-62l71 344h-55l5 25q25 2 43 11.5q18 9.5 30 20.5q14 12 24 28l34 0z" />
<glyph unicode="&#189;" horiz-adv-x="725" d="M208 -87h-57l369 911h58zM684 294q0 -33 -13.5 -59q-13.5 -26 -33.5 -47.5q-20 -21.5 -44.5 -40q-24.5 -18.5 -46.5 -35.5q-16 -12 -33.5 -26q-17.5 -14 -33 -27.5q-15.5 -13.5 -28 -26q-12.5 -12.5 -18.5 -22.5l190 0l-11 -53h-243l10 46q20 32 53.5 62.5q33.5 30.5 69.5 62.5q25 23 46 41.5q21 18.5 36 35.5q15 17 23 35q8 18 8 41q0 26 -11.5 44.5q-11.5 18.5 -41.5 18.5q-28 0 -50 -9.5q-22 -9.5 -43 -22.5l-2 40q22 14 50 25q28 11 63 11q58 0 81 -26q23 -26 23 -68zt0 0zM211 367h-62l71 344h-55l5 25q25 2 43 11.5q18 9.5 30 20.5q14 12 24 28l34 0z" />
<glyph unicode="&#190;" horiz-adv-x="725" d="M267 -87h-57l369 911h58zM383 708q0 -26 -8.5 -45q-8.5 -19 -22 -33q-13.5 -14 -30.5 -23.5q-17 -9.5 -34 -15.5l0 -3q37 -14 49 -37.5q12 -23.5 12 -49.5q0 -22 -9 -47.5q-9 -25.5 -30 -47q-21 -21.5 -54 -36q-33 -14.5 -81 -14.5q-36 0 -61.5 8.5q-25.5 8.5 -33.5 13.5l23 38q11 -6 32 -11.5q21 -5.5 47 -5.5q18 0 36.5 5q18.5 5 33 17.5q14.5 12.5 24 32.5q9.5 20 9.5 50q0 32 -15.5 50.5q-15.5 18.5 -53.5 18.5h-37l8 34h40q15 0 32 4q17 4 31 14q14 10 23 28q9 18 9 45q0 27 -12.5 43.5q-12.5 16.5 -39.5 16.5q-22 0 -41.5 -6.5q-19.5 -6.5 -43.5 -22.5l-5 39q17 10 44.5 19.5q27.5 9.5 60.5 9.5q30 0 49 -8q19 -8 30 -20.5q11 -12.5 15 -28.5q4 -16 4 -32zt0 0zM653 106h45l-9 -45h-46l-22 -103h-61l20 103h-182l9 39l245 287h59zM470 106h120l41 194z" />
<glyph unicode="&#191;" horiz-adv-x="434" d="M57 58q0 59 27.5 105q27.5 46 66 84.5q38.5 38.5 80 70.5q41.5 32 69.5 62q17 18 26 41q9 23 13 41l63 0q-4 -14 -14 -43q-10 -29 -28 -54q-28 -38 -64.5 -68.5q-36.5 -30.5 -69 -61.5q-32.5 -31 -55 -67q-22.5 -36 -22.5 -85q0 -42 24 -65q24 -23 74 -23q39 0 75 16q36 16 69 39l2 -64q-34 -21 -77.5 -38.5q-43.5 -17.5 -100.5 -17.5q-44 0 -74.5 10.5q-30.5 10.5 -49 28.5q-18.5 18 -26.5 41q-8 23 -8 48zt0 0zM341 596q0 28 18 45.5q18 17.5 42 17.5q24 0 39 -14q15 -14 15 -37q0 -29 -18 -46q-18 -17 -42 -17q-24 0 -39 13.5t-15 37.5z" />
<glyph unicode="&#192;" horiz-adv-x="550" d="M414 0l-17 240h-228l-127 -240h-85l406 717h77l65 -717zM370 616l-173 -322h196zM292 849l60 49l96 -121l-33 -30z" />
<glyph unicode="&#193;" horiz-adv-x="550" d="M414 0l-17 240h-228l-127 -240h-85l406 717h77l65 -717zM370 616l-173 -322h196zM414 751l-39 18l119 127l75 -40z" />
<glyph unicode="&#194;" horiz-adv-x="550" d="M414 0l-17 240h-228l-127 -240h-85l406 717h77l65 -717zM370 616l-173 -322h196zM521 758l-102 47l-128 -49l-19 30l159 102l115 -104z" />
<glyph unicode="&#195;" horiz-adv-x="550" d="M414 0l-17 240h-228l-127 -240h-85l406 717h77l65 -717zM370 616l-173 -322h196zM590 855q-8 -16 -19.5 -33.5q-11.5 -17.5 -26.5 -32.5q-15 -15 -32.5 -25q-17.5 -10 -36.5 -10q-22 0 -39 9.5q-17 9.5 -40 20.5q-26 14 -41 20.5q-15 6.5 -32 6.5q-16 0 -35.5 -7.5q-19.5 -7.5 -37.5 -36.5l-24 20q8 16 20 31.5q12 15.5 26.5 28q14.5 12.5 32 20.5q17.5 8 36.5 8q22 0 39 -9q17 -9 40 -20q20 -11 36.5 -19.5q16.5 -8.5 36.5 -8.5q19 0 37.5 15q18.5 15 35.5 40z" />
<glyph unicode="&#196;" horiz-adv-x="550" d="M414 0l-17 240h-228l-127 -240h-85l406 717h77l65 -717zM370 616l-173 -322h196zM551 825q0 -32 -18.5 -46.5q-18.5 -14.5 -41.5 -14.5q-26 0 -36.5 14q-10.5 14 -10.5 32q0 24 16 42.5q16 18.5 48 18.5q26 0 34.5 -15q8.5 -15 8.5 -31zt0 0zM397 825q0 -32 -18.5 -46.5q-18.5 -14.5 -41.5 -14.5q-26 0 -36.5 14q-10.5 14 -10.5 32q0 24 16 42.5q16 18.5 48 18.5q26 0 34.5 -15t8.5 -31z" />
<glyph unicode="&#197;" horiz-adv-x="550" d="M414 0l-17 240h-228l-127 -240h-85l406 717h26q-38 5 -64 33.5q-26 28.5 -26 68.5q0 22 8 41q8 19 22 33q14 14 33 22q19 8 40 8q44 0 74 -30q30 -30 30 -74q0 -40 -26 -68.5q-26 -28.5 -65 -33.5l25 0l65 -717zM370 616l-173 -322h196zM348 819q0 -23 15.5 -38.5q15.5 -15.5 38.5 -15.5q23 0 39 15.5q16 15.5 16 38.5q0 23 -16 39q-16 16 -39 16q-23 0 -38.5 -16t-15.5 -39z" />
<glyph unicode="&#198;" horiz-adv-x="824" d="M880 653h-258l-51 -241h213l-13 -60h-213l-61 -288h266l-14 -64h-352l51 240h-181l-172 -240h-94l547 713l1 4h344zM523 595l-215 -301l151 0z" />
<glyph unicode="&#199;" horiz-adv-x="558" d="M558 593q-18 32 -54 50q-36 18 -78 18q-19 0 -40.5 -3.5q-21.5 -3.5 -44.5 -14.5q-23 -11 -48 -32q-25 -21 -50 -55q-18 -24 -34 -56.5q-16 -32.5 -28.5 -70.5q-12.5 -38 -20 -79q-7.5 -41 -7.5 -82q0 -64 14 -105q14 -41 37 -64q23 -23 52 -32q29 -9 58 -9q18 0 39.5 4.5q21.5 4.5 44.5 13q23 8.5 45.5 20.5q22.5 12 40.5 28l16 -55q-47 -41 -93 -59q-46 -18 -92 -23l-12 -36q32 0 52.5 -7.5q20.5 -7.5 32.5 -18.5q12 -11 16.5 -23.5q4.5 -12.5 4.5 -24.5q0 -23 -10 -40.5q-10 -17.5 -26.5 -29.5q-16.5 -12 -37.5 -18.5q-21 -6.5 -44 -6.5q-26 0 -53.5 7.5q-27.5 7.5 -37.5 18.5l20 30q17 -9 31.5 -12q14.5 -3 25.5 -4q7 0 17 1q10 1 19 5.5q9 4.5 15 14q6 9.5 6 25.5q0 13 -6.5 21q-6.5 8 -16.5 12.5q-10 4.5 -22.5 6.5q-12.5 2 -23.5 2h-12l21 75q-38 1 -75.5 14.5q-37.5 13.5 -67.5 43.5q-30 30 -49 78.5q-19 48.5 -19 120.5q0 59 9.5 111q9.5 52 26 96.5q16.5 44.5 38.5 81.5q22 37 47 66q37 43 75.5 68.5q38.5 25.5 72.5 39q34 13.5 62 17q28 3.5 46 3.5q19 0 41.5 -2q22.5 -2 45.5 -9q23 -7 46 -19.5q23 -12.5 42 -34.5z" />
<glyph unicode="&#200;" horiz-adv-x="450" d="M506 653h-258l-51 -241h213l-13 -60h-213l-61 -288h266l-14 -64h-352l152 717h344zM259 849l60 49l96 -121l-33 -30z" />
<glyph unicode="&#201;" horiz-adv-x="450" d="M506 653h-258l-51 -241h213l-13 -60h-213l-61 -288h266l-14 -64h-352l152 717h344zM345 751l-39 18l119 127l75 -40z" />
<glyph unicode="&#202;" horiz-adv-x="450" d="M506 653h-258l-51 -241h213l-13 -60h-213l-61 -288h266l-14 -64h-352l152 717h344zM463 758l-102 47l-128 -49l-19 30l159 102l115 -104z" />
<glyph unicode="&#203;" horiz-adv-x="450" d="M506 653h-258l-51 -241h213l-13 -60h-213l-61 -288h266l-14 -64h-352l152 717h344zM491 825q0 -32 -18.5 -46.5q-18.5 -14.5 -41.5 -14.5q-26 0 -36.5 14q-10.5 14 -10.5 32q0 24 16 42.5q16 18.5 48 18.5q26 0 34.5 -15q8.5 -15 8.5 -31zt0 0zM337 825q0 -32 -18.5 -46.5q-18.5 -14.5 -41.5 -14.5q-26 0 -36.5 14q-10.5 14 -10.5 32q0 24 16 42.5q16 18.5 48 18.5q26 0 34.5 -15t8.5 -31z" />
<glyph unicode="&#204;" horiz-adv-x="218" d="M109 0h-86l152 717h86zM110 849l60 49l96 -121l-33 -30z" />
<glyph unicode="&#205;" horiz-adv-x="218" d="M109 0h-86l152 717h86zM237 751l-39 18l119 127l75 -40z" />
<glyph unicode="&#206;" horiz-adv-x="218" d="M109 0h-86l152 717h86zM348 758l-102 47l-128 -49l-19 30l159 102l115 -104z" />
<glyph unicode="&#207;" horiz-adv-x="218" d="M109 0h-86l152 717h86zM352 824q0 -32 -17.5 -46.5q-17.5 -14.5 -38.5 -14.5q-24 0 -34 14q-10 14 -10 32q0 24 15 42.5q15 18.5 45 18.5q25 0 32.5 -15q7.5 -15 7.5 -31zt0 0zM225 824q0 -32 -17.5 -46.5q-17.5 -14.5 -38.5 -14.5q-24 0 -34 14q-10 14 -10 32q0 24 15.5 42.5q15.5 18.5 44.5 18.5q25 0 32.5 -15t7.5 -31z" />
<glyph unicode="&#208;" horiz-adv-x="606" d="M608 468q0 -101 -29.5 -177q-29.5 -76 -74.5 -135q-33 -44 -73 -74q-40 -30 -84 -48q-44 -18 -91.5 -26q-47.5 -8 -95.5 -8h-137l72 336h-74l13 63h74l66 307q26 5 67.5 9.5q41.5 4.5 93.5 4.5q19 0 47 -3q28 -3 58.5 -11.5q30.5 -8.5 60.5 -25.5q30 -17 53.5 -45q23.5 -28 38.5 -69q15 -41 15 -98zt0 0zM181 336l-58 -272h54q89 0 155.5 34.5q66.5 34.5 110.5 97.5q35 50 55 117.5q20 67.5 20 149.5q0 48 -12.5 81q-12.5 33 -32 54.5q-19.5 21.5 -43 33.5q-23.5 12 -45 17.5q-21.5 5.5 -39.5 6.5q-18 1 -25 1q-23 0 -42.5 -2q-19.5 -2 -30.5 -4l-54 -252h75l-13 -63z" />
<glyph unicode="&#209;" horiz-adv-x="593" d="M418 0l-205 576l-122 -576h-68l152 717h80l193 -546l116 546h67l-152 -717zM610 855q-8 -16 -19.5 -33.5q-11.5 -17.5 -26.5 -32.5q-15 -15 -32.5 -25q-17.5 -10 -36.5 -10q-22 0 -39 9.5q-17 9.5 -40 20.5q-26 14 -41 20.5q-15 6.5 -32 6.5q-16 0 -35.5 -7.5q-19.5 -7.5 -37.5 -36.5l-24 20q8 16 20 31.5q12 15.5 26.5 28q14.5 12.5 32 20.5q17.5 8 36.5 8q22 0 39 -9q17 -9 40 -20q20 -11 36.5 -19.5q16.5 -8.5 36.5 -8.5q19 0 37.5 15q18.5 15 35.5 40z" />
<glyph unicode="&#210;" horiz-adv-x="659" d="M659 484q0 -43 -7 -88q-7 -45 -20.5 -88.5q-13.5 -43.5 -32 -84q-18.5 -40.5 -41.5 -74.5q-54 -81 -122.5 -122.5q-68.5 -41.5 -156.5 -41.5q-38 0 -76 11.5q-38 11.5 -69 40q-31 28.5 -50.5 77q-19.5 48.5 -19.5 122.5q0 87 27.5 171.5q27.5 84.5 73.5 153.5q54 81 126 122.5q72 41.5 157 41.5q33 0 70 -9q37 -9 68.5 -35.5q31.5 -26.5 52 -73.5q20.5 -47 20.5 -123zt0 0zM569 484q0 55 -13 90q-13 35 -33.5 54.5q-20.5 19.5 -45.5 26.5q-25 7 -50 7q-60 0 -109 -32.5q-49 -32.5 -91 -101.5q-13 -21 -26 -51.5q-13 -30.5 -23.5 -68q-10.5 -37.5 -17 -81q-6.5 -43.5 -6.5 -91.5q0 -55 13.5 -91.5q13.5 -36.5 34.5 -58q21 -21.5 46 -30.5q25 -9 48 -9q118 0 200 135q13 21 26 53.5q13 32.5 23.5 72q10.5 39.5 17 84.5q6.5 45 6.5 92zt0 0zM361 849l60 49l96 -121l-33 -30z" />
<glyph unicode="&#211;" horiz-adv-x="659" d="M659 484q0 -43 -7 -88q-7 -45 -20.5 -88.5q-13.5 -43.5 -32 -84q-18.5 -40.5 -41.5 -74.5q-54 -81 -122.5 -122.5q-68.5 -41.5 -156.5 -41.5q-38 0 -76 11.5q-38 11.5 -69 40q-31 28.5 -50.5 77q-19.5 48.5 -19.5 122.5q0 87 27.5 171.5q27.5 84.5 73.5 153.5q54 81 126 122.5q72 41.5 157 41.5q33 0 70 -9q37 -9 68.5 -35.5q31.5 -26.5 52 -73.5q20.5 -47 20.5 -123zt0 0zM569 484q0 55 -13 90q-13 35 -33.5 54.5q-20.5 19.5 -45.5 26.5q-25 7 -50 7q-60 0 -109 -32.5q-49 -32.5 -91 -101.5q-13 -21 -26 -51.5q-13 -30.5 -23.5 -68q-10.5 -37.5 -17 -81q-6.5 -43.5 -6.5 -91.5q0 -55 13.5 -91.5q13.5 -36.5 34.5 -58q21 -21.5 46 -30.5q25 -9 48 -9q118 0 200 135q13 21 26 53.5q13 32.5 23.5 72q10.5 39.5 17 84.5q6.5 45 6.5 92zt0 0zM415 751l-39 18l119 127l75 -40z" />
<glyph unicode="&#212;" horiz-adv-x="659" d="M659 484q0 -43 -7 -88q-7 -45 -20.5 -88.5q-13.5 -43.5 -32 -84q-18.5 -40.5 -41.5 -74.5q-54 -81 -122.5 -122.5q-68.5 -41.5 -156.5 -41.5q-38 0 -76 11.5q-38 11.5 -69 40q-31 28.5 -50.5 77q-19.5 48.5 -19.5 122.5q0 87 27.5 171.5q27.5 84.5 73.5 153.5q54 81 126 122.5q72 41.5 157 41.5q33 0 70 -9q37 -9 68.5 -35.5q31.5 -26.5 52 -73.5q20.5 -47 20.5 -123zt0 0zM569 484q0 55 -13 90q-13 35 -33.5 54.5q-20.5 19.5 -45.5 26.5q-25 7 -50 7q-60 0 -109 -32.5q-49 -32.5 -91 -101.5q-13 -21 -26 -51.5q-13 -30.5 -23.5 -68q-10.5 -37.5 -17 -81q-6.5 -43.5 -6.5 -91.5q0 -55 13.5 -91.5q13.5 -36.5 34.5 -58q21 -21.5 46 -30.5q25 -9 48 -9q118 0 200 135q13 21 26 53.5q13 32.5 23.5 72q10.5 39.5 17 84.5q6.5 45 6.5 92zt0 0zM583 758l-102 47l-128 -49l-19 30l159 102l115 -104z" />
<glyph unicode="&#213;" horiz-adv-x="659" d="M659 484q0 -43 -7 -88q-7 -45 -20.5 -88.5q-13.5 -43.5 -32 -84q-18.5 -40.5 -41.5 -74.5q-54 -81 -122.5 -122.5q-68.5 -41.5 -156.5 -41.5q-38 0 -76 11.5q-38 11.5 -69 40q-31 28.5 -50.5 77q-19.5 48.5 -19.5 122.5q0 87 27.5 171.5q27.5 84.5 73.5 153.5q54 81 126 122.5q72 41.5 157 41.5q33 0 70 -9q37 -9 68.5 -35.5q31.5 -26.5 52 -73.5q20.5 -47 20.5 -123zt0 0zM569 484q0 55 -13 90q-13 35 -33.5 54.5q-20.5 19.5 -45.5 26.5q-25 7 -50 7q-60 0 -109 -32.5q-49 -32.5 -91 -101.5q-13 -21 -26 -51.5q-13 -30.5 -23.5 -68q-10.5 -37.5 -17 -81q-6.5 -43.5 -6.5 -91.5q0 -55 13.5 -91.5q13.5 -36.5 34.5 -58q21 -21.5 46 -30.5q25 -9 48 -9q118 0 200 135q13 21 26 53.5q13 32.5 23.5 72q10.5 39.5 17 84.5q6.5 45 6.5 92zt0 0zM672 855q-8 -16 -19.5 -33.5q-11.5 -17.5 -26.5 -32.5q-15 -15 -32.5 -25q-17.5 -10 -36.5 -10q-22 0 -39 9.5q-17 9.5 -40 20.5q-26 14 -41 20.5q-15 6.5 -32 6.5q-16 0 -35.5 -7.5q-19.5 -7.5 -37.5 -36.5l-24 20q8 16 20 31.5q12 15.5 26.5 28q14.5 12.5 32 20.5q17.5 8 36.5 8q22 0 39 -9q17 -9 40 -20q20 -11 36.5 -19.5q16.5 -8.5 36.5 -8.5q19 0 37.5 15q18.5 15 35.5 40z" />
<glyph unicode="&#214;" horiz-adv-x="659" d="M659 484q0 -43 -7 -88q-7 -45 -20.5 -88.5q-13.5 -43.5 -32 -84q-18.5 -40.5 -41.5 -74.5q-54 -81 -122.5 -122.5q-68.5 -41.5 -156.5 -41.5q-38 0 -76 11.5q-38 11.5 -69 40q-31 28.5 -50.5 77q-19.5 48.5 -19.5 122.5q0 87 27.5 171.5q27.5 84.5 73.5 153.5q54 81 126 122.5q72 41.5 157 41.5q33 0 70 -9q37 -9 68.5 -35.5q31.5 -26.5 52 -73.5q20.5 -47 20.5 -123zt0 0zM569 484q0 55 -13 90q-13 35 -33.5 54.5q-20.5 19.5 -45.5 26.5q-25 7 -50 7q-60 0 -109 -32.5q-49 -32.5 -91 -101.5q-13 -21 -26 -51.5q-13 -30.5 -23.5 -68q-10.5 -37.5 -17 -81q-6.5 -43.5 -6.5 -91.5q0 -55 13.5 -91.5q13.5 -36.5 34.5 -58q21 -21.5 46 -30.5q25 -9 48 -9q118 0 200 135q13 21 26 53.5q13 32.5 23.5 72q10.5 39.5 17 84.5q6.5 45 6.5 92zt0 0zM604 825q0 -32 -18.5 -46.5q-18.5 -14.5 -41.5 -14.5q-26 0 -36.5 14q-10.5 14 -10.5 32q0 24 16 42.5q16 18.5 48 18.5q26 0 34.5 -15q8.5 -15 8.5 -31zt0 0zM450 825q0 -32 -18.5 -46.5q-18.5 -14.5 -41.5 -14.5q-26 0 -36.5 14q-10.5 14 -10.5 32q0 24 16 42.5q16 18.5 48 18.5q26 0 34.5 -15t8.5 -31z" />
<glyph unicode="&#215;" horiz-adv-x="563" d="M309 256l-146 -145l-40 39l146 146l-146 146l38 37l146 -145l146 145l39 -38l-146 -147l146 -146l-38 -37z" />
<glyph unicode="&#216;" horiz-adv-x="659" d="M202 -96h-58l41 99q-25 11 -47 29.5q-22 18.5 -38.5 47q-16.5 28.5 -26 67q-9.5 38.5 -9.5 89.5q0 87 27.5 171.5q27.5 84.5 73.5 153.5q54 81 126 122.5q72 41.5 157 41.5q8 0 16.5 -0.5q8.5 -0.5 16.5 -1.5l35 83h59l-40 -96q24 -9 46.5 -26q22.5 -17 40 -44q17.5 -27 27.5 -65.5q10 -38.5 10 -90.5q0 -43 -7 -88q-7 -45 -20.5 -88.5q-13.5 -43.5 -32 -84q-18.5 -40.5 -41.5 -74.5q-54 -81 -122.5 -122.5q-68.5 -41.5 -156.5 -41.5q-23 0 -42 4zM569 484q0 66 -18 102.5q-18 36.5 -45 53.5l-243 -589q15 -4 33 -4q118 0 200 135q13 21 26 53.5q13 32.5 23.5 72q10.5 39.5 17 84.5q6.5 45 6.5 92zt0 0zM427 662q-60 0 -109 -32.5q-49 -32.5 -91 -101.5q-13 -21 -26 -51.5q-13 -30.5 -23.5 -68q-10.5 -37.5 -17 -81q-6.5 -43.5 -6.5 -91.5q0 -63 17 -102q17 -39 43 -59l241 585q-7 1 -14 1.5t-14 0.5z" />
<glyph unicode="&#217;" horiz-adv-x="578" d="M518 221q-26 -122 -96 -179q-70 -57 -180 -57q-62 0 -101 14.5q-39 14.5 -59 43q-20 28.5 -23 70.5q-3 42 9 97l107 507h86l-107 -507q-6 -26 -7 -55q-1 -29 8.5 -53q9.5 -24 32.5 -40q23 -16 67 -16q49 0 82 15.5q33 15.5 55 39.5q22 24 33.5 53q11.5 29 17.5 56l107 507h73zM309 849l60 49l96 -121l-33 -30z" />
<glyph unicode="&#218;" horiz-adv-x="578" d="M518 221q-26 -122 -96 -179q-70 -57 -180 -57q-62 0 -101 14.5q-39 14.5 -59 43q-20 28.5 -23 70.5q-3 42 9 97l107 507h86l-107 -507q-6 -26 -7 -55q-1 -29 8.5 -53q9.5 -24 32.5 -40q23 -16 67 -16q49 0 82 15.5q33 15.5 55 39.5q22 24 33.5 53q11.5 29 17.5 56l107 507h73zM416 751l-39 18l119 127l75 -40z" />
<glyph unicode="&#219;" horiz-adv-x="578" d="M518 221q-26 -122 -96 -179q-70 -57 -180 -57q-62 0 -101 14.5q-39 14.5 -59 43q-20 28.5 -23 70.5q-3 42 9 97l107 507h86l-107 -507q-6 -26 -7 -55q-1 -29 8.5 -53q9.5 -24 32.5 -40q23 -16 67 -16q49 0 82 15.5q33 15.5 55 39.5q22 24 33.5 53q11.5 29 17.5 56l107 507h73zM529 758l-102 47l-128 -49l-19 30l159 102l115 -104z" />
<glyph unicode="&#220;" horiz-adv-x="578" d="M518 221q-26 -122 -96 -179q-70 -57 -180 -57q-62 0 -101 14.5q-39 14.5 -59 43q-20 28.5 -23 70.5q-3 42 9 97l107 507h86l-107 -507q-6 -26 -7 -55q-1 -29 8.5 -53q9.5 -24 32.5 -40q23 -16 67 -16q49 0 82 15.5q33 15.5 55 39.5q22 24 33.5 53q11.5 29 17.5 56l107 507h73zM548 825q0 -32 -18.5 -46.5q-18.5 -14.5 -41.5 -14.5q-26 0 -36.5 14q-10.5 14 -10.5 32q0 24 16 42.5q16 18.5 48 18.5q26 0 34.5 -15q8.5 -15 8.5 -31zt0 0zM394 825q0 -32 -18.5 -46.5q-18.5 -14.5 -41.5 -14.5q-26 0 -36.5 14q-10.5 14 -10.5 32q0 24 16 42.5q16 18.5 48 18.5q26 0 34.5 -15t8.5 -31z" />
<glyph unicode="&#221;" horiz-adv-x="483" d="M294 249l-53 -249h-86l53 249l-96 468h89l73 -397l228 397h84zM345 751l-39 18l119 127l75 -40z" />
<glyph unicode="&#222;" horiz-adv-x="512" d="M433 404q0 51 -32.5 81.5q-32.5 30.5 -99.5 30.5q-16 0 -31 -1q-15 -1 -26 -3q-14 -2 -26 -4l-57 -267q14 -3 29 -5q28 -5 57 -5q96 0 141 47.5q45 47.5 45 125.5zt0 0zM232 570q20 5 42 6.5q22 1.5 41 1.5q59 0 99 -13.5q40 -13.5 64 -36q24 -22.5 34.5 -53q10.5 -30.5 10.5 -64.5q0 -42 -15.5 -85q-15.5 -43 -49.5 -77.5q-34 -34.5 -88 -56.5q-54 -22 -131 -22q-17 0 -33 1q-16 1 -29 3q-15 2 -29 5l-39 -179h-86l152 717l86 0z" />
<glyph unicode="&#223;" horiz-adv-x="470" d="M140 528q20 95 77.5 146q57.5 51 143.5 51q30 0 55.5 -9q25.5 -9 44 -25q18.5 -16 29 -38q10.5 -22 10.5 -48q0 -39 -12.5 -72q-12.5 -33 -34.5 -58.5q-22 -25.5 -52 -43.5q-30 -18 -64 -29l-2 -7q25 -3 47 -12.5q22 -9.5 38 -26q16 -16.5 25.5 -40q9.5 -23.5 9.5 -54.5q0 -57 -15 -107q-15 -50 -43.5 -87q-28.5 -37 -69 -58.5q-40.5 -21.5 -90.5 -21.5q-42 0 -66.5 13.5q-24.5 13.5 -31.5 21.5l36 44q9 -10 24.5 -18q15.5 -8 34.5 -8q31 0 55.5 16q24.5 16 42 44.5q17.5 28.5 27 66.5q9.5 38 9.5 82q0 39 -15 62q-15 23 -36.5 35.5q-21.5 12.5 -45 17q-23.5 4.5 -39.5 4.5l9 36q34 6 64.5 21q30.5 15 54 37.5q23.5 22.5 37.5 53q14 30.5 14 68.5q0 43 -17.5 62q-17.5 19 -52.5 19q-26 0 -45.5 -9.5q-19.5 -9.5 -33.5 -26.5q-14 -17 -23 -39.5q-9 -22.5 -15 -47.5l-116 -543l-80 0z" />
<glyph unicode="&#224;" horiz-adv-x="531" d="M457 152q-8 -33 -12 -56.5q-4 -23.5 -5.5 -40q-1.5 -16.5 -2 -28.5q-0.5 -12 -0.5 -23v-4h-72v4q1 26 2 51q1 25 3 42l-5 0q-42 -61 -84.5 -84q-42.5 -23 -89.5 -23q-23 0 -46 8.5q-23 8.5 -42 28q-19 19.5 -31 51.5q-12 32 -12 80q0 78 28 148.5q28 70.5 76 116.5q38 38 83.5 57.5q45.5 19.5 90.5 19.5q26 0 44.5 -3.5q18.5 -3.5 31.5 -9.5q13 -6 21.5 -13q8.5 -7 14.5 -14l29 31h56zM421 379q0 10 -3.5 21.5q-3.5 11.5 -12.5 21.5q-9 10 -25 16.5q-16 6.5 -42 6.5q-38 0 -68.5 -15.5q-30.5 -15.5 -59.5 -55.5q-12 -16 -23.5 -39q-11.5 -23 -20 -49.5q-8.5 -26.5 -13.5 -56q-5 -29.5 -5 -57.5q0 -38 9.5 -60q9.5 -22 23 -33q13.5 -11 28.5 -14q15 -3 26 -3q27 0 52.5 15.5q25.5 15.5 47.5 43.5q22 28 39 65.5q17 37.5 27 82.5l15 70q5 22 5 40zt0 0zM282 634l60 49l96 -121l-33 -30z" />
<glyph unicode="&#225;" horiz-adv-x="531" d="M457 152q-8 -33 -12 -56.5q-4 -23.5 -5.5 -40q-1.5 -16.5 -2 -28.5q-0.5 -12 -0.5 -23v-4h-72v4q1 26 2 51q1 25 3 42l-5 0q-42 -61 -84.5 -84q-42.5 -23 -89.5 -23q-23 0 -46 8.5q-23 8.5 -42 28q-19 19.5 -31 51.5q-12 32 -12 80q0 78 28 148.5q28 70.5 76 116.5q38 38 83.5 57.5q45.5 19.5 90.5 19.5q26 0 44.5 -3.5q18.5 -3.5 31.5 -9.5q13 -6 21.5 -13q8.5 -7 14.5 -14l29 31h56zM421 379q0 10 -3.5 21.5q-3.5 11.5 -12.5 21.5q-9 10 -25 16.5q-16 6.5 -42 6.5q-38 0 -68.5 -15.5q-30.5 -15.5 -59.5 -55.5q-12 -16 -23.5 -39q-11.5 -23 -20 -49.5q-8.5 -26.5 -13.5 -56q-5 -29.5 -5 -57.5q0 -38 9.5 -60q9.5 -22 23 -33q13.5 -11 28.5 -14q15 -3 26 -3q27 0 52.5 15.5q25.5 15.5 47.5 43.5q22 28 39 65.5q17 37.5 27 82.5l15 70q5 22 5 40zt0 0zM378 537l-39 18l119 127l75 -40z" />
<glyph unicode="&#226;" horiz-adv-x="531" d="M457 152q-8 -33 -12 -56.5q-4 -23.5 -5.5 -40q-1.5 -16.5 -2 -28.5q-0.5 -12 -0.5 -23v-4h-72v4q1 26 2 51q1 25 3 42l-5 0q-42 -61 -84.5 -84q-42.5 -23 -89.5 -23q-23 0 -46 8.5q-23 8.5 -42 28q-19 19.5 -31 51.5q-12 32 -12 80q0 78 28 148.5q28 70.5 76 116.5q38 38 83.5 57.5q45.5 19.5 90.5 19.5q26 0 44.5 -3.5q18.5 -3.5 31.5 -9.5q13 -6 21.5 -13q8.5 -7 14.5 -14l29 31h56zM421 379q0 10 -3.5 21.5q-3.5 11.5 -12.5 21.5q-9 10 -25 16.5q-16 6.5 -42 6.5q-38 0 -68.5 -15.5q-30.5 -15.5 -59.5 -55.5q-12 -16 -23.5 -39q-11.5 -23 -20 -49.5q-8.5 -26.5 -13.5 -56q-5 -29.5 -5 -57.5q0 -38 9.5 -60q9.5 -22 23 -33q13.5 -11 28.5 -14q15 -3 26 -3q27 0 52.5 15.5q25.5 15.5 47.5 43.5q22 28 39 65.5q17 37.5 27 82.5l15 70q5 22 5 40zt0 0zM507 544l-102 47l-128 -49l-19 30l159 102l115 -104z" />
<glyph unicode="&#227;" horiz-adv-x="531" d="M457 152q-8 -33 -12 -56.5q-4 -23.5 -5.5 -40q-1.5 -16.5 -2 -28.5q-0.5 -12 -0.5 -23v-4h-72v4q1 26 2 51q1 25 3 42l-5 0q-42 -61 -84.5 -84q-42.5 -23 -89.5 -23q-23 0 -46 8.5q-23 8.5 -42 28q-19 19.5 -31 51.5q-12 32 -12 80q0 78 28 148.5q28 70.5 76 116.5q38 38 83.5 57.5q45.5 19.5 90.5 19.5q26 0 44.5 -3.5q18.5 -3.5 31.5 -9.5q13 -6 21.5 -13q8.5 -7 14.5 -14l29 31h56zM421 379q0 10 -3.5 21.5q-3.5 11.5 -12.5 21.5q-9 10 -25 16.5q-16 6.5 -42 6.5q-38 0 -68.5 -15.5q-30.5 -15.5 -59.5 -55.5q-12 -16 -23.5 -39q-11.5 -23 -20 -49.5q-8.5 -26.5 -13.5 -56q-5 -29.5 -5 -57.5q0 -38 9.5 -60q9.5 -22 23 -33q13.5 -11 28.5 -14q15 -3 26 -3q27 0 52.5 15.5q25.5 15.5 47.5 43.5q22 28 39 65.5q17 37.5 27 82.5l15 70q5 22 5 40zt0 0zM585 647q-8 -16 -19.5 -33.5q-11.5 -17.5 -26.5 -32.5q-15 -15 -32.5 -25q-17.5 -10 -36.5 -10q-22 0 -39 9.5q-17 9.5 -40 20.5q-26 14 -41 20.5q-15 6.5 -32 6.5q-16 0 -35.5 -7.5q-19.5 -7.5 -37.5 -36.5l-24 20q8 16 20 31.5q12 15.5 26.5 28q14.5 12.5 32 20.5q17.5 8 36.5 8q22 0 39 -9q17 -9 40 -20q20 -11 36.5 -19.5q16.5 -8.5 36.5 -8.5q19 0 37.5 15q18.5 15 35.5 40z" />
<glyph unicode="&#228;" horiz-adv-x="531" d="M457 152q-8 -33 -12 -56.5q-4 -23.5 -5.5 -40q-1.5 -16.5 -2 -28.5q-0.5 -12 -0.5 -23v-4h-72v4q1 26 2 51q1 25 3 42l-5 0q-42 -61 -84.5 -84q-42.5 -23 -89.5 -23q-23 0 -46 8.5q-23 8.5 -42 28q-19 19.5 -31 51.5q-12 32 -12 80q0 78 28 148.5q28 70.5 76 116.5q38 38 83.5 57.5q45.5 19.5 90.5 19.5q26 0 44.5 -3.5q18.5 -3.5 31.5 -9.5q13 -6 21.5 -13q8.5 -7 14.5 -14l29 31h56zM421 379q0 10 -3.5 21.5q-3.5 11.5 -12.5 21.5q-9 10 -25 16.5q-16 6.5 -42 6.5q-38 0 -68.5 -15.5q-30.5 -15.5 -59.5 -55.5q-12 -16 -23.5 -39q-11.5 -23 -20 -49.5q-8.5 -26.5 -13.5 -56q-5 -29.5 -5 -57.5q0 -38 9.5 -60q9.5 -22 23 -33q13.5 -11 28.5 -14q15 -3 26 -3q27 0 52.5 15.5q25.5 15.5 47.5 43.5q22 28 39 65.5q17 37.5 27 82.5l15 70q5 22 5 40zt0 0zM524 620q0 -32 -18.5 -46.5q-18.5 -14.5 -41.5 -14.5q-26 0 -36.5 14q-10.5 14 -10.5 32q0 24 16 42.5q16 18.5 48 18.5q26 0 34.5 -15q8.5 -15 8.5 -31zt0 0zM370 620q0 -32 -18.5 -46.5q-18.5 -14.5 -41.5 -14.5q-26 0 -36.5 14q-10.5 14 -10.5 32q0 24 16 42.5q16 18.5 48 18.5q26 0 34.5 -15t8.5 -31z" />
<glyph unicode="&#229;" horiz-adv-x="531" d="M457 152q-8 -33 -12 -56.5q-4 -23.5 -5.5 -40q-1.5 -16.5 -2 -28.5q-0.5 -12 -0.5 -23v-4h-72v4q1 26 2 51q1 25 3 42l-5 0q-42 -61 -84.5 -84q-42.5 -23 -89.5 -23q-23 0 -46 8.5q-23 8.5 -42 28q-19 19.5 -31 51.5q-12 32 -12 80q0 78 28 148.5q28 70.5 76 116.5q38 38 83.5 57.5q45.5 19.5 90.5 19.5q26 0 44.5 -3.5q18.5 -3.5 31.5 -9.5q13 -6 21.5 -13q8.5 -7 14.5 -14l29 31h56zM421 379q0 10 -3.5 21.5q-3.5 11.5 -12.5 21.5q-9 10 -25 16.5q-16 6.5 -42 6.5q-38 0 -68.5 -15.5q-30.5 -15.5 -59.5 -55.5q-12 -16 -23.5 -39q-11.5 -23 -20 -49.5q-8.5 -26.5 -13.5 -56q-5 -29.5 -5 -57.5q0 -38 9.5 -60q9.5 -22 23 -33q13.5 -11 28.5 -14q15 -3 26 -3q27 0 52.5 15.5q25.5 15.5 47.5 43.5q22 28 39 65.5q17 37.5 27 82.5l15 70q5 22 5 40zt0 0zM289 650q0 22 8 41q8 19 22 33q14 14 33 22q19 8 40 8q44 0 74 -30q30 -30 30 -74q0 -21 -8 -40q-8 -19 -22 -33q-14 -14 -33 -22q-19 -8 -41 -8q-21 0 -40 8q-19 8 -33 22q-14 14 -22 33q-8 19 -8 40zt0 0zM338 650q0 -23 15.5 -38.5q15.5 -15.5 38.5 -15.5q23 0 39 15.5q16 15.5 16 38.5q0 23 -16 39q-16 16 -39 16q-23 0 -38.5 -16t-15.5 -39z" />
<glyph unicode="&#230;" horiz-adv-x="733" d="M753 390q0 -64 -44 -95q-44 -31 -124 -36l-153 -10q-3 -9 -5 -19q-2 -8 -3 -18q-1 -10 -1 -21q0 -43 9 -69q9 -26 24 -40.5q15 -14.5 33.5 -19.5q18.5 -5 36.5 -5q23 0 57 12q34 12 85 50l18 -53q-32 -22 -56.5 -36.5q-24.5 -14.5 -47.5 -23.5q-23 -9 -46 -12.5q-23 -3.5 -51 -3.5q-48 0 -86.5 26.5q-38.5 26.5 -53.5 83.5q-26 -36 -51 -58q-25 -22 -49.5 -33.5q-24.5 -11.5 -49 -15q-24.5 -3.5 -49.5 -3.5q-24 0 -46 8.5q-22 8.5 -39 24q-17 15.5 -27 38q-10 22.5 -10 50.5q0 62 25 99q25 37 61 57q36 20 75.5 27q39.5 7 67.5 8l97 4q2 13 4 32.5q2 19.5 2 33.5q0 21 -6.5 34.5q-6.5 13.5 -17 21q-10.5 7.5 -24 10q-13.5 2.5 -26.5 2.5q-48 0 -84 -22.5q-36 -22.5 -67 -48.5l-28 63q13 11 34 23q21 12 47 22q26 10 56.5 16.5q30.5 6.5 63.5 6.5q20 0 39 -4.5q19 -4.5 35.5 -15.5q16.5 -11 29.5 -28.5q13 -17.5 20 -42.5q22 25 46 42.5q24 17.5 47.5 28.5q23.5 11 44.5 15.5q21 4.5 38 4.5q48 0 77.5 -11q29.5 -11 45.5 -27.5q16 -16.5 21 -36q5 -19.5 5 -35.5zt0 0zM342 255l-76 -3q-23 -1 -50 -7q-27 -6 -50 -19.5q-23 -13.5 -38 -36q-15 -22.5 -15 -56.5q0 -40 21 -59.5q21 -19.5 55 -19.5q32 0 57 13.5q25 13.5 43 35.5q18 22 29.5 49q11.5 27 15.5 53zM668 390q0 18 -15.5 34.5q-15.5 16.5 -60.5 16.5q-12 0 -30 -4.5q-18 -4.5 -38.5 -19q-20.5 -14.5 -41 -42.5q-20.5 -28 -36.5 -75l120 9q19 1 37.5 5.5q18.5 4.5 32.5 13.5q14 9 23 24t9 38z" />
<glyph unicode="&#231;" horiz-adv-x="435" d="M428 382q-17 23 -44 41q-27 18 -59 18q-12 0 -26 -1q-14 -1 -30 -7q-16 -6 -32.5 -18q-16.5 -12 -33.5 -33q-25 -32 -43.5 -81q-18.5 -49 -18.5 -113q0 -36 8.5 -61q8.5 -25 22.5 -40.5q14 -15.5 33 -22.5q19 -7 39 -7q23 0 57 12q34 12 85 50l18 -53q-28 -20 -51 -33.5q-23 -13.5 -43.5 -22q-20.5 -8.5 -40.5 -13.5q-20 -5 -42 -6l-8 -26q32 0 52.5 -7.5q20.5 -7.5 32.5 -18.5q12 -11 16.5 -23.5q4.5 -12.5 4.5 -24.5q0 -23 -10 -40.5q-10 -17.5 -26.5 -29.5q-16.5 -12 -37.5 -18.5q-21 -6.5 -44 -6.5q-26 0 -53.5 7.5q-27.5 7.5 -37.5 18.5l20 30q17 -9 31.5 -12.5q14.5 -3.5 25.5 -3.5q7 0 17 1q10 1 19 5.5q9 4.5 15 14q6 9.5 6 25.5q0 13 -6.5 21q-6.5 8 -16.5 12.5q-10 4.5 -22.5 6.5q-12.5 2 -23.5 2h-12l19 67q-27 2 -51.5 14q-24.5 12 -42.5 34.5q-18 22.5 -28.5 55.5q-10.5 33 -10.5 77q0 46 7.5 83.5q7.5 37.5 20.5 68q13 30.5 30.5 55.5q17.5 25 37.5 46q23 24 48.5 39q25.5 15 50 23q24.5 8 46 10.5q21.5 2.5 36.5 2.5q34 0 69.5 -8q35.5 -8 65.5 -37z" />
<glyph unicode="&#232;" horiz-adv-x="458" d="M478 390q0 -64 -44 -95q-44 -31 -124 -36l-153 -10q-3 -9 -5 -19q-2 -8 -3 -18q-1 -10 -1 -21q0 -43 9 -69q9 -26 24 -40.5q15 -14.5 33.5 -19.5q18.5 -5 36.5 -5q23 0 57 12q34 12 85 50l18 -53q-32 -22 -56.5 -36.5q-24.5 -14.5 -47.5 -23.5q-23 -9 -46 -12.5q-23 -3.5 -51 -3.5q-30 0 -56.5 10.5q-26.5 10.5 -47 32q-20.5 21.5 -32.5 54.5q-12 33 -12 78q0 61 14 109.5q14 48.5 36.5 85.5q22.5 37 51.5 63.5q29 26.5 58.5 43.5q29.5 17 57.5 25q28 8 49 8q48 0 77.5 -11q29.5 -11 45.5 -27.5q16 -16.5 21 -36q5 -19.5 5 -35.5zt0 0zM393 390q0 18 -15.5 34.5q-15.5 16.5 -60.5 16.5q-12 0 -30 -4.5q-18 -4.5 -38.5 -19q-20.5 -14.5 -41 -42.5q-20.5 -28 -36.5 -75l120 9q19 1 37.5 5.5q18.5 4.5 32.5 13.5q14 9 23 24q9 15 9 38zt0 0zM239 634l60 49l96 -121l-33 -30z" />
<glyph unicode="&#233;" horiz-adv-x="458" d="M478 390q0 -64 -44 -95q-44 -31 -124 -36l-153 -10q-3 -9 -5 -19q-2 -8 -3 -18q-1 -10 -1 -21q0 -43 9 -69q9 -26 24 -40.5q15 -14.5 33.5 -19.5q18.5 -5 36.5 -5q23 0 57 12q34 12 85 50l18 -53q-32 -22 -56.5 -36.5q-24.5 -14.5 -47.5 -23.5q-23 -9 -46 -12.5q-23 -3.5 -51 -3.5q-30 0 -56.5 10.5q-26.5 10.5 -47 32q-20.5 21.5 -32.5 54.5q-12 33 -12 78q0 61 14 109.5q14 48.5 36.5 85.5q22.5 37 51.5 63.5q29 26.5 58.5 43.5q29.5 17 57.5 25q28 8 49 8q48 0 77.5 -11q29.5 -11 45.5 -27.5q16 -16.5 21 -36q5 -19.5 5 -35.5zt0 0zM393 390q0 18 -15.5 34.5q-15.5 16.5 -60.5 16.5q-12 0 -30 -4.5q-18 -4.5 -38.5 -19q-20.5 -14.5 -41 -42.5q-20.5 -28 -36.5 -75l120 9q19 1 37.5 5.5q18.5 4.5 32.5 13.5q14 9 23 24q9 15 9 38zt0 0zM314 537l-39 18l119 127l75 -40z" />
<glyph unicode="&#234;" horiz-adv-x="458" d="M478 390q0 -64 -44 -95q-44 -31 -124 -36l-153 -10q-3 -9 -5 -19q-2 -8 -3 -18q-1 -10 -1 -21q0 -43 9 -69q9 -26 24 -40.5q15 -14.5 33.5 -19.5q18.5 -5 36.5 -5q23 0 57 12q34 12 85 50l18 -53q-32 -22 -56.5 -36.5q-24.5 -14.5 -47.5 -23.5q-23 -9 -46 -12.5q-23 -3.5 -51 -3.5q-30 0 -56.5 10.5q-26.5 10.5 -47 32q-20.5 21.5 -32.5 54.5q-12 33 -12 78q0 61 14 109.5q14 48.5 36.5 85.5q22.5 37 51.5 63.5q29 26.5 58.5 43.5q29.5 17 57.5 25q28 8 49 8q48 0 77.5 -11q29.5 -11 45.5 -27.5q16 -16.5 21 -36q5 -19.5 5 -35.5zt0 0zM393 390q0 18 -15.5 34.5q-15.5 16.5 -60.5 16.5q-12 0 -30 -4.5q-18 -4.5 -38.5 -19q-20.5 -14.5 -41 -42.5q-20.5 -28 -36.5 -75l120 9q19 1 37.5 5.5q18.5 4.5 32.5 13.5q14 9 23 24q9 15 9 38zt0 0zM452 544l-102 47l-128 -49l-19 30l159 102l115 -104z" />
<glyph unicode="&#235;" horiz-adv-x="458" d="M478 390q0 -64 -44 -95q-44 -31 -124 -36l-153 -10q-3 -9 -5 -19q-2 -8 -3 -18q-1 -10 -1 -21q0 -43 9 -69q9 -26 24 -40.5q15 -14.5 33.5 -19.5q18.5 -5 36.5 -5q23 0 57 12q34 12 85 50l18 -53q-32 -22 -56.5 -36.5q-24.5 -14.5 -47.5 -23.5q-23 -9 -46 -12.5q-23 -3.5 -51 -3.5q-30 0 -56.5 10.5q-26.5 10.5 -47 32q-20.5 21.5 -32.5 54.5q-12 33 -12 78q0 61 14 109.5q14 48.5 36.5 85.5q22.5 37 51.5 63.5q29 26.5 58.5 43.5q29.5 17 57.5 25q28 8 49 8q48 0 77.5 -11q29.5 -11 45.5 -27.5q16 -16.5 21 -36q5 -19.5 5 -35.5zt0 0zM393 390q0 18 -15.5 34.5q-15.5 16.5 -60.5 16.5q-12 0 -30 -4.5q-18 -4.5 -38.5 -19q-20.5 -14.5 -41 -42.5q-20.5 -28 -36.5 -75l120 9q19 1 37.5 5.5q18.5 4.5 32.5 13.5q14 9 23 24q9 15 9 38zt0 0zM493 620q0 -32 -18.5 -46.5q-18.5 -14.5 -41.5 -14.5q-26 0 -36.5 14q-10.5 14 -10.5 32q0 24 16 42.5q16 18.5 48 18.5q26 0 34.5 -15q8.5 -15 8.5 -31zt0 0zM339 620q0 -32 -18.5 -46.5q-18.5 -14.5 -41.5 -14.5q-26 0 -36.5 14q-10.5 14 -10.5 32q0 24 16 42.5q16 18.5 48 18.5q26 0 34.5 -15t8.5 -31z" />
<glyph unicode="&#236;" horiz-adv-x="206" d="M109 0h-81l105 492h81zM75 634l60 49l96 -121l-33 -30z" />
<glyph unicode="&#237;" horiz-adv-x="206" d="M109 0h-81l105 492h81zM167 537l-39 18l119 127l75 -40z" />
<glyph unicode="&#238;" horiz-adv-x="206" d="M109 0h-81l105 492h81zM306 544l-102 47l-128 -49l-19 30l159 102l115 -104z" />
<glyph unicode="&#239;" horiz-adv-x="206" d="M109 0h-81l105 492h81zM304 620q0 -32 -17 -46.5q-17 -14.5 -38 -14.5q-23 0 -33 14q-10 14 -10 32q0 24 15 42.5q15 18.5 44 18.5q24 0 31.5 -15q7.5 -15 7.5 -31zt0 0zM184 620q0 -32 -17.5 -46.5q-17.5 -14.5 -37.5 -14.5q-23 0 -33 14q-10 14 -10 32q0 24 14.5 42.5q14.5 18.5 43.5 18.5q24 0 32 -15t8 -31z" />
<glyph unicode="&#240;" horiz-adv-x="507" d="M328 671q-29 17 -61.5 20q-32.5 3 -61.5 4l19 52q38 2 80.5 -4q42.5 -6 81.5 -26l95 69l26 -38l-79 -59q48 -42 73 -98q25 -56 25 -135q0 -101 -18.5 -187.5q-18.5 -86.5 -54.5 -149.5q-36 -63 -88.5 -99q-52.5 -36 -120.5 -36q-34 0 -65 10q-31 10 -54 32q-23 22 -37 55.5q-14 33.5 -14 80.5q0 100 26.5 165q26.5 65 65.5 103.5q39 38.5 83.5 54q44.5 15.5 80.5 15.5q10 0 24.5 -0.5q14.5 -0.5 30 -4q15.5 -3.5 31 -11q15.5 -7.5 28.5 -21.5q0 62 -23.5 107.5q-23.5 45.5 -53.5 70.5l-110 -78l-27 40zM423 266q9 57 3 91.5q-6 34.5 -21 52.5q-15 18 -34.5 24q-19.5 6 -37.5 6q-53 0 -86.5 -30.5q-33.5 -30.5 -52 -73.5q-18.5 -43 -25.5 -88q-7 -45 -7 -74q0 -34 8 -58.5q8 -24.5 21.5 -40.5q13.5 -16 31 -23.5q17.5 -7.5 35.5 -7.5q56 0 101.5 55.5t63.5 166.5z" />
<glyph unicode="&#241;" horiz-adv-x="498" d="M488 409q0 -16 -2 -37.5q-2 -21.5 -7 -41.5l-70 -330h-81l64 303q8 37 8 64q0 26 -11.5 43.5q-11.5 17.5 -46.5 17.5q-26 0 -54 -15q-28 -15 -55.5 -49.5q-27.5 -34.5 -52 -91q-24.5 -56.5 -42.5 -139.5l-29 -133h-81l53 251q16 75 24.5 121q8.5 46 13.5 71q5 29 7 41l81 8l-19 -116h3q28 40 56.5 65q28.5 25 54.5 38q26 13 48.5 17.5q22.5 4.5 39.5 4.5q45 0 71.5 -22q26.5 -22 26.5 -70zt0 0zM514 647q-8 -16 -19.5 -33.5q-11.5 -17.5 -26.5 -32.5q-15 -15 -32.5 -25q-17.5 -10 -36.5 -10q-22 0 -39 9.5q-17 9.5 -40 20.5q-26 14 -41 20.5q-15 6.5 -32 6.5q-16 0 -35.5 -7.5q-19.5 -7.5 -37.5 -36.5l-24 20q8 16 20 31.5q12 15.5 26.5 28q14.5 12.5 32 20.5q17.5 8 36.5 8q22 0 39 -9q17 -9 40 -20q20 -11 36.5 -19.5q16.5 -8.5 36.5 -8.5q19 0 37.5 15q18.5 15 35.5 40z" />
<glyph unicode="&#242;" horiz-adv-x="524" d="M516 328q0 -76 -27 -144q-27 -68 -69 -113q-40 -44 -89 -65.5q-49 -21.5 -98 -21.5q-28 0 -58 7.5q-30 7.5 -55 26.5q-25 19 -41 52.5q-16 33.5 -16 85.5q0 76 27 144q27 68 69 113q40 44 89 65.5q49 21.5 98 21.5q31 0 61.5 -6q30.5 -6 54.5 -24.5q24 -18.5 39 -52.5q15 -34 15 -89zt0 0zM430 318q0 42 -10 67q-10 25 -24.5 37.5q-14.5 12.5 -31 16q-16.5 3.5 -30.5 3.5q-35 0 -66 -19q-31 -19 -56 -54q-26 -37 -44.5 -92q-18.5 -55 -18.5 -111q0 -39 10 -63.5q10 -24.5 24.5 -38q14.5 -13.5 31 -18q16.5 -4.5 30.5 -4.5q33 0 65 19q32 19 57 54q26 37 44.5 92q18.5 55 18.5 111zt0 0zM247 634l60 49l96 -121l-33 -30z" />
<glyph unicode="&#243;" horiz-adv-x="524" d="M516 328q0 -76 -27 -144q-27 -68 -69 -113q-40 -44 -89 -65.5q-49 -21.5 -98 -21.5q-28 0 -58 7.5q-30 7.5 -55 26.5q-25 19 -41 52.5q-16 33.5 -16 85.5q0 76 27 144q27 68 69 113q40 44 89 65.5q49 21.5 98 21.5q31 0 61.5 -6q30.5 -6 54.5 -24.5q24 -18.5 39 -52.5q15 -34 15 -89zt0 0zM430 318q0 42 -10 67q-10 25 -24.5 37.5q-14.5 12.5 -31 16q-16.5 3.5 -30.5 3.5q-35 0 -66 -19q-31 -19 -56 -54q-26 -37 -44.5 -92q-18.5 -55 -18.5 -111q0 -39 10 -63.5q10 -24.5 24.5 -38q14.5 -13.5 31 -18q16.5 -4.5 30.5 -4.5q33 0 65 19q32 19 57 54q26 37 44.5 92q18.5 55 18.5 111zt0 0zM361 537l-39 18l119 127l75 -40z" />
<glyph unicode="&#244;" horiz-adv-x="524" d="M516 328q0 -76 -27 -144q-27 -68 -69 -113q-40 -44 -89 -65.5q-49 -21.5 -98 -21.5q-28 0 -58 7.5q-30 7.5 -55 26.5q-25 19 -41 52.5q-16 33.5 -16 85.5q0 76 27 144q27 68 69 113q40 44 89 65.5q49 21.5 98 21.5q31 0 61.5 -6q30.5 -6 54.5 -24.5q24 -18.5 39 -52.5q15 -34 15 -89zt0 0zM430 318q0 42 -10 67q-10 25 -24.5 37.5q-14.5 12.5 -31 16q-16.5 3.5 -30.5 3.5q-35 0 -66 -19q-31 -19 -56 -54q-26 -37 -44.5 -92q-18.5 -55 -18.5 -111q0 -39 10 -63.5q10 -24.5 24.5 -38q14.5 -13.5 31 -18q16.5 -4.5 30.5 -4.5q33 0 65 19q32 19 57 54q26 37 44.5 92q18.5 55 18.5 111zt0 0zM476 544l-102 47l-128 -49l-19 30l159 102l115 -104z" />
<glyph unicode="&#245;" horiz-adv-x="524" d="M516 328q0 -76 -27 -144q-27 -68 -69 -113q-40 -44 -89 -65.5q-49 -21.5 -98 -21.5q-28 0 -58 7.5q-30 7.5 -55 26.5q-25 19 -41 52.5q-16 33.5 -16 85.5q0 76 27 144q27 68 69 113q40 44 89 65.5q49 21.5 98 21.5q31 0 61.5 -6q30.5 -6 54.5 -24.5q24 -18.5 39 -52.5q15 -34 15 -89zt0 0zM430 318q0 42 -10 67q-10 25 -24.5 37.5q-14.5 12.5 -31 16q-16.5 3.5 -30.5 3.5q-35 0 -66 -19q-31 -19 -56 -54q-26 -37 -44.5 -92q-18.5 -55 -18.5 -111q0 -39 10 -63.5q10 -24.5 24.5 -38q14.5 -13.5 31 -18q16.5 -4.5 30.5 -4.5q33 0 65 19q32 19 57 54q26 37 44.5 92q18.5 55 18.5 111zt0 0zM568 647q-8 -16 -19.5 -33.5q-11.5 -17.5 -26.5 -32.5q-15 -15 -32.5 -25q-17.5 -10 -36.5 -10q-22 0 -39 9.5q-17 9.5 -40 20.5q-26 14 -41 20.5q-15 6.5 -32 6.5q-16 0 -35.5 -7.5q-19.5 -7.5 -37.5 -36.5l-24 20q8 16 20 31.5q12 15.5 26.5 28q14.5 12.5 32 20.5q17.5 8 36.5 8q22 0 39 -9q17 -9 40 -20q20 -11 36.5 -19.5q16.5 -8.5 36.5 -8.5q19 0 37.5 15q18.5 15 35.5 40z" />
<glyph unicode="&#246;" horiz-adv-x="524" d="M516 328q0 -76 -27 -144q-27 -68 -69 -113q-40 -44 -89 -65.5q-49 -21.5 -98 -21.5q-28 0 -58 7.5q-30 7.5 -55 26.5q-25 19 -41 52.5q-16 33.5 -16 85.5q0 76 27 144q27 68 69 113q40 44 89 65.5q49 21.5 98 21.5q31 0 61.5 -6q30.5 -6 54.5 -24.5q24 -18.5 39 -52.5q15 -34 15 -89zt0 0zM430 318q0 42 -10 67q-10 25 -24.5 37.5q-14.5 12.5 -31 16q-16.5 3.5 -30.5 3.5q-35 0 -66 -19q-31 -19 -56 -54q-26 -37 -44.5 -92q-18.5 -55 -18.5 -111q0 -39 10 -63.5q10 -24.5 24.5 -38q14.5 -13.5 31 -18q16.5 -4.5 30.5 -4.5q33 0 65 19q32 19 57 54q26 37 44.5 92q18.5 55 18.5 111zt0 0zM521 620q0 -32 -18.5 -46.5q-18.5 -14.5 -41.5 -14.5q-26 0 -36.5 14q-10.5 14 -10.5 32q0 24 16 42.5q16 18.5 48 18.5q26 0 34.5 -15q8.5 -15 8.5 -31zt0 0zM367 620q0 -32 -18.5 -46.5q-18.5 -14.5 -41.5 -14.5q-26 0 -36.5 14q-10.5 14 -10.5 32q0 24 16 42.5q16 18.5 48 18.5q26 0 34.5 -15t8.5 -31z" />
<glyph unicode="&#247;" horiz-adv-x="625" d="M615 294h-527v53h527zM456 517q0 -29 -17.5 -46q-17.5 -17 -40.5 -17q-23 0 -36.5 14q-13.5 14 -13.5 37q1 29 18 46q17 17 40 17q23 0 36.5 -13.5q13.5 -13.5 13.5 -37.5zt0 0zM392 141q0 -29 -17.5 -46q-17.5 -17 -40.5 -17q-23 0 -36.5 14q-13.5 14 -13.5 37q1 29 18 46q17 17 40 17q23 0 36.5 -14t13.5 -37z" />
<glyph unicode="&#248;" horiz-adv-x="524" d="M516 328q0 -76 -27 -144q-27 -68 -69 -113q-40 -44 -89 -65.5q-49 -21.5 -98 -21.5q-8 0 -14.5 0.5q-6.5 0.5 -14.5 1.5l-31 -73h-46l35 83q-20 7 -38 19q-18 12 -31.5 31.5q-13.5 19.5 -21.5 46.5q-8 27 -8 63q0 76 27 144q27 68 69 113q40 44 89 65.5q49 21.5 98 21.5q7 0 14 0q7 0 14 -1l30 70h47l-33 -78q21 -6 38.5 -17.5q17.5 -11.5 31 -31q13.5 -19.5 21 -47.5q7.5 -28 7.5 -67zt0 0zM430 318q0 46 -11.5 71.5q-11.5 25.5 -28.5 36.5l-162 -383q5 -1 9 -1q4 0 8 0q33 0 65 19q32 19 57 54q26 37 44.5 92q18.5 55 18.5 111zt0 0zM334 442q-35 0 -66 -19q-31 -19 -56 -54q-26 -37 -44.5 -92q-18.5 -55 -18.5 -111q0 -43 11.5 -68q11.5 -25 28.5 -38l161 381q-5 1 -8.5 1t-7.5 0z" />
<glyph unicode="&#249;" horiz-adv-x="506" d="M447 180q-5 -26 -9.5 -56.5q-4.5 -30.5 -7.5 -58.5q-4 -33 -6 -65l-80 0l18 127h-6q-29 -45 -57.5 -72q-28.5 -27 -54.5 -42q-26 -15 -49.5 -20q-23.5 -5 -41.5 -5q-19 0 -37 3q-18 3 -32.5 13.5q-14.5 10.5 -23 30.5q-8.5 20 -8.5 53q0 12 2 26.5q2 14.5 5 30.5l74 347h81l-67 -312q-8 -40 -8 -62q0 -35 15.5 -48q15.5 -13 43.5 -13q37 0 70 29q33 29 59.5 71.5q26.5 42.5 45 90q18.5 47.5 26.5 85.5l34 159h81zM232 634l60 49l96 -121l-33 -30z" />
<glyph unicode="&#250;" horiz-adv-x="506" d="M447 180q-5 -26 -9.5 -56.5q-4.5 -30.5 -7.5 -58.5q-4 -33 -6 -65l-80 0l18 127h-6q-29 -45 -57.5 -72q-28.5 -27 -54.5 -42q-26 -15 -49.5 -20q-23.5 -5 -41.5 -5q-19 0 -37 3q-18 3 -32.5 13.5q-14.5 10.5 -23 30.5q-8.5 20 -8.5 53q0 12 2 26.5q2 14.5 5 30.5l74 347h81l-67 -312q-8 -40 -8 -62q0 -35 15.5 -48q15.5 -13 43.5 -13q37 0 70 29q33 29 59.5 71.5q26.5 42.5 45 90q18.5 47.5 26.5 85.5l34 159h81zM332 537l-39 18l119 127l75 -40z" />
<glyph unicode="&#251;" horiz-adv-x="506" d="M447 180q-5 -26 -9.5 -56.5q-4.5 -30.5 -7.5 -58.5q-4 -33 -6 -65l-80 0l18 127h-6q-29 -45 -57.5 -72q-28.5 -27 -54.5 -42q-26 -15 -49.5 -20q-23.5 -5 -41.5 -5q-19 0 -37 3q-18 3 -32.5 13.5q-14.5 10.5 -23 30.5q-8.5 20 -8.5 53q0 12 2 26.5q2 14.5 5 30.5l74 347h81l-67 -312q-8 -40 -8 -62q0 -35 15.5 -48q15.5 -13 43.5 -13q37 0 70 29q33 29 59.5 71.5q26.5 42.5 45 90q18.5 47.5 26.5 85.5l34 159h81zM449 544l-102 47l-128 -49l-19 30l159 102l115 -104z" />
<glyph unicode="&#252;" horiz-adv-x="506" d="M447 180q-5 -26 -9.5 -56.5q-4.5 -30.5 -7.5 -58.5q-4 -33 -6 -65l-80 0l18 127h-6q-29 -45 -57.5 -72q-28.5 -27 -54.5 -42q-26 -15 -49.5 -20q-23.5 -5 -41.5 -5q-19 0 -37 3q-18 3 -32.5 13.5q-14.5 10.5 -23 30.5q-8.5 20 -8.5 53q0 12 2 26.5q2 14.5 5 30.5l74 347h81l-67 -312q-8 -40 -8 -62q0 -35 15.5 -48q15.5 -13 43.5 -13q37 0 70 29q33 29 59.5 71.5q26.5 42.5 45 90q18.5 47.5 26.5 85.5l34 159h81zM471 620q0 -32 -18.5 -46.5q-18.5 -14.5 -41.5 -14.5q-26 0 -36.5 14q-10.5 14 -10.5 32q0 24 16 42.5q16 18.5 48 18.5q26 0 34.5 -15q8.5 -15 8.5 -31zt0 0zM317 620q0 -32 -18.5 -46.5q-18.5 -14.5 -41.5 -14.5q-26 0 -36.5 14q-10.5 14 -10.5 32q0 24 16 42.5q16 18.5 48 18.5q26 0 34.5 -15t8.5 -31z" />
<glyph unicode="&#253;" horiz-adv-x="457" d="M506 492q-13 -33 -29 -69q-14 -31 -31 -69.5q-17 -38.5 -37 -79.5q-22 -45 -39.5 -80.5q-17.5 -35.5 -35 -68.5q-17.5 -33 -37 -68q-19.5 -35 -45.5 -79q-28 -47 -54 -84q-26 -37 -54 -62.5q-28 -25.5 -59 -38.5q-31 -13 -68 -13q-14 0 -35 3.5q-21 3.5 -33 10.5l31 72q8 -3 19 -5q9 -2 20.5 -3q11.5 -1 25.5 -1q23 0 47.5 7.5q24.5 7.5 41.5 32.5q11 16 18.5 38q7.5 22 7.5 43q0 51 -9 122q-9 71 -21 152q-13 85 -25.5 150q-12.5 65 -20.5 90l91 0q6 -23 13 -67q7 -44 17 -111q11 -74 18.5 -145q7.5 -71 12.5 -120q18 32 34 63q16 31 32 64q16 33 31.5 71q15.5 38 31.5 83q17 47 30.5 88.5q13.5 41.5 21.5 73.5l89 0zM298 537l-39 18l119 127l75 -40z" />
<glyph unicode="&#254;" horiz-adv-x="520" d="M411 311q0 33 -7.5 56.5q-7.5 23.5 -20.5 38.5q-13 15 -30 21.5q-17 6.5 -35 6.5q-61 0 -98.5 -45.5q-37.5 -45.5 -55.5 -129.5l-27 -126q-5 -22 -5 -33q0 -53 92 -53q37 0 70.5 17q33.5 17 59.5 50.5q26 33.5 41.5 83q15.5 49.5 15.5 113.5zt0 0zM194 422q10 13 25.5 26.5q15.5 13.5 35.5 25q20 11.5 45.5 19q25.5 7.5 54.5 7.5q28 0 54 -9.5q26 -9.5 45.5 -30q19.5 -20.5 31 -52q11.5 -31.5 11.5 -76.5q0 -90 -27 -154.5q-27 -64.5 -68 -106q-41 -41.5 -88.5 -61.5q-47.5 -20 -89.5 -20q-42 0 -67.5 7q-25.5 7 -44.5 18l-51 -240h-81l201 943l81 0z" />
<glyph unicode="&#255;" horiz-adv-x="457" d="M506 492q-13 -33 -29 -69q-14 -31 -31 -69.5q-17 -38.5 -37 -79.5q-22 -45 -39.5 -80.5q-17.5 -35.5 -35 -68.5q-17.5 -33 -37 -68q-19.5 -35 -45.5 -79q-28 -47 -54 -84q-26 -37 -54 -62.5q-28 -25.5 -59 -38.5q-31 -13 -68 -13q-14 0 -35 3.5q-21 3.5 -33 10.5l31 72q8 -3 19 -5q9 -2 20.5 -3q11.5 -1 25.5 -1q23 0 47.5 7.5q24.5 7.5 41.5 32.5q11 16 18.5 38q7.5 22 7.5 43q0 51 -9 122q-9 71 -21 152q-13 85 -25.5 150q-12.5 65 -20.5 90l91 0q6 -23 13 -67q7 -44 17 -111q11 -74 18.5 -145q7.5 -71 12.5 -120q18 32 34 63q16 31 32 64q16 33 31.5 71q15.5 38 31.5 83q17 47 30.5 88.5q13.5 41.5 21.5 73.5l89 0zM449 620q0 -32 -18.5 -46.5q-18.5 -14.5 -41.5 -14.5q-26 0 -36.5 14q-10.5 14 -10.5 32q0 24 16 42.5q16 18.5 48 18.5q26 0 34.5 -15q8.5 -15 8.5 -31zt0 0zM295 620q0 -32 -18.5 -46.5q-18.5 -14.5 -41.5 -14.5q-26 0 -36.5 14q-10.5 14 -10.5 32q0 24 16 42.5q16 18.5 48 18.5q26 0 34.5 -15t8.5 -31z" />
<glyph unicode="&#256;" horiz-adv-x="550" d="M414 0l-17 240h-228l-127 -240h-85l406 717h77l65 -717zM370 616l-173 -322h196zM269 779v55h271l0 -55z" />
<glyph unicode="&#257;" horiz-adv-x="531" d="M457 152q-8 -33 -12 -56.5q-4 -23.5 -5.5 -40q-1.5 -16.5 -2 -28.5q-0.5 -12 -0.5 -23v-4h-72v4q1 26 2 51q1 25 3 42l-5 0q-42 -61 -84.5 -84q-42.5 -23 -89.5 -23q-23 0 -46 8.5q-23 8.5 -42 28q-19 19.5 -31 51.5q-12 32 -12 80q0 78 28 148.5q28 70.5 76 116.5q38 38 83.5 57.5q45.5 19.5 90.5 19.5q26 0 44.5 -3.5q18.5 -3.5 31.5 -9.5q13 -6 21.5 -13q8.5 -7 14.5 -14l29 31h56zM421 379q0 10 -3.5 21.5q-3.5 11.5 -12.5 21.5q-9 10 -25 16.5q-16 6.5 -42 6.5q-38 0 -68.5 -15.5q-30.5 -15.5 -59.5 -55.5q-12 -16 -23.5 -39q-11.5 -23 -20 -49.5q-8.5 -26.5 -13.5 -56q-5 -29.5 -5 -57.5q0 -38 9.5 -60q9.5 -22 23 -33q13.5 -11 28.5 -14q15 -3 26 -3q27 0 52.5 15.5q25.5 15.5 47.5 43.5q22 28 39 65.5q17 37.5 27 82.5l15 70q5 22 5 40zt0 0zM262 590v55h271l0 -55z" />
<glyph unicode="&#258;" horiz-adv-x="550" d="M414 0l-17 240h-228l-127 -240h-85l406 717h77l65 -717zM370 616l-173 -322h196zM572 879q-9 -32 -25.5 -55q-16.5 -23 -37 -38q-20.5 -15 -43.5 -22q-23 -7 -46 -7q-22 0 -41.5 5q-19.5 5 -34 16q-14.5 11 -23 27.5q-8.5 16.5 -8.5 39.5q0 17 4 34l45 0q-1 -4 -1 -8q0 -4 0 -7q0 -22 21 -34q21 -12 50 -12q27 0 54 14.5q27 14.5 41 46.5l45 0z" />
<glyph unicode="&#259;" horiz-adv-x="531" d="M457 152q-8 -33 -12 -56.5q-4 -23.5 -5.5 -40q-1.5 -16.5 -2 -28.5q-0.5 -12 -0.5 -23v-4h-72v4q1 26 2 51q1 25 3 42l-5 0q-42 -61 -84.5 -84q-42.5 -23 -89.5 -23q-23 0 -46 8.5q-23 8.5 -42 28q-19 19.5 -31 51.5q-12 32 -12 80q0 78 28 148.5q28 70.5 76 116.5q38 38 83.5 57.5q45.5 19.5 90.5 19.5q26 0 44.5 -3.5q18.5 -3.5 31.5 -9.5q13 -6 21.5 -13q8.5 -7 14.5 -14l29 31h56zM421 379q0 10 -3.5 21.5q-3.5 11.5 -12.5 21.5q-9 10 -25 16.5q-16 6.5 -42 6.5q-38 0 -68.5 -15.5q-30.5 -15.5 -59.5 -55.5q-12 -16 -23.5 -39q-11.5 -23 -20 -49.5q-8.5 -26.5 -13.5 -56q-5 -29.5 -5 -57.5q0 -38 9.5 -60q9.5 -22 23 -33q13.5 -11 28.5 -14q15 -3 26 -3q27 0 52.5 15.5q25.5 15.5 47.5 43.5q22 28 39 65.5q17 37.5 27 82.5l15 70q5 22 5 40zt0 0zM548 688q-9 -32 -25.5 -55q-16.5 -23 -37 -38q-20.5 -15 -43.5 -22q-23 -7 -46 -7q-22 0 -41.5 5q-19.5 5 -34 16q-14.5 11 -23 27.5q-8.5 16.5 -8.5 39.5q0 17 4 34l45 0q-1 -4 -1 -8q0 -4 0 -7q0 -22 21 -34q21 -12 50 -12q27 0 54 14.5q27 14.5 41 46.5l45 0z" />
<glyph unicode="&#260;" horiz-adv-x="550" d="M486 0q-14 -10 -28.5 -22q-14.5 -12 -26.5 -26.5q-12 -14.5 -20 -30.5q-8 -16 -8 -34q0 -20 12 -28.5q12 -8.5 29 -8.5q19 0 30.5 5q11.5 5 23.5 11l7 -31q-16 -12 -42 -25.5q-26 -13.5 -60 -13.5q-42 0 -61.5 19.5q-19.5 19.5 -19.5 44.5q0 21 9 41q9 20 24 38q15 18 34.5 33.5q19.5 15.5 39.5 27.5l-15 0l-17 240h-228l-127 -240h-85l406 717h77l65 -717zM370 616l-173 -322l196 0z" />
<glyph unicode="&#261;" horiz-adv-x="531" d="M437 0q-17 -8 -32.5 -20q-15.5 -12 -27.5 -27q-12 -15 -19 -31.5q-7 -16.5 -7 -34.5q0 -20 12 -28.5q12 -8.5 29 -8.5q19 0 30.5 5q11.5 5 23.5 11l7 -31q-16 -12 -42 -25.5q-26 -13.5 -60 -13.5q-42 0 -61.5 19.5q-19.5 19.5 -19.5 44.5q0 22 11 42.5q11 20.5 28 38.5q17 18 37 33q20 15 39 26l-20 0v4q1 26 2 51q1 25 3 42l-5 0q-42 -61 -84.5 -84q-42.5 -23 -89.5 -23q-23 0 -46 8.5q-23 8.5 -42 28q-19 19.5 -31 51.5q-12 32 -12 80q0 78 28 148.5q28 70.5 76 116.5q38 38 83.5 57.5q45.5 19.5 90.5 19.5q26 0 45 -4q19 -4 32 -10q13 -6 21.5 -13q8.5 -7 13.5 -13l29 31h56l-78 -339q-8 -33 -12 -56.5q-4 -23.5 -5.5 -40q-1.5 -16.5 -2 -28.5q-0.5 -12 -0.5 -23zM421 379q0 10 -3.5 21.5q-3.5 11.5 -12.5 21.5q-9 10 -25 16.5q-16 6.5 -42 6.5q-38 0 -68.5 -15.5q-30.5 -15.5 -59.5 -55.5q-12 -16 -23.5 -39q-11.5 -23 -20 -49.5q-8.5 -26.5 -13.5 -56q-5 -29.5 -5 -57.5q0 -38 9.5 -60q9.5 -22 23 -33q13.5 -11 28.5 -14q15 -3 26 -3q27 0 52.5 15.5q25.5 15.5 47.5 43.5q22 28 39 65.5q17 37.5 27 82.5l15 70q5 22 5 40z" />
<glyph unicode="&#262;" horiz-adv-x="558" d="M558 593q-18 32 -54 50q-36 18 -78 18q-19 0 -40.5 -3.5q-21.5 -3.5 -44.5 -14.5q-23 -11 -48 -32q-25 -21 -50 -55q-18 -24 -34 -56.5q-16 -32.5 -28.5 -70.5q-12.5 -38 -20 -79q-7.5 -41 -7.5 -82q0 -64 14 -105q14 -41 37 -64q23 -23 52 -32q29 -9 58 -9q18 0 39.5 4.5q21.5 4.5 44.5 13q23 8.5 45.5 20.5q22.5 12 40.5 28l16 -55q-56 -48 -111.5 -66q-55.5 -18 -109.5 -18q-38 0 -76.5 13q-38.5 13 -69.5 43q-31 30 -50.5 79q-19.5 49 -19.5 122q0 59 9.5 111q9.5 52 26 96.5q16.5 44.5 38.5 81.5q22 37 47 66q37 43 75.5 68.5q38.5 25.5 72.5 39q34 13.5 62 17q28 3.5 46 3.5q19 0 41.5 -2q22.5 -2 45.5 -9q23 -7 46 -19.5q23 -12.5 42 -34.5zM425 751l-39 18l119 127l75 -40z" />
<glyph unicode="&#263;" horiz-adv-x="435" d="M428 382q-17 23 -44 41q-27 18 -59 18q-12 0 -26 -1q-14 -1 -30 -7q-16 -6 -32.5 -18q-16.5 -12 -33.5 -33q-25 -32 -43.5 -81q-18.5 -49 -18.5 -113q0 -36 8.5 -61q8.5 -25 22.5 -40.5q14 -15.5 33 -22.5q19 -7 39 -7q23 0 57 12q34 12 85 50l18 -53q-32 -22 -56.5 -36.5q-24.5 -14.5 -47.5 -23.5q-23 -9 -46 -12.5q-23 -3.5 -51 -3.5q-30 0 -56.5 11q-26.5 11 -47 33.5q-20.5 22.5 -32.5 56.5q-12 34 -12 81q0 46 7.5 83.5q7.5 37.5 20.5 68q13 30.5 30.5 55.5q17.5 25 37.5 46q23 24 48.5 39q25.5 15 50 23q24.5 8 46 10.5q21.5 2.5 36.5 2.5q34 0 69.5 -8q35.5 -8 65.5 -37zM323 537l-39 18l119 127l75 -40z" />
<glyph unicode="&#266;" horiz-adv-x="558" d="M558 593q-18 32 -54 50q-36 18 -78 18q-19 0 -40.5 -3.5q-21.5 -3.5 -44.5 -14.5q-23 -11 -48 -32q-25 -21 -50 -55q-18 -24 -34 -56.5q-16 -32.5 -28.5 -70.5q-12.5 -38 -20 -79q-7.5 -41 -7.5 -82q0 -64 14 -105q14 -41 37 -64q23 -23 52 -32q29 -9 58 -9q18 0 39.5 4.5q21.5 4.5 44.5 13q23 8.5 45.5 20.5q22.5 12 40.5 28l16 -55q-56 -48 -111.5 -66q-55.5 -18 -109.5 -18q-38 0 -76.5 13q-38.5 13 -69.5 43q-31 30 -50.5 79q-19.5 49 -19.5 122q0 59 9.5 111q9.5 52 26 96.5q16.5 44.5 38.5 81.5q22 37 47 66q37 43 75.5 68.5q38.5 25.5 72.5 39q34 13.5 62 17q28 3.5 46 3.5q19 0 41.5 -2q22.5 -2 45.5 -9q23 -7 46 -19.5q23 -12.5 42 -34.5zM510 846q0 -32 -18.5 -46.5q-18.5 -14.5 -41.5 -14.5q-26 0 -36.5 14q-10.5 14 -10.5 32q0 24 16 42.5q16 18.5 48 18.5q26 0 34.5 -15t8.5 -31z" />
<glyph unicode="&#267;" horiz-adv-x="435" d="M428 382q-17 23 -44 41q-27 18 -59 18q-12 0 -26 -1q-14 -1 -30 -7q-16 -6 -32.5 -18q-16.5 -12 -33.5 -33q-25 -32 -43.5 -81q-18.5 -49 -18.5 -113q0 -36 8.5 -61q8.5 -25 22.5 -40.5q14 -15.5 33 -22.5q19 -7 39 -7q23 0 57 12q34 12 85 50l18 -53q-32 -22 -56.5 -36.5q-24.5 -14.5 -47.5 -23.5q-23 -9 -46 -12.5q-23 -3.5 -51 -3.5q-30 0 -56.5 11q-26.5 11 -47 33.5q-20.5 22.5 -32.5 56.5q-12 34 -12 81q0 46 7.5 83.5q7.5 37.5 20.5 68q13 30.5 30.5 55.5q17.5 25 37.5 46q23 24 48.5 39q25.5 15 50 23q24.5 8 46 10.5q21.5 2.5 36.5 2.5q34 0 69.5 -8q35.5 -8 65.5 -37zM420 616q0 -32 -18.5 -46.5q-18.5 -14.5 -41.5 -14.5q-26 0 -36.5 14q-10.5 14 -10.5 32q0 24 16 42.5q16 18.5 48 18.5q26 0 34.5 -15t8.5 -31z" />
<glyph unicode="&#268;" horiz-adv-x="558" d="M558 593q-18 32 -54 50q-36 18 -78 18q-19 0 -40.5 -3.5q-21.5 -3.5 -44.5 -14.5q-23 -11 -48 -32q-25 -21 -50 -55q-18 -24 -34 -56.5q-16 -32.5 -28.5 -70.5q-12.5 -38 -20 -79q-7.5 -41 -7.5 -82q0 -64 14 -105q14 -41 37 -64q23 -23 52 -32q29 -9 58 -9q18 0 39.5 4.5q21.5 4.5 44.5 13q23 8.5 45.5 20.5q22.5 12 40.5 28l16 -55q-56 -48 -111.5 -66q-55.5 -18 -109.5 -18q-38 0 -76.5 13q-38.5 13 -69.5 43q-31 30 -50.5 79q-19.5 49 -19.5 122q0 59 9.5 111q9.5 52 26 96.5q16.5 44.5 38.5 81.5q22 37 47 66q37 43 75.5 68.5q38.5 25.5 72.5 39q34 13.5 62 17q28 3.5 46 3.5q19 0 41.5 -2q22.5 -2 45.5 -9q23 -7 46 -19.5q23 -12.5 42 -34.5zM352 883l102 -47l128 49l19 -30l-159 -102l-115 104z" />
<glyph unicode="&#269;" horiz-adv-x="435" d="M428 382q-17 23 -44 41q-27 18 -59 18q-12 0 -26 -1q-14 -1 -30 -7q-16 -6 -32.5 -18q-16.5 -12 -33.5 -33q-25 -32 -43.5 -81q-18.5 -49 -18.5 -113q0 -36 8.5 -61q8.5 -25 22.5 -40.5q14 -15.5 33 -22.5q19 -7 39 -7q23 0 57 12q34 12 85 50l18 -53q-32 -22 -56.5 -36.5q-24.5 -14.5 -47.5 -23.5q-23 -9 -46 -12.5q-23 -3.5 -51 -3.5q-30 0 -56.5 11q-26.5 11 -47 33.5q-20.5 22.5 -32.5 56.5q-12 34 -12 81q0 46 7.5 83.5q7.5 37.5 20.5 68q13 30.5 30.5 55.5q17.5 25 37.5 46q23 24 48.5 39q25.5 15 50 23q24.5 8 46 10.5q21.5 2.5 36.5 2.5q34 0 69.5 -8q35.5 -8 65.5 -37zM226 674l102 -47l128 49l19 -30l-159 -102l-115 104z" />
<glyph unicode="&#270;" horiz-adv-x="606" d="M608 468q0 -101 -29.5 -177q-29.5 -76 -74.5 -135q-33 -44 -73 -74q-40 -30 -84 -48q-44 -18 -91.5 -26q-47.5 -8 -95.5 -8h-137l151 706q26 5 67.5 9.5q41.5 4.5 93.5 4.5q19 0 47 -3q28 -3 58.5 -11.5q30.5 -8.5 60.5 -25.5q30 -17 53.5 -45q23.5 -28 38.5 -69q15 -41 15 -98zt0 0zM518 463q0 48 -12.5 81q-12.5 33 -32 54.5q-19.5 21.5 -43 33.5q-23.5 12 -45 17.5q-21.5 5.5 -39.5 6.5q-18 1 -25 1q-23 0 -42.5 -2q-19.5 -2 -30.5 -4l-125 -587h54q89 0 155.5 34.5q66.5 34.5 110.5 97.5q35 50 55 117.5q20 67.5 20 149.5zt0 0zM245 883l102 -47l128 49l19 -30l-159 -102l-115 104z" />
<glyph unicode="&#271;" horiz-adv-x="611" d="M451 152q-8 -35 -12 -58.5q-4 -23.5 -5.5 -40.5q-1.5 -17 -2 -29q-0.5 -12 -0.5 -24l-72 0q1 26 2 52.5q1 26.5 3 44.5l-5 0q-45 -60 -88.5 -83.5q-43.5 -23.5 -85.5 -23.5q-23 0 -46 8.5q-23 8.5 -41.5 28q-18.5 19.5 -30.5 51.5q-12 32 -12 80q0 78 27.5 148.5q27.5 70.5 75.5 116.5q38 38 83.5 57.5q45.5 19.5 90.5 19.5q28 0 58 -9.5q30 -9.5 47 -30.5l54 255h79zM414 379q0 10 -4.5 21.5q-4.5 11.5 -14.5 21q-10 9.5 -26.5 16q-16.5 6.5 -41.5 6.5q-32 0 -63.5 -15q-31.5 -15 -60.5 -55q-12 -16 -23.5 -39q-11.5 -23 -20 -49.5q-8.5 -26.5 -13.5 -56q-5 -29.5 -5 -57.5q0 -38 9.5 -60q9.5 -22 23 -33q13.5 -11 28.5 -14q15 -3 26 -3q27 0 53 19q26 19 48.5 48.5q22.5 29.5 39.5 66.5q17 37 25 73l15 70q5 22 5 40zt0 0zM700 727q14 -19 14 -56q0 -41 -20 -84.5q-20 -43.5 -55 -73.5l-18 14q11 21 17 46.5q6 25.5 6 49.5q0 20 -6 33q-6 13 -14 24z" />
<glyph unicode="&#272;" horiz-adv-x="606" d="M608 468q0 -101 -29.5 -177q-29.5 -76 -74.5 -135q-33 -44 -73 -74q-40 -30 -84 -48q-44 -18 -91.5 -26q-47.5 -8 -95.5 -8h-137l72 336h-74l13 63h74l66 307q26 5 67.5 9.5q41.5 4.5 93.5 4.5q19 0 47 -3q28 -3 58.5 -11.5q30.5 -8.5 60.5 -25.5q30 -17 53.5 -45q23.5 -28 38.5 -69q15 -41 15 -98zt0 0zM181 336l-58 -272h54q89 0 155.5 34.5q66.5 34.5 110.5 97.5q35 50 55 117.5q20 67.5 20 149.5q0 48 -12.5 81q-12.5 33 -32 54.5q-19.5 21.5 -43 33.5q-23.5 12 -45 17.5q-21.5 5.5 -39.5 6.5q-18 1 -25 1q-23 0 -42.5 -2q-19.5 -2 -30.5 -4l-54 -252h75l-13 -63z" />
<glyph unicode="&#273;" horiz-adv-x="530" d="M542 585l-91 -433q-8 -35 -12 -58.5q-4 -23.5 -5.5 -40.5q-1.5 -17 -2 -29q-0.5 -12 -0.5 -24l-72 0q1 26 2 52.5q1 26.5 3 44.5l-5 0q-45 -60 -88.5 -83.5q-43.5 -23.5 -85.5 -23.5q-23 0 -46 8.5q-23 8.5 -41.5 28q-18.5 19.5 -30.5 51.5q-12 32 -12 80q0 78 27.5 148.5q27.5 70.5 75.5 116.5q38 38 83.5 57.5q45.5 19.5 90.5 19.5q28 0 58 -9.5q30 -9.5 47 -30.5l26 125h-67l14 55h65l16 75h79l-16 -75h61l-14 -55zM414 379q0 10 -4.5 21.5q-4.5 11.5 -14.5 21q-10 9.5 -26.5 16q-16.5 6.5 -41.5 6.5q-32 0 -63.5 -15q-31.5 -15 -60.5 -55q-12 -16 -23.5 -39q-11.5 -23 -20 -49.5q-8.5 -26.5 -13.5 -56q-5 -29.5 -5 -57.5q0 -38 9.5 -60q9.5 -22 23 -33q13.5 -11 28.5 -14q15 -3 26 -3q27 0 53 19q26 19 48.5 48.5q22.5 29.5 39.5 66.5q17 37 25 73l15 70q5 22 5 40z" />
<glyph unicode="&#274;" horiz-adv-x="450" d="M506 653h-258l-51 -241h213l-13 -60h-213l-61 -288h266l-14 -64h-352l152 717h344zM240 779v55h271l0 -55z" />
<glyph unicode="&#275;" horiz-adv-x="458" d="M478 390q0 -64 -44 -95q-44 -31 -124 -36l-153 -10q-3 -9 -5 -19q-2 -8 -3 -18q-1 -10 -1 -21q0 -43 9 -69q9 -26 24 -40.5q15 -14.5 33.5 -19.5q18.5 -5 36.5 -5q23 0 57 12q34 12 85 50l18 -53q-32 -22 -56.5 -36.5q-24.5 -14.5 -47.5 -23.5q-23 -9 -46 -12.5q-23 -3.5 -51 -3.5q-30 0 -56.5 10.5q-26.5 10.5 -47 32q-20.5 21.5 -32.5 54.5q-12 33 -12 78q0 61 14 109.5q14 48.5 36.5 85.5q22.5 37 51.5 63.5q29 26.5 58.5 43.5q29.5 17 57.5 25q28 8 49 8q48 0 77.5 -11q29.5 -11 45.5 -27.5q16 -16.5 21 -36q5 -19.5 5 -35.5zt0 0zM393 390q0 18 -15.5 34.5q-15.5 16.5 -60.5 16.5q-12 0 -30 -4.5q-18 -4.5 -38.5 -19q-20.5 -14.5 -41 -42.5q-20.5 -28 -36.5 -75l120 9q19 1 37.5 5.5q18.5 4.5 32.5 13.5q14 9 23 24q9 15 9 38zt0 0zM207 590v55h271l0 -55z" />
<glyph unicode="&#278;" horiz-adv-x="450" d="M506 653h-258l-51 -241h213l-13 -60h-213l-61 -288h266l-14 -64h-352l152 717h344zM411 846q0 -32 -18.5 -46.5q-18.5 -14.5 -41.5 -14.5q-26 0 -36.5 14q-10.5 14 -10.5 32q0 24 16 42.5q16 18.5 48 18.5q26 0 34.5 -15t8.5 -31z" />
</font>
</defs>
</svg>
